<?xml version="1.0" encoding="utf-8"?>
<!-- Generator: Adobe Illustrator 27.7.0, SVG Export Plug-In . SVG Version: 6.00 Build 0)  -->
<svg version="1.1" id="Layer_1" xmlns="http://www.w3.org/2000/svg" xmlns:xlink="http://www.w3.org/1999/xlink" x="0px" y="0px"
	 viewBox="0 0 64 64" style="enable-background:new 0 0 64 64;" xml:space="preserve">
<style type="text/css">
	.st0{fill:#FFC612;stroke:#FFFFFF;stroke-miterlimit:10;}
	.st1{fill:none;stroke:#FFFFFF;stroke-miterlimit:10;}
</style>
<path class="st0" d="M54.9,39.4c0-0.9-0.1-1.7-0.2-2.5l4.3-3.1c-0.3-1.1-0.8-2.2-1.3-3.2l-5.3,0.9c-1-1.4-2.2-2.6-3.6-3.6l0.9-5.3
	c-1-0.5-2.1-1-3.2-1.3l-3.1,4.3c-0.8-0.1-1.7-0.2-2.5-0.2s-1.7,0.1-2.5,0.2l-3.1-4.3c-1.1,0.3-2.2,0.8-3.2,1.3l0.9,5.3
	c-1.4,1-2.6,2.2-3.6,3.6l-5.3-0.9c-0.5,1-1,2.1-1.3,3.2l4.3,3.1c-0.1,0.8-0.2,1.7-0.2,2.5s0.1,1.7,0.2,2.5L22.8,45
	c0.3,1.1,0.8,2.2,1.3,3.2l5.3-0.9c1,1.4,2.2,2.6,3.6,3.6l-0.9,5.3c1,0.5,2.1,1,3.2,1.3l3.1-4.3c0.8,0.2,1.7,0.2,2.5,0.2
	s1.7-0.1,2.5-0.2l3.1,4.3c1.1-0.3,2.2-0.8,3.2-1.3l-0.9-5.3c1.4-1,2.6-2.2,3.6-3.6l5.3,0.9c0.5-1,1-2.1,1.3-3.2l-4.3-3.1
	C54.8,41.1,54.9,40.2,54.9,39.4z M40.9,46.1c-3.7,0-6.8-3-6.8-6.8s3-6.8,6.8-6.8s6.8,3,6.8,6.8S44.6,46.1,40.9,46.1z"/>
<path class="st1" d="M20.9,35.4L19,31.8c-0.6,0-1.2,0-1.9-0.1s-1.2-0.2-1.8-0.5l-2.8,2.9c-0.8-0.4-1.5-0.8-2.2-1.3l1.2-3.8
	c-0.9-0.9-1.7-1.9-2.2-3l-4,0.1c-0.3-0.8-0.5-1.6-0.6-2.5l3.5-1.8c0-0.6,0-1.2,0.1-1.9s0.2-1.2,0.4-1.8l-2.9-2.8
	c0.4-0.8,0.8-1.5,1.3-2.2l3.8,1.2c0.9-0.9,1.9-1.7,3-2.2L14,8c0.8-0.3,1.6-0.5,2.5-0.6l1.8,3.5c0.6,0,1.2,0,1.9,0.1s1.2,0.2,1.8,0.4
	l2.8-2.9C25.6,9,26.3,9.5,27,10l-1.2,3.8c0.9,0.9,1.7,1.9,2.2,3l4-0.1c0.3,0.8,0.5,1.6,0.6,2.5L29.1,21c0,0.6,0,1.2-0.1,1.9
	s-0.2,1.2-0.5,1.8l2.2,2.1"/>
<circle class="st1" cx="18.7" cy="21.4" r="5"/>
</svg>
