<svg width="64" height="64" viewBox="0 0 64 64" fill="none" xmlns="http://www.w3.org/2000/svg">
<path fill-rule="evenodd" clip-rule="evenodd" d="M17.0294 8.97464C13.1897 10.8073 11.0281 13.2416 11.0281 15.7666C11.0281 18.2915 13.1897 20.7258 17.0294 22.5585C20.8321 24.3735 26.1207 25.5099 31.9895 25.5099C37.8582 25.5099 43.1468 24.3735 46.9496 22.5585C50.7892 20.7258 52.9508 18.2915 52.9508 15.7666C52.9508 13.2416 50.7892 10.8073 46.9496 8.97464C43.1468 7.15961 37.8582 6.02319 31.9895 6.02319C26.1207 6.02319 20.8321 7.15961 17.0294 8.97464ZM16.5986 8.07217C20.5633 6.17983 26.0054 5.02319 31.9895 5.02319C37.9735 5.02319 43.4156 6.17983 47.3803 8.07217C51.3081 9.94688 53.9508 12.6342 53.9508 15.7666C53.9508 18.8989 51.3081 21.5862 47.3803 23.4609C43.4156 25.3533 37.9735 26.5099 31.9895 26.5099C26.0054 26.5099 20.5633 25.3533 16.5986 23.4609C12.6708 21.5862 10.0281 18.8989 10.0281 15.7666C10.0281 12.6342 12.6708 9.94688 16.5986 8.07217Z" fill="black"/>
<path fill-rule="evenodd" clip-rule="evenodd" d="M12.5807 36.3475V45.6087L12.4171 45.7575C11.8475 46.2755 11.5013 46.9127 11.2972 47.4327C11.1958 47.691 11.1315 47.915 11.093 48.0725C11.0737 48.1511 11.061 48.2126 11.0534 48.2529C11.0519 48.2608 11.0505 48.2678 11.0494 48.274C11.0724 50.7861 13.232 53.2042 17.0514 55.0266C20.8545 56.8413 26.1431 57.9769 32.0106 57.9769C37.8781 57.9769 43.1667 56.8413 46.9698 55.0266C50.8097 53.1944 52.9719 50.7601 52.9719 48.2335H53.9719C53.9719 51.3675 51.3286 54.0548 47.4004 55.9292C43.4354 57.8211 37.9933 58.9769 32.0106 58.9769C26.0279 58.9769 20.5858 57.8211 16.6208 55.9292C12.6926 54.0548 10.0492 51.3675 10.0492 48.2335V48.1974L10.0544 48.1617L10.5492 48.2335C10.0544 48.1617 10.0544 48.1617 10.0544 48.1617L10.0546 48.1601L10.055 48.1579L10.0559 48.1517L10.0591 48.1321C10.0618 48.116 10.0657 48.0936 10.071 48.0657C10.0817 48.0099 10.098 47.9314 10.1217 47.8347C10.1689 47.6417 10.2459 47.374 10.3663 47.0673C10.587 46.5051 10.9607 45.7936 11.5807 45.1737V36.3475H12.5807Z" fill="black"/>
<path fill-rule="evenodd" clip-rule="evenodd" d="M11.5807 28.6342V19.7111H12.5807V29.0045L12.4546 29.146L12.4523 29.1485L12.4406 29.1622C12.4296 29.1751 12.4124 29.1957 12.39 29.2234C12.3451 29.2789 12.2794 29.363 12.2009 29.4725C12.0434 29.692 11.836 30.0107 11.6393 30.403C11.243 31.1936 10.9087 32.246 11.0694 33.3776C11.3808 35.571 13.6517 38.4844 22.5288 40.2516L22.3335 41.2323C13.393 39.4525 10.4887 36.402 10.0793 33.5182C9.87952 32.1111 10.2984 30.8466 10.7454 29.9549C10.9703 29.5061 11.2071 29.1423 11.3884 28.8896C11.4631 28.7855 11.5287 28.6998 11.5807 28.6342Z" fill="black"/>
<path fill-rule="evenodd" clip-rule="evenodd" d="M52.4194 45.1737V36.3475H51.4194V45.6087L51.583 45.7575C52.1526 46.2755 52.4987 46.9127 52.7029 47.4327C52.8043 47.691 52.8685 47.915 52.9071 48.0725C52.9263 48.1511 52.939 48.2126 52.9467 48.2529C52.9482 48.2608 52.9495 48.2678 52.9506 48.274C52.9276 50.7861 50.7681 53.2042 46.9487 55.0266C43.1456 56.8413 37.857 57.9769 31.9895 57.9769C26.122 57.9769 20.8334 56.8413 17.0303 55.0266C13.1903 53.1944 11.0281 50.7601 11.0281 48.2335H10.0281C10.0281 51.3675 12.6715 54.0548 16.5996 55.9292C20.5647 57.8211 26.0067 58.9769 31.9895 58.9769C37.9722 58.9769 43.4142 57.8211 47.3793 55.9292C51.3075 54.0548 53.9508 51.3675 53.9508 48.2335V48.1974L53.9456 48.1617L53.4508 48.2335C53.9456 48.1617 53.9456 48.1617 53.9456 48.1617L53.9454 48.1601L53.9451 48.1579L53.9441 48.1517L53.941 48.1321C53.9383 48.116 53.9343 48.0936 53.929 48.0657C53.9184 48.0099 53.9021 47.9314 53.8784 47.8347C53.8311 47.6417 53.7541 47.374 53.6337 47.0673C53.413 46.5051 53.0394 45.7936 52.4194 45.1737Z" fill="black"/>
<path fill-rule="evenodd" clip-rule="evenodd" d="M51.4194 19.7111H52.4194V28.6342C52.4714 28.6998 52.537 28.7855 52.6117 28.8896C52.793 29.1423 53.0297 29.5061 53.2547 29.9549C53.7017 30.8466 54.1205 32.1111 53.9208 33.5182C53.5113 36.402 50.607 39.4525 41.6665 41.2323L41.4713 40.2516C50.3484 38.4844 52.6193 35.571 52.9307 33.3776C53.0914 32.246 52.757 31.1936 52.3607 30.403C52.164 30.0107 51.9566 29.692 51.7992 29.4725C51.7206 29.363 51.655 29.2789 51.6101 29.2234C51.5877 29.1957 51.5705 29.1751 51.5594 29.1622L51.5477 29.1485L51.5461 29.1466L51.4194 29.0045V19.7111Z" fill="black"/>
<path d="M22.9803 17.9533C24.9811 17.9533 26.603 17.1289 26.603 16.1118C26.603 15.0948 24.9811 14.2703 22.9803 14.2703C20.9796 14.2703 19.3577 15.0948 19.3577 16.1118C19.3577 17.1289 20.9796 17.9533 22.9803 17.9533Z" fill="black"/>
<path d="M31.9894 30.6345C31.9894 30.6345 36.5837 35.8661 36.5837 40.8151C36.5837 47.3964 31.9894 48.5473 31.9894 48.5473C31.9894 48.5473 27.395 47.3964 27.395 40.8151C27.395 35.8661 31.9894 30.6345 31.9894 30.6345Z" fill="#FFC000"/>
<path fill-rule="evenodd" clip-rule="evenodd" d="M32.365 30.3048L31.9894 30.6347L31.6137 30.3048L31.9894 29.877L32.365 30.3048ZM31.9894 48.5475C31.8679 49.0325 31.8675 49.0324 31.8672 49.0323L31.8644 49.0316L31.8594 49.0303L31.8442 49.0263C31.832 49.0229 31.8154 49.0182 31.7948 49.0121C31.7537 48.9998 31.6966 48.9817 31.6256 48.9567C31.4837 48.9066 31.2862 48.8287 31.0518 48.7139C30.5831 48.4847 29.9633 48.1069 29.3447 47.5088C28.0954 46.3011 26.895 44.2369 26.895 40.8153C26.895 38.2036 28.1001 35.5631 29.2627 33.613C29.8487 32.6302 30.434 31.8061 30.8731 31.2273C31.0929 30.9376 31.2765 30.7087 31.4058 30.5515C31.4705 30.4729 31.5217 30.4121 31.557 30.3705L31.598 30.3227L31.6091 30.31L31.6122 30.3064L31.6137 30.3048C31.6138 30.3046 31.6137 30.3048 31.9894 30.6347C32.365 30.3048 32.3649 30.3046 32.365 30.3048L32.3665 30.3064L32.3696 30.31L32.3807 30.3227L32.4217 30.3705C32.4571 30.4121 32.5082 30.4729 32.5729 30.5515C32.7023 30.7087 32.8858 30.9376 33.1056 31.2273C33.5447 31.8061 34.1301 32.6302 34.716 33.613C35.8786 35.5631 37.0837 38.2036 37.0837 40.8153C37.0837 44.2369 35.8833 46.3011 34.634 47.5088C34.0154 48.1069 33.3956 48.4847 32.927 48.7139C32.6925 48.8287 32.495 48.9066 32.3531 48.9567C32.2822 48.9817 32.225 48.9998 32.1839 49.0121C32.1633 49.0182 32.1468 49.0229 32.1345 49.0263L32.1194 49.0303L32.1143 49.0316L32.1123 49.0321C32.112 49.0322 32.1109 49.0325 31.9894 48.5475ZM31.9894 48.5475L31.8672 49.0323L31.9894 49.0629L32.1109 49.0325L31.9894 48.5475ZM31.9894 48.0244C31.9992 48.0211 32.0095 48.0175 32.0204 48.0137C32.1298 47.9751 32.2913 47.9117 32.4875 47.8157C32.8803 47.6235 33.409 47.3022 33.939 46.7899C34.9869 45.7768 36.0837 43.9749 36.0837 40.8153C36.0837 38.4779 34.9916 36.0281 33.8571 34.1251C33.2944 33.1814 32.7312 32.3884 32.3089 31.8316C32.19 31.6749 32.0824 31.5371 31.9894 31.4202C31.8963 31.5371 31.7887 31.6749 31.6698 31.8316C31.2475 32.3884 30.6843 33.1814 30.1217 34.1251C28.9871 36.0281 27.895 38.4779 27.895 40.8153C27.895 43.9749 28.9918 45.7768 30.0397 46.7899C30.5697 47.3022 31.0984 47.6235 31.4912 47.8157C31.6875 47.9117 31.8489 47.9751 31.9583 48.0137C31.9692 48.0175 31.9795 48.0211 31.9894 48.0244ZM31.866 48.0629C31.8657 48.063 31.8658 48.063 31.866 48.0629Z" fill="black"/>
<path fill-rule="evenodd" clip-rule="evenodd" d="M31.9895 39.8337C32.2656 39.8337 32.4895 40.0576 32.4895 40.3337V51.5606C32.4895 51.8368 32.2656 52.0606 31.9895 52.0606C31.7134 52.0606 31.4895 51.8368 31.4895 51.5606V40.3337C31.4895 40.0576 31.7134 39.8337 31.9895 39.8337Z" fill="black"/>
</svg>
