<?xml version="1.0" encoding="UTF-8"?>
<svg id="Layer_1" data-name="Layer 1" xmlns="http://www.w3.org/2000/svg" viewBox="0 0 64 64">
  <defs>
    <style>
      .cls-1 {
        fill: #ffc716;
      }

      .cls-2 {
        fill: #fff;
      }

      .cls-2, .cls-3 {
        stroke: #fff;
        stroke-miterlimit: 10;
      }

      .cls-3 {
        fill: none;
      }
    </style>
  </defs>
  <g>
    <line class="cls-3" x1="31.88" y1="15.54" x2="31.88" y2="48.85"/>
    <path class="cls-1" d="m56.27,48.85v1.78c0,.63-.67,1.02-1.22.72-2.09-1.15-6.57-3.29-11.06-3.38-6.71-.13-10.57.84-11.48,1.58-.15.12-.32.18-.51.18h-.01c-.17,0-.34-.06-.48-.16-.97-.7-5.29-1.72-12.06-1.6-4.48.08-8.97,2.23-11.06,3.38-.55.3-1.22-.09-1.22-.72l-.3-1.78c13-6.98,23.3-.57,23.3-.57l3.08.11s3.09-2.33,7.35-2.53c4.26-.2,6.83-.74,15.66,2.99"/>
  </g>
  <g>
    <g>
      <path class="cls-3" d="m31.87,49.16c.19,0,.38-.06.53-.18.95-.73,4.97-3.46,11.96-3.33,4.67.08,9.34,2.23,11.52,3.38.57.3,1.27-.09,1.27-.72v-30.84c0-.29-.16-.56-.42-.71-1.52-.87-6.94-3.75-12.37-3.84-7.02-.13-11.05,2.18-11.97,2.78-.14.09-.31.14-.48.14h-.09c-.16,0-.31-.04-.44-.12-.97-.56-5.48-2.93-12.59-2.8-5.42.1-10.84,2.97-12.37,3.84-.26.15-.42.42-.42.71v30.84c0,.63.7,1.02,1.27.72,2.18-1.15,6.85-3.29,11.52-3.38,7.06-.13,11.55,2.65,12.57,3.35.15.1.32.16.5.16h.01Z"/>
      <line class="cls-2" x1="31.88" y1="15.84" x2="31.88" y2="49.16"/>
    </g>
    <path class="cls-3" d="m7.17,48.86v2.07c0,.63.67,1.02,1.22.72,2.09-1.15,6.57-3.29,11.06-3.38,6.78-.13,11.09.9,12.06,1.6.14.1.31.16.48.16h.01c.19,0,.37-.06.51-.18.91-.73,4.77-1.7,11.48-1.58,4.48.08,8.97,2.23,11.06,3.38.55.3,1.22-.09,1.22-.72v-2.37"/>
  </g>
</svg>