<?xml version="1.0" encoding="UTF-8"?>
<svg id="Layer_1" data-name="Layer 1" xmlns="http://www.w3.org/2000/svg" viewBox="0 0 64 64">
  <defs>
    <style>
      .cls-1 {
        fill: #ffc612;
      }

      .cls-1, .cls-2, .cls-3, .cls-4 {
        stroke: #fff;
        stroke-miterlimit: 10;
      }

      .cls-2 {
        fill: #fff;
      }

      .cls-3 {
        stroke-width: 1.02px;
      }

      .cls-3, .cls-4 {
        fill: none;
      }
    </style>
  </defs>
  <path class="cls-4" d="m30.17,40.57s-7.96-.02-15.29-.96c-1.5-.19-2.13-1.31-2.13-2.02v-20.49c0-.7.65-1.28,1.44-1.28h15.98v24.74Zm2.49-24.74h15.98c.79,0,1.44.57,1.44,1.28v20.49c0,.71-.63,1.82-2.13,2.02-7.33.94-15.29.96-15.29.96V15.83Z"/>
  <path class="cls-4" d="m37.51,40.43c-.02-.14-.02-.28-.02-.42,0-2.09,1.69-3.78,3.78-3.78s3.78,1.69,3.78,3.78"/>
  <rect class="cls-2" x="24.7" y="9.53" width="13.37" height="2.96"/>
  <rect class="cls-1" x="24.7" y="45.27" width="13.37" height="2.96"/>
  <rect class="cls-4" x="4.87" y="22" width="3.85" height="7.52" rx="1.77" ry="1.77"/>
  <path class="cls-4" d="m22.63,53.64v3.55c0,.42-.45.76-1,.76h-6.63c-.55,0-1-.34-1-.76v-3.47"/>
  <circle class="cls-4" cx="15.83" cy="44.17" r="2.27"/>
  <circle class="cls-4" cx="20.42" cy="48.34" r="2.27"/>
  <path class="cls-4" d="m6.8,21.87c0-1.01.7-1.83,1.56-1.83h1.78"/>
  <rect class="cls-4" x="54.42" y="22" width="3.85" height="7.52" rx="1.77" ry="1.77" transform="translate(112.7 51.52) rotate(180)"/>
  <path class="cls-4" d="m40.51,53.64v3.55c0,.42.45.76,1,.76h6.63c.55,0,1-.34,1-.76v-3.47"/>
  <circle class="cls-4" cx="47.31" cy="44.17" r="2.27"/>
  <circle class="cls-4" cx="42.73" cy="48.34" r="2.27"/>
  <path class="cls-4" d="m56.35,21.87c0-1.01-.7-1.83-1.56-1.83h-1.78"/>
  <rect class="cls-3" x="10.14" y="5.82" width="42.86" height="47.29"/>
</svg>