<?xml version="1.0" encoding="UTF-8"?>
<svg id="Layer_1" data-name="Layer 1" xmlns="http://www.w3.org/2000/svg" viewBox="0 0 64 64">
  <defs>
    <style>
      .cls-1 {
        stroke-linejoin: bevel;
      }

      .cls-1, .cls-2, .cls-3 {
        stroke: #000;
      }

      .cls-1, .cls-3 {
        fill: none;
      }

      .cls-2 {
        fill: #ffc612;
      }

      .cls-2, .cls-3 {
        stroke-miterlimit: 10;
      }
    </style>
  </defs>
  <path class="cls-2" d="m56.97,33.95l-4.76,1.05c-.4.09-.82.14-1.23.14-1.05.04-1.63-.21-3.28-1.16l-1.24-1.12c1.82-2.93,3.32-3.41,8.06-4.3,0,0,1.19-.3,1.48.3.48.96.87,2.69.87,2.69l.09,2.4Z"/>
  <path class="cls-3" d="m54.01,26.32h3.7c.71,0,1.29-.58,1.29-1.29,0-2.49-2.02-4.51-4.51-4.51h-1.93c-.89,0-1.67.62-1.88,1.48"/>
  <path class="cls-3" d="m9.13,26.32h-3.7c-.71,0-1.29-.58-1.29-1.29,0-2.49,2.02-4.51,4.51-4.51h1.93c.89,0,1.67.62,1.88,1.48"/>
  <path class="cls-1" d="m15.7,45.17l.06,2.43c0,1.07-.77,2.02-1.83,2.02h-5.63c-1.07,0-2.08-1.01-2.08-2.08v-5.93s.3,3.56,2.37,3.56h7.12Z"/>
  <path class="cls-3" d="m52.76,45.14l-42.1.03s-2.37.3-3.26-.59-1.19-2.08-1.19-2.08l-.13-9.73c0-2.5,1.46-5.28,3.39-6.87h44.18c1.93,1.59,3.41,4.37,3.41,9.24l.1,7.06s-.25,2.08-1.44,2.67c-.81.4-2.97.27-2.97.27Z"/>
  <path class="cls-3" d="m15.7,45.17l.58-1.08c1.13-1.56,2.95-2.48,4.88-2.47h20.83c1.93-.01,3.75.91,4.88,2.47l.68.93"/>
  <path class="cls-3" d="m46.53,33.01h-29.95s-2.37,2.37-4.45,2.08c-1.79-.26-6.01-1.13-6.01-1.13"/>
  <path class="cls-2" d="m6.13,33.95l4.76,1.05c.4.09.82.14,1.23.14,1.19,0,2.35-.41,3.28-1.16l1.24-1.12c-1.82-2.93-3.32-3.41-8.06-4.3,0,0-1.19-.3-1.48.3-.48.96-.87,2.69-.87,2.69l-.09,2.4Z"/>
  <path class="cls-3" d="m53.65,25.89s-1.93-1.92-2.98-3.9-4.91-7.29-7.32-7.29h-23.57c-2.41,0-6.27,5.31-7.32,7.29s-3,3.9-3,3.9h44.18Z"/>
  <path class="cls-1" d="m47.35,45.17l-.06,2.43c0,1.07.84,2.02,1.91,2.02h6.23c1.07,0,1.78-1.01,1.78-2.08v-5.34s-.59,2.97-3.04,2.97c-1.78,0-6.82,0-6.82,0Z"/>
</svg>