<svg width="64" height="64" viewBox="0 0 64 64" fill="none" xmlns="http://www.w3.org/2000/svg">
<path d="M55.9969 26.7463L51.018 27.8531C50.5962 27.9466 50.165 27.9965 49.7307 27.9965C48.6263 28.0339 48.0214 27.7783 46.2967 26.7806L45 25.602C46.9016 22.5246 48.4743 22.0133 53.4377 21.0779C53.4377 21.0779 54.6785 20.7662 54.9887 21.3897C55.4882 22.3937 55.9007 24.2177 55.9007 24.2177L56 26.7463H55.9969Z" fill="#FFC000" stroke="white" stroke-miterlimit="10"/>
<path d="M52.6038 19H56.6053C57.3748 19 58 18.4021 58 17.6663C58 15.0879 55.8133 13 53.1201 13H51.0296C50.0645 13 49.2244 13.6346 49 14.533" stroke="white" stroke-miterlimit="10"/>
<path d="M6.39615 19H2.39473C1.62522 19 1 18.4021 1 17.6663C1 15.0879 3.18668 13 5.87994 13H7.97043C8.93552 13 9.77556 13.6346 10 14.533" stroke="white" stroke-miterlimit="10"/>
<path d="M12.9469 38.5556L13 40.9852C13 42.0519 12.2787 43 11.2693 43H5.95713C4.95061 43 4 41.9926 4 40.9259V35C4 35 4.27959 38.5556 6.23672 38.5556H12.9469Z" stroke="white" stroke-linejoin="bevel"/>
<path d="M45.7916 39H13.1069M4.00004 36L4.00001 26.5C4.00247 25.8083 3.80311 24.2052 4.00004 23.5M56 35.9169L55.8854 27.3846C55.8838 26.0476 55.7758 24.9464 55.5808 24.0192C55.3773 23.0517 55.0791 22.2738 54.7081 21.6154C54.0912 20.5204 53.273 19.756 52.3547 19H6.5192C5.67908 19.6906 4.92613 20.6005 4.33438 21.6154M4.33438 21.6154C3.89213 22.3739 4.23131 22.6718 4.00004 23.5M4.33438 21.6154L4.00004 23.5" stroke="white" stroke-miterlimit="10"/>
<path d="M13 39L13.5991 37.7826C14.7756 36.0235 16.6557 34.9868 18.6557 35.0001H40.2399C42.2398 34.9868 44.1199 36.0235 45.2965 37.7826L46 38.8328" stroke="white" stroke-miterlimit="10"/>
<path d="M45 26H15.3486C15.3486 26 13 28.2578 10.945 27.9756C9.17761 27.7329 5 26.8975 5 26.8975" stroke="white" stroke-miterlimit="10"/>
<path d="M9.71193 27.8556L4.50969 26.7415L4 26.776V23.4093C4 23.017 4.67527 21.9381 5.0129 21.4477C5.33703 20.82 7.18374 21.0358 7.18374 21.0358C12.3698 21.9773 14.0131 22.492 16 25.5897L14.6451 26.776C13.6274 27.5669 12.3633 28 11.0571 28C10.6033 28 10.1527 27.9498 9.71193 27.8556Z" fill="#FFC000" stroke="white" stroke-miterlimit="10"/>
<path d="M52 19C52 19 50.037 16.9422 48.968 14.8177C47.8989 12.6931 43.964 7 41.5118 7H17.5124C15.0632 7 11.1282 12.6931 10.0562 14.8177C8.98711 16.9422 7 19 7 19H52Z" stroke="white" stroke-miterlimit="10"/>
<path d="M46.0568 38.8L46 41.096C46 42.104 46.8463 43 47.9258 43H54.2057C55.2823 43 56 42.048 56 41.04V36C56 36 55.4019 38.8 52.9348 38.8C51.1406 38.8 46.0568 38.8 46.0568 38.8Z" stroke="white" stroke-linejoin="bevel"/>
<path d="M49 60.5C56.732 60.5 63 54.232 63 46.5C63 38.768 56.732 32.5 49 32.5C41.268 32.5 35 38.768 35 46.5C35 54.232 41.268 60.5 49 60.5Z" fill="#FFCC00" stroke="white" stroke-linecap="round" stroke-linejoin="round"/>
<path d="M41.0156 47.56L46.6156 53.16L58.0156 42" stroke="black" stroke-linecap="square"/>
</svg>
