<svg width="64" height="64" viewBox="0 0 64 64" fill="none" xmlns="http://www.w3.org/2000/svg">
<path d="M56.9969 28.7463L52.018 29.8531C51.5962 29.9466 51.165 29.9965 50.7307 29.9965C49.6263 30.0339 49.0214 29.7783 47.2967 28.7806L46 27.602C47.9016 24.5246 49.4743 24.0133 54.4377 23.0779C54.4377 23.0779 55.6785 22.7662 55.9887 23.3897C56.4882 24.3937 56.9007 26.2177 56.9007 26.2177L57 28.7463H56.9969Z" fill="#FFC000" stroke="black" stroke-miterlimit="10"/>
<path d="M53.6038 21H57.6053C58.3748 21 59 20.4021 59 19.6663C59 17.0879 56.8133 15 54.1201 15H52.0296C51.0645 15 50.2244 15.6346 50 16.533" stroke="black" stroke-miterlimit="10"/>
<path d="M7.39615 21H3.39473C2.62522 21 2 20.4021 2 19.6663C2 17.0879 4.18668 15 6.87994 15H8.97043C9.93552 15 10.7756 15.6346 11 16.533" stroke="black" stroke-miterlimit="10"/>
<path d="M12.9469 40.5556L13 42.9852C13 44.0519 12.2787 45 11.2693 45H5.95713C4.95061 45 4 43.9926 4 42.9259V37C4 37 4.27959 40.5556 6.23672 40.5556H12.9469Z" stroke="black" stroke-linejoin="bevel"/>
<path d="M46.7916 40H13M4 37.5V27.7728C4.00246 27.1157 4.1117 26.4382 4.30863 25.7683M57 37.0711L56.8854 28.9654C56.8838 27.6953 56.7758 26.6491 56.5808 25.7683C56.3773 24.8491 56.0791 24.1101 55.7081 23.4846C55.0911 22.4444 54.273 21.7182 53.3547 21H7.51918C6.67907 21.656 5.92612 22.5204 5.33437 23.4846M5.33437 23.4846C4.89212 24.2052 4.53991 24.9815 4.30863 25.7683M5.33437 23.4846L4.30863 25.7683" stroke="black" stroke-miterlimit="10"/>
<path d="M12 41L12.6172 39.7826C13.8295 38.0235 15.7665 36.9868 17.827 37.0001H40.0654C42.1259 36.9868 44.0629 38.0235 45.2752 39.7826L46 40.8328" stroke="black" stroke-miterlimit="10"/>
<path d="M46 28H14.8661C14.8661 28 12.4 30.2578 10.2422 29.9756C8.3865 29.7329 4 28.8975 4 28.8975" stroke="black" stroke-miterlimit="10"/>
<path d="M9.71193 29.8556L4.50969 28.7415L4 28.776V25.4093C4 25.017 4.67527 23.9381 5.0129 23.4477C5.33703 22.82 7.18374 23.0358 7.18374 23.0358C12.3698 23.9773 14.0131 24.492 16 27.5897L14.6451 28.776C13.6274 29.5669 12.3633 30 11.0571 30C10.6033 30 10.1527 29.9498 9.71193 29.8556Z" fill="#FFC000" stroke="black" stroke-miterlimit="10"/>
<path d="M53 21C53 21 51.037 18.9422 49.968 16.8177C48.8989 14.6931 44.964 9 42.5118 9H18.5124C16.0632 9 12.1282 14.6931 11.0562 16.8177C9.98711 18.9422 8 21 8 21H53Z" stroke="black" stroke-miterlimit="10"/>
<path d="M47.0568 40.2L47 42.824C47 43.976 47.8463 45 48.9258 45H55.2057C56.2823 45 57 43.912 57 42.76V37C57 37 56.4019 40.2 53.9348 40.2C52.1406 40.2 47.0568 40.2 47.0568 40.2Z" stroke="black" stroke-linejoin="bevel"/>
<path d="M49 63.5C56.732 63.5 63 57.232 63 49.5C63 41.768 56.732 35.5 49 35.5C41.268 35.5 35 41.768 35 49.5C35 57.232 41.268 63.5 49 63.5Z" fill="#FFCC00" stroke="black" stroke-linecap="round" stroke-linejoin="round"/>
<path d="M41.0156 50.56L46.6156 56.16L58.0156 45" stroke="black" stroke-linecap="square"/>
</svg>
