<svg width="64" height="64" viewBox="0 0 64 64" fill="none" xmlns="http://www.w3.org/2000/svg">
<path d="M59.4112 33.9776L54.2752 35.1136C53.84 35.2096 53.3952 35.2608 52.9472 35.2608C51.808 35.2992 51.184 35.0368 49.4048 34.0128L48.0672 32.8032C50.0288 29.6448 51.6512 29.12 56.7712 28.16C56.7712 28.16 58.0512 27.84 58.3712 28.48C58.8864 29.5104 59.312 31.3824 59.312 31.3824L59.4144 33.9776H59.4112Z" fill="#FFC000" stroke="black" stroke-miterlimit="10"/>
<path d="M56.2144 25.7376H60.208C60.976 25.7376 61.6 25.1136 61.6 24.3456C61.6 21.6544 59.4176 19.4752 56.7296 19.4752H54.6432C53.68 19.4752 52.8416 20.1376 52.6176 21.0752" stroke="black" stroke-miterlimit="10"/>
<path d="M7.78559 25.7376H3.79199C3.02399 25.7376 2.39999 25.1136 2.39999 24.3456C2.39999 21.6544 4.58239 19.4752 7.27039 19.4752H9.35679C10.32 19.4752 11.1584 20.1376 11.3824 21.0752" stroke="black" stroke-miterlimit="10"/>
<path d="M14.8672 46.08L14.928 48.704C14.928 49.856 14.1024 50.88 12.9472 50.88H6.8672C5.7152 50.88 4.6272 49.792 4.6272 48.64V42.24C4.6272 42.24 4.9472 46.08 7.1872 46.08H14.8672Z" stroke="black" stroke-linejoin="bevel"/>
<path d="M49 46.08H15M4.62719 43.2L4.48639 32.6944C4.48895 31.9751 4.60259 31.2334 4.80744 30.5M59.6192 42.8736L59.5 34C59.4983 32.6096 59.386 31.4643 59.1831 30.5C58.9714 29.4938 58.6612 28.6847 58.2753 28C57.6335 26.8612 56.7824 26.0662 55.8272 25.28H8.14719C7.27327 25.9982 6.49002 26.9445 5.87445 28M5.87445 28C5.41441 28.7889 5.04802 29.6387 4.80744 30.5M5.87445 28L4.80744 30.5" stroke="black" stroke-miterlimit="10"/>
<path d="M14.8672 46.08L15.4912 44.9152C16.7168 43.232 18.6752 42.24 20.7584 42.2528H43.2416C45.3248 42.24 47.2832 43.232 48.5088 44.9152L49.2416 45.92" stroke="black" stroke-miterlimit="10"/>
<path d="M48.1472 32.96H15.8272C15.8272 32.96 13.2672 35.52 11.0272 35.2C9.10081 34.9248 4.54721 33.9776 4.54721 33.9776" stroke="black" stroke-miterlimit="10"/>
<path d="M10.1392 35.0336L5.0032 33.8976L4.5 33.9328V30.5C4.5 30.1 5.16667 29 5.5 28.5C5.82 27.86 7.6432 28.08 7.6432 28.08C12.7632 29.04 14.3856 29.5648 16.3472 32.7232L15.0096 33.9328C14.0048 34.7392 12.7568 35.1808 11.4672 35.1808C11.0192 35.1808 10.5744 35.1296 10.1392 35.0336Z" fill="#FFC000" stroke="black" stroke-miterlimit="10"/>
<path d="M55.8272 25.28C55.8272 25.28 53.7472 23.2096 52.6144 21.072C51.4816 18.9344 47.312 13.2064 44.7136 13.2064H19.2832C16.688 13.2064 12.5184 18.9344 11.3824 21.072C10.2496 23.2096 8.14401 25.28 8.14401 25.28H55.8272Z" stroke="black" stroke-miterlimit="10"/>
<path d="M49.0272 46.08L48.9664 48.704C48.9664 49.856 49.872 50.88 51.0272 50.88H57.7472C58.8992 50.88 59.6672 49.792 59.6672 48.64V42.88C59.6672 42.88 59.0272 46.08 56.3872 46.08C54.4672 46.08 49.0272 46.08 49.0272 46.08Z" stroke="black" stroke-linejoin="bevel"/>
</svg>
