<?xml version="1.0" encoding="UTF-8"?>
<svg id="Layer_1" data-name="Layer 1" xmlns="http://www.w3.org/2000/svg" viewBox="0 0 64 64">
  <defs>
    <style>
      .cls-1 {
        fill: #ffc612;
      }

      .cls-1, .cls-2 {
        stroke: #000;
        stroke-miterlimit: 10;
      }

      .cls-2 {
        fill: none;
      }
    </style>
  </defs>
  <g>
    <line class="cls-2" x1="20.76" y1="37.64" x2="20.76" y2="24.9"/>
    <line class="cls-2" x1="30.81" y1="24.85" x2="30.81" y2="28.66"/>
    <path class="cls-2" d="m20.76,21.76c0-2.67,2.26-4.85,5.03-4.85h0c2.76,0,5.03,2.18,5.03,4.85"/>
    <polyline class="cls-2" points="30.81 40.98 30.81 45.55 20.76 45.55 20.76 40.67"/>
    <line class="cls-2" x1="30.81" y1="32.98" x2="30.81" y2="37.93"/>
  </g>
  <g>
    <line class="cls-2" x1="33.86" y1="37.64" x2="33.86" y2="24.9"/>
    <line class="cls-2" x1="43.91" y1="24.85" x2="43.91" y2="28.66"/>
    <path class="cls-2" d="m33.86,21.76c0-2.67,2.26-4.85,5.03-4.85h0c2.76,0,5.03,2.18,5.03,4.85"/>
    <polyline class="cls-2" points="43.91 40.98 43.91 45.55 33.86 45.55 33.86 40.67"/>
    <line class="cls-2" x1="43.91" y1="32.98" x2="43.91" y2="37.93"/>
  </g>
  <g>
    <line class="cls-2" x1="47.26" y1="37.64" x2="47.26" y2="24.9"/>
    <line class="cls-2" x1="57.32" y1="24.85" x2="57.32" y2="28.66"/>
    <path class="cls-2" d="m47.26,21.76c0-2.67,2.26-4.85,5.03-4.85h0c2.76,0,5.03,2.18,5.03,4.85"/>
    <polyline class="cls-2" points="57.32 40.98 57.32 45.55 47.26 45.55 47.26 40.67"/>
    <line class="cls-2" x1="57.32" y1="32.98" x2="57.32" y2="37.93"/>
  </g>
  <path class="cls-2" d="m25.63,17.33v-4.79c0-2.45,2.01-4.46,4.46-4.46h4.18c2.45,0,4.46,2.01,4.46,4.46v4.79"/>
  <path class="cls-2" d="m39.34,17.33v-4.79c0-2.45,2.01-4.46,4.46-4.46h4.18c2.45,0,4.46,2.01,4.46,4.46v4.79"/>
  <rect class="cls-2" x="4" y="45.85" width="55.14" height="7.92"/>
  <rect class="cls-1" x="18.93" y="22.09" width="40.22" height="2.74"/>
  <rect class="cls-1" x="18.93" y="37.93" width="40.22" height="2.74"/>
  <rect class="cls-1" x="4.61" y="29.71" width="16.15" height="3.35"/>
  <line class="cls-2" x1="10.09" y1="36.1" x2="10.09" y2="37.93"/>
  <line class="cls-2" x1="13.14" y1="36.1" x2="13.14" y2="37.93"/>
  <line class="cls-2" x1="16.49" y1="36.1" x2="16.49" y2="37.93"/>
  <line class="cls-2" x1="10.09" y1="40.06" x2="10.09" y2="41.89"/>
  <line class="cls-2" x1="13.14" y1="40.06" x2="13.14" y2="41.89"/>
  <line class="cls-2" x1="16.49" y1="40.06" x2="16.49" y2="41.89"/>
  <line class="cls-2" x1="6.74" y1="33.36" x2="6.74" y2="45.55"/>
</svg>