<?xml version="1.0" encoding="UTF-8"?>
<svg id="Layer_1" data-name="Layer 1" xmlns="http://www.w3.org/2000/svg" viewBox="0 0 64 64">
  <path d="m29.04,5.95l2.06,3.38c.27,0,.55-.02.82-.02.47,0,.94.02,1.4.05l2.04-3.34c.9.12,1.79.28,2.66.49l.78,3.87c.68.22,1.35.47,2,.74l3.06-2.44c.82.42,1.61.89,2.38,1.39l-.59,3.89c.55.42,1.08.87,1.59,1.34l3.72-1.26c.63.67,1.23,1.38,1.78,2.11l-1.88,3.45c.38.59.73,1.19,1.06,1.81l3.94.09c.36.83.68,1.69.95,2.56l-2.94,2.59c.17.7.3,1.41.4,2.13l3.68,1.44c.03.54.05,1.09.05,1.64,0,.35,0,.69-.02,1.04l-3.63,1.42c-.08.77-.2,1.52-.36,2.26l2.97,2.61c-.24.83-.52,1.64-.84,2.43l-3.89.09c-.36.74-.76,1.45-1.19,2.13l1.89,3.47c-.49.66-1.01,1.3-1.56,1.91l-3.68-1.24c-.62.61-1.28,1.18-1.97,1.71l.59,3.9c-.65.43-1.32.84-2.01,1.21l-3.03-2.42c-.84.38-1.7.72-2.6,1l-.78,3.85c-.72.17-1.46.31-2.2.42l-2.02-3.32c-.58.04-1.16.07-1.74.07-.39,0-.79-.01-1.17-.03l-2.04,3.35c-.72-.09-1.43-.21-2.13-.35l-.77-3.81c-.98-.27-1.93-.61-2.85-1.01l-3.05,2.44c-.63-.33-1.24-.68-1.83-1.05l.58-3.85c-.83-.6-1.61-1.26-2.35-1.97l-3.7,1.25c-.47-.52-.92-1.06-1.35-1.61l1.87-3.42c-.56-.85-1.07-1.73-1.52-2.65l-3.89-.09c-.26-.65-.5-1.32-.72-2l2.94-2.59c-.22-.96-.39-1.94-.49-2.94l-3.61-1.41c0-.27-.01-.53-.01-.8,0-.47.01-.93.04-1.4l3.66-1.43c.12-.96.29-1.9.53-2.81l-2.91-2.56c.24-.73.51-1.44.81-2.14l3.94-.09c.42-.8.88-1.58,1.39-2.32l-1.86-3.4c.5-.63,1.02-1.24,1.58-1.82l3.74,1.26c.63-.57,1.29-1.1,1.97-1.59l-.58-3.85c.71-.44,1.44-.85,2.2-1.23l3.09,2.47c.73-.3,1.48-.55,2.24-.77l.77-3.82c.85-.18,1.71-.32,2.59-.42m10.88,21l9.61-3.71c-2.84-5.8-8.47-9.99-15.15-10.83l-.56,10.25c2.58.53,4.77,2.12,6.1,4.29m-16.14.26c1.27-2.22,3.41-3.87,5.96-4.48l-.56-10.28c-6.65.93-12.22,5.2-14.98,11.05l9.58,3.7m8.15,10.79c3.4,0,6.15-2.75,6.15-6.15s-2.75-6.15-6.15-6.15-6.15,2.75-6.15,6.15,2.75,6.15,6.15,6.15m13.62,7.92c3.68-3.56,5.97-8.55,5.97-14.08,0-1.26-.12-2.48-.35-3.67l-9.93,2.64c.04.34.06.68.06,1.03,0,2.33-.85,4.45-2.25,6.09l6.5,7.99m-27.03.2l6.48-7.97c-1.52-1.67-2.44-3.88-2.44-6.31,0-.25.01-.49.03-.74l-9.95-2.64c-.19,1.1-.3,2.23-.3,3.38,0,5.63,2.38,10.71,6.18,14.28m13.41-4.9c-1.27,0-2.48-.25-3.59-.71l-5.59,8.65c2.74,1.46,5.86,2.28,9.18,2.28s6.64-.88,9.44-2.42l-5.58-8.63c-1.18.53-2.48.83-3.86.83m-2.36-36.34l-.63.07c-.9.1-1.81.24-2.69.43l-.64.14-.13.64-.65,3.23c-.41.13-.81.27-1.2.42l-2.64-2.11-.5-.4-.57.28c-.78.39-1.55.81-2.28,1.27l-.56.35.1.65.49,3.25c-.39.3-.76.6-1.12.9l-3.19-1.08-.6-.2-.44.46c-.57.6-1.12,1.23-1.64,1.89l-.41.52.32.58,1.57,2.87c-.29.45-.57.91-.83,1.38l-3.36.08-.64.02-.25.59c-.31.73-.6,1.47-.85,2.22l-.21.63.5.44,2.46,2.16c-.13.56-.24,1.15-.33,1.74l-3.11,1.22-.6.23-.03.64c-.03.49-.04.97-.04,1.45,0,.28,0,.55.01.83l.02.66.62.24,3.05,1.19c.08.62.18,1.24.31,1.87l-2.5,2.2-.49.43.19.62c.21.69.46,1.39.74,2.08l.25.61.66.02,3.29.08c.3.58.63,1.15.98,1.71l-1.58,2.9-.31.57.4.52c.45.58.92,1.15,1.4,1.67l.44.48.62-.21,3.13-1.06c.49.44.99.87,1.51,1.27l-.49,3.26-.1.65.56.35c.62.39,1.26.76,1.9,1.09l.58.3.51-.41,2.59-2.07c.59.24,1.2.45,1.82.65l.65,3.22.13.65.65.13c.73.15,1.47.27,2.21.37l.64.08.34-.55,1.74-2.85c.21,0,.42,0,.63,0,.38,0,.77-.01,1.2-.04l1.71,2.8.34.56.65-.09c.77-.11,1.54-.26,2.29-.43l.63-.15.13-.63.66-3.28c.52-.18,1.05-.38,1.58-.61l2.56,2.05.52.41.58-.31c.71-.38,1.41-.8,2.09-1.26l.53-.35-.1-.63-.51-3.33c.39-.32.78-.65,1.14-.99l3.11,1.05.63.21.44-.49c.57-.63,1.11-1.3,1.62-1.99l.38-.51-.31-.56-1.62-2.96c.23-.39.45-.78.66-1.18l3.29-.08.66-.02.25-.61c.33-.82.63-1.67.88-2.53l.18-.61-.48-.42-2.53-2.23c.07-.39.14-.78.19-1.18l3.07-1.2.61-.24.03-.65c.01-.36.02-.72.02-1.08,0-.55-.02-1.11-.05-1.7l-.04-.64-.59-.23-3.14-1.23c-.06-.35-.12-.7-.2-1.05l2.5-2.2.49-.43-.19-.62c-.28-.89-.61-1.79-.99-2.66l-.25-.59-.64-.02-3.36-.08c-.16-.29-.33-.58-.5-.86l1.6-2.93.31-.57-.39-.52c-.57-.76-1.2-1.5-1.85-2.2l-.44-.47-.61.21-3.17,1.07c-.24-.21-.5-.43-.75-.63l.5-3.32.1-.63-.54-.35c-.8-.53-1.63-1.01-2.47-1.44l-.58-.3-.51.4-2.6,2.08c-.32-.13-.64-.25-.97-.36l-.66-3.3-.13-.63-.62-.15c-.91-.22-1.84-.39-2.76-.51l-.65-.08-.34.56-1.72,2.83c-.3-.01-.58-.02-.86-.02-.09,0-.18,0-.27,0l-1.76-2.88-.33-.54h0Zm5.3,17.01l.45-8.33c5.42,1,10.09,4.33,12.8,9.14l-7.82,3.02c-1.34-1.84-3.27-3.19-5.44-3.84h0Zm-19.28,1.07c2.64-4.86,7.25-8.26,12.65-9.35l.46,8.36c-2.16.71-4.04,2.12-5.32,3.99l-7.79-3.01h0Zm16.34,14.03c-2.84,0-5.15-2.31-5.15-5.15s2.31-5.15,5.15-5.15,5.15,2.31,5.15,5.15-2.31,5.15-5.15,5.15h0Zm10.37-5.43l8.06-2.14c.11.81.16,1.62.16,2.42,0,4.71-1.73,9.14-4.9,12.58l-5.28-6.5c1.28-1.76,1.97-3.89,1.97-6.08,0-.09,0-.19,0-.28h0Zm-23.86,13.07c-3.3-3.47-5.1-7.97-5.1-12.79,0-.7.04-1.41.12-2.13l8.09,2.15c0,2.29.76,4.5,2.15,6.3l-5.26,6.47h0Zm13.49-2.42c1.19,0,2.36-.2,3.47-.6l4.53,7.01c-2.49,1.18-5.23,1.81-8,1.81s-5.32-.58-7.73-1.68l4.55-7.03c1.03.33,2.09.5,3.19.5h0Z"/>
</svg>