<?xml version="1.0" encoding="utf-8"?>
<!-- Generator: Adobe Illustrator 27.7.0, SVG Export Plug-In . SVG Version: 6.00 Build 0)  -->
<svg version="1.1" id="Layer_1" xmlns="http://www.w3.org/2000/svg" xmlns:xlink="http://www.w3.org/1999/xlink" x="0px" y="0px"
	 viewBox="0 0 64 64" style="enable-background:new 0 0 64 64;" xml:space="preserve">
<style type="text/css">
	.st0{fill:none;stroke:#FFFFFF;stroke-miterlimit:10;}
</style>
<path class="st0" d="M37.1,12.9c-5.1,0-8.9,3-10.6,6.5c-0.5,1-1.8,1.4-2.8,0.9c-2.1-1.1-4.7-0.9-6.7,0.3s-3.5,3.4-3.5,6.9
	c0,1-0.7,1.9-1.7,2C8,30.2,5.2,34,5.2,37.9c0,4.7,3.6,8.4,9.7,8.4H49c5,0,9-4,9-9c0-4.4-3.1-8.1-7.3-8.9c-1.1-0.2-1.8-1.2-1.7-2.3
	C49.7,19.6,44.6,12.9,37.1,12.9z"/>
</svg>
