<?xml version="1.0" encoding="UTF-8"?>
<svg id="Layer_1" data-name="Layer 1" xmlns="http://www.w3.org/2000/svg" viewBox="0 0 64 64">
  <defs>
    <style>
      .cls-1 {
        fill: none;
        stroke: #000;
        stroke-miterlimit: 10;
      }
    </style>
  </defs>
  <path class="cls-1" d="m37.14,12.88c-5.13,0-8.89,2.98-10.65,6.5-.52,1.03-1.78,1.43-2.8.91-2.13-1.06-4.69-.92-6.69.28-2,1.2-3.5,3.38-3.5,6.91,0,1.01-.74,1.87-1.74,2.04-3.8.64-6.61,4.52-6.61,8.39,0,4.65,3.58,8.35,9.74,8.35h34.08c5.02,0,9.04-4.02,9.04-9.04,0-4.41-3.13-8.07-7.28-8.89-1.07-.2-1.8-1.18-1.7-2.26.66-6.48-4.45-13.19-11.89-13.19Z"/>
</svg>