<?xml version="1.0" encoding="utf-8"?>
<!-- Generator: Adobe Illustrator 27.7.0, SVG Export Plug-In . SVG Version: 6.00 Build 0)  -->
<svg version="1.1" id="Layer_1" xmlns="http://www.w3.org/2000/svg" xmlns:xlink="http://www.w3.org/1999/xlink" x="0px" y="0px"
	 viewBox="0 0 64 64" style="enable-background:new 0 0 64 64;" xml:space="preserve">
<style type="text/css">
	.st0{fill:#FFFFFF;}
</style>
<path class="st0" d="M29,6l2.1,3.4c0.3,0,0.5,0,0.8,0c0.5,0,0.9,0,1.4,0.1l2-3.3c0.9,0.1,1.8,0.3,2.7,0.5l0.8,3.9
	c0.7,0.2,1.3,0.5,2,0.7l3.1-2.4c0.8,0.4,1.6,0.9,2.4,1.4L45.7,14c0.5,0.4,1.1,0.9,1.6,1.3L51,14c0.6,0.7,1.2,1.4,1.8,2.1l-1.9,3.5
	c0.4,0.6,0.7,1.2,1.1,1.8l3.9,0.1c0.4,0.8,0.7,1.7,1,2.6l-2.9,2.6c0.2,0.7,0.3,1.4,0.4,2.1l3.7,1.4c0,0.5,0,1.1,0,1.6
	c0,0.3,0,0.7,0,1l-3.6,1.4c-0.1,0.8-0.2,1.5-0.4,2.3l3,2.6c-0.2,0.8-0.5,1.6-0.8,2.4l-3.9,0.1c-0.4,0.7-0.8,1.5-1.2,2.1l1.9,3.5
	c-0.5,0.7-1,1.3-1.6,1.9L47.7,48c-0.6,0.6-1.3,1.2-2,1.7l0.6,3.9c-0.7,0.4-1.3,0.8-2,1.2l-3-2.4c-0.8,0.4-1.7,0.7-2.6,1l-0.8,3.8
	c-0.7,0.2-1.5,0.3-2.2,0.4l-2-3.3c-0.6,0-1.2,0.1-1.7,0.1c-0.4,0-0.8,0-1.2,0l-2,3.3c-0.7-0.1-1.4-0.2-2.1-0.3l-0.8-3.8
	c-1-0.3-1.9-0.6-2.9-1l-3,2.4c-0.6-0.3-1.2-0.7-1.8-1l0.6-3.8c-0.8-0.6-1.6-1.3-2.4-2l-3.7,1.2c-0.5-0.5-0.9-1.1-1.4-1.6l1.9-3.4
	c-0.6-0.8-1.1-1.7-1.5-2.7l-3.9-0.1c-0.3-0.7-0.5-1.3-0.7-2L10,37c-0.2-1-0.4-1.9-0.5-2.9l-3.6-1.4c0-0.3,0-0.5,0-0.8
	c0-0.5,0-0.9,0-1.4L9.5,29c0.1-1,0.3-1.9,0.5-2.8l-2.9-2.6c0.2-0.7,0.5-1.4,0.8-2.1l3.9-0.1c0.4-0.8,0.9-1.6,1.4-2.3l-1.9-3.4
	c0.5-0.6,1-1.2,1.6-1.8l3.7,1.3c0.6-0.6,1.3-1.1,2-1.6l-0.6-3.9c0.7-0.4,1.4-0.9,2.2-1.2l3.1,2.5c0.7-0.3,1.5-0.6,2.2-0.8l0.8-3.8
	C27.3,6.2,28.2,6,29,6 M39.9,26.9l9.6-3.7c-2.8-5.8-8.5-10-15.2-10.8l-0.6,10.2C36.4,23.2,38.6,24.8,39.9,26.9 M23.8,27.2
	c1.3-2.2,3.4-3.9,6-4.5l-0.6-10.3c-6.6,0.9-12.2,5.2-15,11.1L23.8,27.2 M31.9,38c3.4,0,6.1-2.8,6.1-6.1s-2.8-6.1-6.1-6.1
	s-6.1,2.8-6.1,6.1S28.5,38,31.9,38 M45.6,45.9c3.7-3.6,6-8.5,6-14.1c0-1.3-0.1-2.5-0.3-3.7l-9.9,2.6c0,0.3,0.1,0.7,0.1,1
	c0,2.3-0.8,4.4-2.2,6.1L45.6,45.9 M18.5,46.1l6.5-8c-1.5-1.7-2.4-3.9-2.4-6.3c0-0.2,0-0.5,0-0.7l-9.9-2.6c-0.2,1.1-0.3,2.2-0.3,3.4
	C12.3,37.5,14.7,42.5,18.5,46.1 M31.9,41.2c-1.3,0-2.5-0.2-3.6-0.7l-5.6,8.6c2.7,1.5,5.9,2.3,9.2,2.3s6.6-0.9,9.4-2.4l-5.6-8.6
	C34.6,40.9,33.3,41.2,31.9,41.2 M29.6,4.9l-0.6,0.1C28,5,27.1,5.2,26.3,5.4l-0.6,0.1l-0.1,0.6l-0.6,3.2c-0.4,0.1-0.8,0.3-1.2,0.4
	L21,7.7l-0.5-0.4l-0.6,0.3c-0.8,0.4-1.5,0.8-2.3,1.3l-0.6,0.4l0.1,0.6l0.5,3.2c-0.4,0.3-0.8,0.6-1.1,0.9l-3.2-1.1l-0.6-0.2l-0.4,0.5
	c-0.6,0.6-1.1,1.2-1.6,1.9l-0.4,0.5l0.3,0.6l1.6,2.9c-0.3,0.5-0.6,0.9-0.8,1.4L8,20.5l-0.6,0l-0.2,0.6c-0.3,0.7-0.6,1.5-0.8,2.2
	L6,23.9l0.5,0.4L9,26.5c-0.1,0.6-0.2,1.1-0.3,1.7l-3.1,1.2l-0.6,0.2l0,0.6c0,0.5,0,1,0,1.5c0,0.3,0,0.5,0,0.8l0,0.7l0.6,0.2l3,1.2
	c0.1,0.6,0.2,1.2,0.3,1.9l-2.5,2.2l-0.5,0.4l0.2,0.6c0.2,0.7,0.5,1.4,0.7,2.1l0.2,0.6l0.7,0l3.3,0.1c0.3,0.6,0.6,1.2,1,1.7l-1.6,2.9
	l-0.3,0.6l0.4,0.5c0.4,0.6,0.9,1.2,1.4,1.7l0.4,0.5l0.6-0.2l3.1-1.1c0.5,0.4,1,0.9,1.5,1.3l-0.5,3.3L17,54.4l0.6,0.3
	c0.6,0.4,1.3,0.8,1.9,1.1l0.6,0.3l0.5-0.4l2.6-2.1c0.6,0.2,1.2,0.5,1.8,0.7l0.6,3.2l0.1,0.7l0.6,0.1c0.7,0.2,1.5,0.3,2.2,0.4
	l0.6,0.1l0.3-0.5l1.7-2.8c0.2,0,0.4,0,0.6,0c0.4,0,0.8,0,1.2,0l1.7,2.8l0.3,0.6l0.7-0.1c0.8-0.1,1.5-0.3,2.3-0.4l0.6-0.2l0.1-0.6
	l0.7-3.3c0.5-0.2,1-0.4,1.6-0.6l2.6,2l0.5,0.4l0.6-0.3c0.7-0.4,1.4-0.8,2.1-1.3l0.5-0.3l-0.1-0.6l-0.5-3.3c0.4-0.3,0.8-0.7,1.1-1
	l3.1,1l0.6,0.2l0.4-0.5c0.6-0.6,1.1-1.3,1.6-2l0.4-0.5l-0.3-0.6l-1.6-3c0.2-0.4,0.5-0.8,0.7-1.2l3.3-0.1l0.7,0l0.2-0.6
	c0.3-0.8,0.6-1.7,0.9-2.5l0.2-0.6l-0.5-0.4l-2.5-2.2c0.1-0.4,0.1-0.8,0.2-1.2l3.1-1.2l0.6-0.2l0-0.7c0-0.4,0-0.7,0-1.1
	c0-0.5,0-1.1,0-1.7l0-0.6l-0.6-0.2L55.2,28c-0.1-0.4-0.1-0.7-0.2-1l2.5-2.2l0.5-0.4l-0.2-0.6c-0.3-0.9-0.6-1.8-1-2.7l-0.2-0.6
	l-0.6,0l-3.4-0.1c-0.2-0.3-0.3-0.6-0.5-0.9l1.6-2.9L54,16l-0.4-0.5c-0.6-0.8-1.2-1.5-1.8-2.2l-0.4-0.5L50.7,13l-3.2,1.1
	c-0.2-0.2-0.5-0.4-0.8-0.6l0.5-3.3l0.1-0.6l-0.5-0.4c-0.8-0.5-1.6-1-2.5-1.4l-0.6-0.3l-0.5,0.4l-2.6,2.1c-0.3-0.1-0.6-0.2-1-0.4
	l-0.7-3.3l-0.1-0.6l-0.6-0.2c-0.9-0.2-1.8-0.4-2.8-0.5l-0.7-0.1l-0.3,0.6l-1.7,2.8c-0.3,0-0.6,0-0.9,0c-0.1,0-0.2,0-0.3,0L30,5.4
	L29.6,4.9L29.6,4.9L29.6,4.9z M34.9,21.9l0.5-8.3c5.4,1,10.1,4.3,12.8,9.1l-7.8,3C39,23.9,37,22.5,34.9,21.9L34.9,21.9L34.9,21.9z
	 M15.6,22.9c2.6-4.9,7.2-8.3,12.6-9.4l0.5,8.4c-2.2,0.7-4,2.1-5.3,4L15.6,22.9L15.6,22.9L15.6,22.9z M31.9,37
	c-2.8,0-5.1-2.3-5.1-5.1s2.3-5.1,5.1-5.1s5.1,2.3,5.1,5.1S34.8,37,31.9,37L31.9,37z M42.3,31.5l8.1-2.1c0.1,0.8,0.2,1.6,0.2,2.4
	c0,4.7-1.7,9.1-4.9,12.6l-5.3-6.5c1.3-1.8,2-3.9,2-6.1C42.3,31.7,42.3,31.6,42.3,31.5L42.3,31.5L42.3,31.5z M18.4,44.6
	c-3.3-3.5-5.1-8-5.1-12.8c0-0.7,0-1.4,0.1-2.1l8.1,2.1c0,2.3,0.8,4.5,2.1,6.3L18.4,44.6L18.4,44.6z M31.9,42.2
	c1.2,0,2.4-0.2,3.5-0.6l4.5,7c-2.5,1.2-5.2,1.8-8,1.8s-5.3-0.6-7.7-1.7l4.5-7C29.8,42,30.8,42.2,31.9,42.2L31.9,42.2L31.9,42.2z"/>
</svg>
