<?xml version="1.0" encoding="UTF-8"?>
<svg id="Layer_1" data-name="Layer 1" xmlns="http://www.w3.org/2000/svg" viewBox="0 0 64 64">
  <path d="m31.92,5.61c.57,0,1.15.02,1.77.06l2.35,6.16.19.49.51.13c1.9.47,3.71,1.23,5.39,2.23l.45.27.48-.21,6.02-2.69c.89.77,1.72,1.61,2.5,2.5l-2.69,6.02-.21.48.27.45c1.01,1.68,1.76,3.49,2.23,5.39l.13.51.49.19,6.16,2.35c.04.61.06,1.19.06,1.77s-.02,1.15-.06,1.77l-6.16,2.35-.49.19-.13.51c-.47,1.9-1.23,3.71-2.23,5.39l-.27.45.21.48,2.69,6.02c-.77.89-1.61,1.72-2.5,2.5l-6.02-2.69-.48-.21-.45.27c-1.68,1.01-3.49,1.76-5.39,2.23l-.51.13-.19.49-2.35,6.16c-.61.04-1.19.06-1.77.06s-1.16-.02-1.77-.06l-2.35-6.16-.19-.49-.51-.13c-1.9-.47-3.71-1.23-5.39-2.23l-.45-.27-.48.21-6.02,2.69c-.89-.77-1.72-1.61-2.5-2.5l2.69-6.02.21-.48-.27-.45c-1.01-1.68-1.76-3.49-2.23-5.39l-.13-.51-.49-.19-6.16-2.35c-.04-.61-.06-1.19-.06-1.77s.02-1.15.06-1.77l6.16-2.35.49-.19.13-.51c.47-1.9,1.23-3.71,2.23-5.39l.27-.45-.21-.48-2.69-6.02c.77-.89,1.61-1.72,2.5-2.5l6.02,2.69.48.21.45-.27c1.68-1.01,3.49-1.76,5.39-2.23l.51-.13.19-.49,2.35-6.16c.61-.04,1.19-.06,1.77-.06m0-1c-.83,0-1.66.04-2.47.12l-2.58,6.75c-2.02.5-3.93,1.3-5.67,2.35l-6.6-2.95c-1.27,1.06-2.44,2.23-3.5,3.5l2.95,6.6c-1.05,1.74-1.84,3.64-2.35,5.67l-6.75,2.58c-.07.82-.12,1.64-.12,2.47s.04,1.66.12,2.47l6.75,2.58c.5,2.02,1.3,3.93,2.35,5.67l-2.95,6.6c1.06,1.27,2.23,2.44,3.5,3.5l6.6-2.95c1.74,1.05,3.64,1.84,5.67,2.35l2.58,6.75c.82.07,1.64.12,2.47.12s1.66-.04,2.47-.12l2.58-6.75c2.02-.5,3.93-1.3,5.67-2.35l6.6,2.95c1.27-1.06,2.44-2.23,3.5-3.5l-2.95-6.6c1.05-1.74,1.84-3.64,2.35-5.67l6.75-2.58c.07-.82.12-1.64.12-2.47s-.04-1.66-.12-2.47l-6.75-2.58c-.5-2.02-1.3-3.93-2.35-5.67l2.95-6.6c-1.06-1.27-2.23-2.44-3.5-3.5l-6.6,2.95c-1.74-1.05-3.64-1.84-5.67-2.35l-2.58-6.75c-.82-.07-1.64-.12-2.47-.12h0Z"/>
  <path d="m31.92,18.7c7.16,0,12.99,5.83,12.99,12.99s-5.83,12.99-12.99,12.99-12.99-5.83-12.99-12.99,5.83-12.99,12.99-12.99m0-1c-7.73,0-13.99,6.26-13.99,13.99s6.26,13.99,13.99,13.99,13.99-6.26,13.99-13.99-6.26-13.99-13.99-13.99h0Z"/>
</svg>