<?xml version="1.0" encoding="utf-8"?>
<!-- Generator: Adobe Illustrator 27.7.0, SVG Export Plug-In . SVG Version: 6.00 Build 0)  -->
<svg version="1.1" id="Layer_1" xmlns="http://www.w3.org/2000/svg" xmlns:xlink="http://www.w3.org/1999/xlink" x="0px" y="0px"
	 viewBox="0 0 64 64" style="enable-background:new 0 0 64 64;" xml:space="preserve">
<style type="text/css">
	.st0{fill:#FFFFFF;}
</style>
<path class="st0" d="M31.9,5.6c0.6,0,1.1,0,1.8,0.1l2.3,6.2l0.2,0.5l0.5,0.1c1.9,0.5,3.7,1.2,5.4,2.2l0.5,0.3l0.5-0.2l6-2.7
	c0.9,0.8,1.7,1.6,2.5,2.5l-2.7,6l-0.2,0.5l0.3,0.5c1,1.7,1.8,3.5,2.2,5.4l0.1,0.5l0.5,0.2l6.2,2.4c0,0.6,0.1,1.2,0.1,1.8
	c0,0.6,0,1.1-0.1,1.8l-6.2,2.3L51.3,36l-0.1,0.5c-0.5,1.9-1.2,3.7-2.2,5.4l-0.3,0.5l0.2,0.5l2.7,6c-0.8,0.9-1.6,1.7-2.5,2.5l-6-2.7
	l-0.5-0.2l-0.5,0.3c-1.7,1-3.5,1.8-5.4,2.2l-0.5,0.1L36,51.6l-2.3,6.2c-0.6,0-1.2,0.1-1.8,0.1s-1.2,0-1.8-0.1l-2.4-6.2l-0.2-0.5
	L27.1,51c-1.9-0.5-3.7-1.2-5.4-2.2l-0.5-0.3l-0.5,0.2l-6,2.7c-0.9-0.8-1.7-1.6-2.5-2.5l2.7-6l0.2-0.5l-0.3-0.5
	c-1-1.7-1.8-3.5-2.2-5.4L12.5,36L12,35.8l-6.2-2.3c0-0.6-0.1-1.2-0.1-1.8c0-0.6,0-1.1,0.1-1.8l6.2-2.4l0.5-0.2l0.1-0.5
	c0.5-1.9,1.2-3.7,2.2-5.4l0.3-0.5l-0.2-0.5l-2.7-6c0.8-0.9,1.6-1.7,2.5-2.5l6,2.7l0.5,0.2l0.5-0.3c1.7-1,3.5-1.8,5.4-2.2l0.5-0.1
	l0.2-0.5l2.4-6.2C30.8,5.6,31.3,5.6,31.9,5.6 M31.9,4.6c-0.8,0-1.7,0-2.5,0.1l-2.6,6.8c-2,0.5-3.9,1.3-5.7,2.4l-6.6-2.9
	c-1.3,1.1-2.4,2.2-3.5,3.5L14,21c-1.1,1.7-1.8,3.6-2.3,5.7l-6.8,2.6c-0.1,0.8-0.1,1.6-0.1,2.5c0,0.8,0,1.7,0.1,2.5l6.8,2.6
	c0.5,2,1.3,3.9,2.4,5.7L11.1,49c1.1,1.3,2.2,2.4,3.5,3.5l6.6-3c1.7,1,3.6,1.8,5.7,2.3l2.6,6.8c0.8,0.1,1.6,0.1,2.5,0.1
	c0.8,0,1.7,0,2.5-0.1l2.6-6.8c2-0.5,3.9-1.3,5.7-2.3l6.6,3c1.3-1.1,2.4-2.2,3.5-3.5l-3-6.6c1-1.7,1.8-3.6,2.3-5.7l6.8-2.6
	c0.1-0.8,0.1-1.6,0.1-2.5c0-0.8,0-1.7-0.1-2.5l-6.8-2.6c-0.5-2-1.3-3.9-2.3-5.7l3-6.6c-1.1-1.3-2.2-2.4-3.5-3.5l-6.6,2.9
	C40.9,12.8,39,12,37,11.5l-2.6-6.8C33.6,4.7,32.8,4.6,31.9,4.6C31.9,4.6,31.9,4.6,31.9,4.6z"/>
<path class="st0" d="M31.9,18.7c7.2,0,13,5.8,13,13s-5.8,13-13,13s-13-5.8-13-13S24.8,18.7,31.9,18.7 M31.9,17.7
	c-7.7,0-14,6.3-14,14s6.3,14,14,14s14-6.3,14-14S39.7,17.7,31.9,17.7L31.9,17.7z"/>
</svg>
