<?xml version="1.0" encoding="UTF-8"?>
<svg id="Layer_1" data-name="Layer 1" xmlns="http://www.w3.org/2000/svg" viewBox="0 0 64 64">
  <defs>
    <style>
      .cls-1 {
        fill: #fff;
      }

      .cls-1, .cls-2, .cls-3 {
        stroke: #000;
        stroke-miterlimit: 10;
      }

      .cls-2 {
        fill: #ffc612;
      }

      .cls-3 {
        fill: none;
      }
    </style>
  </defs>
  <circle class="cls-3" cx="9.49" cy="18.96" r="3.53"/>
  <circle class="cls-3" cx="9.49" cy="44.54" r="3.53"/>
  <circle class="cls-3" cx="31.84" cy="8.97" r="3.53"/>
  <circle class="cls-3" cx="31.84" cy="54.53" r="3.53"/>
  <line class="cls-1" x1="28.9" y1="29.84" x2="13.02" y2="20.43"/>
  <line class="cls-1" x1="28.31" y1="9.55" x2="13.02" y2="16.9"/>
  <line class="cls-1" x1="28.9" y1="33.66" x2="12.73" y2="42.48"/>
  <line class="cls-1" x1="9.79" y1="22.19" x2="9.79" y2="41.3"/>
  <line class="cls-1" x1="31.84" y1="12.49" x2="31.84" y2="28.07"/>
  <line class="cls-1" x1="31.84" y1="35.13" x2="31.84" y2="50.71"/>
  <line class="cls-1" x1="28.31" y1="53.65" x2="13.02" y2="46.3"/>
  <circle class="cls-3" cx="54.47" cy="18.96" r="3.53"/>
  <circle class="cls-3" cx="54.47" cy="44.54" r="3.53"/>
  <line class="cls-1" x1="35.07" y1="29.84" x2="50.94" y2="20.43"/>
  <line class="cls-1" x1="35.66" y1="9.55" x2="50.94" y2="16.9"/>
  <line class="cls-1" x1="35.07" y1="33.66" x2="51.24" y2="42.48"/>
  <line class="cls-1" x1="54.18" y1="22.19" x2="54.18" y2="41.3"/>
  <line class="cls-1" x1="35.66" y1="53.65" x2="50.94" y2="46.3"/>
  <circle class="cls-2" cx="31.84" cy="31.6" r="8.39"/>
</svg>