<svg width="64" height="64" viewBox="0 0 64 64" fill="none" xmlns="http://www.w3.org/2000/svg">
<path d="M43.0425 33.3114C43.0425 31.2743 43.0425 29.2371 43.0425 27.2C43.0425 25.0207 41.3749 23.3721 39.1956 23.3721C34.676 23.3721 30.1659 23.3721 25.6463 23.3721C25.4568 23.3721 25.2578 23.3721 25.0683 23.41C23.2017 23.6753 21.8278 25.2481 21.8184 27.1431C21.8184 29.9572 21.8184 32.7713 21.8184 35.576C21.8184 35.8981 21.8563 36.2203 21.9415 36.5329C22.3869 38.21 23.865 39.3376 25.6179 39.3376C28.4414 39.3376 31.265 39.3376 34.0886 39.3376C34.2117 39.3376 34.297 39.366 34.3918 39.4607C35.7183 40.7872 37.0448 42.1138 38.3713 43.4403C38.4187 43.4876 38.4755 43.5445 38.5324 43.5824C38.8072 43.7624 39.0914 43.7814 39.3757 43.6298C39.6599 43.4782 39.8115 43.2318 39.8115 42.9097C39.8115 41.7726 39.8115 40.6356 39.8115 39.5081V39.3186C39.9063 39.2997 39.9726 39.2902 40.0389 39.2712C41.6686 38.9491 42.9478 37.5089 43.0236 35.8413C43.0615 34.998 43.0425 34.1547 43.0425 33.3114Z" fill="#FFC000"/>
<path fill-rule="evenodd" clip-rule="evenodd" d="M25.6293 22.8721C25.635 22.8721 25.6407 22.8721 25.6463 22.8721H39.1956C41.6478 22.8721 43.5425 24.7414 43.5425 27.2V33.3114C43.5425 33.516 43.5437 33.7228 43.5448 33.9313C43.5484 34.5669 43.5521 35.2174 43.5231 35.8637C43.4392 37.7078 42.0756 39.2922 40.3115 39.723V42.9097C40.3115 43.4209 40.0542 43.8346 39.611 44.0709C39.1562 44.3135 38.677 44.2749 38.2584 44.0006L38.255 43.9984C38.1554 43.932 38.0676 43.8438 38.0253 43.8014C38.0226 43.7987 38.0201 43.7961 38.0177 43.7938L34.0615 39.8376L25.6179 39.8376C23.6421 39.8376 21.9636 38.5614 21.4587 36.6629C21.3607 36.3029 21.3184 35.9366 21.3184 35.576V27.1407C21.329 25.0026 22.8789 23.2227 24.9847 22.9169C25.2186 22.872 25.4539 22.872 25.6293 22.8721ZM25.6463 23.8721C25.4478 23.8721 25.2991 23.8737 25.1664 23.9003L25.1526 23.903L25.1387 23.905C23.5185 24.1353 22.3272 25.4975 22.3184 27.1444V35.576C22.3184 35.8591 22.3517 36.1365 22.4239 36.4014L22.4248 36.4046C22.8111 37.8594 24.0884 38.8376 25.6179 38.8376H34.0886C34.1884 38.8376 34.3073 38.8489 34.4326 38.8978C34.5598 38.9475 34.6612 39.023 34.7453 39.1072L38.7249 43.0867C38.7497 43.1116 38.7679 43.1296 38.7854 43.1456C38.8003 43.1593 38.8095 43.1662 38.8095 43.1662C38.9388 43.2499 39.0275 43.2488 39.1404 43.1886C39.2656 43.1218 39.3115 43.0427 39.3115 42.9097V38.9087L39.7135 38.8283C39.7675 38.8175 39.8021 38.8112 39.827 38.8066C39.8619 38.8002 39.8778 38.7973 39.9016 38.7905L39.9215 38.7848L39.9419 38.7807C41.3529 38.5018 42.4591 37.2489 42.5241 35.8186C42.5519 35.1999 42.5484 34.5855 42.5449 33.9566C42.5437 33.7434 42.5425 33.5286 42.5425 33.3114V27.2C42.5425 25.3001 41.102 23.8721 39.1956 23.8721H25.6463Z" fill="black"/>
<path d="M32.3235 5.59986L31.5327 4.98779L26.7793 11.1293L31.4934 16.9043L32.2681 16.2719L28.4244 11.5632C37.433 10.8017 42.9328 13.5834 46.1918 16.5448C47.8697 18.0695 48.966 19.6533 49.6418 20.8534C49.9796 21.4532 50.2117 21.9561 50.3585 22.3062C50.4319 22.4812 50.4839 22.6179 50.517 22.7092C50.5335 22.7549 50.5454 22.7892 50.5528 22.8112L50.5608 22.835L50.5623 22.8398C50.5623 22.8398 50.5623 22.8398 51.0393 22.6901C51.5164 22.5403 51.5161 22.5395 51.5161 22.5395L51.5158 22.5384L51.5148 22.5353L51.5116 22.5255L51.5003 22.4914C51.4905 22.4624 51.4762 22.4211 51.457 22.3682C51.4186 22.2624 51.3608 22.1105 51.2807 21.9196C51.1207 21.5379 50.8719 20.9998 50.5131 20.3627C49.7958 19.089 48.6365 17.4151 46.8643 15.8047C43.4115 12.6672 37.6786 9.81341 28.4887 10.5545L32.3235 5.59986Z" fill="black"/>
<path d="M11.4222 34.9146C10.68 25.6575 13.3924 20.0047 16.2775 16.6573C17.7627 14.9343 19.3047 13.8093 20.472 13.1164C21.0554 12.77 21.5445 12.532 21.8846 12.3817C22.0546 12.3066 22.1873 12.2534 22.2758 12.2195C22.3201 12.2026 22.3533 12.1905 22.3746 12.183L22.3974 12.1749L22.402 12.1734C22.402 12.1734 22.4018 12.1735 22.2447 11.6988C22.0876 11.2241 22.0868 11.2244 22.0868 11.2244L22.0857 11.2247L22.0826 11.2258L22.0729 11.2291L22.0393 11.2408C22.0109 11.2509 21.9704 11.2657 21.9186 11.2855C21.8151 11.3251 21.6667 11.3847 21.4804 11.4671C21.1078 11.6317 20.5828 11.8876 19.9615 12.2565C18.7191 12.994 17.0882 14.1851 15.52 16.0045C12.4662 19.5475 9.69177 25.4254 10.4139 34.8483L5.61945 30.9343L4.98706 31.709L10.9871 36.6071L16.6297 31.7577L15.9779 30.9993L11.4222 34.9146Z" fill="black"/>
<path d="M59.2298 31.7022L53.2294 26.7937L47.5864 31.6535L48.239 32.4112L52.7944 28.4881C53.5362 37.7446 50.824 43.3994 47.9389 46.7489C46.4537 48.4732 44.9116 49.5994 43.7443 50.2932C43.1608 50.64 42.6717 50.8783 42.3316 51.0289C42.1615 51.1042 42.0288 51.1574 41.9403 51.1914C41.8961 51.2083 41.8629 51.2204 41.8416 51.228L41.8187 51.236L41.8142 51.2376C41.8142 51.2376 41.8144 51.2375 41.9718 51.7121C42.1292 52.1867 42.13 52.1864 42.13 52.1864L42.1311 52.1861L42.1342 52.185L42.1439 52.1817L42.1774 52.1699C42.2059 52.1598 42.2464 52.145 42.2981 52.1252C42.4016 52.0855 42.55 52.0258 42.7364 51.9433C43.109 51.7783 43.6339 51.5221 44.2552 51.1528C45.4975 50.4144 47.1284 49.2221 48.6966 47.4016C51.7501 43.8565 54.5244 37.9768 53.8027 28.5546L58.5966 32.4762L59.2298 31.7022Z" fill="black"/>
<path d="M35.4142 52.5868C26.4049 53.3487 20.9048 50.5669 17.6457 47.6053C15.9677 46.0807 14.8715 44.4969 14.1956 43.2968C13.8579 42.6969 13.6257 42.194 13.4789 41.8439C13.4056 41.6689 13.3536 41.5322 13.3204 41.4409C13.3039 41.3953 13.292 41.361 13.2846 41.3389L13.2767 41.3151L13.2751 41.3103C13.2751 41.3103 13.2751 41.3103 12.7981 41.4601C12.321 41.6099 12.3213 41.6106 12.3213 41.6106L12.3216 41.6117L12.3226 41.6148L12.3258 41.6247L12.3371 41.6587C12.3469 41.6877 12.3612 41.7291 12.3804 41.782C12.4188 41.8878 12.4767 42.0397 12.5567 42.2306C12.7167 42.6122 12.9655 43.1503 13.3243 43.7874C14.0416 45.0612 15.201 46.7351 16.9732 48.3454C20.4259 51.4829 26.1589 54.3367 35.3487 53.5956L31.5139 58.5503L32.3047 59.1624L37.0578 53.0212L32.3538 47.2463L31.5785 47.8778L35.4142 52.5868Z" fill="black"/>
</svg>
