<?xml version="1.0" encoding="utf-8"?>
<!-- Generator: Adobe Illustrator 27.7.0, SVG Export Plug-In . SVG Version: 6.00 Build 0)  -->
<svg version="1.1" id="Layer_1" xmlns="http://www.w3.org/2000/svg" xmlns:xlink="http://www.w3.org/1999/xlink" x="0px" y="0px"
	 viewBox="0 0 64 64" style="enable-background:new 0 0 64 64;" xml:space="preserve">
<style type="text/css">
	.st0{fill:#FFC612;stroke:#FFFFFF;stroke-miterlimit:10;}
	.st1{fill:none;stroke:#FFFFFF;stroke-miterlimit:10;}
</style>
<path class="st0" d="M6.5,29.2v27.4h51.2V29.2C57.8,29.2,6.5,29.2,6.5,29.2z M55.2,54.3h-46V31.5h46C55.1,31.5,55.1,54.3,55.2,54.3z
	"/>
<line class="st1" x1="15.1" y1="34.9" x2="15.1" y2="51.8"/>
<line class="st1" x1="23.6" y1="34.9" x2="23.6" y2="51.8"/>
<line class="st1" x1="32.1" y1="34.9" x2="32.1" y2="51.8"/>
<line class="st1" x1="40.7" y1="34.9" x2="40.7" y2="51.8"/>
<line class="st1" x1="49.2" y1="34.9" x2="49.2" y2="51.8"/>
<polyline class="st1" points="14.1,29.2 31.5,19.6 32.1,19.6 32.6,19.6 49.6,29.2 "/>
<path class="st1" d="M31.9,5.9v4.4c0,1.1,0.6,1.3,0.9,1.4c2,0.4,3.5,2.2,3.5,4.3c0,2.4-2,4.4-4.4,4.4s-4.4-2-4.4-4.4"/>
<line class="st1" x1="27" y1="5.3" x2="36.8" y2="5.3"/>
</svg>
