<svg width="64" height="64" viewBox="0 0 64 64" fill="none" xmlns="http://www.w3.org/2000/svg">
<path fill-rule="evenodd" clip-rule="evenodd" d="M27.7924 6.02002L48.5459 16.8869V41.1755L29.0346 52.0502L7.0188 40.5016V15.9645L27.7924 6.02002ZM8.0188 39.8969V17.073L28.5274 26.8879V50.6549L8.0188 39.8969ZM29.5274 50.6307L47.5459 40.5881V17.4921L47.2102 17.3163L47.3768 17.6316L29.5274 27.0623V50.6307ZM37.648 12.3094L46.5184 16.9541L29.2031 26.1026L19.7169 21.5628L37.69 12.3917L37.648 12.3094ZM36.6625 11.7934L27.7723 7.1383L8.67693 16.2794L18.5816 21.0195L36.6625 11.7934ZM19.679 36.1557C19.679 35.7421 19.5337 35.3905 19.2432 35.1112C18.9527 34.832 18.4651 34.5735 17.7699 34.3356C16.805 34.0461 16.1098 33.6634 15.6636 33.1877C15.2175 32.712 14.9996 32.1226 14.9996 31.3883C14.9996 30.6541 15.2175 30.0439 15.6429 29.5682C16.0683 29.0925 16.6701 28.8133 17.4275 28.7202V27.2414H18.4339V28.7306C19.1913 28.834 19.7828 29.1546 20.2082 29.682C20.6336 30.2094 20.8411 30.9436 20.8411 31.864H19.596C19.596 31.2229 19.4404 30.7161 19.1395 30.3438C18.8386 29.9715 18.4236 29.7854 17.9151 29.7854C17.4067 29.7854 16.9606 29.9198 16.6805 30.1991C16.4003 30.4783 16.2551 30.8609 16.2551 31.3573C16.2551 31.8227 16.4003 32.1846 16.7012 32.4535C17.0021 32.7224 17.5001 32.9706 18.1849 33.1981C18.8697 33.4256 19.4092 33.6634 19.8035 33.9323C20.1978 34.2012 20.4779 34.5114 20.6543 34.8734C20.8307 35.2353 20.9241 35.649 20.9241 36.1247C20.9241 36.89 20.6958 37.5001 20.2393 37.9655C19.7828 38.4309 19.1395 38.6997 18.3094 38.7928V40.0855H17.303V38.7928C16.4626 38.7204 15.7985 38.4205 15.3212 37.8931C14.844 37.3657 14.6053 36.6625 14.6053 35.7731H15.8608C15.8608 36.4039 16.0268 36.8796 16.3588 37.2209C16.6908 37.5622 17.1577 37.7276 17.7595 37.7276C18.3613 37.7276 18.8178 37.5829 19.1602 37.3036C19.5026 37.0244 19.6686 36.6314 19.6686 36.1454L19.679 36.1557Z" fill="black"/>
<path fill-rule="evenodd" clip-rule="evenodd" d="M43.0136 32.981V49.2171H37.9192L46.8422 58.2658L55.7652 49.2171H50.2454V32.981H43.024H43.0136Z" fill="#FFC000"/>
<path fill-rule="evenodd" clip-rule="evenodd" d="M42.5138 32.481H50.7456V48.7171H56.9607L46.8424 58.9779L36.7241 48.7171H42.5138V32.481ZM43.5138 33.481V49.7171H39.1146L46.8424 57.5537L54.5701 49.7171H49.7456V33.481H43.5138Z" fill="black"/>
</svg>
