<?xml version="1.0" encoding="utf-8"?>
<!-- Generator: Adobe Illustrator 27.6.1, SVG Export Plug-In . SVG Version: 6.00 Build 0)  -->
<svg version="1.1" xmlns="http://www.w3.org/2000/svg" xmlns:xlink="http://www.w3.org/1999/xlink" x="0px" y="0px"
	 viewBox="0 0 64 64" enable-background="new 0 0 64 64" xml:space="preserve">
<g id="Background" display="none">
</g>
<g id="Icon">
	<g id="Pfeil_28">
	</g>
	<path fill="none" stroke="#000000" stroke-miterlimit="10" d="M50.2,39.7c-0.2-2.7-0.6-5.4-1.3-8.1c-0.8-3-2-5.8-4.2-8
		c-1.7-1.7-3.7-3-5.8-4.1c-0.4-0.2-0.5-0.4-0.3-0.9c0.9-2.1,1.7-4.3,2.5-6.4c0.8-2.2-0.4-4.4-2.6-4.9c-0.9-0.2-1.8,0-2.6,0.3
		c-0.3,0.1-0.4,0.1-0.6-0.2c-0.6-0.9-1.4-1.5-2.5-1.8C30.6,5,28.4,6,27.3,8.2c-0.1,0.3-0.3,0.3-0.6,0.3c-0.7,0-1.4,0-2.1,0.1
		c-3.2,0.3-4.6,3.1-2.9,5.8c0.2,0.4,0.5,0.8,0.8,1.2c0.8,1.3,1.7,2.5,2.5,3.8c-0.7,0.4-1.4,0.8-2.1,1.3c-2.9,1.8-5.3,4.1-6.6,7.3
		c-0.9,2.2-1.6,4.4-1.9,6.8c-0.4,3.9-0.8,7.8-1.1,11.7c-0.2,2-0.2,4-0.1,6c0.2,3.5,3.1,6.1,6.6,6.1c8.1,0,16.3,0,24.4-0.1
		c3.9,0,6.9-3.1,6.7-7C50.7,47.5,50.5,43.6,50.2,39.7z"/>
	<line fill="none" stroke="#000000" stroke-miterlimit="10" x1="24.9" y1="19.4" x2="38.9" y2="19.4"/>
	<g>
		<path fill="#FFC000" stroke="#000000" stroke-miterlimit="10" d="M34.6,43.4c0-0.7-0.2-1.3-0.6-1.7s-1-0.8-2-1.1
			c-0.9-0.3-1.7-0.7-2.4-1s-1.3-0.7-1.7-1.2c-0.5-0.4-0.9-1-1.1-1.6s-0.4-1.3-0.4-2.2c0-1.4,0.5-2.6,1.4-3.5s2.1-1.5,3.7-1.6v-2.7h2
			v2.8c1.5,0.2,2.7,0.8,3.5,1.9s1.3,2.4,1.3,4.1h-3.7c0-1-0.2-1.8-0.6-2.3c-0.4-0.5-1-0.8-1.7-0.8c-0.7,0-1.2,0.2-1.6,0.6
			s-0.6,0.9-0.6,1.6c0,0.6,0.2,1.2,0.6,1.6c0.4,0.4,1.1,0.8,2.1,1.2s1.9,0.8,2.5,1.2c0.7,0.4,1.2,0.8,1.7,1.2c0.5,0.5,0.8,1,1,1.6
			c0.2,0.6,0.4,1.3,0.4,2c0,1.4-0.5,2.6-1.4,3.5c-0.9,0.9-2.1,1.4-3.7,1.6v2.5h-2v-2.5c-1.7-0.2-3.1-0.8-4.1-1.9
			c-1-1.1-1.4-2.5-1.4-4.2h3.7c0,1,0.2,1.8,0.7,2.3s1.2,0.8,2.1,0.8c0.8,0,1.3-0.2,1.8-0.6S34.6,44.1,34.6,43.4z"/>
	</g>
</g>
</svg>
