<?xml version="1.0" encoding="UTF-8"?>
<svg id="Layer_1" data-name="Layer 1" xmlns="http://www.w3.org/2000/svg" viewBox="0 0 64 64">
  <defs>
    <style>
      .cls-1 {
        fill: #fff;
        stroke-linecap: round;
      }

      .cls-1, .cls-2 {
        stroke: #000;
        stroke-miterlimit: 10;
      }

      .cls-2 {
        fill: #ffc612;
      }
    </style>
  </defs>
  <g>
    <line class="cls-1" x1="21.05" y1="6.4" x2="21.05" y2="9.46"/>
    <line class="cls-1" x1="28.1" y1="6.4" x2="28.1" y2="9.46"/>
    <line class="cls-1" x1="35.15" y1="6.4" x2="35.15" y2="9.46"/>
    <line class="cls-1" x1="42.2" y1="6.4" x2="42.2" y2="9.46"/>
  </g>
  <g>
    <line class="cls-1" x1="21.05" y1="52.74" x2="21.05" y2="55.46"/>
    <line class="cls-1" x1="28.1" y1="52.74" x2="28.1" y2="55.46"/>
    <line class="cls-1" x1="35.15" y1="52.74" x2="35.15" y2="55.46"/>
    <line class="cls-1" x1="42.2" y1="52.74" x2="42.2" y2="55.46"/>
  </g>
  <g>
    <line class="cls-1" x1="9.79" y1="20.64" x2="6.12" y2="20.64"/>
    <line class="cls-1" x1="9.79" y1="27.69" x2="6.12" y2="27.69"/>
    <line class="cls-1" x1="9.79" y1="34.74" x2="6.12" y2="34.74"/>
    <line class="cls-1" x1="9.79" y1="41.79" x2="6.12" y2="41.79"/>
  </g>
  <g>
    <line class="cls-1" x1="57.65" y1="20.64" x2="53.98" y2="20.64"/>
    <line class="cls-1" x1="57.65" y1="27.69" x2="53.98" y2="27.69"/>
    <line class="cls-1" x1="57.65" y1="34.74" x2="53.98" y2="34.74"/>
    <line class="cls-1" x1="57.65" y1="41.79" x2="53.98" y2="41.79"/>
  </g>
  <path class="cls-2" d="m9.79,9.67v42.32h44.2V9.67H9.79Zm40.73,35.84c0,1.64-1.35,2.99-2.99,2.99H15.82c-1.64,0-2.99-1.35-2.99-2.99V15.99c0-1.64,1.35-2.99,2.99-2.99h31.7c1.64,0,2.99,1.35,2.99,2.99v29.53Z"/>
  <rect class="cls-2" x="26.45" y="25.2" width="11.1" height="11.1"/>
</svg>