<?xml version="1.0" encoding="utf-8"?>
<!-- Generator: Adobe Illustrator 27.7.0, SVG Export Plug-In . SVG Version: 6.00 Build 0)  -->
<svg version="1.1" id="Layer_1" xmlns="http://www.w3.org/2000/svg" xmlns:xlink="http://www.w3.org/1999/xlink" x="0px" y="0px"
	 viewBox="0 0 64 64" style="enable-background:new 0 0 64 64;" xml:space="preserve">
<style type="text/css">
	.st0{fill:none;stroke:#FFFFFF;stroke-linecap:round;stroke-miterlimit:10;}
	.st1{fill:#FFC612;stroke:#FFFFFF;stroke-miterlimit:10;}
</style>
<g>
	<line class="st0" x1="21" y1="6.4" x2="21" y2="9.5"/>
	<line class="st0" x1="28.1" y1="6.4" x2="28.1" y2="9.5"/>
	<line class="st0" x1="35.2" y1="6.4" x2="35.2" y2="9.5"/>
	<line class="st0" x1="42.2" y1="6.4" x2="42.2" y2="9.5"/>
</g>
<g>
	<line class="st0" x1="21" y1="52.7" x2="21" y2="55.5"/>
	<line class="st0" x1="28.1" y1="52.7" x2="28.1" y2="55.5"/>
	<line class="st0" x1="35.2" y1="52.7" x2="35.2" y2="55.5"/>
	<line class="st0" x1="42.2" y1="52.7" x2="42.2" y2="55.5"/>
</g>
<g>
	<line class="st0" x1="9.8" y1="20.6" x2="6.1" y2="20.6"/>
	<line class="st0" x1="9.8" y1="27.7" x2="6.1" y2="27.7"/>
	<line class="st0" x1="9.8" y1="34.7" x2="6.1" y2="34.7"/>
	<line class="st0" x1="9.8" y1="41.8" x2="6.1" y2="41.8"/>
</g>
<g>
	<line class="st0" x1="57.7" y1="20.6" x2="54" y2="20.6"/>
	<line class="st0" x1="57.7" y1="27.7" x2="54" y2="27.7"/>
	<line class="st0" x1="57.7" y1="34.7" x2="54" y2="34.7"/>
	<line class="st0" x1="57.7" y1="41.8" x2="54" y2="41.8"/>
</g>
<path class="st1" d="M9.8,9.7V52H54V9.7H9.8z M50.5,45.5c0,1.6-1.3,3-3,3H15.8c-1.6,0-3-1.3-3-3V16c0-1.6,1.4-3,3-3h31.7
	c1.6,0,3,1.4,3,3L50.5,45.5L50.5,45.5z"/>
<rect x="26.5" y="25.2" class="st1" width="11.1" height="11.1"/>
</svg>
