<svg width="64" height="64" viewBox="0 0 64 64" fill="none" xmlns="http://www.w3.org/2000/svg">
<path d="M58.5089 28.8618H30.5581V48.5711H58.5089V28.8618Z" fill="#FFC000"/>
<path fill-rule="evenodd" clip-rule="evenodd" d="M4.82822 16.3359C4.82313 16.4095 4.82056 16.4835 4.82056 16.558C4.82056 16.6325 4.82313 16.7065 4.82822 16.78V26.7595C4.82318 26.7898 4.82056 26.8209 4.82056 26.8526C4.82056 26.9271 4.82313 27.0011 4.82822 27.0746V37.0541C4.82318 37.0844 4.82056 37.1155 4.82056 37.1472C4.82056 37.2217 4.82313 37.2957 4.82822 37.3692V47.4419C4.82822 48.6527 5.50918 49.7324 6.57478 50.643C7.64251 51.5555 9.15442 52.3519 10.9736 53.0097C14.6166 54.3269 19.6122 55.1312 25.1033 55.1312C31.2615 55.1312 36.8071 54.1202 40.5163 52.4986C41.0452 52.2669 41.5408 52.0246 42.0001 51.7636C42.2709 51.6097 42.3657 51.2653 42.2118 50.9944C42.0579 50.7236 41.7136 50.6288 41.4427 50.7827C41.0249 51.0201 40.5661 51.2451 40.064 51.4651C36.5412 53.005 31.1621 54.003 25.1033 54.003C19.7079 54.003 14.848 53.2109 11.3572 51.9487C9.60942 51.3167 8.23479 50.5776 7.30772 49.7854C6.37853 48.9913 5.95642 48.1973 5.95642 47.4419V39.7604C6.14168 39.9635 6.34613 40.1596 6.56712 40.3484C7.63486 41.2609 9.14676 42.0573 10.9659 42.715C14.6089 44.0323 19.6046 44.8366 25.0956 44.8366C25.4071 44.8366 25.6597 44.584 25.6597 44.2725C25.6597 43.9609 25.4071 43.7084 25.0956 43.7084C19.7002 43.7084 14.8404 42.9163 11.3495 41.6541C9.60176 41.0221 8.22713 40.283 7.30006 39.4907C6.44295 38.7583 6.0173 38.0258 5.95642 37.3237V29.4658C6.14168 29.6689 6.34613 29.865 6.56712 30.0538C7.63486 30.9663 9.14676 31.7627 10.9659 32.4204C14.6089 33.7377 19.6046 34.542 25.0956 34.542C25.6015 34.542 26.1 34.5341 26.5909 34.5183L26.6008 34.518L26.6107 34.5173C26.7038 34.5111 26.8075 34.5108 26.9267 34.5108C27.2382 34.5108 27.4908 34.2583 27.4908 33.9467C27.4908 33.6352 27.2382 33.3826 26.9267 33.3826H26.9189C26.8113 33.3826 26.6765 33.3826 26.5453 33.391C26.0698 33.4062 25.5866 33.4138 25.0956 33.4138C19.7002 33.4138 14.8404 32.6217 11.3495 31.3595C9.60176 30.7275 8.22713 29.9884 7.30006 29.1961C6.44295 28.4637 6.0173 27.7312 5.95642 27.0291V19.1721C6.14169 19.3752 6.34614 19.5714 6.56715 19.7603C7.63494 20.6729 9.1469 21.4692 10.9661 22.1268C14.6092 23.4437 19.6048 24.2473 25.0956 24.2473C30.5864 24.2473 35.582 23.4437 39.2251 22.1268C41.0443 21.4692 42.5563 20.6729 43.624 19.7603C43.8512 19.5662 44.0608 19.3644 44.2501 19.1553V24.4931C44.2501 24.8047 44.5026 25.0572 44.8142 25.0572C45.1257 25.0572 45.3783 24.8047 45.3783 24.4931V16.3244C45.3783 16.2532 45.3651 16.1851 45.341 16.1223C45.1995 15.0866 44.5603 14.1559 43.624 13.3557C42.5563 12.4431 41.0443 11.6468 39.2251 10.9892C35.582 9.67225 30.5864 8.86865 25.0956 8.86865C19.6048 8.86865 14.6092 9.67225 10.9661 10.9892C9.1469 11.6468 7.63494 12.4431 6.56715 13.3557C5.60329 14.1795 4.95422 15.1417 4.83896 16.2143C4.83191 16.2499 4.82822 16.2867 4.82822 16.3244V16.3359ZM5.95642 16.3814C6.01731 15.6786 6.44306 14.9459 7.30014 14.2134C8.2272 13.421 9.60184 12.682 11.3496 12.0502C14.8405 10.7883 19.7004 9.99686 25.0956 9.99686C30.4908 9.99686 35.3507 10.7883 38.8416 12.0502C40.5894 12.682 41.964 13.421 42.8911 14.2134C43.8202 15.0075 44.2424 15.8018 44.2424 16.558C44.2424 17.3142 43.8202 18.1085 42.8911 18.9026C41.964 19.695 40.5894 20.434 38.8416 21.0658C35.3507 22.3277 30.4908 23.1191 25.0956 23.1191C19.7004 23.1191 14.8405 22.3277 11.3496 21.0658C9.60184 20.434 8.2272 19.695 7.30014 18.9026C6.44306 18.1701 6.01731 17.4374 5.95642 16.7346V16.3814Z" fill="black"/>
<path fill-rule="evenodd" clip-rule="evenodd" d="M30.058 28.3617H59.0088V49.071H30.058V28.3617ZM31.058 33.0217V48.071H58.0088V33.0217H31.058ZM31.058 32.0217H58.0088V29.3617H31.058V32.0217Z" fill="black"/>
</svg>
