<svg width="64" height="64" viewBox="0 0 64 64" fill="none" xmlns="http://www.w3.org/2000/svg">
<path d="M22.5968 24.3697C32.1292 24.3697 39.8568 21.4723 39.8568 17.8982C39.8568 14.3241 32.1292 11.4268 22.5968 11.4268C13.0644 11.4268 5.33691 14.3241 5.33691 17.8982C5.33691 21.4723 13.0644 24.3697 22.5968 24.3697Z" fill="#FFC000"/>
<path fill-rule="evenodd" clip-rule="evenodd" d="M7.02496 15.7534C6.21304 16.4731 5.83691 17.1991 5.83691 17.8982C5.83691 18.5974 6.21304 19.3233 7.02496 20.0431C7.8363 20.7623 9.03885 21.4328 10.5678 22.0061C13.6219 23.1512 17.8747 23.8697 22.5968 23.8697C27.319 23.8697 31.5718 23.1512 34.6259 22.0061C36.1548 21.4328 37.3574 20.7623 38.1687 20.0431C38.9806 19.3233 39.3568 18.5974 39.3568 17.8982C39.3568 17.1991 38.9806 16.4731 38.1687 15.7534C37.3574 15.0342 36.1548 14.3636 34.6259 13.7904C31.5718 12.6453 27.319 11.9268 22.5968 11.9268C17.8747 11.9268 13.6219 12.6453 10.5678 13.7904C9.03885 14.3636 7.8363 15.0342 7.02496 15.7534ZM10.2167 12.854C13.4094 11.657 17.7866 10.9268 22.5968 10.9268C27.4071 10.9268 31.7843 11.657 34.977 12.854C36.5715 13.4519 37.8966 14.1758 38.8321 15.0051C39.7669 15.8338 40.3568 16.8103 40.3568 17.8982C40.3568 18.9861 39.7669 19.9626 38.8321 20.7914C37.8966 21.6206 36.5715 22.3446 34.977 22.9424C31.7843 24.1395 27.4071 24.8697 22.5968 24.8697C17.7866 24.8697 13.4094 24.1395 10.2167 22.9424C8.62218 22.3446 7.29707 21.6206 6.36161 20.7914C5.42673 19.9626 4.83691 18.9861 4.83691 17.8982C4.83691 16.8103 5.42673 15.8338 6.36161 15.0051C7.29707 14.1758 8.62218 13.4519 10.2167 12.854Z" fill="black"/>
<path fill-rule="evenodd" clip-rule="evenodd" d="M5.33691 26.7483C5.61306 26.7483 5.83691 26.9721 5.83691 27.2483C5.83691 27.9467 6.21293 28.6724 7.02489 29.3921C7.83623 30.1112 9.03878 30.7818 10.5677 31.3552C13.6218 32.5007 17.8746 33.2197 22.5968 33.2197C23.0264 33.2197 23.4491 33.2128 23.8651 33.1991C23.9807 33.1914 24.0992 33.1914 24.1932 33.1914H24.2002C24.4764 33.1914 24.7002 33.4153 24.7002 33.6914C24.7002 33.9676 24.4764 34.1914 24.2002 34.1914C24.0957 34.1914 24.0058 34.1917 23.9252 34.1973L23.9161 34.1979L23.907 34.1982C23.4768 34.2126 23.0401 34.2197 22.5968 34.2197C17.7864 34.2197 13.4092 33.4889 10.2165 32.2915C8.62205 31.6935 7.297 30.9695 6.36159 30.1404C5.4268 29.3119 4.83691 28.3356 4.83691 27.2483C4.83691 26.9721 5.06077 26.7483 5.33691 26.7483Z" fill="black"/>
<path fill-rule="evenodd" clip-rule="evenodd" d="M5.33691 36.0983C5.61306 36.0983 5.83691 36.3222 5.83691 36.5983C5.83691 37.2968 6.21293 38.0224 7.02489 38.7421C7.83623 39.4613 9.03878 40.1319 10.5677 40.7053C13.6218 41.8507 17.8746 42.5698 22.5968 42.5698C22.873 42.5698 23.0968 42.7937 23.0968 43.0698C23.0968 43.3459 22.873 43.5698 22.5968 43.5698C17.7864 43.5698 13.4092 42.839 10.2165 41.6416C8.62205 41.0436 7.297 40.3196 6.36159 39.4905C5.4268 38.6619 4.83691 37.6857 4.83691 36.5983C4.83691 36.3222 5.06077 36.0983 5.33691 36.0983Z" fill="black"/>
<path fill-rule="evenodd" clip-rule="evenodd" d="M5.34369 17.186C5.61984 17.186 5.84369 17.4099 5.84369 17.686V45.9484C5.84369 46.6468 6.21971 47.3725 7.03167 48.0922C7.84301 48.8113 9.04556 49.4819 10.5745 50.0553C13.6286 51.2008 17.8814 51.9198 22.6036 51.9198C27.9066 51.9198 32.6136 51.0138 35.6954 49.6165C36.1346 49.4169 36.536 49.2127 36.9014 48.9974C37.1393 48.8571 37.4458 48.9363 37.5861 49.1742C37.7263 49.4121 37.6471 49.7186 37.4092 49.8589C37.0066 50.0961 36.5726 50.3163 36.1091 50.5269C32.8582 52.001 27.9986 52.9198 22.6036 52.9198C17.7931 52.9198 13.416 52.189 10.2233 50.9916C8.62882 50.3936 7.30378 49.6696 6.36837 48.8405C5.43358 48.012 4.84369 47.0357 4.84369 45.9484V17.686C4.84369 17.4099 5.06755 17.186 5.34369 17.186Z" fill="black"/>
<path fill-rule="evenodd" clip-rule="evenodd" d="M39.8635 17.186C40.1396 17.186 40.3635 17.4099 40.3635 17.686V25.1053C40.3635 25.3814 40.1396 25.6053 39.8635 25.6053C39.5874 25.6053 39.3635 25.3814 39.3635 25.1053V17.686C39.3635 17.4099 39.5874 17.186 39.8635 17.186Z" fill="black"/>
<path d="M52.9331 32.0364C52.3402 32.0294 51.936 32.3264 51.5048 32.5598C51.0198 32.8286 50.5617 33.1398 50.016 33.26C49.4838 33.3803 48.992 33.2812 48.5002 33.062C47.9478 32.8144 47.456 32.4467 46.9103 32.192C46.3983 31.9587 45.8863 31.9728 45.381 32.2486C44.8218 32.5598 44.2829 32.9347 43.6833 33.161C43.2791 33.3166 42.8479 33.3732 42.41 33.26C41.8172 33.1115 41.3119 32.7862 40.7932 32.482C40.1734 32.1142 39.5334 31.8313 38.826 32.1991C38.4218 32.4113 38.0311 32.6588 37.6336 32.8781C36.7915 33.3449 35.9359 33.5005 35.0466 32.9983C34.6087 32.7508 34.1573 32.5174 33.7194 32.2698C33.1401 31.9516 32.5742 31.9445 31.9881 32.2981C31.4693 32.6093 30.9371 32.9135 30.3779 33.1469C29.9805 33.3166 29.5493 33.3661 29.1047 33.2671C28.532 33.1398 28.0537 32.8215 27.5485 32.5457C27.1308 32.3123 26.7266 32.0506 26.228 32.0294C25.9585 32.0152 25.7362 31.7535 25.7632 31.5272C25.7834 31.2726 26.0192 31.0675 26.2954 31.1029C26.6457 31.1453 26.9893 31.2231 27.3059 31.3928C27.8314 31.6828 28.3501 31.994 28.8958 32.2557C29.3203 32.4608 29.7649 32.4537 30.1961 32.2416C30.762 31.9728 31.2807 31.5909 31.8533 31.3433C32.3519 31.1312 32.8639 31.0109 33.423 31.1877C33.9957 31.3645 34.4942 31.6757 34.9995 31.9728C35.4643 32.2486 35.9426 32.4679 36.5018 32.383C36.778 32.3406 37.0138 32.185 37.2563 32.0577C37.6403 31.8526 38.0041 31.6121 38.3949 31.4211C38.9405 31.1594 39.4862 31.0038 40.0993 31.1948C40.6517 31.3645 41.1368 31.6687 41.6353 31.9587C42.1069 32.2416 42.5919 32.475 43.1578 32.383C43.4543 32.3335 43.7103 32.1779 43.9595 32.0364C44.3637 31.796 44.768 31.5343 45.1924 31.3504C45.6774 31.1382 46.1827 31.018 46.7351 31.1877C47.3145 31.3645 47.8198 31.6828 48.3385 31.9799C48.8034 32.2557 49.2817 32.475 49.8408 32.383C50.117 32.3335 50.3528 32.1779 50.5886 32.0506C50.9659 31.8526 51.323 31.6121 51.707 31.4282C52.2661 31.1524 52.8185 31.0038 53.4383 31.1948C53.9908 31.3645 54.4758 31.6687 54.9676 31.9587C55.4325 32.2274 55.904 32.475 56.4699 32.383C56.7933 32.3335 57.0628 32.1496 57.339 31.994C57.9521 31.6545 58.5382 31.2585 59.2388 31.1241C59.414 31.0887 59.5824 31.0534 59.7441 31.1807C59.899 31.2938 60.0338 31.4211 59.9799 31.6333C59.926 31.8596 59.7575 32.0152 59.5487 32.0294C59.0165 32.0506 58.5853 32.3335 58.1407 32.5881C57.6219 32.8781 57.1167 33.2105 56.5104 33.3025C56.0522 33.3732 55.6278 33.2671 55.2236 33.0973C54.6442 32.8569 54.1255 32.482 53.5663 32.192C53.344 32.0789 53.0948 32.0577 52.9331 32.0435V32.0364Z" fill="black"/>
<path d="M52.9331 38.3877C52.3402 38.3806 51.936 38.6777 51.5048 38.9111C51.0198 39.1798 50.5617 39.491 50.016 39.6113C49.4838 39.7315 48.992 39.6325 48.5002 39.4132C47.9478 39.1657 47.456 38.7979 46.9103 38.5433C46.3983 38.3099 45.8863 38.324 45.381 38.5999C44.8218 38.9111 44.2829 39.2859 43.6833 39.5122C43.2791 39.6678 42.8479 39.7244 42.41 39.6113C41.8172 39.4627 41.3119 39.1374 40.7932 38.8333C40.1734 38.4655 39.5334 38.1826 38.826 38.5504C38.4218 38.7625 38.0311 39.0101 37.6336 39.2293C36.7915 39.6961 35.9359 39.8517 35.0466 39.3496C34.6087 39.102 34.1573 38.8686 33.7194 38.6211C33.1401 38.3028 32.5742 38.2957 31.9881 38.6494C31.4693 38.9606 30.9371 39.2647 30.3779 39.4981C29.9805 39.6678 29.5493 39.7173 29.1047 39.6183C28.532 39.491 28.0537 39.1728 27.5485 38.8969C27.1308 38.6635 26.7266 38.4018 26.228 38.3806C25.9585 38.3665 25.7362 38.1048 25.7632 37.8785C25.7834 37.6238 26.0192 37.4187 26.2954 37.4541C26.6457 37.4965 26.9893 37.5743 27.3059 37.7441C27.8314 38.0341 28.3501 38.3453 28.8958 38.6069C29.3203 38.812 29.7649 38.805 30.1961 38.5928C30.762 38.324 31.2807 37.9421 31.8533 37.6946C32.3519 37.4824 32.8639 37.3622 33.423 37.539C33.9957 37.7158 34.4942 38.027 34.9995 38.324C35.4643 38.5999 35.9426 38.8191 36.5018 38.7343C36.778 38.6918 37.0138 38.5362 37.2563 38.4089C37.6403 38.2038 38.0041 37.9633 38.3949 37.7724C38.9405 37.5107 39.4862 37.3551 40.0993 37.546C40.6517 37.7158 41.1368 38.0199 41.6353 38.3099C42.1069 38.5928 42.5919 38.8262 43.1578 38.7343C43.4543 38.6847 43.7103 38.5291 43.9595 38.3877C44.3637 38.1472 44.768 37.8855 45.1924 37.7016C45.6774 37.4895 46.1827 37.3692 46.7351 37.539C47.3145 37.7158 47.8198 38.0341 48.3385 38.3311C48.8034 38.6069 49.2817 38.8262 49.8408 38.7343C50.117 38.6847 50.3528 38.5291 50.5886 38.4018C50.9659 38.2038 51.323 37.9633 51.707 37.7794C52.2661 37.5036 52.8185 37.3551 53.4383 37.546C53.9908 37.7158 54.4758 38.0199 54.9676 38.3099C55.4325 38.5786 55.904 38.8262 56.4699 38.7343C56.7933 38.6847 57.0628 38.5009 57.339 38.3453C57.9521 38.0058 58.5382 37.6097 59.2388 37.4753C59.414 37.44 59.5824 37.4046 59.7441 37.5319C59.899 37.6451 60.0338 37.7724 59.9799 37.9845C59.926 38.2109 59.7575 38.3665 59.5487 38.3806C59.0165 38.4018 58.5853 38.6847 58.1407 38.9394C57.6219 39.2293 57.1167 39.5617 56.5104 39.6537C56.0522 39.7244 55.6278 39.6183 55.2236 39.4486C54.6442 39.2081 54.1255 38.8333 53.5663 38.5433C53.344 38.4301 53.0948 38.4089 52.9331 38.3948V38.3877Z" fill="black"/>
<path d="M52.9331 44.7319C52.3402 44.7248 51.936 45.0218 51.5048 45.2552C51.0198 45.524 50.5617 45.8352 50.016 45.9554C49.4838 46.0757 48.992 45.9766 48.5002 45.7574C47.9478 45.5099 47.456 45.1421 46.9103 44.8875C46.3983 44.6541 45.8863 44.6682 45.381 44.944C44.8218 45.2552 44.2829 45.6301 43.6833 45.8564C43.2791 46.012 42.8479 46.0686 42.41 45.9554C41.8172 45.8069 41.3119 45.4816 40.7932 45.1774C40.1734 44.8097 39.5334 44.5268 38.826 44.8945C38.4218 45.1067 38.0311 45.3542 37.6336 45.5735C36.7915 46.0403 35.9359 46.1959 35.0466 45.6937C34.6087 45.4462 34.1573 45.2128 33.7194 44.9653C33.1401 44.647 32.5742 44.6399 31.9881 44.9935C31.4693 45.3047 30.9371 45.6089 30.3779 45.8423C29.9805 46.012 29.5493 46.0615 29.1047 45.9625C28.532 45.8352 28.0537 45.5169 27.5485 45.2411C27.1308 45.0077 26.7266 44.746 26.228 44.7248C25.9585 44.7106 25.7362 44.449 25.7632 44.2226C25.7834 43.968 26.0192 43.7629 26.2954 43.7983C26.6457 43.8407 26.9893 43.9185 27.3059 44.0882C27.8314 44.3782 28.3501 44.6894 28.8958 44.9511C29.3203 45.1562 29.7649 45.1491 30.1961 44.937C30.762 44.6682 31.2807 44.2863 31.8533 44.0387C32.3519 43.8266 32.8639 43.7063 33.423 43.8831C33.9957 44.06 34.4942 44.3712 34.9995 44.6682C35.4643 44.944 35.9426 45.1633 36.5018 45.0784C36.778 45.036 37.0138 44.8804 37.2563 44.7531C37.6403 44.548 38.0041 44.3075 38.3949 44.1165C38.9405 43.8549 39.4862 43.6993 40.0993 43.8902C40.6517 44.06 41.1368 44.3641 41.6353 44.6541C42.1069 44.937 42.5919 45.1704 43.1578 45.0784C43.4543 45.0289 43.7103 44.8733 43.9595 44.7319C44.3637 44.4914 44.768 44.2297 45.1924 44.0458C45.6774 43.8336 46.1827 43.7134 46.7351 43.8831C47.3145 44.06 47.8198 44.3782 48.3385 44.6753C48.8034 44.9511 49.2817 45.1704 49.8408 45.0784C50.117 45.0289 50.3528 44.8733 50.5886 44.746C50.9659 44.548 51.323 44.3075 51.707 44.1236C52.2661 43.8478 52.8185 43.6993 53.4383 43.8902C53.9908 44.06 54.4758 44.3641 54.9676 44.6541C55.4325 44.9228 55.904 45.1704 56.4699 45.0784C56.7933 45.0289 57.0628 44.845 57.339 44.6894C57.9521 44.3499 58.5382 43.9539 59.2388 43.8195C59.414 43.7841 59.5824 43.7488 59.7441 43.8761C59.899 43.9892 60.0338 44.1165 59.9799 44.3287C59.926 44.555 59.7575 44.7106 59.5487 44.7248C59.0165 44.746 58.5853 45.0289 58.1407 45.2835C57.6219 45.5735 57.1167 45.9059 56.5104 45.9979C56.0522 46.0686 55.6278 45.9625 55.2236 45.7928C54.6442 45.5523 54.1255 45.1774 53.5663 44.8875C53.344 44.7743 53.0948 44.7531 52.9331 44.7389V44.7319Z" fill="black"/>
</svg>
