<svg width="64" height="64" viewBox="0 0 64 64" fill="none" xmlns="http://www.w3.org/2000/svg">
<path d="M59.2692 44.008C59.4525 35.8175 52.8993 29.0259 44.6323 28.8385C36.3653 28.6511 29.515 35.1389 29.3318 43.3295C29.1485 51.52 35.7017 58.3116 43.9687 58.499C52.2357 58.6863 59.086 52.1985 59.2692 44.008Z" fill="#FFC000"/>
<path fill-rule="evenodd" clip-rule="evenodd" d="M10.8803 9.89156C7.13391 11.6644 5.03442 14.0152 5.03442 16.4451C5.03442 18.8749 7.13391 21.2258 10.8803 22.9986C14.5883 24.7533 19.7461 25.8523 25.4703 25.8523C31.1945 25.8523 36.3523 24.7533 40.0603 22.9986C43.8067 21.2258 45.9062 18.8749 45.9062 16.4451C45.9062 14.0152 43.8067 11.6644 40.0603 9.89156C36.3523 8.13683 31.1945 7.03784 25.4703 7.03784C19.7461 7.03784 14.5883 8.13683 10.8803 9.89156ZM10.4525 8.98766C14.3218 7.15666 19.6319 6.03784 25.4703 6.03784C31.3087 6.03784 36.6188 7.15666 40.4881 8.98766C44.319 10.8005 46.9062 13.4033 46.9062 16.4451C46.9062 19.4869 44.319 22.0896 40.4881 23.9025C36.6188 25.7335 31.3087 26.8523 25.4703 26.8523C19.6319 26.8523 14.3218 25.7335 10.4525 23.9025C6.62159 22.0896 4.03442 19.4869 4.03442 16.4451C4.03442 13.4033 6.62159 10.8005 10.4525 8.98766Z" fill="black"/>
<path fill-rule="evenodd" clip-rule="evenodd" d="M10.8799 32.1758C14.5879 33.93 19.7457 35.0281 25.4703 35.0281C27.5773 35.0281 30.159 34.8986 32.1098 34.439L32.3391 35.4124C30.2717 35.8994 27.5954 36.0281 25.4703 36.0281C19.6316 36.0281 14.3214 34.9102 10.4523 33.0797C6.62129 31.2672 4.03442 28.6644 4.03442 25.6209H5.03442C5.03442 28.0526 7.13382 30.4034 10.8799 32.1758Z" fill="black"/>
<path fill-rule="evenodd" clip-rule="evenodd" d="M10.8799 42.438C14.5879 44.1922 19.7457 45.2903 25.4703 45.2903C26.6677 45.2903 28.6908 45.2153 29.8224 45.0993L29.9243 46.0941C28.7476 46.2147 26.6881 46.2903 25.4703 46.2903C19.6316 46.2903 14.3214 45.1725 10.4523 43.3419C6.62129 41.5295 4.03442 38.9266 4.03442 35.8831H5.03442C5.03442 38.3149 7.13382 40.6657 10.8799 42.438Z" fill="black"/>
<path fill-rule="evenodd" clip-rule="evenodd" d="M4.07717 15.7775L5.07717 15.7788L5.03442 47.2318C5.03462 49.6579 7.13376 52.009 10.8801 53.7827C14.5881 55.5383 19.7458 56.639 25.4703 56.639C28.4042 56.639 31.1871 56.3526 33.7027 55.8345L33.708 55.8293L33.7722 55.8162L33.8207 55.8H33.8526L33.8763 55.7951L33.9336 55.7834C33.9831 55.7733 34.0543 55.7586 34.1408 55.7406C34.3139 55.7045 34.5475 55.6551 34.7904 55.6018C35.0339 55.5484 35.284 55.4916 35.4909 55.4407C35.5945 55.4152 35.6844 55.3918 35.7559 55.3716C35.7915 55.3615 35.8206 55.3527 35.8433 55.3454C35.8546 55.3418 35.8634 55.3388 35.8699 55.3364C35.8767 55.334 35.8796 55.3328 35.8796 55.3328L36.2641 56.256C36.1441 56.3059 35.9325 56.3618 35.73 56.4117C35.5111 56.4656 35.2516 56.5244 35.0047 56.5786C34.7574 56.6329 34.5201 56.683 34.3449 56.7195C34.2572 56.7378 34.1849 56.7527 34.1345 56.763L34.1082 56.7684C34.0618 56.7845 34.024 56.7907 34.0042 56.7935C33.9724 56.8031 33.9322 56.8127 33.8861 56.8177C31.3053 57.3479 28.461 57.639 25.4703 57.639C19.6314 57.639 14.3212 56.5184 10.4521 54.6865C6.62152 52.8729 4.03442 50.2694 4.03442 47.2311L4.07717 15.7775Z" fill="black"/>
<path fill-rule="evenodd" clip-rule="evenodd" d="M45.9275 28.9224L45.9489 16.3259L46.9489 16.3276L46.9275 28.9241L45.9275 28.9224Z" fill="black"/>
<path fill-rule="evenodd" clip-rule="evenodd" d="M44.6106 29.0684C40.7904 29.0684 36.9539 31.1303 34.1715 34.3085L33.4191 33.6498C36.3436 30.3092 40.4368 28.0684 44.6106 28.0684C53.0865 28.0684 59.9655 34.986 59.9655 43.5207C59.9655 52.0551 53.0974 58.973 44.6106 58.973C36.1237 58.973 29.2556 52.0551 29.2556 43.5207H30.2556C30.2556 51.509 36.6822 57.973 44.6106 57.973C52.539 57.973 58.9655 51.509 58.9655 43.5207C58.9655 35.5325 52.5285 29.0684 44.6106 29.0684Z" fill="black"/>
<path d="M38.0594 35.3452L30.6533 39.0887L31.1342 30.7627L38.0594 35.3452Z" fill="black"/>
<path fill-rule="evenodd" clip-rule="evenodd" d="M50.4939 36.4414L44.7499 45.4967L37.2437 44.3049L37.4005 43.3173L44.2576 44.406L49.6495 35.9058L50.4939 36.4414Z" fill="black"/>
</svg>
