<svg width="64" height="64" viewBox="0 0 64 64" fill="none" xmlns="http://www.w3.org/2000/svg">
<path d="M59.1544 30.4404V52.867C59.1544 55.7048 52.999 57.9999 45.4074 57.9999C37.8158 57.9999 31.6604 55.7048 31.6604 52.867V30.4404" fill="#FFC000"/>
<path fill-rule="evenodd" clip-rule="evenodd" d="M31.6604 29.9404C31.9365 29.9404 32.1604 30.1643 32.1604 30.4404V52.867C32.1604 53.3814 32.4375 53.9315 33.0717 54.4914C33.7053 55.0508 34.6506 55.5771 35.8619 56.0292C38.2806 56.9319 41.6554 57.4999 45.4074 57.4999C49.1594 57.4999 52.5343 56.9319 54.953 56.0292C56.1642 55.5771 57.1096 55.0508 57.7431 54.4914C58.3773 53.9315 58.6544 53.3814 58.6544 52.867V30.4404C58.6544 30.1643 58.8783 29.9404 59.1544 29.9404C59.4306 29.9404 59.6544 30.1643 59.6544 30.4404V52.867C59.6544 53.7715 59.1621 54.5725 58.405 55.241C57.6471 55.9101 56.5792 56.4896 55.3026 56.9661C52.7457 57.9204 49.247 58.4999 45.4074 58.4999C41.5678 58.4999 38.0691 57.9204 35.5122 56.9661C34.2356 56.4896 33.1677 55.9101 32.4099 55.241C31.6527 54.5725 31.1604 53.7715 31.1604 52.867V30.4404C31.1604 30.1643 31.3843 29.9404 31.6604 29.9404Z" fill="black"/>
<path d="M45.4074 35.7448C52.9997 35.7448 59.1544 33.4467 59.1544 30.6119C59.1544 27.7771 52.9997 25.479 45.4074 25.479C37.8151 25.479 31.6604 27.7771 31.6604 30.6119C31.6604 33.4467 37.8151 35.7448 45.4074 35.7448Z" fill="#FFC000"/>
<path fill-rule="evenodd" clip-rule="evenodd" d="M33.0716 28.9888C32.4374 29.5487 32.1604 30.0984 32.1604 30.6119C32.1604 31.1254 32.4374 31.6751 33.0716 32.235C33.7051 32.7943 34.6505 33.3207 35.8617 33.773C38.2803 34.676 41.6552 35.2448 45.4074 35.2448C49.1597 35.2448 52.5345 34.676 54.9531 33.773C56.1643 33.3207 57.1097 32.7943 57.7432 32.235C58.3775 31.6751 58.6544 31.1254 58.6544 30.6119C58.6544 30.0984 58.3775 29.5487 57.7432 28.9888C57.1097 28.4295 56.1643 27.903 54.9531 27.4508C52.5345 26.5477 49.1597 25.979 45.4074 25.979C41.6552 25.979 38.2803 26.5477 35.8617 27.4508C34.6505 27.903 33.7051 28.4295 33.0716 28.9888ZM35.5119 26.514C38.0687 25.5593 41.5674 24.979 45.4074 24.979C49.2474 24.979 52.7461 25.5593 55.3029 26.514C56.5794 26.9906 57.6473 27.5702 58.405 28.2391C59.162 28.9074 59.6544 29.708 59.6544 30.6119C59.6544 31.5158 59.162 32.3164 58.405 32.9847C57.6473 33.6536 56.5794 34.2332 55.3029 34.7098C52.7461 35.6644 49.2474 36.2448 45.4074 36.2448C41.5674 36.2448 38.0687 35.6644 35.5119 34.7098C34.2354 34.2332 33.1675 33.6536 32.4098 32.9847C31.6528 32.3164 31.1604 31.5158 31.1604 30.6119C31.1604 29.708 31.6528 28.9074 32.4098 28.2391C33.1675 27.5702 34.2354 26.9906 35.5119 26.514Z" fill="black"/>
<path d="M59.1544 38.0303C59.1544 40.8681 52.999 43.1631 45.4074 43.1631C37.8158 43.1631 31.6604 40.8681 31.6604 38.0303" fill="#FFC000"/>
<path fill-rule="evenodd" clip-rule="evenodd" d="M31.6604 37.5303C31.9365 37.5303 32.1604 37.7541 32.1604 38.0303C32.1604 38.5447 32.4375 39.0947 33.0717 39.6547C33.7053 40.214 34.6506 40.7404 35.8619 41.1925C38.2806 42.0952 41.6554 42.6631 45.4074 42.6631C49.1594 42.6631 52.5343 42.0952 54.953 41.1925C56.1642 40.7404 57.1096 40.214 57.7431 39.6547C58.3773 39.0947 58.6544 38.5447 58.6544 38.0303C58.6544 37.7541 58.8783 37.5303 59.1544 37.5303C59.4306 37.5303 59.6544 37.7541 59.6544 38.0303C59.6544 38.9348 59.1621 39.7358 58.405 40.4043C57.6471 41.0734 56.5792 41.6529 55.3026 42.1293C52.7457 43.0836 49.247 43.6631 45.4074 43.6631C41.5678 43.6631 38.0691 43.0836 35.5122 42.1293C34.2356 41.6529 33.1677 41.0734 32.4099 40.4043C31.6527 39.7358 31.1604 38.9348 31.1604 38.0303C31.1604 37.7541 31.3843 37.5303 31.6604 37.5303Z" fill="black"/>
<path d="M59.1544 45.4487C59.1544 48.2866 52.999 50.5816 45.4074 50.5816C37.8158 50.5816 31.6604 48.2866 31.6604 45.4487" fill="#FFC000"/>
<path fill-rule="evenodd" clip-rule="evenodd" d="M31.6604 44.9487C31.9365 44.9487 32.1604 45.1726 32.1604 45.4487C32.1604 45.9631 32.4375 46.5132 33.0717 47.0731C33.7053 47.6325 34.6506 48.1589 35.8619 48.6109C38.2806 49.5136 41.6554 50.0816 45.4074 50.0816C49.1594 50.0816 52.5343 49.5136 54.953 48.6109C56.1642 48.1589 57.1096 47.6325 57.7431 47.0731C58.3773 46.5132 58.6544 45.9631 58.6544 45.4487C58.6544 45.1726 58.8783 44.9487 59.1544 44.9487C59.4306 44.9487 59.6544 45.1726 59.6544 45.4487C59.6544 46.3533 59.1621 47.1543 58.405 47.8228C57.6471 48.4919 56.5792 49.0714 55.3026 49.5478C52.7457 50.5021 49.247 51.0816 45.4074 51.0816C41.5678 51.0816 38.0691 50.5021 35.5122 49.5478C34.2356 49.0714 33.1677 48.4919 32.4099 47.8228C31.6527 47.1543 31.1604 46.3533 31.1604 45.4487C31.1604 45.1726 31.3843 44.9487 31.6604 44.9487Z" fill="black"/>
<path fill-rule="evenodd" clip-rule="evenodd" d="M6.31496 6.5C5.87026 6.5 5.5 6.86624 5.5 7.33013V15.6699C5.5 16.1338 5.87026 16.5 6.31496 16.5H42.685C43.1297 16.5 43.5 16.1338 43.5 15.6699V7.33013C43.5 6.86624 43.1297 6.5 42.685 6.5H6.31496ZM4.5 7.33013C4.5 6.3248 5.30719 5.5 6.31496 5.5H42.685C43.6928 5.5 44.5 6.3248 44.5 7.33013V15.6699C44.5 16.6752 43.6928 17.5 42.685 17.5H6.31496C5.30719 17.5 4.5 16.6752 4.5 15.6699V7.33013Z" fill="black"/>
<path fill-rule="evenodd" clip-rule="evenodd" d="M11.5 9.5C10.3954 9.5 9.5 10.3954 9.5 11.5C9.5 12.6046 10.3954 13.5 11.5 13.5C12.6046 13.5 13.5 12.6046 13.5 11.5C13.5 10.3954 12.6046 9.5 11.5 9.5ZM8.5 11.5C8.5 9.84315 9.84315 8.5 11.5 8.5C13.1569 8.5 14.5 9.84315 14.5 11.5C14.5 13.1569 13.1569 14.5 11.5 14.5C9.84315 14.5 8.5 13.1569 8.5 11.5Z" fill="black"/>
<path fill-rule="evenodd" clip-rule="evenodd" d="M18.5 9.5C17.3954 9.5 16.5 10.3954 16.5 11.5C16.5 12.6046 17.3954 13.5 18.5 13.5C19.6046 13.5 20.5 12.6046 20.5 11.5C20.5 10.3954 19.6046 9.5 18.5 9.5ZM15.5 11.5C15.5 9.84315 16.8431 8.5 18.5 8.5C20.1569 8.5 21.5 9.84315 21.5 11.5C21.5 13.1569 20.1569 14.5 18.5 14.5C16.8431 14.5 15.5 13.1569 15.5 11.5Z" fill="black"/>
<path fill-rule="evenodd" clip-rule="evenodd" d="M6.27355 17.5C5.85335 17.5 5.5 17.8437 5.5 18.2891V26.7109C5.5 27.1511 5.84822 27.5 6.27355 27.5H32.7885V28.5H6.27355C5.27919 28.5 4.5 27.6865 4.5 26.7109V18.2891C4.5 17.2975 5.29494 16.5 6.27355 16.5H42.7264C43.7208 16.5 44.5 17.3135 44.5 18.2891V25.088H43.5V18.2891C43.5 17.8489 43.1518 17.5 42.7264 17.5H6.27355Z" fill="black"/>
<path fill-rule="evenodd" clip-rule="evenodd" d="M11.5 20.5C10.3954 20.5 9.5 21.3954 9.5 22.5C9.5 23.6046 10.3954 24.5 11.5 24.5C12.6046 24.5 13.5 23.6046 13.5 22.5C13.5 21.3954 12.6046 20.5 11.5 20.5ZM8.5 22.5C8.5 20.8431 9.84315 19.5 11.5 19.5C13.1569 19.5 14.5 20.8431 14.5 22.5C14.5 24.1569 13.1569 25.5 11.5 25.5C9.84315 25.5 8.5 24.1569 8.5 22.5Z" fill="black"/>
<path fill-rule="evenodd" clip-rule="evenodd" d="M18.5 20.5C17.3954 20.5 16.5 21.3954 16.5 22.5C16.5 23.6046 17.3954 24.5 18.5 24.5C19.6046 24.5 20.5 23.6046 20.5 22.5C20.5 21.3954 19.6046 20.5 18.5 20.5ZM15.5 22.5C15.5 20.8431 16.8431 19.5 18.5 19.5C20.1569 19.5 21.5 20.8431 21.5 22.5C21.5 24.1569 20.1569 25.5 18.5 25.5C16.8431 25.5 15.5 24.1569 15.5 22.5Z" fill="black"/>
<path fill-rule="evenodd" clip-rule="evenodd" d="M6.28325 28.5C5.85415 28.5 5.5 28.8473 5.5 29.2891V37.7109C5.5 38.1475 5.84896 38.5 6.28325 38.5H31.7168V39.5H6.28325C5.28703 39.5 4.5 38.6901 4.5 37.7109V29.2891C4.5 28.294 5.30288 27.5 6.28325 27.5H33.5L33.1372 28.5H6.28325Z" fill="black"/>
<path fill-rule="evenodd" clip-rule="evenodd" d="M11.5 31.5C10.3954 31.5 9.5 32.3954 9.5 33.5C9.5 34.6046 10.3954 35.5 11.5 35.5C12.6046 35.5 13.5 34.6046 13.5 33.5C13.5 32.3954 12.6046 31.5 11.5 31.5ZM8.5 33.5C8.5 31.8431 9.84315 30.5 11.5 30.5C13.1569 30.5 14.5 31.8431 14.5 33.5C14.5 35.1569 13.1569 36.5 11.5 36.5C9.84315 36.5 8.5 35.1569 8.5 33.5Z" fill="black"/>
<path fill-rule="evenodd" clip-rule="evenodd" d="M18.5 31.5C17.3954 31.5 16.5 32.3954 16.5 33.5C16.5 34.6046 17.3954 35.5 18.5 35.5C19.6046 35.5 20.5 34.6046 20.5 33.5C20.5 32.3954 19.6046 31.5 18.5 31.5ZM15.5 33.5C15.5 31.8431 16.8431 30.5 18.5 30.5C20.1569 30.5 21.5 31.8431 21.5 33.5C21.5 35.1569 20.1569 36.5 18.5 36.5C16.8431 36.5 15.5 35.1569 15.5 33.5Z" fill="black"/>
<path fill-rule="evenodd" clip-rule="evenodd" d="M6.29685 39.5C5.85529 39.5 5.5 39.8522 5.5 40.2891V48.7109C5.5 49.1425 5.85002 49.5 6.29685 49.5H32V50.5H6.29685C5.29801 50.5 4.5 49.6951 4.5 48.7109V40.2891C4.5 39.289 5.314 38.5 6.29685 38.5H31.9894V39.5H6.29685Z" fill="black"/>
<path fill-rule="evenodd" clip-rule="evenodd" d="M11.5 42.5C10.3954 42.5 9.5 43.3954 9.5 44.5C9.5 45.6046 10.3954 46.5 11.5 46.5C12.6046 46.5 13.5 45.6046 13.5 44.5C13.5 43.3954 12.6046 42.5 11.5 42.5ZM8.5 44.5C8.5 42.8432 9.84314 41.5 11.5 41.5C13.1569 41.5 14.5 42.8432 14.5 44.5C14.5 46.1569 13.1569 47.5 11.5 47.5C9.84315 47.5 8.5 46.1569 8.5 44.5Z" fill="black"/>
<path fill-rule="evenodd" clip-rule="evenodd" d="M18.5 42.5C17.3954 42.5 16.5 43.3954 16.5 44.5C16.5 45.6046 17.3954 46.5 18.5 46.5C19.6046 46.5 20.5 45.6046 20.5 44.5C20.5 43.3954 19.6046 42.5 18.5 42.5ZM15.5 44.5C15.5 42.8432 16.8431 41.5 18.5 41.5C20.1569 41.5 21.5 42.8432 21.5 44.5C21.5 46.1569 20.1569 47.5 18.5 47.5C16.8431 47.5 15.5 46.1569 15.5 44.5Z" fill="black"/>
</svg>
