<svg width="64" height="64" viewBox="0 0 64 64" fill="none" xmlns="http://www.w3.org/2000/svg">
<path d="M56 37V50.8335C56 52.5798 52.1886 54 47.5 54C42.8114 54 39 52.5798 39 50.8335V37" fill="#FFC000"/>
<path fill-rule="evenodd" clip-rule="evenodd" d="M39 36.5C39.2761 36.5 39.5 36.7239 39.5 37V50.8335C39.5 51.074 39.6295 51.3646 39.999 51.6896C40.3675 52.0137 40.9294 52.3285 41.6663 52.6031C43.1364 53.1508 45.1996 53.5 47.5 53.5C49.8004 53.5 51.8636 53.1508 53.3337 52.6031C54.0706 52.3285 54.6325 52.0137 55.001 51.6896C55.3705 51.3646 55.5 51.074 55.5 50.8335V37C55.5 36.7239 55.7239 36.5 56 36.5C56.2761 36.5 56.5 36.7239 56.5 37V50.8335C56.5 51.4662 56.1531 52.008 55.6614 52.4405C55.1688 52.8737 54.4848 53.2414 53.6828 53.5402C52.075 54.1391 49.8882 54.5 47.5 54.5C45.1118 54.5 42.925 54.1391 41.3172 53.5402C40.5152 53.2414 39.8312 52.8737 39.3386 52.4405C38.8469 52.008 38.5 51.4662 38.5 50.8335V37C38.5 36.7239 38.7239 36.5 39 36.5Z" fill="black"/>
<path d="M47.5 40C52.1944 40 56 38.6569 56 37C56 35.3431 52.1944 34 47.5 34C42.8056 34 39 35.3431 39 37C39 38.6569 42.8056 40 47.5 40Z" fill="#FFC000"/>
<path fill-rule="evenodd" clip-rule="evenodd" d="M39.9883 36.2162C39.6179 36.5253 39.5 36.7925 39.5 37C39.5 37.2075 39.6179 37.4747 39.9883 37.7838C40.3559 38.0906 40.9178 38.3893 41.656 38.6498C43.1279 39.1693 45.1941 39.5 47.5 39.5C49.8059 39.5 51.8721 39.1693 53.344 38.6498C54.0822 38.3893 54.6441 38.0906 55.0117 37.7838C55.3821 37.4747 55.5 37.2075 55.5 37C55.5 36.7925 55.3821 36.5253 55.0117 36.2162C54.6441 35.9094 54.0822 35.6107 53.344 35.3502C51.8721 34.8307 49.8059 34.5 47.5 34.5C45.1941 34.5 43.1279 34.8307 41.656 35.3502C40.9178 35.6107 40.3559 35.9094 39.9883 36.2162ZM41.3232 34.4072C42.9277 33.8409 45.1115 33.5 47.5 33.5C49.8885 33.5 52.0723 33.8409 53.6768 34.4072C54.4768 34.6895 55.1597 35.0373 55.6524 35.4484C56.1422 35.8571 56.5 36.3791 56.5 37C56.5 37.6209 56.1422 38.1429 55.6524 38.5516C55.1597 38.9627 54.4768 39.3105 53.6768 39.5928C52.0723 40.1591 49.8885 40.5 47.5 40.5C45.1115 40.5 42.9277 40.1591 41.3232 39.5928C40.5232 39.3105 39.8403 38.9627 39.3476 38.5516C38.8578 38.1429 38.5 37.6209 38.5 37C38.5 36.3791 38.8578 35.8571 39.3476 35.4484C39.8403 35.0373 40.5232 34.6895 41.3232 34.4072Z" fill="black"/>
<path d="M56 42C56 43.6545 52.1886 45 47.5 45C42.8114 45 39 43.6545 39 42" fill="#FFC000"/>
<path fill-rule="evenodd" clip-rule="evenodd" d="M39 41.5C39.2761 41.5 39.5 41.7239 39.5 42C39.5 42.2064 39.6177 42.4733 39.9889 42.7826C40.357 43.0894 40.9196 43.3882 41.6582 43.6489C43.1309 44.1688 45.1971 44.5 47.5 44.5C49.8029 44.5 51.8691 44.1688 53.3418 43.6489C54.0804 43.3882 54.643 43.0894 55.0111 42.7826C55.3823 42.4733 55.5 42.2064 55.5 42C55.5 41.7239 55.7239 41.5 56 41.5C56.2761 41.5 56.5 41.7239 56.5 42C56.5 42.6208 56.1413 43.1425 55.6513 43.5508C55.1583 43.9617 54.4749 44.3094 53.6747 44.5919C52.0696 45.1585 49.8857 45.5 47.5 45.5C45.1143 45.5 42.9304 45.1585 41.3253 44.5919C40.5251 44.3094 39.8417 43.9617 39.3487 43.5508C38.8587 43.1425 38.5 42.6208 38.5 42C38.5 41.7239 38.7239 41.5 39 41.5Z" fill="black"/>
<path d="M56 46C56 47.6545 52.1886 49 47.5 49C42.8114 49 39 47.6545 39 46" fill="#FFC000"/>
<path fill-rule="evenodd" clip-rule="evenodd" d="M39 45.5C39.2761 45.5 39.5 45.7239 39.5 46C39.5 46.2064 39.6177 46.4733 39.9889 46.7826C40.357 47.0894 40.9196 47.3882 41.6582 47.6489C43.1309 48.1688 45.1971 48.5 47.5 48.5C49.8029 48.5 51.8691 48.1688 53.3418 47.6489C54.0804 47.3882 54.643 47.0894 55.0111 46.7826C55.3823 46.4733 55.5 46.2064 55.5 46C55.5 45.7239 55.7239 45.5 56 45.5C56.2761 45.5 56.5 45.7239 56.5 46C56.5 46.6208 56.1413 47.1425 55.6513 47.5508C55.1583 47.9617 54.4749 48.3094 53.6747 48.5919C52.0696 49.1585 49.8857 49.5 47.5 49.5C45.1143 49.5 42.9304 49.1585 41.3253 48.5919C40.5251 48.3094 39.8417 47.9617 39.3487 47.5508C38.8587 47.1425 38.5 46.6208 38.5 46C38.5 45.7239 38.7239 45.5 39 45.5Z" fill="black"/>
<path fill-rule="evenodd" clip-rule="evenodd" d="M25.9562 15.3958C27.7944 11.6624 31.7164 8.5 37.0795 8.5C44.8603 8.5 50.1795 15.6338 49.4927 22.4881C49.4118 23.3386 49.9808 24.1012 50.7902 24.2544L50.7955 24.2554C54.6797 25.0334 57.7241 28.1979 58.3671 32.2002C58.4559 32.7198 58.5 33.2597 58.5 33.7981H57.5C57.5 33.3126 57.4601 32.8285 57.3811 32.3666L57.3802 32.3614C56.8035 28.7653 54.0705 25.9323 50.6015 25.2364C49.2691 24.9828 48.3685 23.7397 48.4973 22.3923L48.4975 22.39C49.1337 16.0504 44.1977 9.5 37.0795 9.5C32.1462 9.5 28.5452 12.4 26.8525 15.8393L26.8507 15.8429C26.2027 17.1332 24.6404 17.6549 23.3592 16.9919C21.3872 15.9858 18.9982 16.1219 17.1344 17.262C15.2851 18.3932 13.864 20.436 13.864 23.8703C13.864 25.1488 12.943 26.2328 11.7041 26.4448C8.17593 27.0471 5.5 30.7575 5.5 34.5027C5.5 36.7418 6.34371 38.7294 7.90204 40.1605C9.46202 41.5931 11.7742 42.5 14.7615 42.5H35.1461V43.5H14.7615C11.5703 43.5 9.0018 42.5281 7.22564 40.897C5.44783 39.2643 4.5 37.0033 4.5 34.5027C4.5 30.3697 7.43519 26.1592 11.5354 25.4591C12.2929 25.3295 12.864 24.6628 12.864 23.8703C12.864 20.1096 14.4481 17.733 16.6126 16.4089C18.7623 15.094 21.5214 14.931 23.8152 16.1019L23.8179 16.1033C24.5954 16.5064 25.5532 16.196 25.9562 15.3958Z" fill="black"/>
</svg>
