<?xml version="1.0" encoding="utf-8"?>
<!-- Generator: Adobe Illustrator 27.7.0, SVG Export Plug-In . SVG Version: 6.00 Build 0)  -->
<svg version="1.1" id="Layer_1" xmlns="http://www.w3.org/2000/svg" xmlns:xlink="http://www.w3.org/1999/xlink" x="0px" y="0px"
	 viewBox="0 0 64 64" style="enable-background:new 0 0 64 64;" xml:space="preserve">
<style type="text/css">
	.st0{fill:none;stroke:#FFFFFF;stroke-miterlimit:10;}
	.st1{fill:#FFC612;stroke:#FFFFFF;stroke-linecap:round;stroke-miterlimit:10;}
</style>
<polygon class="st0" points="23.7,44 13.7,54 21.8,54 16.9,58.9 5.3,58.9 5.3,47.3 10.2,42.4 10.2,50.5 20.2,40.5 "/>
<polygon class="st0" points="19.9,23.3 9.9,13.2 9.9,21.3 5,16.4 5,4.8 16.6,4.8 21.5,9.8 13.4,9.8 23.4,19.8 "/>
<polygon class="st0" points="41,19.8 51,9.8 42.9,9.8 47.8,4.8 59.4,4.9 59.4,16.4 54.5,21.3 54.5,13.2 44.4,23.3 "/>
<polygon class="st0" points="44.7,40.5 54.8,50.5 54.8,42.4 59.7,47.3 59.7,58.9 48.1,58.9 43.2,54 51.3,54 41.2,44 "/>
<rect x="22.1" y="22" transform="matrix(0.7071 -0.7071 0.7071 0.7071 -13.1854 31.9664)" class="st1" width="19.8" height="19.8"/>
</svg>
