<?xml version="1.0" encoding="UTF-8"?>
<svg id="Layer_1" data-name="Layer 1" xmlns="http://www.w3.org/2000/svg" viewBox="0 0 64 64">
  <defs>
    <style>
      .cls-1 {
        fill: #ffc612;
        stroke-linecap: round;
      }

      .cls-1, .cls-2 {
        stroke: #000;
        stroke-miterlimit: 10;
      }

      .cls-2 {
        fill: none;
      }
    </style>
  </defs>
  <polygon class="cls-2" points="23.73 43.95 13.7 53.98 21.81 53.98 16.9 58.89 5.32 58.88 5.31 47.3 10.22 42.39 10.22 50.5 20.25 40.47 23.73 43.95"/>
  <polygon class="cls-2" points="19.94 23.26 9.92 13.23 9.91 21.34 5 16.43 5.01 4.84 16.6 4.84 21.51 9.75 13.4 9.75 23.42 19.78 19.94 23.26"/>
  <polygon class="cls-2" points="40.95 19.78 50.97 9.75 42.86 9.75 47.77 4.84 59.36 4.85 59.37 16.43 54.46 21.34 54.45 13.23 44.42 23.26 40.95 19.78"/>
  <polygon class="cls-2" points="44.73 40.47 54.76 50.5 54.76 42.39 59.67 47.3 59.66 58.88 48.08 58.89 43.17 53.98 51.28 53.98 41.25 43.95 44.73 40.47"/>
  <rect class="cls-1" x="22.12" y="22.02" width="19.76" height="19.76" transform="translate(-13.19 31.97) rotate(-45)"/>
</svg>