<?xml version="1.0" encoding="UTF-8"?>
<svg id="Layer_1" data-name="Layer 1" xmlns="http://www.w3.org/2000/svg" viewBox="0 0 64 64">
  <defs>
    <style>
      .cls-1 {
        fill: #ffc612;
      }

      .cls-1, .cls-2 {
        stroke: #000;
        stroke-miterlimit: 10;
      }

      .cls-2 {
        fill: none;
      }
    </style>
  </defs>
  <path class="cls-1" d="m54.9,39.35c0-.86-.08-1.71-.23-2.53l4.33-3.11c-.34-1.11-.79-2.17-1.32-3.18l-5.26.86c-.97-1.4-2.18-2.61-3.58-3.58l.86-5.26c-1.01-.53-2.07-.98-3.18-1.32l-3.11,4.33c-.82-.15-1.67-.23-2.53-.23s-1.71.08-2.53.23l-3.11-4.33c-1.11.34-2.17.79-3.18,1.32l.86,5.26c-1.4.97-2.61,2.18-3.58,3.58l-5.26-.86c-.53,1.01-.98,2.07-1.32,3.18l4.33,3.11c-.15.82-.23,1.67-.23,2.53s.08,1.71.23,2.53l-4.33,3.11c.34,1.11.79,2.17,1.32,3.18l5.26-.86c.97,1.4,2.18,2.61,3.58,3.58l-.86,5.26c1.01.53,2.07.98,3.18,1.32l3.11-4.33c.82.15,1.67.23,2.53.23s1.71-.08,2.53-.23l3.11,4.33c1.11-.34,2.17-.79,3.18-1.32l-.86-5.26c1.4-.97,2.61-2.18,3.58-3.58l5.26.86c.53-1.01.98-2.07,1.32-3.18l-4.33-3.11c.15-.82.23-1.67.23-2.53Zm-14.01,6.75c-3.73,0-6.75-3.02-6.75-6.75s3.02-6.75,6.75-6.75,6.75,3.02,6.75,6.75-3.02,6.75-6.75,6.75Z"/>
  <path class="cls-2" d="m20.88,35.35l-1.83-3.53c-.62.02-1.25,0-1.89-.1s-1.25-.25-1.84-.45l-2.77,2.86c-.78-.37-1.51-.82-2.2-1.32l1.21-3.78c-.93-.86-1.69-1.89-2.25-3.03l-3.97.07c-.28-.8-.5-1.63-.63-2.49l3.53-1.83c-.02-.62,0-1.25.1-1.89s.25-1.25.45-1.84l-2.86-2.77c.37-.78.82-1.51,1.32-2.2l3.78,1.21c.86-.93,1.89-1.69,3.03-2.25l-.07-3.97c.8-.28,1.63-.5,2.49-.63l1.83,3.53c.62-.02,1.25,0,1.89.1s1.25.25,1.84.45l2.77-2.86c.78.37,1.51.82,2.2,1.32l-1.21,3.78c.93.86,1.69,1.89,2.25,3.03l3.97-.07c.28.8.5,1.63.63,2.49l-3.53,1.83c.02.62,0,1.25-.1,1.89s-.25,1.25-.45,1.84l2.21,2.11"/>
  <circle class="cls-2" cx="18.68" cy="21.38" r="5.03"/>
</svg>