<svg width="64" height="64" viewBox="0 0 64 64" fill="none" xmlns="http://www.w3.org/2000/svg">
<path d="M16.9335 16.8831H11.201V23.0799H16.9335V16.8831Z" fill="#FFC000"/>
<path fill-rule="evenodd" clip-rule="evenodd" d="M23.5408 5.02075H41.7438L54.69 15.0294H10.282L23.5408 5.02075ZM23.8759 6.02075L13.2665 14.0294H51.7615L41.4023 6.02075H23.8759Z" fill="black"/>
<path fill-rule="evenodd" clip-rule="evenodd" d="M38.67 12.8475L37.9091 7.28612L38.8999 7.15057L39.6608 12.712L38.67 12.8475Z" fill="black"/>
<path fill-rule="evenodd" clip-rule="evenodd" d="M25.6207 12.7119L26.3815 7.16086L27.3723 7.29666L26.6114 12.8477L25.6207 12.7119Z" fill="black"/>
<path fill-rule="evenodd" clip-rule="evenodd" d="M59 58.9793H6V57.9793H59V58.9793Z" fill="black"/>
<path fill-rule="evenodd" clip-rule="evenodd" d="M19.7421 55.8393L25.1516 16.1803L26.1424 16.3154L20.733 55.9744L19.7421 55.8393Z" fill="black"/>
<path fill-rule="evenodd" clip-rule="evenodd" d="M44.5589 55.9746L39.139 16.3156L40.1298 16.1801L45.5497 55.8392L44.5589 55.9746Z" fill="black"/>
<path d="M32.8694 50.2383L41.4945 55.6636L42.0269 54.8171L33.8085 49.6477L42.0269 44.4782L41.4945 43.6317L32.8694 49.057L24.0788 43.5276L23.5464 44.3741L31.9304 49.6477L23.5464 54.9212L24.0788 55.7677L32.8694 50.2383Z" fill="black"/>
<path d="M33.122 36.891L40.2361 41.5468L40.7837 40.7101L34.0346 36.2931L40.7839 31.8715L40.2359 31.035L33.1217 35.6957L25.3475 30.6079L24.7999 31.4446L32.2091 36.2936L24.7997 41.1476L25.3477 41.9841L33.122 36.891Z" fill="black"/>
<path d="M31.9675 22.2884L27.1782 25.9421L27.7847 26.7372L32.7919 22.9172L37.799 26.7372L38.4055 25.9421L33.6162 22.2884L38.4055 18.6346L37.799 17.8395L32.7919 21.6595L27.7847 17.8395L27.1782 18.6346L31.9675 22.2884Z" fill="black"/>
<path fill-rule="evenodd" clip-rule="evenodd" d="M16.9023 18.0393H11.201V17.0393H16.9023V18.0393Z" fill="black"/>
<path fill-rule="evenodd" clip-rule="evenodd" d="M16.9023 20.9137H11.201V19.9137H16.9023V20.9137Z" fill="black"/>
<path fill-rule="evenodd" clip-rule="evenodd" d="M16.9023 23.7986H11.201V22.7986H16.9023V23.7986Z" fill="black"/>
<path d="M53.8616 16.8831H48.129V23.0799H53.8616V16.8831Z" fill="#FFC000"/>
<path fill-rule="evenodd" clip-rule="evenodd" d="M53.8303 18.0393H48.129V17.0393H53.8303V18.0393Z" fill="black"/>
<path fill-rule="evenodd" clip-rule="evenodd" d="M53.8303 20.9137H48.129V19.9137H53.8303V20.9137Z" fill="black"/>
<path fill-rule="evenodd" clip-rule="evenodd" d="M53.8303 23.7986H48.129V22.7986H53.8303V23.7986Z" fill="black"/>
</svg>
