<?xml version="1.0" encoding="utf-8"?>
<!-- Generator: Adobe Illustrator 27.7.0, SVG Export Plug-In . SVG Version: 6.00 Build 0)  -->
<svg version="1.1" id="Layer_1" xmlns="http://www.w3.org/2000/svg" xmlns:xlink="http://www.w3.org/1999/xlink" x="0px" y="0px"
	 viewBox="0 0 64 64" style="enable-background:new 0 0 64 64;" xml:space="preserve">
<style type="text/css">
	.st0{fill:#FFC612;}
	.st1{fill:none;stroke:#FFFFFF;stroke-miterlimit:10;}
</style>
<polygon class="st0" points="54,12.8 48.7,12.4 49.1,7.2 53.8,7.3 "/>
<g>
	<path class="st1" d="M47.8,31.6l-6.3,5.2V24.3c0-0.4-0.3-0.8-0.8-0.8c-0.2,0-0.3,0.1-0.5,0.2l-16,13.1V24.3c0-0.3-0.2-0.6-0.4-0.7
		c-0.3-0.1-0.6-0.1-0.8,0.1L5.6,37.8c-0.2,0.1-0.3,0.4-0.3,0.6v17.8c0,0.4,0.3,0.8,0.8,0.8h51.8c0.4,0,0.8-0.3,0.8-0.8V24.3
		c0-0.3-0.2-0.5-0.4-0.7c-0.3-0.1-0.6-0.1-0.8,0.1l-2.6,2.1L47.8,31.6L47.8,31.6z M54.8,25.8l-0.6-13.3l0,0L54,7.7
		c0-0.4-0.4-0.7-0.8-0.7h-3.5c-0.4,0-0.7,0.3-0.8,0.7l-1.2,24 M27.1,57.1v-7.4h9.8v7.4"/>
	<line class="st1" x1="48.6" y1="12.8" x2="54.2" y2="12.8"/>
</g>
<rect x="27.5" y="50.2" class="st0" width="9" height="6.3"/>
</svg>
