<?xml version="1.0" encoding="UTF-8"?>
<svg id="Layer_1" data-name="Layer 1" xmlns="http://www.w3.org/2000/svg" viewBox="0 0 64 64">
  <defs>
    <style>
      .cls-1 {
        fill: #ffc612;
      }

      .cls-2 {
        fill: none;
        stroke: #000;
        stroke-miterlimit: 10;
      }
    </style>
  </defs>
  <polygon class="cls-1" points="53.99 12.78 48.68 12.44 49.07 7.23 53.84 7.28 53.99 12.78"/>
  <g>
    <path class="cls-2" d="m47.76,31.62l-6.35,5.18v-12.46c0-.42-.34-.76-.76-.76-.18,0-.35.06-.48.17l-15.98,13.06v-12.48c0-.3-.17-.57-.43-.69-.27-.13-.58-.09-.81.1l-17.31,14.08c-.17.14-.27.36-.27.59v17.79c0,.42.34.76.76.76h51.76c.42,0,.76-.34.76-.76v-31.87c0-.28-.17-.54-.42-.67-.26-.13-.58-.09-.81.09l-2.58,2.1-7.08,5.78Zm7.08-5.78l-.64-13.29h0l-.23-4.9c-.02-.41-.36-.72-.76-.72h-3.54c-.41,0-.74.32-.76.72l-1.15,23.97m-20.67,25.45v-7.38h9.81v7.38"/>
    <line class="cls-2" x1="48.58" y1="12.78" x2="54.15" y2="12.78"/>
  </g>
  <rect class="cls-1" x="27.52" y="50.15" width="8.96" height="6.29"/>
</svg>