<?xml version="1.0" encoding="utf-8"?>
<!-- Generator: Adobe Illustrator 27.7.0, SVG Export Plug-In . SVG Version: 6.00 Build 0)  -->
<svg version="1.1" id="Layer_1" xmlns="http://www.w3.org/2000/svg" xmlns:xlink="http://www.w3.org/1999/xlink" x="0px" y="0px"
	 viewBox="0 0 64 64" style="enable-background:new 0 0 64 64;" xml:space="preserve">
<style type="text/css">
	.st0{fill:none;stroke:#FFFFFF;stroke-miterlimit:10;}
	.st1{fill:#FFC612;stroke:#FFFFFF;stroke-linecap:round;stroke-linejoin:round;}
	.st2{fill:#FFFFFF;}
</style>
<path class="st0" d="M39.8,33.3c-2,1.4-4.5,2.1-7,2.1c-2.8,0-5.4-0.9-7.6-2.5"/>
<path class="st1" d="M16.5,36.2c0,0,7.7-1.5,8.4-2.3s0-1.9,0-1.9s-3-5.1-3.2-8.6c-0.1-2,0.4-4.6,2.2-6.6c1.5-1.7,5.6-3.6,5.6-3.6
	s-3.5,2.6-4,5.2s0.7,4.2,0.7,4.2s2.2-2.9,6.4-3.7s4.6-4.6,4.6-4.6S39,17.4,41,17c3.8-0.8,3.9,4.1,3.6,5.6c-0.2,1.2-0.9,4.4-3.6,7.8
	c-0.5,0.7-2.3,3.8,0.8,4.6s6.8,1.1,6.8,1.1s-3.5-4.3-2.4-7.2c3.5-8.8,2.6-18.2-5.3-22.5c-2.6-1.4-11-2.9-16.4,0.6
	c-3.8,2.4-6.8,5.8-6.8,11.9s1.7,9.5,1.4,11.9C18.8,34.3,16.5,36.2,16.5,36.2L16.5,36.2z"/>
<path class="st2" d="M40.5,38.4c1,0,2.6,0.1,4.8,0.8c3,0.9,6.8,3,8.9,10.8c1.1,4.1,0.8,7.9,0.5,9.5H10.4c-0.2-1.6-0.6-5.3,0.5-9.5
	c2.1-7.8,5.9-9.9,8.9-10.8c2.2-0.7,3.8-0.8,4.8-0.8c0.3,0,0.5,0,0.6,0l6.6,6.3l0.7,0.7l0.7-0.7l6.7-6.3
	C40.1,38.4,40.3,38.4,40.5,38.4 M40.5,37.4c-0.7,0-1.1,0.1-1.1,0.1l-6.9,6.5l-6.9-6.5c0,0-0.4-0.1-1.1-0.1c-1,0-2.8,0.1-5.1,0.8
	C15.7,39.4,12,42,10,49.7c-1.5,5.8-0.4,10.8-0.4,10.8h46c0,0,1.2-5-0.4-10.8c-2.1-7.7-5.8-10.4-9.6-11.5
	C43.3,37.5,41.6,37.4,40.5,37.4L40.5,37.4L40.5,37.4z"/>
</svg>
