<svg width="64" height="64" viewBox="0 0 64 64" fill="none" xmlns="http://www.w3.org/2000/svg">
<g clip-path="url(#clip0_13_20065)">
<path d="M60.2899 36.5346L50.0767 25.3279V32.0477C44.3331 32.4479 39.1534 35.1654 35.3104 39.3784V16.9861H41.3882L31.175 5.77942L20.9618 16.9861H27.0396V33.9436C29.8592 36.0712 32.2611 38.7886 34.1199 41.9483C34.1408 41.9905 34.1617 42.0326 34.2035 42.0747C34.3079 42.2643 34.4123 42.4328 34.5167 42.6224C34.5585 42.7067 34.6003 42.7699 34.6421 42.8541C34.7256 43.0016 34.8091 43.1701 34.8927 43.3176C34.9345 43.4018 34.9762 43.4861 35.018 43.5704C35.1015 43.7389 35.1851 43.9074 35.2686 44.0759C36.4174 46.4563 37.2737 49.0473 37.754 51.7858C39.6338 46.056 44.3957 41.8219 50.1185 41.19V47.7623L60.3317 36.5557L60.2899 36.5346Z" stroke="black" stroke-miterlimit="10"/>
<path d="M13.9233 32.3637V25.6439L3.71012 36.8295L13.9233 48.0362V41.4638C21.3378 42.2643 27.144 49.1316 27.144 57.4734H35.4357C35.4357 44.118 25.9118 33.1852 13.9233 32.3637Z" fill="#FFC000" stroke="black" stroke-miterlimit="10"/>
</g>
<defs>
<clipPath id="clip0_13_20065">
<rect width="58" height="53" fill="white" transform="translate(3 5)"/>
</clipPath>
</defs>
</svg>
