<?xml version="1.0" encoding="UTF-8"?>
<svg id="Layer_1" data-name="Layer 1" xmlns="http://www.w3.org/2000/svg" viewBox="0 0 64 64">
  <defs>
    <style>
      .cls-1 {
        fill: #ffc612;
      }

      .cls-1, .cls-2 {
        stroke: #000;
        stroke-miterlimit: 10;
      }

      .cls-2 {
        fill: none;
      }
    </style>
  </defs>
  <path class="cls-1" d="m60,36.06l-9.84-9.84v5.9c-5.54.35-10.53,2.74-14.22,6.43v-19.68h5.85l-9.84-9.84-9.84,9.84h5.85v14.89c2.71,1.87,5.03,4.26,6.82,7.03.02.04.05.08.07.12.1.16.2.32.3.48.04.07.08.13.12.2.08.14.16.28.24.42.04.07.08.14.12.21.08.14.16.29.24.44,1.11,2.1,1.92,4.37,2.39,6.77,1.81-5.04,6.4-8.76,11.91-9.3v5.77l9.84-9.84Z"/>
  <path class="cls-2" d="m15.33,32.4v-5.91l-9.84,9.84,9.84,9.84v-5.77c7.14.7,12.73,6.74,12.73,14.05h7.98c0-11.72-9.17-21.34-20.72-22.06Z"/>
</svg>