<?xml version="1.0" encoding="utf-8"?>
<!-- Generator: Adobe Illustrator 27.7.0, SVG Export Plug-In . SVG Version: 6.00 Build 0)  -->
<svg version="1.1" id="Layer_1" xmlns="http://www.w3.org/2000/svg" xmlns:xlink="http://www.w3.org/1999/xlink" x="0px" y="0px"
	 viewBox="0 0 64 64" style="enable-background:new 0 0 64 64;" xml:space="preserve">
<style type="text/css">
	.st0{fill:#FFC612;stroke:#FFFFFF;stroke-miterlimit:10;}
	.st1{fill:none;stroke:#FFFFFF;stroke-miterlimit:10;}
</style>
<path class="st0" d="M60,36.1l-9.8-9.8v5.9c-5.5,0.3-10.5,2.7-14.2,6.4V18.9h5.8L31.9,9l-9.8,9.8H28v14.9c2.7,1.9,5,4.3,6.8,7
	c0,0,0,0.1,0.1,0.1c0.1,0.2,0.2,0.3,0.3,0.5c0,0.1,0.1,0.1,0.1,0.2c0.1,0.1,0.2,0.3,0.2,0.4c0,0.1,0.1,0.1,0.1,0.2
	c0.1,0.1,0.2,0.3,0.2,0.4c1.1,2.1,1.9,4.4,2.4,6.8c1.8-5,6.4-8.8,11.9-9.3v5.8L60,36.1L60,36.1z"/>
<path class="st1" d="M15.3,32.4v-5.9l-9.8,9.8l9.8,9.8v-5.8c7.1,0.7,12.7,6.7,12.7,14h8C36,42.7,26.9,33.1,15.3,32.4L15.3,32.4z"/>
</svg>
