<?xml version="1.0" encoding="utf-8"?>
<!-- Generator: Adobe Illustrator 27.7.0, SVG Export Plug-In . SVG Version: 6.00 Build 0)  -->
<svg version="1.1" id="Layer_1" xmlns="http://www.w3.org/2000/svg" xmlns:xlink="http://www.w3.org/1999/xlink" x="0px" y="0px"
	 viewBox="0 0 64 64" style="enable-background:new 0 0 64 64;" xml:space="preserve">
<style type="text/css">
	.st0{fill:none;stroke:#FFFFFF;stroke-width:1.14;stroke-linecap:round;stroke-linejoin:round;}
	.st1{fill:#FFC612;stroke:#FFFFFF;stroke-width:1.14;stroke-linecap:round;stroke-linejoin:round;}
</style>
<path class="st0" d="M59,55.4V23.2c0-1.3-1-2.3-2.3-2.3H28.9c0,0-1.2-0.2-2.2,1c-1.1,1.3-2.2,2.6-3.3,3.9c-1.4,1.8-3.6,1.7-3.6,1.7
	H6.9c-1.3,0-2.4,1-2.4,2.3v25.6c0,1.3,1.2,2.3,2.4,2.3h49.8C58,57.7,59,56.7,59,55.4L59,55.4z"/>
<path class="st1" d="M59,15.7c0-1.3-1-2.3-2.3-2.3H28.8c-0.9,0-1.8-0.4-2.3-1.2L23,7.9c-0.7-1-1.9-1.6-3.1-1.6h-13
	c-1.3,0-2.4,1-2.4,2.3v16.8c0,0,0.6-1.2,2.7-1.2l11.7,0.1c0,0,1.2,0.2,2.2-1c1.1-1.3,2.2-2.6,3.3-3.9c1.4-1.8,3.6-1.7,3.6-1.7h28.7
	c1.3,0,2.3,1.1,2.3,1.1L59,15.7L59,15.7z"/>
</svg>
