<?xml version="1.0" encoding="UTF-8"?>
<svg id="Layer_1" data-name="Layer 1" xmlns="http://www.w3.org/2000/svg" viewBox="0 0 64 64">
  <defs>
    <style>
      .cls-1 {
        fill: #ffc612;
      }

      .cls-1, .cls-2 {
        stroke: #000;
        stroke-linecap: round;
        stroke-linejoin: round;
        stroke-width: 1.14px;
      }

      .cls-2 {
        fill: none;
      }
    </style>
  </defs>
  <path class="cls-2" d="m59,55.39V23.17c0-1.27-1.03-2.3-2.3-2.3h-27.76s-1.21-.16-2.18.96c-1.1,1.32-2.22,2.63-3.34,3.93-1.42,1.81-3.64,1.7-3.64,1.7H6.94c-1.27,0-2.44,1.03-2.44,2.3v25.62c0,1.27,1.17,2.3,2.44,2.3h49.76c1.27,0,2.3-1.03,2.3-2.3Z"/>
  <path class="cls-1" d="m59,15.72c0-1.27-1.03-2.3-2.3-2.3h-27.87c-.93,0-1.8-.45-2.34-1.2l-3.44-4.35c-.72-1-1.88-1.6-3.11-1.6H6.94c-1.27,0-2.44,1.03-2.44,2.3v16.79s.64-1.22,2.72-1.22l11.67.1s1.21.16,2.18-.97c1.1-1.32,2.22-2.63,3.34-3.93,1.42-1.81,3.64-1.7,3.64-1.7h28.66c1.27,0,2.3,1.13,2.3,1.13v-3.04Z"/>
</svg>