<svg width="64" height="64" viewBox="0 0 64 64" fill="none" xmlns="http://www.w3.org/2000/svg">
<path fill-rule="evenodd" clip-rule="evenodd" d="M37.1418 6L34.7172 9.37093C34.0673 9.27105 33.4175 9.19614 32.7426 9.19614C32.0677 9.19614 31.4178 9.24608 30.7679 9.37093L28.3434 6C27.4935 6.2497 26.6687 6.59928 25.8688 7.02376L26.5437 11.1188C25.4439 11.8679 24.494 12.8168 23.7442 13.9154L19.6449 13.2413C19.245 14.0153 18.895 14.8393 18.6201 15.7133L21.9945 18.1353C21.8945 18.7846 21.8195 19.4338 21.8195 20.108C21.8195 20.7822 21.8695 21.4314 21.9945 22.0806L18.6201 24.5027C18.87 25.3516 19.22 26.1756 19.6449 26.9747L23.7442 26.3005C24.494 27.3992 25.4439 28.348 26.5437 29.0971L25.8688 33.1922C26.6437 33.5917 27.4685 33.9413 28.3434 34.2159L30.7679 30.845C31.4178 30.9449 32.0677 31.0198 32.7426 31.0198C33.4175 31.0198 34.0673 30.9699 34.7172 30.845L37.1418 34.2159C37.9917 33.9662 38.8165 33.6167 39.6164 33.1922L38.9415 29.0971C40.0413 28.348 40.9911 27.3992 41.741 26.3005L45.8403 26.9747C46.2402 26.2006 46.5901 25.3766 46.8651 24.5027L43.4907 22.0806C43.5907 21.4314 43.6656 20.7822 43.6656 20.108C43.6656 19.4338 43.6157 18.7846 43.4907 18.1353L46.8651 15.7133C46.6151 14.8643 46.2652 14.0403 45.8403 13.2413L41.741 13.9154C40.9911 12.8168 40.0413 11.8679 38.9415 11.1188L39.6164 7.02376C38.8415 6.62425 38.0166 6.27467 37.1418 6ZM38.0166 20.108C38.0166 23.0178 35.6554 25.3766 32.7426 25.3766C29.8298 25.3766 27.4685 23.0178 27.4685 20.108C27.4685 17.1982 29.8298 14.8394 32.7426 14.8394C35.6554 14.8394 38.0166 17.1982 38.0166 20.108Z" fill="#FFC000"/>
<path d="M34.7172 9.37093L34.6413 9.86513L34.9442 9.91168L35.1231 9.66288L34.7172 9.37093ZM37.1418 6L37.2916 5.52296L36.9469 5.41473L36.7359 5.70805L37.1418 6ZM30.7679 9.37093L30.362 9.66288L30.5485 9.92222L30.8623 9.86195L30.7679 9.37093ZM28.3434 6L28.7493 5.70805L28.5424 5.42039L28.2024 5.52028L28.3434 6ZM25.8688 7.02376L25.6344 6.58211L25.317 6.75054L25.3755 7.10507L25.8688 7.02376ZM26.5437 11.1188L26.8251 11.5321L27.0889 11.3524L27.037 11.0375L26.5437 11.1188ZM23.7442 13.9154L23.663 14.4088L23.9775 14.4605L24.1572 14.1973L23.7442 13.9154ZM19.6449 13.2413L19.726 12.7479L19.3675 12.6889L19.2007 13.0118L19.6449 13.2413ZM18.6201 15.7133L18.1431 15.5632L18.0345 15.9084L18.3285 16.1195L18.6201 15.7133ZM21.9945 18.1353L22.4887 18.2115L22.5354 17.9081L22.286 17.7292L21.9945 18.1353ZM21.9945 22.0806L22.286 22.4868L22.5459 22.3002L22.4855 21.9861L21.9945 22.0806ZM18.6201 24.5027L18.3285 24.0965L18.0402 24.3034L18.1404 24.6439L18.6201 24.5027ZM19.6449 26.9747L19.2034 27.2094L19.3719 27.5263L19.726 27.4681L19.6449 26.9747ZM23.7442 26.3005L24.1572 26.0186L23.9775 25.7554L23.663 25.8071L23.7442 26.3005ZM26.5437 29.0971L27.037 29.1784L27.0889 28.8635L26.8252 28.6839L26.5437 29.0971ZM25.8688 33.1922L25.3755 33.1109L25.3163 33.4699L25.6397 33.6366L25.8688 33.1922ZM28.3434 34.2159L28.1936 34.693L28.5383 34.8012L28.7493 34.5079L28.3434 34.2159ZM30.7679 30.845L30.8439 30.3508L30.541 30.3043L30.362 30.5531L30.7679 30.845ZM34.7172 30.845L35.1231 30.5531L34.9366 30.2937L34.6229 30.354L34.7172 30.845ZM37.1418 34.2159L36.7359 34.5079L36.9428 34.7955L37.2828 34.6957L37.1418 34.2159ZM39.6164 33.1922L39.8508 33.6338L40.1681 33.4654L40.1097 33.1109L39.6164 33.1922ZM38.9415 29.0971L38.66 28.6839L38.3962 28.8635L38.4481 29.1784L38.9415 29.0971ZM41.741 26.3005L41.8221 25.8071L41.5077 25.7554L41.328 26.0186L41.741 26.3005ZM45.8403 26.9747L45.7591 27.4681L46.1177 27.527L46.2845 27.2042L45.8403 26.9747ZM46.8651 24.5027L47.342 24.6527L47.4506 24.3075L47.1566 24.0965L46.8651 24.5027ZM43.4907 22.0806L42.9965 22.0045L42.9498 22.3078L43.1991 22.4868L43.4907 22.0806ZM43.4907 18.1353L43.1991 17.7292L42.9392 17.9157L42.9997 18.2299L43.4907 18.1353ZM46.8651 15.7133L47.1566 16.1195L47.445 15.9125L47.3447 15.5721L46.8651 15.7133ZM45.8403 13.2413L46.2817 13.0065L46.1132 12.6896L45.7591 12.7479L45.8403 13.2413ZM41.741 13.9154L41.328 14.1973L41.5077 14.4605L41.8221 14.4088L41.741 13.9154ZM38.9415 11.1188L38.4481 11.0375L38.3962 11.3524L38.66 11.5321L38.9415 11.1188ZM39.6164 7.02376L40.1097 7.10507L40.1689 6.74609L39.8455 6.57936L39.6164 7.02376ZM35.1231 9.66288L37.5477 6.29195L36.7359 5.70805L34.3113 9.07898L35.1231 9.66288ZM32.7426 9.69614C33.3811 9.69614 34.0027 9.76699 34.6413 9.86513L34.7932 8.87673C34.132 8.77511 33.4538 8.69614 32.7426 8.69614V9.69614ZM30.8623 9.86195C31.4751 9.74421 32.0927 9.69614 32.7426 9.69614V8.69614C32.0427 8.69614 31.3605 8.74795 30.6736 8.87991L30.8623 9.86195ZM27.9375 6.29195L30.362 9.66288L31.1738 9.07898L28.7493 5.70805L27.9375 6.29195ZM26.1032 7.46542C26.8779 7.05427 27.6715 6.71854 28.4843 6.47972L28.2024 5.52028C27.3155 5.78086 26.4594 6.14428 25.6344 6.58211L26.1032 7.46542ZM27.037 11.0375L26.3621 6.94246L25.3755 7.10507L26.0503 11.2001L27.037 11.0375ZM24.1572 14.1973C24.8718 13.1503 25.777 12.246 26.8251 11.5321L26.2622 10.7056C25.1108 11.4898 24.1163 12.4833 23.3312 13.6336L24.1572 14.1973ZM19.5638 13.7346L23.663 14.4088L23.8253 13.4221L19.726 12.7479L19.5638 13.7346ZM19.097 15.8633C19.3625 15.0194 19.701 14.222 20.0891 13.4708L19.2007 13.0118C18.7889 13.8087 18.4275 14.6592 18.1431 15.5632L19.097 15.8633ZM22.286 17.7292L18.9116 15.3071L18.3285 16.1195L21.7029 18.5415L22.286 17.7292ZM22.3195 20.108C22.3195 19.4702 22.3904 18.8493 22.4887 18.2115L21.5003 18.0592C21.3986 18.7198 21.3195 19.3974 21.3195 20.108H22.3195ZM22.4855 21.9861C22.3676 21.3739 22.3195 20.7571 22.3195 20.108H21.3195C21.3195 20.8072 21.3714 21.4888 21.5035 22.1751L22.4855 21.9861ZM18.9116 24.9089L22.286 22.4868L21.7029 21.6744L18.3285 24.0965L18.9116 24.9089ZM20.0864 26.7399C19.6748 25.966 19.3388 25.1733 19.0997 24.3614L18.1404 24.6439C18.4013 25.53 18.7651 26.3853 19.2034 27.2094L20.0864 26.7399ZM23.663 25.8071L19.5638 26.4813L19.726 27.4681L23.8253 26.7939L23.663 25.8071ZM26.8252 28.6839C25.777 27.9699 24.8718 27.0657 24.1572 26.0186L23.3312 26.5824C24.1163 27.7327 25.1108 28.7261 26.2622 29.5104L26.8252 28.6839ZM26.3621 33.2735L27.037 29.1784L26.0503 29.0158L25.3755 33.1109L26.3621 33.2735ZM28.4931 33.7389C27.6483 33.4737 26.8499 33.1355 26.0979 32.7478L25.6397 33.6366C26.4374 34.0479 27.2887 34.4089 28.1936 34.693L28.4931 33.7389ZM30.362 30.5531L27.9375 33.924L28.7493 34.5079L31.1738 31.137L30.362 30.5531ZM32.7426 30.5198C32.1041 30.5198 31.4824 30.4489 30.8439 30.3508L30.692 31.3392C31.3532 31.4408 32.0313 31.5198 32.7426 31.5198V30.5198ZM34.6229 30.354C34.01 30.4717 33.3925 30.5198 32.7426 30.5198V31.5198C33.4425 31.5198 34.1247 31.468 34.8116 31.336L34.6229 30.354ZM37.5477 33.924L35.1231 30.5531L34.3113 31.137L36.7359 34.5079L37.5477 33.924ZM39.382 32.7505C38.6072 33.1617 37.8137 33.4974 37.0009 33.7362L37.2828 34.6957C38.1696 34.4351 39.0258 34.0717 39.8508 33.6338L39.382 32.7505ZM38.4481 29.1784L39.123 33.2735L40.1097 33.1109L39.4348 29.0158L38.4481 29.1784ZM41.328 26.0186C40.6134 27.0657 39.7082 27.9699 38.66 28.6839L39.223 29.5104C40.3744 28.7261 41.3688 27.7327 42.154 26.5824L41.328 26.0186ZM45.9214 26.4813L41.8221 25.8071L41.6598 26.7939L45.7591 27.4681L45.9214 26.4813ZM46.3881 24.3526C46.1226 25.1965 45.7842 25.994 45.396 26.7452L46.2845 27.2042C46.6962 26.4073 47.0576 25.5567 47.342 24.6527L46.3881 24.3526ZM43.1991 22.4868L46.5735 24.9089L47.1566 24.0965L43.7822 21.6744L43.1991 22.4868ZM43.1656 20.108C43.1656 20.7457 43.0947 21.3666 42.9965 22.0045L43.9848 22.1567C44.0866 21.4961 44.1656 20.8186 44.1656 20.108H43.1656ZM42.9997 18.2299C43.1175 18.842 43.1656 19.4588 43.1656 20.108H44.1656C44.1656 19.4087 44.1138 18.7271 43.9817 18.0408L42.9997 18.2299ZM46.5735 15.3071L43.1991 17.7292L43.7822 18.5415L47.1566 16.1195L46.5735 15.3071ZM45.3988 13.476C45.8104 14.2499 46.1464 15.0426 46.3854 15.8545L47.3447 15.5721C47.0838 14.686 46.72 13.8307 46.2817 13.0065L45.3988 13.476ZM41.8221 14.4088L45.9214 13.7346L45.7591 12.7479L41.6598 13.4221L41.8221 14.4088ZM38.66 11.5321C39.7082 12.246 40.6134 13.1503 41.328 14.1973L42.154 13.6336C41.3688 12.4833 40.3744 11.4898 39.223 10.7056L38.66 11.5321ZM39.123 6.94246L38.4481 11.0375L39.4348 11.2001L40.1097 7.10507L39.123 6.94246ZM36.992 6.47704C37.8369 6.74229 38.6352 7.08044 39.3872 7.46817L39.8455 6.57936C39.0478 6.16806 38.1964 5.80705 37.2916 5.52296L36.992 6.47704ZM32.7426 25.8766C35.931 25.8766 38.5166 23.2944 38.5166 20.108H37.5166C37.5166 22.7412 35.3797 24.8766 32.7426 24.8766V25.8766ZM26.9685 20.108C26.9685 23.2944 29.5541 25.8766 32.7426 25.8766V24.8766C30.1055 24.8766 27.9685 22.7412 27.9685 20.108H26.9685ZM32.7426 14.3394C29.5541 14.3394 26.9685 16.9216 26.9685 20.108H27.9685C27.9685 17.4748 30.1055 15.3394 32.7426 15.3394V14.3394ZM38.5166 20.108C38.5166 16.9216 35.931 14.3394 32.7426 14.3394V15.3394C35.3797 15.3394 37.5166 17.4748 37.5166 20.108H38.5166Z" fill="black"/>
<path d="M45.2466 42.1823L53.9134 35.5071L58.3901 37.2696L52.8769 45.8614L38.0353 53.3296L23.3039 49.9149L17.7025 51.9858L13.2919 42.1382L16.1808 40.4639L23.0393 36.851L33.5365 39.1421L45.2466 42.1823Z" stroke="black" stroke-miterlimit="10"/>
<path d="M45.2466 42.1823L46.5257 43.9447L46.4595 45.4648L44.3645 47.0069L32.081 45.2445" stroke="black" stroke-miterlimit="10"/>
<path d="M10.7117 41.3231L16.4234 53.9905L11.5718 57.1849L5 42.4907L10.7117 41.3231Z" stroke="black" stroke-miterlimit="10"/>
</svg>
