<svg width="64" height="64" viewBox="0 0 64 64" fill="none" xmlns="http://www.w3.org/2000/svg">
<path fill-rule="evenodd" clip-rule="evenodd" d="M11.21 56.47C10.5361 56.47 10 57.0061 10 57.68V58.54H9V57.68C9 56.4538 9.98386 55.47 11.21 55.47H45.43C46.6561 55.47 47.64 56.4538 47.64 57.68V58.54H46.64V57.68C46.64 57.0061 46.1039 56.47 45.43 56.47H11.21Z" fill="black"/>
<path d="M17.2 11.49H39.44V32.02H17.2V11.49Z" fill="#FFC000"/>
<path fill-rule="evenodd" clip-rule="evenodd" d="M12.4199 5.5C12.4199 5.22386 12.6438 5 12.9199 5H43.7199C43.9961 5 44.2199 5.22386 44.2199 5.5V55.98H43.2199V6H13.4199V55.98H12.4199V5.5Z" fill="black"/>
<path fill-rule="evenodd" clip-rule="evenodd" d="M16.6999 11.49C16.6999 11.2139 16.9238 10.99 17.1999 10.99H39.4399C39.7161 10.99 39.9399 11.2139 39.9399 11.49V32.02C39.9399 32.2961 39.7161 32.52 39.4399 32.52H17.1999C16.9238 32.52 16.6999 32.2961 16.6999 32.02V11.49ZM17.6999 11.99V31.52H38.9399V11.99H17.6999Z" fill="black"/>
<path fill-rule="evenodd" clip-rule="evenodd" d="M49.3089 10.3907L54.4389 19.8007C54.4789 19.8741 54.4999 19.9564 54.4999 20.04V50.85C54.4999 52.5461 53.1261 53.92 51.4299 53.92C49.7338 53.92 48.3599 52.5461 48.3599 50.85V37.16C48.3599 36.0161 47.4338 35.09 46.2899 35.09H43.7199V34.09H46.2899C47.9861 34.09 49.3599 35.4639 49.3599 37.16V50.85C49.3599 51.9939 50.2861 52.92 51.4299 52.92C52.5738 52.92 53.4999 51.9939 53.4999 50.85V20.1674L48.4309 10.8693L49.3089 10.3907Z" fill="black"/>
<path fill-rule="evenodd" clip-rule="evenodd" d="M48.365 20.7781L49.225 17.3581L50.1948 17.6019L49.421 20.6794L51.6969 22.1937L51.1429 23.0263L48.5729 21.3163C48.3967 21.199 48.3134 20.9834 48.365 20.7781Z" fill="black"/>
</svg>
