<?xml version="1.0" encoding="utf-8"?>
<!-- Generator: Adobe Illustrator 27.7.0, SVG Export Plug-In . SVG Version: 6.00 Build 0)  -->
<svg version="1.1" id="Layer_1" xmlns="http://www.w3.org/2000/svg" xmlns:xlink="http://www.w3.org/1999/xlink" x="0px" y="0px"
	 viewBox="0 0 64 64" style="enable-background:new 0 0 64 64;" xml:space="preserve">
<style type="text/css">
	.st0{fill:#FFC612;stroke:#FFFFFF;stroke-miterlimit:10;}
	.st1{fill:none;stroke:#FFFFFF;stroke-miterlimit:10;}
	.st2{fill:none;stroke:#FFFFFF;stroke-linecap:round;stroke-miterlimit:10;}
</style>
<path class="st0" d="M6,37.7v15.1h51.3V37.7H6z M14.1,46.6c-1,0-1.9-0.8-1.9-1.8s0.8-1.8,1.9-1.8s1.9,0.8,1.9,1.8
	S15.2,46.6,14.1,46.6z M20.6,46.6c-1,0-1.9-0.8-1.9-1.8s0.8-1.8,1.9-1.8s1.9,0.8,1.9,1.8S21.7,46.6,20.6,46.6z M27.1,46.6
	c-1,0-1.9-0.8-1.9-1.8s0.8-1.8,1.9-1.8s1.9,0.8,1.9,1.8S28.1,46.6,27.1,46.6z"/>
<line class="st1" x1="35.5" y1="44" x2="49.7" y2="44"/>
<path class="st2" d="M47.5,21.3c-4.3-3.5-9.8-5.5-15.8-5.5s-11.5,2.1-15.9,5.6"/>
<path class="st2" d="M41.8,25.8c-2.8-2.2-6.3-3.6-10.2-3.6s-7.4,1.4-10.2,3.6"/>
<path class="st2" d="M27.3,30.1c1.2-1,2.7-1.5,4.4-1.5s3.1,0.6,4.3,1.5"/>
</svg>
