<?xml version="1.0" encoding="UTF-8"?>
<svg id="Layer_1" data-name="Layer 1" xmlns="http://www.w3.org/2000/svg" viewBox="0 0 64 64">
  <defs>
    <style>
      .cls-1 {
        fill: #ffc612;
      }

      .cls-1, .cls-2 {
        stroke: #000;
        stroke-miterlimit: 10;
      }

      .cls-2 {
        fill: none;
      }
    </style>
  </defs>
  <path class="cls-1" d="m11.94,16.38l-7.86,15.5c-.2.4-.04.89.36,1.09l5.63,2.87c.41.21.9.04,1.1-.37l7.63-15.7c.2-.4.03-.89-.37-1.09l-5.41-2.67c-.4-.2-.88-.04-1.09.36Z"/>
  <path class="cls-1" d="m51.8,16.27l7.97,15.73c.17.34.04.75-.3.92l-5.86,2.99c-.34.17-.76.03-.93-.31l-7.75-15.93c-.16-.34-.03-.75.31-.91l5.64-2.79c.34-.17.74-.03.91.3Z"/>
  <path class="cls-2" d="m17.92,21.6s2.66,1.79,2.97,1.71,5.51-3.12,5.51-3.12c0,0,1.26-1.22,2.34.19"/>
  <path class="cls-2" d="m45.63,20.81l-4.18,1.4-7.88-3.15s-3.5-.78-5.99,2.55c-2.49,3.33-2.79,5.81-1.57,7.21,1.32,1.5,2.67,1.12,3.69-.06,1.02-1.18,1.29-3.53,2.68-3.31,1.38.22,9.45,3.98,9.45,3.98l6.11,5.94c.19.19.48.24.73.14l3.32-1.32"/>
  <line class="cls-2" x1="11.76" y1="34.26" x2="14.12" y2="35.66"/>
  <path class="cls-2" d="m39.09,34.26l5.55,5.09s1.77,1.46,3.31.57c1.54-.89,1.3-3.06,1.3-3.06l-.97-1.2"/>
  <path class="cls-2" d="m35.23,37.79l5.44,4.84s1.65.82,3.07,0c2.06-1.19.9-3.28.9-3.28"/>
  <path class="cls-2" d="m31.89,41.06l4.53,3.98s.79.68,2.25.47c2.4-.34,1.81-3.06,1.81-3.06"/>
  <path class="cls-2" d="m29.56,45.52l2.31,1.89s1.93,1.36,3.55.92c1.62-.44,1.16-3.14,1.16-3.14"/>
  <path class="cls-2" d="m23.6,46.49s-1.1,1.93-3.47.32c-1.24-.85-.27-3.33-.27-3.33l3.02-5.94s.42-1.06.81-1.55c.74-.91,1.89-1.94,3.1-1.44,1.63.68,1.25,2.23,1.16,3.25-.12,1.2-1.04,2.34-1.04,2.34l-3.22,6.1s-.43,1.78,1.06,2.44c1.79.8,3.06-.08,3.06-.08l3.82-7.36c-.17.54,1.18-1.83-1.05-2.96-2.34-1.18-3.67,1.85-3.67,1.85"/>
  <path class="cls-2" d="m19.87,43.48s-1.94.37-3.02-1.1c-.8-1.09-.11-2.11-.11-2.11l2.24-4.47s1.58-2.73,3.16-1.54c1.28.97.49,3.81.49,3.81"/>
  <path class="cls-2" d="m16.74,40.27s-1.41,1.78-3.06.49c-1.91-1.49-.56-3.8-.56-3.8l1.61-2.65s1.14-1.77,2.84-.92c1.73.87,1.03,3.17,1.03,3.17"/>
</svg>