<?xml version="1.0" encoding="utf-8"?>
<!-- Generator: Adobe Illustrator 27.7.0, SVG Export Plug-In . SVG Version: 6.00 Build 0)  -->
<svg version="1.1" id="Layer_1" xmlns="http://www.w3.org/2000/svg" xmlns:xlink="http://www.w3.org/1999/xlink" x="0px" y="0px"
	 viewBox="0 0 64 64" style="enable-background:new 0 0 64 64;" xml:space="preserve">
<style type="text/css">
	.st0{fill:#FFC612;stroke:#FFFFFF;stroke-miterlimit:10;}
	.st1{fill:none;stroke:#FFFFFF;stroke-miterlimit:10;}
</style>
<path class="st0" d="M11.9,16.4L4.1,31.9c-0.2,0.4,0,0.9,0.4,1.1l5.6,2.9c0.4,0.2,0.9,0,1.1-0.4l7.6-15.7c0.2-0.4,0-0.9-0.4-1.1
	L13,16C12.6,15.8,12.1,16,11.9,16.4L11.9,16.4z"/>
<path class="st0" d="M51.8,16.3l8,15.7c0.2,0.3,0,0.8-0.3,0.9l-5.9,3c-0.3,0.2-0.8,0-0.9-0.3l-7.8-15.9c-0.2-0.3,0-0.8,0.3-0.9
	l5.6-2.8C51.2,15.8,51.6,15.9,51.8,16.3L51.8,16.3z"/>
<path class="st1" d="M17.9,21.6c0,0,2.7,1.8,3,1.7s5.5-3.1,5.5-3.1s1.3-1.2,2.3,0.2"/>
<path class="st1" d="M45.6,20.8l-4.2,1.4l-7.9-3.1c0,0-3.5-0.8-6,2.5s-2.8,5.8-1.6,7.2c1.3,1.5,2.7,1.1,3.7-0.1s1.3-3.5,2.7-3.3
	c1.4,0.2,9.5,4,9.5,4l6.1,5.9c0.2,0.2,0.5,0.2,0.7,0.1l3.3-1.3"/>
<line class="st1" x1="11.8" y1="34.3" x2="14.1" y2="35.7"/>
<path class="st1" d="M39.1,34.3l5.5,5.1c0,0,1.8,1.5,3.3,0.6s1.3-3.1,1.3-3.1l-1-1.2"/>
<path class="st1" d="M35.2,37.8l5.4,4.8c0,0,1.7,0.8,3.1,0c2.1-1.2,0.9-3.3,0.9-3.3"/>
<path class="st1" d="M31.9,41.1l4.5,4c0,0,0.8,0.7,2.2,0.5c2.4-0.3,1.8-3.1,1.8-3.1"/>
<path class="st1" d="M29.6,45.5l2.3,1.9c0,0,1.9,1.4,3.5,0.9c1.6-0.4,1.2-3.1,1.2-3.1"/>
<path class="st1" d="M23.6,46.5c0,0-1.1,1.9-3.5,0.3c-1.2-0.8-0.3-3.3-0.3-3.3l3-5.9c0,0,0.4-1.1,0.8-1.5c0.7-0.9,1.9-1.9,3.1-1.4
	c1.6,0.7,1.2,2.2,1.2,3.2c-0.1,1.2-1,2.3-1,2.3l-3.2,6.1c0,0-0.4,1.8,1.1,2.4c1.8,0.8,3.1-0.1,3.1-0.1l3.8-7.4c-0.2,0.5,1.2-1.8-1-3
	c-2.3-1.2-3.7,1.8-3.7,1.8"/>
<path class="st1" d="M19.9,43.5c0,0-1.9,0.4-3-1.1c-0.8-1.1-0.1-2.1-0.1-2.1l2.2-4.5c0,0,1.6-2.7,3.2-1.5c1.3,1,0.5,3.8,0.5,3.8"/>
<path class="st1" d="M16.7,40.3c0,0-1.4,1.8-3.1,0.5c-1.9-1.5-0.6-3.8-0.6-3.8l1.6-2.7c0,0,1.1-1.8,2.8-0.9c1.7,0.9,1,3.2,1,3.2"/>
</svg>
