<?xml version="1.0" encoding="utf-8"?>
<!-- Generator: Adobe Illustrator 27.7.0, SVG Export Plug-In . SVG Version: 6.00 Build 0)  -->
<svg version="1.1" id="Layer_1" xmlns="http://www.w3.org/2000/svg" xmlns:xlink="http://www.w3.org/1999/xlink" x="0px" y="0px"
	 viewBox="0 0 64 64" style="enable-background:new 0 0 64 64;" xml:space="preserve">
<style type="text/css">
	.st0{fill:#FFC612;stroke:#FFFFFF;stroke-width:1.13;stroke-miterlimit:10;}
	.st1{fill:none;stroke:#FFFFFF;stroke-width:1.13;stroke-miterlimit:10;}
</style>
<ellipse class="st0" cx="27.3" cy="16.8" rx="20.4" ry="9.6"/>
<path class="st1" d="M33.9,34.7c-2,0.5-4.5,0.6-6.6,0.6C16,35.3,6.9,31,6.9,25.7"/>
<path class="st1" d="M31.6,45c-1.1,0.1-3.1,0.2-4.3,0.2c-11.3,0-20.4-4.3-20.4-9.6"/>
<path class="st1" d="M36.7,55.2c-2.8,0.7-6,1.1-9.4,1.1c-11.3,0-20.4-4.3-20.4-9.6l0-30.5"/>
<line class="st1" x1="47.8" y1="16.7" x2="47.7" y2="28.9"/>
<path class="st1" d="M38.2,31.2c2.3-1.7,5-2.7,7.8-2.7c8,0,14.5,6.5,14.5,14.5S54,57.5,46,57.5S31.5,51,31.5,43"/>
<polyline class="st1" points="38.9,43.3 45.9,44.4 51.3,35.9 "/>
</svg>
