<?xml version="1.0" encoding="UTF-8"?>
<svg id="Layer_1" data-name="Layer 1" xmlns="http://www.w3.org/2000/svg" viewBox="0 0 64 64">
  <defs>
    <style>
      .cls-1 {
        fill: #ffc612;
      }

      .cls-1, .cls-2 {
        stroke: #000;
        stroke-miterlimit: 10;
        stroke-width: 1.13px;
      }

      .cls-2 {
        fill: none;
      }
    </style>
  </defs>
  <ellipse class="cls-1" cx="27.31" cy="16.79" rx="20.42" ry="9.59"/>
  <path class="cls-2" d="m33.89,34.7c-1.96.46-4.52.58-6.59.58-11.27,0-20.41-4.29-20.41-9.59"/>
  <path class="cls-2" d="m31.6,45.04c-1.13.12-3.11.19-4.3.19-11.27,0-20.41-4.29-20.41-9.59"/>
  <path class="cls-2" d="m36.68,55.15c-2.81.68-6,1.07-9.38,1.07-11.27,0-20.41-4.29-20.41-9.59l.04-30.47"/>
  <line class="cls-2" x1="47.76" y1="16.68" x2="47.74" y2="28.89"/>
  <g>
    <path class="cls-2" d="m35.42,33.79c2.79-3.16,6.65-5.24,10.55-5.24,8,0,14.48,6.48,14.48,14.48s-6.48,14.48-14.48,14.48-14.48-6.48-14.48-14.48"/>
    <polygon points="39.58 35.11 32.36 38.73 32.83 30.67 39.58 35.11"/>
  </g>
  <polyline class="cls-2" points="38.86 43.31 45.86 44.42 51.29 35.91"/>
</svg>