<svg width="64" height="64" viewBox="0 0 64 64" fill="none" xmlns="http://www.w3.org/2000/svg">
<g clip-path="url(#clip0_7075_8266)">
<path d="M31.87 6.56006C17.97 6.56006 6.70996 17.8201 6.70996 31.7201C6.70996 45.6201 17.97 56.8801 31.87 56.8801C45.77 56.8801 57.03 45.6201 57.03 31.7201C57.03 17.8201 45.76 6.56006 31.87 6.56006ZM31.87 51.5401C20.92 51.5401 12.05 42.6701 12.05 31.7201C12.05 20.7701 20.92 11.9001 31.87 11.9001C42.82 11.9001 51.69 20.7701 51.69 31.7201C51.69 42.6701 42.82 51.5401 31.87 51.5401Z" fill="#FFC000"/>
<path fill-rule="evenodd" clip-rule="evenodd" d="M7 31.82C7 18.1123 18.1123 7 31.82 7C45.5277 7 56.64 18.1123 56.64 31.82C56.64 45.5277 45.5277 56.64 31.82 56.64C18.1123 56.64 7 45.5277 7 31.82ZM31.82 6C17.56 6 6 17.56 6 31.82C6 46.08 17.56 57.64 31.82 57.64C46.08 57.64 57.64 46.08 57.64 31.82C57.64 17.56 46.08 6 31.82 6ZM12.7353 28.8614C13.2001 25.8383 14.366 23.0464 16.0618 20.6569C17.5652 24.258 20.5716 27.0189 24.2861 28.1992C23.9476 28.9046 23.7032 29.6697 23.5715 30.4811C23.52 30.7981 23.4871 31.1138 23.472 31.427C19.7625 32.2992 15.8558 31.4031 12.8958 28.9923L12.7353 28.8614ZM11.51 31.82C11.51 27.1265 13.1021 22.8049 15.7756 19.3656C15.7944 19.3354 15.8164 19.3071 15.8415 19.2813C18.0112 16.5202 20.8813 14.3353 24.184 12.9943C24.1964 12.9887 24.209 12.9836 24.2218 12.979C26.5689 12.0316 29.1335 11.51 31.82 11.51C36.5135 11.51 40.8351 13.102 44.2743 15.7756C44.3046 15.7944 44.3329 15.8164 44.3587 15.8415C47.12 18.0114 49.305 20.8816 50.6459 24.1846C50.6513 24.1966 50.6563 24.2088 50.6608 24.2212C51.6083 26.5685 52.13 29.1333 52.13 31.82C52.13 36.5135 50.538 40.8351 47.8644 44.2743C47.8456 44.3046 47.8236 44.3329 47.7985 44.3587C45.6286 47.12 42.7584 49.305 39.4554 50.6459C39.4434 50.6513 39.4312 50.6563 39.4187 50.6608C37.0715 51.6083 34.5067 52.13 31.82 52.13C27.1265 52.13 22.8049 50.538 19.3657 47.8644C19.3354 47.8456 19.3071 47.8236 19.2813 47.7985C16.5199 45.6286 14.335 42.7583 12.994 39.4552C12.9887 39.4433 12.9838 39.4312 12.9793 39.419C12.0317 37.0717 11.51 34.5068 11.51 31.82ZM23.7559 14.2693C21.0229 15.5271 18.634 17.4045 16.7691 19.7215L16.8376 19.9028C18.1971 23.4781 21.1347 26.2135 24.7844 27.3065C25.395 26.3555 26.1894 25.5448 27.1096 24.9163C24.488 22.0376 23.2605 18.1373 23.7559 14.2693ZM27.9871 24.3922C25.3798 21.6231 24.1988 17.781 24.8034 14.0107L24.8366 13.8114C27.0024 12.971 29.3573 12.51 31.82 12.51C32.4248 12.51 33.0231 12.5378 33.6137 12.5922C31.2472 15.6912 30.3616 19.6729 31.1901 23.4827C30.0543 23.568 28.9679 23.8847 27.9871 24.3922ZM12.5922 30.0263C12.5378 30.6169 12.51 31.2152 12.51 31.82C12.51 34.2826 12.971 36.6376 13.8114 38.8033L14.0108 38.8366C17.7813 39.4412 21.6236 38.26 24.3927 35.6524C23.8859 34.6715 23.5699 33.585 23.4852 32.4493C19.6747 33.2788 15.6919 32.3933 12.5922 30.0263ZM14.2693 39.8841C18.1373 40.3795 22.0377 39.152 24.9164 36.5304C25.5445 37.4512 26.355 38.2463 27.306 38.8575C26.2125 42.5065 23.4771 45.4434 19.9023 46.8026L19.7216 46.8709C17.4045 45.006 15.5271 42.6171 14.2693 39.8841ZM20.6569 47.5782C24.2573 46.0751 27.0177 43.0697 28.1985 39.3562C28.9048 39.6957 29.6712 39.9407 30.484 40.0726C31.0188 40.1594 31.5499 40.1934 32.0721 40.1785C32.942 43.8776 32.0433 47.7915 29.6364 50.752L29.6355 50.7531L29.4443 50.9853C26.1971 50.5869 23.1992 49.3825 20.6569 47.5782ZM30.6402 51.0946C33.0415 47.9685 33.9372 43.9294 33.0774 40.0883C33.9867 39.9506 34.8564 39.6642 35.6559 39.251C38.2611 42.0199 39.441 45.8604 38.8366 49.6293L38.8363 49.6308L38.8033 49.8286C36.6376 50.669 34.2827 51.13 31.82 51.13C31.4238 51.13 31.0304 51.1181 30.6402 51.0946ZM39.8841 49.3707C40.3793 45.5044 39.153 41.6057 36.5337 38.7274C37.4552 38.0987 38.2507 37.2874 38.8621 36.3354C42.5089 37.4298 45.4438 40.1641 46.8025 43.7372L46.8026 43.7377L46.8709 43.9184C45.006 46.2355 42.6171 48.1129 39.8841 49.3707ZM38.1739 35.545C38.188 35.5136 38.2051 35.4841 38.2248 35.4569C38.6455 34.7164 38.9439 33.8898 39.0884 32.9999C39.1492 32.6255 39.1805 32.2532 39.1842 31.8853C39.1783 31.8406 39.1785 31.7963 39.1844 31.7531C39.1741 30.4627 38.8237 29.2298 38.2071 28.1569C38.2 28.1458 38.1935 28.1344 38.1874 28.1229C37.5506 27.0284 36.6358 26.1026 35.5221 25.4552C35.507 25.4474 35.4924 25.439 35.4783 25.4299C34.7331 25.0036 33.9001 24.7014 33.0027 24.5557C32.6132 24.4925 32.2259 24.4611 31.8434 24.4596C31.8273 24.4603 31.8112 24.4603 31.7953 24.4595C28.2576 24.4688 25.144 27.0349 24.5586 30.6413C23.9073 34.6536 26.6319 38.4342 30.6442 39.0855C33.7311 39.5866 36.6808 38.0894 38.1739 35.545ZM47.5782 42.9831C46.0757 39.3841 43.072 36.6244 39.3604 35.4428C39.6992 34.7373 39.9437 33.9719 40.0755 33.1601C40.1271 32.8422 40.16 32.5255 40.1751 32.2113C43.8823 31.342 47.7858 32.2383 50.7439 34.6474L50.7442 34.6477L50.9048 34.7786C50.4399 37.8017 49.274 40.5936 47.5782 42.9831ZM51.0478 33.6137C51.1022 33.0231 51.13 32.4248 51.13 31.82C51.13 29.3574 50.669 27.0024 49.8286 24.8367L49.6308 24.8037L49.6293 24.8034C45.8607 24.1991 42.0204 25.3788 39.2515 27.9836C39.7595 28.9651 40.0764 30.0525 40.1615 31.1892C43.97 30.3623 47.95 31.2481 51.0478 33.6137ZM49.3707 23.7559C45.5044 23.2607 41.6058 24.4869 38.7274 27.1062C38.0984 26.1854 37.2869 25.3905 36.3349 24.7798C37.4288 21.1322 40.1634 18.1965 43.7371 16.8376L43.7377 16.8374L43.9184 16.7691C46.2355 18.634 48.1129 21.0229 49.3707 23.7559ZM42.9831 16.0618C39.3834 17.5646 36.6232 20.5693 35.4421 24.2819C34.7375 23.9441 33.9734 23.7002 33.163 23.5686C32.8444 23.5169 32.5271 23.4839 32.2122 23.4689C31.3413 19.7603 32.2375 15.855 34.6477 12.8958L34.7786 12.7352C37.8017 13.2001 40.5936 14.366 42.9831 16.0618ZM28.39 31.82C28.39 29.9261 29.9262 28.39 31.82 28.39C33.7139 28.39 35.25 29.9261 35.25 31.82V32.32H36.25V31.82C36.25 29.3739 34.2662 27.39 31.82 27.39C29.3739 27.39 27.39 29.3739 27.39 31.82C27.39 34.2661 29.3739 36.25 31.82 36.25H32.32V35.25H31.82C29.9262 35.25 28.39 33.7139 28.39 31.82Z" fill="black"/>
</g>
<defs>
<clipPath id="clip0_7075_8266">
<rect width="51.64" height="51.64" fill="white" transform="translate(6 6)"/>
</clipPath>
</defs>
</svg>
