<svg width="64" height="64" viewBox="0 0 64 64" fill="none" xmlns="http://www.w3.org/2000/svg">
<g clip-path="url(#clip0_7075_8268)">
<path d="M8.98 51.0001C8.98 46.7301 13.25 46.6001 13.25 46.6001L13.64 46.4801V10.0601H6V51.0001H8.98Z" fill="#FFC000"/>
<path d="M54.13 51.0001C54.13 46.7301 49.86 46.6001 49.86 46.6001L49.47 46.4801V10.0601H57.1V51.0001H54.12H54.13Z" fill="#FFC000"/>
<path fill-rule="evenodd" clip-rule="evenodd" d="M13.6101 46.75V10.5H14.6101V46.75H13.6101Z" fill="black"/>
<path fill-rule="evenodd" clip-rule="evenodd" d="M49.5 10.53V46.8H48.5V10.53H49.5Z" fill="black"/>
<path fill-rule="evenodd" clip-rule="evenodd" d="M6 10H14.13C14.3281 10 14.5075 10.117 14.5875 10.2982C16.7604 15.2255 23.1208 18.95 31.59 18.95C40.0592 18.95 46.3903 15.2454 48.573 10.3272C48.653 10.1469 48.8315 10.0305 49.0288 10.03L57.1088 10.01L57.1112 11.01L49.3503 11.0292C46.8394 16.2737 40.1406 19.95 31.59 19.95C23.04 19.95 16.3121 16.2549 13.8093 11H6V10Z" fill="black"/>
<path fill-rule="evenodd" clip-rule="evenodd" d="M25.2 29.6999V26.6899H26.2V29.6999H25.2Z" fill="black"/>
<path fill-rule="evenodd" clip-rule="evenodd" d="M25.2 43.6899V33.1299H26.2V43.6899H25.2Z" fill="black"/>
<path fill-rule="evenodd" clip-rule="evenodd" d="M33 28.32V27.03H34V28.32H33Z" fill="black"/>
<path fill-rule="evenodd" clip-rule="evenodd" d="M33 37.6V31.76H34V37.6H33Z" fill="black"/>
<path fill-rule="evenodd" clip-rule="evenodd" d="M29.1001 32.26V27.03H30.1001V32.26H29.1001Z" fill="black"/>
<path fill-rule="evenodd" clip-rule="evenodd" d="M29.1001 40.7499V35.6899H30.1001V40.7499H29.1001Z" fill="black"/>
<path fill-rule="evenodd" clip-rule="evenodd" d="M36.9099 32.9499V26.6899H37.9099V32.9499H36.9099Z" fill="black"/>
<path fill-rule="evenodd" clip-rule="evenodd" d="M36.9099 43.0799V36.3799H37.9099V43.0799H36.9099Z" fill="black"/>
<path fill-rule="evenodd" clip-rule="evenodd" d="M24.3739 22.9531C26.6456 23.4842 29.1174 23.77 31.5901 23.77C34.0629 23.77 36.4354 23.4941 38.6684 22.9826L38.8917 23.9574C36.5847 24.4858 34.1372 24.77 31.5901 24.77C29.0427 24.77 26.4945 24.4758 24.1462 23.9269L24.3739 22.9531Z" fill="black"/>
<path fill-rule="evenodd" clip-rule="evenodd" d="M24.6102 45.2163C25.5247 42.2497 28.2789 40.0901 31.55 40.0901C34.8222 40.0901 37.5772 42.2511 38.4907 45.2192C39.3939 44.5528 40.5064 44.1601 41.71 44.1601C44.5709 44.1601 46.9191 46.3791 47.1253 49.1879C47.6787 48.9462 48.2868 48.8101 48.93 48.8101C51.2772 48.8101 53.2134 50.5887 53.4628 52.8701H57.11V53.8701H52.99C52.7139 53.8701 52.49 53.6462 52.49 53.3701C52.49 51.4062 50.8939 49.8101 48.93 49.8101C48.1704 49.8101 47.4695 50.0539 46.8771 50.4694C46.7153 50.583 46.5016 50.5905 46.3322 50.4885C46.1628 50.3865 46.0693 50.1943 46.0939 49.9981C46.1023 49.9305 46.1102 49.8762 46.1169 49.8295C46.1308 49.7335 46.14 49.6699 46.14 49.5901C46.14 47.1462 44.1539 45.1601 41.71 45.1601C40.4796 45.1601 39.3659 45.6623 38.5555 46.4817C38.4245 46.6141 38.2308 46.6628 38.0528 46.6079C37.8748 46.5531 37.742 46.4038 37.7083 46.2206C37.1709 43.3024 34.6232 41.0901 31.55 41.0901C28.4768 41.0901 25.9291 43.3024 25.3917 46.2206C25.3579 46.4043 25.2245 46.5538 25.0459 46.6083C24.8673 46.6628 24.6731 46.6132 24.5425 46.4797C23.7437 45.6629 22.6314 45.1601 21.39 45.1601C18.9461 45.1601 16.96 47.1462 16.96 49.5901C16.96 49.6699 16.9692 49.7335 16.9831 49.8295C16.9898 49.8762 16.9977 49.9305 17.0061 49.9981C17.0307 50.1949 16.9366 50.3877 16.7663 50.4894C16.5959 50.5911 16.3816 50.5825 16.22 50.4674C15.6403 50.0546 14.9408 49.8101 14.17 49.8101C12.2061 49.8101 10.61 51.4062 10.61 53.3701C10.61 53.6462 10.3861 53.8701 10.11 53.8701H6V52.8701H9.63717C9.88661 50.5887 11.8228 48.8101 14.17 48.8101C14.8161 48.8101 15.4244 48.9447 15.9749 49.185C16.1825 46.3776 18.5301 44.1601 21.39 44.1601C22.5985 44.1601 23.7115 44.551 24.6102 45.2163Z" fill="black"/>
</g>
<defs>
<clipPath id="clip0_7075_8268">
<rect width="51.11" height="43.87" fill="white" transform="translate(6 10)"/>
</clipPath>
</defs>
</svg>
