<svg width="64" height="64" viewBox="0 0 64 64" fill="none" xmlns="http://www.w3.org/2000/svg">
<g clip-path="url(#clip0_7075_8247)">
<path fill-rule="evenodd" clip-rule="evenodd" d="M21.9204 5C22.1221 5.00013 22.304 5.1215 22.3816 5.30774C24.1918 9.65357 24.8221 10.7099 27.3635 14.9693C28.6881 17.1893 30.5318 20.2793 33.3323 25.1587C33.673 25.737 33.9604 26.3125 34.225 26.8925L33.3152 27.3075C33.0601 26.7483 32.788 26.2047 32.4693 25.6638L32.4664 25.6589C29.7022 20.8428 27.8672 17.7668 26.5394 15.541C24.1912 11.6048 23.4292 10.3274 21.9192 6.78648C20.4082 10.3175 19.6444 11.5974 17.3112 15.5074C15.9814 17.7358 14.1419 20.8184 11.3637 25.6589C8.41824 30.7941 8.37488 36.1188 10.3884 40.1399C12.3983 44.1537 16.4808 46.92 21.9201 46.92C26.6519 46.92 30.3554 44.8257 32.5587 41.6358L33.3815 42.2042C30.9847 45.6743 26.9682 47.92 21.9201 47.92C16.1094 47.92 11.6768 44.9463 9.49423 40.5876C7.31527 36.2362 7.40189 30.556 10.4963 25.1612C13.3117 20.2559 15.1604 17.1585 16.487 14.9357C19.0126 10.7042 19.6466 9.64187 21.4588 5.30715C21.5366 5.12101 21.7186 4.99987 21.9204 5Z" fill="black"/>
<path fill-rule="evenodd" clip-rule="evenodd" d="M17.9629 24.3903V24.3903L15.784 28.1783V28.1783C13.7482 31.7365 13.5645 35.4922 15.1626 38.2492C16.4907 40.5432 18.862 41.83 21.9201 41.83V42.83C18.5581 42.83 15.8293 41.3965 14.2974 38.7505C12.4757 35.6077 12.7523 31.4632 14.9161 27.6817L14.9166 27.6807L17.0966 23.8907L17.0972 23.8897C17.8363 22.6113 18.4856 21.4725 19.0654 20.4528L19.9347 20.9472C19.3546 21.9674 18.7037 23.1089 17.9629 24.3903Z" fill="black"/>
<path d="M41.3701 38.5L35.7801 56.83C35.6001 57.41 36.3701 57.8 36.7401 57.32L55.9301 32.23H43.9401L49.5301 13.9C49.7101 13.32 48.9401 12.93 48.5701 13.41L29.3801 38.5H41.3701Z" fill="#FFC000"/>
<path fill-rule="evenodd" clip-rule="evenodd" d="M50.008 14.0468L50.0076 14.0482L44.6153 31.73H55.9301C56.1203 31.73 56.2941 31.838 56.3783 32.0085C56.4626 32.1791 56.4428 32.3827 56.3272 32.5338L37.1372 57.6238L37.1361 57.6253C36.445 58.5218 34.9492 57.8244 35.3021 56.6831L35.3025 56.6818L40.6948 39H29.3801C29.1898 39 29.0161 38.892 28.9318 38.7215C28.8475 38.5509 28.8673 38.3473 28.9829 38.1962L48.1729 13.1062L48.1741 13.1047C48.8651 12.2082 50.3608 12.9055 50.008 14.0468ZM48.9664 13.7148C48.9764 13.702 48.9848 13.6966 48.9848 13.6966C48.9867 13.6954 48.9881 13.6949 48.9901 13.6946C48.9956 13.6936 49.0107 13.6935 49.0296 13.7032C49.0486 13.7128 49.0556 13.724 49.0566 13.7261L49.0569 13.7275C49.0569 13.7275 49.0575 13.7359 49.0525 13.7518L49.0518 13.7541L43.4618 32.0842C43.4156 32.2357 43.4439 32.4002 43.5382 32.5276C43.6325 32.6549 43.7816 32.73 43.9401 32.73H54.9182L36.3441 57.0147V57.0147C36.3342 57.0275 36.3253 57.0334 36.3253 57.0334C36.3234 57.0346 36.322 57.0351 36.32 57.0354C36.3145 57.0364 36.2994 57.0365 36.2805 57.0268C36.2616 57.0172 36.2546 57.006 36.2536 57.0039L36.2532 57.0025C36.2532 57.0025 36.2527 56.9941 36.2576 56.9782L36.2583 56.9759L41.8483 38.6459C41.8945 38.4943 41.8662 38.3298 41.7719 38.2024C41.6776 38.0751 41.5285 38 41.3701 38H30.392L48.9664 13.7148V13.7148Z" fill="black"/>
</g>
<defs>
<clipPath id="clip0_7075_8247">
<rect width="48.43" height="53.04" fill="white" transform="translate(8 5)"/>
</clipPath>
</defs>
</svg>
