<svg width="64" height="64" viewBox="0 0 64 64" fill="none" xmlns="http://www.w3.org/2000/svg">
<path d="M45 39.8708L38.8524 39.0609C38.3261 39.8476 37.7281 40.6112 37.0344 41.3053C36.3407 41.9994 35.5992 42.6473 34.8098 43.2026L35.9819 49.0796C34.8098 49.7274 33.5899 50.2365 32.3221 50.6529L28.5665 45.8866C26.6289 46.2799 24.6435 46.3262 22.682 46.0485L19.2135 51C17.9457 50.6529 16.6779 50.1902 15.4819 49.6349L16.3191 43.6885C15.5058 43.1795 14.7165 42.601 13.9988 41.93C13.2812 41.259 12.6114 40.5418 12.0373 39.7782L5.96149 40.912C5.29172 39.7782 4.76546 38.5982 4.33489 37.3719L9.26254 33.7393C8.85589 31.8651 8.80805 29.9447 9.0951 28.0474L4 24.7387C4.35881 23.5124 4.83722 22.2861 5.41132 21.1292L11.5589 21.9391C12.0852 21.1524 12.6832 20.3888 13.3769 19.6947C14.0706 19.0006 14.8121 18.3527 15.6015 17.7974L14.4294 11.9204C15.6015 11.2726 16.8215 10.7635 18.0893 10.3471L21.8448 15.1134C23.7824 14.7201 25.7678 14.6738 27.7293 14.9515L31.1978 10C32.4656 10.3471 33.7334 10.8098 34.9294 11.3651L34.0922 17.3115C34.9055 17.8205 35.6949 18.399 36.4125 19.07C37.1301 19.741 37.7999 20.4582 38.374 21.2218L43.0385 20.3194" stroke="white" stroke-miterlimit="10"/>
<path d="M25 38C29.4183 38 33 34.6421 33 30.5C33 26.3579 29.4183 23 25 23C20.5817 23 17 26.3579 17 30.5C17 34.6421 20.5817 38 25 38Z" stroke="white" stroke-miterlimit="10"/>
<path fill-rule="evenodd" clip-rule="evenodd" d="M60.1143 27.2368L45.8262 27.2368L45.8262 22.8857L37.8571 30.5L45.8262 38.1143L45.8262 33.4007L60.1143 33.4007V27.2368Z" fill="#FFC000"/>
<path d="M45.8262 27.2368L45.3262 27.2368L45.3262 27.7368L45.8262 27.7368L45.8262 27.2368ZM60.1143 27.2368H60.6143V26.7368L60.1143 26.7368L60.1143 27.2368ZM45.8262 22.8857L46.3262 22.8857L46.3262 21.7165L45.4807 22.5242L45.8262 22.8857ZM37.8571 30.5L37.5117 30.1385L37.1334 30.5L37.5117 30.8615L37.8571 30.5ZM45.8262 38.1143L45.4807 38.4758L46.3262 39.2836L46.3262 38.1143L45.8262 38.1143ZM45.8262 33.4007L45.8262 32.9007L45.3262 32.9007L45.3262 33.4007L45.8262 33.4007ZM60.1143 33.4007L60.1143 33.9007L60.6143 33.9007V33.4007H60.1143ZM45.8262 27.7368L60.1143 27.7368L60.1143 26.7368L45.8262 26.7368L45.8262 27.7368ZM45.3262 22.8857L45.3262 27.2368L46.3262 27.2368L46.3262 22.8857L45.3262 22.8857ZM38.2026 30.8615L46.1716 23.2473L45.4807 22.5242L37.5117 30.1385L38.2026 30.8615ZM46.1716 37.7528L38.2026 30.1385L37.5117 30.8615L45.4807 38.4758L46.1716 37.7528ZM45.3262 33.4007L45.3262 38.1143L46.3262 38.1143L46.3262 33.4007L45.3262 33.4007ZM60.1143 32.9007L45.8262 32.9007L45.8262 33.9007L60.1143 33.9007L60.1143 32.9007ZM60.6143 33.4007V27.2368H59.6143V33.4007H60.6143Z" fill="white"/>
</svg>
