<?xml version="1.0" encoding="UTF-8"?>
<svg id="Layer_1" data-name="Layer 1" xmlns="http://www.w3.org/2000/svg" viewBox="0 0 64 64">
  <defs>
    <style>
      .cls-1 {
        fill: #ffc612;
        stroke: #000;
        stroke-miterlimit: 10;
      }
    </style>
  </defs>
  <path class="cls-1" d="m31.8,10.68c-4.33,4.33-5.51,10.58-3.59,15.99L6.47,48.41l-.99,9.35,12.36-2.12.52-5.69,5.69-.52.52-5.69,5.69-.52,7.27-7.27c5.41,1.92,11.66.74,15.99-3.59,5.99-5.99,5.99-15.71,0-21.71-5.99-5.99-15.71-5.99-21.71,0h0Zm11.37,4.14c1.71-1.71,4.49-1.71,6.2,0,1.71,1.71,1.71,4.49,0,6.2-1.71,1.71-4.49,1.71-6.2,0-1.71-1.71-1.71-4.49,0-6.2Z"/>
</svg>