<?xml version="1.0" encoding="utf-8"?>
<!-- Generator: Adobe Illustrator 27.7.0, SVG Export Plug-In . SVG Version: 6.00 Build 0)  -->
<svg version="1.1" id="Layer_1" xmlns="http://www.w3.org/2000/svg" xmlns:xlink="http://www.w3.org/1999/xlink" x="0px" y="0px"
	 viewBox="0 0 64 64" style="enable-background:new 0 0 64 64;" xml:space="preserve">
<style type="text/css">
	.st0{fill:#FFC612;stroke:#FFFFFF;stroke-miterlimit:10;}
</style>
<path class="st0" d="M31.8,10.7c-4.3,4.3-5.5,10.6-3.6,16L6.5,48.4l-1,9.4l12.4-2.1l0.5-5.7l5.7-0.5l0.5-5.7l5.7-0.5l7.3-7.3
	c5.4,1.9,11.7,0.7,16-3.6c6-6,6-15.7,0-21.7C47.5,4.7,37.8,4.7,31.8,10.7L31.8,10.7L31.8,10.7z M43.2,14.8c1.7-1.7,4.5-1.7,6.2,0
	c1.7,1.7,1.7,4.5,0,6.2c-1.7,1.7-4.5,1.7-6.2,0S41.5,16.5,43.2,14.8z"/>
</svg>
