<?xml version="1.0" encoding="utf-8"?>
<!-- Generator: Adobe Illustrator 27.7.0, SVG Export Plug-In . SVG Version: 6.00 Build 0)  -->
<svg version="1.1" id="Layer_1" xmlns="http://www.w3.org/2000/svg" xmlns:xlink="http://www.w3.org/1999/xlink" x="0px" y="0px"
	 viewBox="0 0 64 64" style="enable-background:new 0 0 64 64;" xml:space="preserve">
<style type="text/css">
	.st0{fill:none;stroke:#FFFFFF;stroke-miterlimit:10;}
	.st1{fill:#FFC612;}
	.st2{fill:none;stroke:#FFFFFF;stroke-width:0.99;stroke-miterlimit:10;}
	.st3{fill:#FFFFFF;}
</style>
<g>
	<path class="st0" d="M36.5,31.3h14.2c1.5,0,2.7,1.2,2.7,2.6v10.6"/>
	<path class="st0" d="M10.2,44.5V33.9c0-1.4,1.2-2.6,2.7-2.6h14"/>
	<line class="st0" x1="31.8" y1="19.6" x2="31.8" y2="26.8"/>
	<line class="st0" x1="31.8" y1="36" x2="31.8" y2="44.5"/>
	<path class="st1" d="M31.8,26.7c-2.6,0-4.7,2.1-4.7,4.7s2.1,4.7,4.7,4.7s4.7-2.1,4.7-4.7S34.4,26.7,31.8,26.7z M32.2,33.6L30.6,33
		l2.4-4.1L32.2,33.6z"/>
</g>
<rect x="25.9" y="4.5" class="st2" width="11.8" height="11.8"/>
<rect x="25.9" y="47.5" class="st2" width="11.8" height="11.8"/>
<rect x="4.3" y="47.5" class="st2" width="11.8" height="11.8"/>
<rect x="47.4" y="47.5" class="st2" width="11.8" height="11.8"/>
<path class="st3" d="M31.8,27.3c2.3,0,4.1,1.9,4.1,4.1c0,2.3-1.8,4.1-4.1,4.1s-4.1-1.8-4.1-4.1S29.5,27.3,31.8,27.3 M31.8,26.3
	c-2.8,0-5.1,2.3-5.1,5.1s2.3,5.1,5.1,5.1s5.1-2.3,5.1-5.1S34.6,26.3,31.8,26.3L31.8,26.3z"/>
</svg>
