<?xml version="1.0" encoding="utf-8"?>
<!-- Generator: Adobe Illustrator 27.7.0, SVG Export Plug-In . SVG Version: 6.00 Build 0)  -->
<svg version="1.1" id="Layer_1" xmlns="http://www.w3.org/2000/svg" xmlns:xlink="http://www.w3.org/1999/xlink" x="0px" y="0px"
	 viewBox="0 0 64 64" style="enable-background:new 0 0 64 64;" xml:space="preserve">
<style type="text/css">
	.st0{fill:none;stroke:#FFFFFF;stroke-miterlimit:10;}
	.st1{fill-rule:evenodd;clip-rule:evenodd;fill:#FFC612;stroke:#FFFFFF;stroke-miterlimit:10;}
</style>
<g>
	<path class="st0" d="M37.3,47.4c0,1.2-1.1,1.5-2.3,1.5h-6.3c-1.3,0-2.6-0.2-2.6-1.5h-22v2.2c0,1,0.7,2.2,1.7,2.2h52.7
		c1,0,1.5-1.1,1.5-2.2l0-2.2L37.3,47.4L37.3,47.4z"/>
	<path class="st0" d="M4.1,48v-1.2l5.7-5.4c0.3-0.3,0.8-0.5,1.2-0.5h42c0.5,0,0.9,0.2,1.2,0.5l5.7,5.4V48"/>
</g>
<path class="st1" d="M10.7,11.7v26.8h43.1V11.7H10.7z M50.7,35.7H13.9V14.6h36.9C50.7,14.6,50.7,35.7,50.7,35.7z"/>
</svg>
