<svg width="64" height="64" viewBox="0 0 64 64" fill="none" xmlns="http://www.w3.org/2000/svg">
<path d="M40.3872 42.9408C40.3872 42.9408 40.608 36.4448 45.36 31.4976C48.0992 28.6432 50.2432 24.9824 50.2432 20.7168C50.2432 11.0016 42.3648 3.1232 32.6496 3.1232H32.0096C22.2944 3.1232 14.416 11.0016 14.416 20.7168C14.416 24.9824 16.56 28.6432 19.2992 31.4976C24.0512 36.448 24.272 42.9408 24.272 42.9408" stroke="black" stroke-miterlimit="10"/>
<path d="M27.1296 8.03841C23.1456 9.53921 20.0224 12.8 18.7104 16.8736" stroke="black" stroke-miterlimit="10"/>
<path d="M32.3328 60.8416C32.3328 60.8416 33.6704 60.912 34.5888 60.1664C35.5072 59.4208 36.0896 58.3584 36.0896 58.3584L40.2848 56.7552V47.28H24.2752V56.7552L28.7904 58.3584C28.7904 58.3584 29.3696 59.424 30.2912 60.1664C31.2128 60.9088 32.3296 60.8416 32.3296 60.8416H32.3328Z" stroke="black" stroke-miterlimit="10"/>
<path d="M40.3872 42.9408C40.3872 42.9408 40.608 36.4448 45.36 31.4976C48.0992 28.6432 50.2432 24.9824 50.2432 20.7168C50.2432 11.0016 42.3648 3.1232 32.6496 3.1232H32.0096C22.2944 3.1232 14.416 11.0016 14.416 20.7168C14.416 24.9824 16.56 28.6432 19.2992 31.4976C24.0512 36.448 24.272 42.9408 24.272 42.9408" stroke="black" stroke-miterlimit="10"/>
<path d="M27.1296 8.03841C23.1456 9.53921 20.0224 12.8 18.7104 16.8736" stroke="black" stroke-miterlimit="10"/>
<path d="M32.3328 60.8416C32.3328 60.8416 33.6704 60.912 34.5888 60.1664C35.5072 59.4208 36.0896 58.3584 36.0896 58.3584L40.2848 56.7552V47.28H24.2752V56.7552L28.7904 58.3584C28.7904 58.3584 29.3696 59.424 30.2912 60.1664C31.2128 60.9088 32.3296 60.8416 32.3296 60.8416H32.3328Z" fill="#FFC000" stroke="black" stroke-miterlimit="10"/>
</svg>
