<?xml version="1.0" encoding="UTF-8"?>
<svg id="Layer_1" data-name="Layer 1" xmlns="http://www.w3.org/2000/svg" viewBox="0 0 64 64">
  <defs>
    <style>
      .cls-1 {
        fill: #ffc612;
      }

      .cls-2, .cls-3 {
        fill: none;
        stroke: #000;
        stroke-miterlimit: 10;
      }

      .cls-3 {
        stroke-width: .99px;
      }
    </style>
  </defs>
  <g>
    <path class="cls-2" d="m36.48,31.29h14.17c1.47,0,2.65,1.17,2.65,2.6v10.62"/>
    <path class="cls-2" d="m10.2,44.51v-10.62c0-1.44,1.19-2.6,2.65-2.6h14.02"/>
    <line class="cls-2" x1="31.75" y1="19.57" x2="31.75" y2="26.84"/>
    <line class="cls-2" x1="31.75" y1="36.02" x2="31.75" y2="44.51"/>
    <path class="cls-1" d="m31.75,26.7c-2.61,0-4.73,2.12-4.73,4.73s2.12,4.73,4.73,4.73,4.73-2.12,4.73-4.73-2.12-4.73-4.73-4.73Zm1.26,2.18"/>
  </g>
  <rect class="cls-3" x="25.91" y="4.52" width="11.76" height="11.76"/>
  <rect class="cls-3" x="25.91" y="47.51" width="11.76" height="11.76"/>
  <rect class="cls-3" x="4.32" y="47.51" width="11.76" height="11.76"/>
  <rect class="cls-3" x="47.42" y="47.51" width="11.76" height="11.76"/>
  <path d="m31.75,27.3c2.28,0,4.13,1.85,4.13,4.13s-1.85,4.13-4.13,4.13-4.13-1.85-4.13-4.13,1.85-4.13,4.13-4.13m0-1c-2.83,0-5.13,2.3-5.13,5.13s2.3,5.13,5.13,5.13,5.13-2.3,5.13-5.13-2.3-5.13-5.13-5.13h0Z"/>
  <polygon points="32 33.31 30.52 32.78 32.77 29.27 32.77 29.27 32 33.31"/>
</svg>