<?xml version="1.0" encoding="utf-8"?>
<!-- Generator: Adobe Illustrator 27.7.0, SVG Export Plug-In . SVG Version: 6.00 Build 0)  -->
<svg version="1.1" id="Layer_1" xmlns="http://www.w3.org/2000/svg" xmlns:xlink="http://www.w3.org/1999/xlink" x="0px" y="0px"
	 viewBox="0 0 64 64" style="enable-background:new 0 0 64 64;" xml:space="preserve">
<style type="text/css">
	.st0{fill:none;stroke:#FFFFFF;stroke-linecap:round;stroke-linejoin:round;}
	
		.st1{fill-rule:evenodd;clip-rule:evenodd;fill:#FFC612;stroke:#FFFFFF;stroke-width:1.03;stroke-linecap:round;stroke-linejoin:round;}
</style>
<path class="st0" d="M20.5,19.6v2.4h-4.1v-3.3c0-7.9,6.1-14.3,14-14.3h2.9c7.9,0,14,6.4,14,14.3v10H43v-10c0-5.6-4.2-10.1-9.8-10.1
	h-2.9c-5.6,0-9.8,4.5-9.8,10.1L20.5,19.6L20.5,19.6z"/>
<path class="st1" d="M11.7,28.8V59h40V28.8H11.7z M34.7,50.6h-5.4l1-7.9c-1-0.6-1.6-1.6-1.6-2.8c0-1.8,1.5-3.3,3.3-3.3
	s3.3,1.5,3.3,3.3c0,1.2-0.7,2.3-1.6,2.8L34.7,50.6L34.7,50.6z"/>
</svg>
