<?xml version="1.0" encoding="UTF-8"?>
<svg id="Layer_1" data-name="Layer 1" xmlns="http://www.w3.org/2000/svg" viewBox="0 0 64 64">
  <defs>
    <style>
      .cls-1 {
        fill: #ffc612;
      }

      .cls-1, .cls-2 {
        stroke-miterlimit: 10;
      }

      .cls-1, .cls-2, .cls-3 {
        stroke: #000;
      }

      .cls-2, .cls-3 {
        fill: none;
      }

      .cls-3 {
        fill-rule: evenodd;
        stroke-linecap: round;
        stroke-linejoin: round;
        stroke-width: 1.01px;
      }
    </style>
  </defs>
  <path class="cls-2" d="m51.84,23.95h-12.36c-2.07,0-3.76-1.69-3.76-3.76v-12.08"/>
  <polyline class="cls-3" points="35.72 8.1 51.84 23.95 51.84 57.61 11.79 57.61 11.79 8.1 35.72 8.1"/>
  <rect class="cls-1" x="25.62" y="30.98" width="29.38" height="15.82"/>
  <g>
    <path d="m32.02,41.69h3.45v1.53h-5.44v-8.23h1.98v6.7Z"/>
    <path d="m42.92,39.27c0,.8-.15,1.51-.45,2.13-.3.62-.72,1.09-1.27,1.43-.55.33-1.17.5-1.87.5s-1.32-.16-1.87-.48-.97-.78-1.27-1.38c-.3-.6-.46-1.29-.48-2.06v-.46c0-.81.15-1.52.44-2.13.3-.62.72-1.09,1.27-1.43s1.18-.5,1.89-.5,1.32.17,1.87.5c.55.33.97.8,1.27,1.42.3.61.46,1.31.46,2.11v.38Zm-2.02-.34c0-.82-.14-1.44-.41-1.86-.27-.42-.66-.64-1.17-.64-.99,0-1.52.75-1.58,2.24v.6c0,.81.13,1.43.4,1.86.27.43.67.65,1.19.65s.89-.21,1.16-.64.41-1.04.41-1.84v-.38Z"/>
    <path d="m50.68,42.19c-.31.34-.75.61-1.34.82-.59.21-1.23.31-1.93.31-1.08,0-1.94-.33-2.58-.99-.64-.66-.99-1.58-1.03-2.75v-.71c0-.81.14-1.52.42-2.12.29-.6.7-1.07,1.23-1.4.53-.33,1.15-.49,1.85-.49,1.02,0,1.82.23,2.39.7.57.47.9,1.17.99,2.1h-1.91c-.07-.46-.21-.79-.44-.98-.23-.2-.55-.29-.96-.29-.5,0-.88.21-1.15.63s-.41,1.02-.41,1.81v.5c0,.82.14,1.44.42,1.85.28.41.72.62,1.33.62.52,0,.9-.11,1.15-.34v-1.28h-1.38v-1.36h3.36v3.38Z"/>
  </g>
</svg>