<?xml version="1.0" encoding="utf-8"?>
<!-- Generator: Adobe Illustrator 27.7.0, SVG Export Plug-In . SVG Version: 6.00 Build 0)  -->
<svg version="1.1" id="Layer_1" xmlns="http://www.w3.org/2000/svg" xmlns:xlink="http://www.w3.org/1999/xlink" x="0px" y="0px"
	 viewBox="0 0 64 64" style="enable-background:new 0 0 64 64;" xml:space="preserve">
<style type="text/css">
	.st0{fill:none;stroke:#FFFFFF;stroke-miterlimit:10;}
	.st1{fill:none;stroke:#FFFFFF;stroke-width:1.01;stroke-linecap:round;stroke-linejoin:round;}
	.st2{fill:#FFC612;}
</style>
<path class="st0" d="M51.8,24H39.5c-2.1,0-3.8-1.7-3.8-3.8V8.1"/>
<polyline class="st1" points="35.7,8.1 51.8,24 51.8,57.6 11.8,57.6 11.8,8.1 35.7,8.1 "/>
<g>
	<path class="st2" d="M39.3,36.4c-1,0-1.5,0.8-1.6,2.2v0.6c0,0.8,0.1,1.4,0.4,1.9s0.7,0.7,1.2,0.7s0.9-0.2,1.2-0.6s0.4-1,0.4-1.8
		v-0.4c0-0.8-0.1-1.4-0.4-1.9C40.2,36.6,39.8,36.4,39.3,36.4L39.3,36.4z"/>
	<path class="st2" d="M25.6,31v15.8H55V31H25.6z M35.5,43.2H30V35h2v6.7h3.5L35.5,43.2L35.5,43.2z M42.9,39.3c0,0.8-0.2,1.5-0.5,2.1
		c-0.3,0.6-0.7,1.1-1.3,1.4c-0.5,0.3-1.2,0.5-1.9,0.5s-1.3-0.2-1.9-0.5s-1-0.8-1.3-1.4c-0.3-0.6-0.5-1.3-0.5-2.1v-0.5
		c0-0.8,0.2-1.5,0.4-2.1c0.3-0.6,0.7-1.1,1.3-1.4s1.2-0.5,1.9-0.5s1.3,0.2,1.9,0.5s1,0.8,1.3,1.4c0.3,0.6,0.5,1.3,0.5,2.1L42.9,39.3
		L42.9,39.3z M50.7,42.2c-0.3,0.3-0.8,0.6-1.3,0.8s-1.2,0.3-1.9,0.3c-1.1,0-1.9-0.3-2.6-1s-1-1.6-1-2.8v-0.7c0-0.8,0.1-1.5,0.4-2.1
		c0.3-0.6,0.7-1.1,1.2-1.4s1.2-0.5,1.8-0.5c1,0,1.8,0.2,2.4,0.7s0.9,1.2,1,2.1h-1.9c-0.1-0.5-0.2-0.8-0.4-1c-0.2-0.2-0.5-0.3-1-0.3
		c-0.5,0-0.9,0.2-1.2,0.6s-0.4,1-0.4,1.8v0.5c0,0.8,0.1,1.4,0.4,1.8s0.7,0.6,1.3,0.6c0.5,0,0.9-0.1,1.2-0.3v-1.3h-1.4v-1.4h3.4
		L50.7,42.2L50.7,42.2z"/>
</g>
</svg>
