<?xml version="1.0" encoding="utf-8"?>
<!-- Generator: Adobe Illustrator 27.7.0, SVG Export Plug-In . SVG Version: 6.00 Build 0)  -->
<svg version="1.1" id="Layer_1" xmlns="http://www.w3.org/2000/svg" xmlns:xlink="http://www.w3.org/1999/xlink" x="0px" y="0px"
	 viewBox="0 0 64 64" style="enable-background:new 0 0 64 64;" xml:space="preserve">
<style type="text/css">
	.st0{fill:#FFC612;}
	.st1{fill:none;stroke:#FFFFFF;stroke-width:1.08;stroke-miterlimit:10;}
	.st2{fill:none;stroke:#FFFFFF;stroke-width:1.08;stroke-linejoin:round;}
</style>
<path class="st0" d="M44.5,13.4c0.2,0.5-4.2,3.8-9.6,2.5c-4.3-1.1-6.6-3.3-7.5-4c-0.2,0.5-1.1,2.4-2,3.6c-1.3,1.8-3.2,3.7-3.2,3.7
	s-2.1-3.4-1.4-5.4C22.4,4.8,38.1-1.4,44.5,13.4z"/>
<ellipse class="st1" cx="32.8" cy="19.4" rx="13.1" ry="14.8"/>
<path class="st2" d="M34.9,39.6l3.4-4.2c0,0,3.7,0.5,7.6,1.2c3.9,0.7,7.9,0.6,9.9,8.3c1.5,5.7,1.1,14.1,1.1,14.1H8.2
	c0,0-0.4-8.4,1.1-14.1c2.1-7.7,6-7.6,9.9-8.3c3.9-0.7,7.6-1.2,7.6-1.2l3.4,4.2l2.2,11.8C32.5,51.3,34.9,39.6,34.9,39.6z"/>
<path class="st1" d="M20.7,13.4c-0.8,1.9,1.4,5.4,1.4,5.4s1.8-1.9,3.2-3.7c0.9-1.2,1.8-3.1,2-3.6c1,0.7,3.2,2.9,7.5,4
	c5.4,1.3,9.5-2,9.6-2.5"/>
</svg>
