<svg width="64" height="64" viewBox="0 0 64 64" fill="none" xmlns="http://www.w3.org/2000/svg">
<path d="M13 27H16V34H13V27Z" fill="#FFC000"/>
<path d="M18 29H20V34H18V29Z" fill="#FFC000"/>
<path d="M22 26H24V34H22V26Z" fill="#FFC000"/>
<path d="M27 23H29V34H27V23Z" fill="#FFC000"/>
<path d="M41 40H56V44H41V40Z" fill="#FFC000"/>
<path d="M41 46H56V51H41V46Z" fill="#FFC000"/>
<path d="M41 53H56V58H41V53Z" fill="#FFC000"/>
<mask id="mask0_7075_8237" style="mask-type:luminance" maskUnits="userSpaceOnUse" x="6" y="3" width="53" height="58">
<path d="M58.0879 3H6V60.1082H58.0879V3Z" fill="white"/>
</mask>
<g mask="url(#mask0_7075_8237)">
<path fill-rule="evenodd" clip-rule="evenodd" d="M9.53687 18.5333C9.53687 17.2639 10.4911 16.1487 11.7558 16.1487H30.3729C31.6376 16.1487 32.5918 17.2639 32.5918 18.5333V36.5509C32.5918 37.8202 31.6376 38.9355 30.3729 38.9355H11.7558C10.4911 38.9355 9.53687 37.8202 9.53687 36.5509V18.5333ZM11.7558 17.1487C11.1279 17.1487 10.5369 17.7276 10.5369 18.5333V19.4134H31.5918V18.5333C31.5918 17.7276 31.0007 17.1487 30.3729 17.1487H11.7558ZM31.5918 20.4134H10.5369V36.5509C10.5369 37.3565 11.1279 37.9355 11.7558 37.9355H30.3729C31.0007 37.9355 31.5918 37.3565 31.5918 36.5509V20.4134Z" fill="black"/>
</g>
<path d="M12.6627 18.1908C12.6627 18.5097 12.4283 18.7667 12.1375 18.7667C11.8467 18.7667 11.6123 18.5097 11.6123 18.1908C11.6123 17.872 11.8467 17.615 12.1375 17.615C12.4283 17.615 12.6627 17.872 12.6627 18.1908Z" fill="black"/>
<path d="M14.6337 18.1908C14.6337 18.5097 14.3993 18.7667 14.1085 18.7667C13.8176 18.7667 13.5833 18.5097 13.5833 18.1908C13.5833 17.872 13.8176 17.615 14.1085 17.615C14.3993 17.615 14.6337 17.872 14.6337 18.1908Z" fill="black"/>
<path d="M16.6042 18.1908C16.6042 18.5097 16.3698 18.7667 16.0789 18.7667C15.7881 18.7667 15.5537 18.5097 15.5537 18.1908C15.5537 17.872 15.7881 17.615 16.0789 17.615C16.3698 17.615 16.6042 17.872 16.6042 18.1908Z" fill="black"/>
<mask id="mask1_7075_8237" style="mask-type:luminance" maskUnits="userSpaceOnUse" x="6" y="3" width="53" height="58">
<path d="M58.0879 3H6V60.1082H58.0879V3Z" fill="white"/>
</mask>
<g mask="url(#mask1_7075_8237)">
<path fill-rule="evenodd" clip-rule="evenodd" d="M47.8985 3.85401C48.1511 3.82884 48.4109 3.81348 48.6817 3.81348C48.9526 3.81348 49.2122 3.82886 49.4683 3.85393L49.7862 3.88505L50.5758 6.14467C51.0392 6.29394 51.4845 6.4945 51.9025 6.7447L53.921 5.75569L54.1726 5.98712C54.5702 6.35297 54.9426 6.75578 55.2749 7.19603L55.4461 7.42284L54.5502 9.62064C54.7918 10.0946 54.9857 10.602 55.1241 11.1315L57.1769 11.9938L57.2016 12.2966C57.2242 12.574 57.2379 12.8543 57.2379 13.1462C57.2379 13.4382 57.2242 13.7184 57.2016 13.9958L57.1769 14.2986L55.1227 15.1615C54.983 15.689 54.7917 16.1963 54.5502 16.6716L55.4469 18.8716L55.2729 19.099C54.9401 19.5339 54.5727 19.9422 54.17 20.3076L53.9187 20.5356L51.9025 19.5477C51.4845 19.7979 51.0392 19.9985 50.5758 20.1478L49.7862 22.4074L49.4683 22.4385C49.212 22.4636 48.9481 22.4789 48.6817 22.4789C48.415 22.4789 48.1553 22.4636 47.8994 22.4385L47.5815 22.4074L46.7919 20.1478C46.3285 19.9985 45.8832 19.7979 45.4652 19.5477L43.4467 20.5367L43.1951 20.3053C42.7975 19.9395 42.4251 19.5366 42.0928 19.0964L41.9216 18.8696L42.8176 16.6716C42.576 16.1963 42.3847 15.689 42.245 15.1615L40.1908 14.2986L40.1661 13.9958C40.1435 13.7184 40.1298 13.4382 40.1298 13.1462C40.1298 12.8543 40.1435 12.574 40.1661 12.2966L40.1908 11.9938L42.245 11.131C42.3847 10.6034 42.576 10.0962 42.8176 9.62081L41.9208 7.4208L42.0948 7.19338C42.4276 6.75853 42.795 6.35018 43.1977 5.9848L43.449 5.7568L45.465 6.74459C45.8816 6.49442 46.327 6.29115 46.7924 6.14307L47.5813 3.88563L47.8985 3.85401ZM48.3126 4.82421L47.5648 6.96414L47.3102 7.03291C46.7652 7.18012 46.2457 7.4189 45.772 7.73308L45.5331 7.89157L43.626 6.95714C43.4305 7.15187 43.2434 7.35973 43.0649 7.57844L43.9219 9.68079L43.8065 9.88992C43.5177 10.4131 43.2992 10.9928 43.157 11.6075L43.0994 11.8568L41.1425 12.6787C41.1343 12.8334 41.1298 12.9884 41.1298 13.1462C41.1298 13.304 41.1343 13.4591 41.1425 13.6137L43.0994 14.4357L43.157 14.6849C43.2992 15.2996 43.5177 15.8793 43.8065 16.4025L43.9219 16.6116L43.0645 18.715C43.2409 18.9313 43.4291 19.1379 43.627 19.3348L45.5331 18.4009L45.772 18.5593C46.2436 18.8722 46.764 19.1076 47.3138 19.2605L47.5656 19.3305L48.3125 21.468C48.4357 21.4751 48.5584 21.4789 48.6817 21.4789C48.8056 21.4789 48.9304 21.4751 49.0552 21.4679L49.8021 19.3305L50.0539 19.2605C50.6037 19.1076 51.1241 18.8722 51.5957 18.5593L51.8346 18.4009L53.7417 19.3353C53.9372 19.1406 54.1243 18.9327 54.3028 18.714L53.4458 16.6116L53.5612 16.4025C53.85 15.8793 54.0685 15.2996 54.2107 14.6849L54.2684 14.4357L56.2252 13.6137C56.2334 13.4591 56.2379 13.304 56.2379 13.1462C56.2379 12.9884 56.2334 12.8334 56.2252 12.6787L54.2665 11.856L54.21 11.6045C54.0728 10.9939 53.851 10.4149 53.5612 9.88992L53.4458 9.68079L54.3032 7.57738C54.1269 7.3611 53.9386 7.15448 53.7407 6.9576L51.8346 7.89157L51.5957 7.73308C51.1241 7.42025 50.6037 7.18482 50.0539 7.03194L49.8021 6.96191L49.0552 4.82443C48.9315 4.81733 48.8075 4.81348 48.6817 4.81348C48.5571 4.81348 48.4343 4.81726 48.3126 4.82421ZM48.6904 9.08707C46.7126 9.08707 45.032 10.8605 45.032 13.1462C45.032 15.4319 46.7126 17.2053 48.6904 17.2053C50.6681 17.2053 52.3487 15.4319 52.3487 13.1462C52.3487 10.8605 50.6681 9.08707 48.6904 9.08707ZM44.032 13.1462C44.032 10.3968 46.0757 8.08707 48.6904 8.08707C51.305 8.08707 53.3487 10.3968 53.3487 13.1462C53.3487 15.8956 51.305 18.2053 48.6904 18.2053C46.0757 18.2053 44.032 15.8956 44.032 13.1462ZM26.2049 22.6735H29.4187V34.9095H26.2049V22.6735ZM27.2049 23.6735V33.9095H28.4187V23.6735H27.2049ZM49.1773 23.9873V29.4842H33.6066V28.4842H48.1773V23.9873H49.1773ZM21.7775 25.8668H24.9912V34.9095H21.7775V25.8668ZM22.7775 26.8668V33.9095H23.9912V26.8668H22.7775ZM12.9225 26.6758H16.1362V34.9095H12.9225V26.6758ZM13.9225 27.6758V33.9095H15.1362V27.6758H13.9225ZM17.35 28.5651H20.5637V34.9095H17.35V28.5651ZM18.35 29.5651V33.9095H19.5637V29.5651H18.35ZM48.1773 32.6252H33.7368V31.6252H49.1773V36.8366H48.1773V32.6252ZM40.0082 39.0207H57.0253V44.9034H40.0082V39.0207ZM41.0082 40.0207V43.9034H56.0253V40.0207H41.0082ZM16.9775 43.2663C15.4551 43.2663 14.1265 44.65 14.1265 46.4403V49.2053C14.1265 50.9917 15.4516 52.3792 16.9775 52.3792H17.468C18.9904 52.3792 20.319 50.9956 20.319 49.2053V46.4403C20.319 44.6539 18.9939 43.2663 17.468 43.2663H16.9775ZM13.1265 46.4403C13.1265 44.1854 14.819 42.2663 16.9775 42.2663H17.468C19.6316 42.2663 21.319 44.1911 21.319 46.4403V49.2053C21.319 50.0988 21.0532 50.9396 20.598 51.6292L20.7832 51.6965C21.1893 51.8442 21.7376 52.0434 22.3064 52.2498C23.4463 52.6634 24.6618 53.1033 24.9856 53.2161C25.6103 53.4331 25.8775 53.9075 25.9763 54.297C26.0243 54.4857 26.0347 54.6576 26.034 54.7807C26.0337 54.8431 26.0304 54.8953 26.0269 54.9338C26.0261 54.9437 26.0251 54.9528 26.0243 54.9609V57.8619H25.0243V54.8917L25.0295 54.858C25.0298 54.856 25.0304 54.8509 25.0309 54.8445C25.0322 54.83 25.0339 54.8059 25.034 54.7749C25.0344 54.7112 25.0286 54.6279 25.0071 54.543C24.9671 54.3853 24.8828 54.2389 24.6572 54.1607C24.3257 54.0451 23.101 53.6019 21.9653 53.1898C21.3963 52.9834 20.8477 52.784 20.4415 52.6363L19.8984 52.4388C19.2398 53.0237 18.3971 53.3792 17.468 53.3792H16.9775C16.0579 53.3792 15.2243 53.0315 14.5698 52.459L14.0691 52.6411C13.6629 52.7888 13.1144 52.9881 12.5453 53.1946C11.4096 53.6067 10.1857 54.0496 9.85409 54.1652C9.62853 54.2434 9.54355 54.3901 9.50354 54.5477C9.482 54.6326 9.47621 54.7159 9.47658 54.7796C9.47676 54.8107 9.47838 54.8348 9.47968 54.8492C9.48026 54.8557 9.48076 54.8601 9.481 54.8621C9.48103 54.8623 9.48098 54.8619 9.481 54.8621L9.48115 54.8633L9.48635 54.8964V57.8667H8.48635V54.9657C8.48547 54.9575 8.48456 54.9485 8.48367 54.9385C8.48022 54.9 8.47696 54.8478 8.4766 54.7855C8.47588 54.6624 8.48637 54.4905 8.53427 54.3017C8.63313 53.9122 8.9003 53.4378 9.52499 53.2209C9.84883 53.108 11.0643 52.6682 12.2042 52.2546C12.773 52.0482 13.3213 51.8489 13.7274 51.7013L13.8629 51.652C13.398 50.9575 13.1265 50.1075 13.1265 49.2053V46.4403ZM40.0082 45.8737H57.0253V51.7564H40.0082V45.8737ZM41.0082 46.8737V50.7564H56.0253V46.8737H41.0082ZM40.0082 52.7267H57.0253V58.6094H40.0082V52.7267ZM41.0082 53.7267V57.6094H56.0253V53.7267H41.0082Z" fill="black"/>
</g>
</svg>
