<?xml version="1.0" encoding="utf-8"?>
<!-- Generator: Adobe Illustrator 27.7.0, SVG Export Plug-In . SVG Version: 6.00 Build 0)  -->
<svg version="1.1" id="Layer_1" xmlns="http://www.w3.org/2000/svg" xmlns:xlink="http://www.w3.org/1999/xlink" x="0px" y="0px"
	 viewBox="0 0 64 64" style="enable-background:new 0 0 64 64;" xml:space="preserve">
<style type="text/css">
	.st0{fill:none;stroke:#FFFFFF;stroke-miterlimit:10;}
	.st1{fill:#FFFFFF;}
	.st2{fill:#FFC612;}
	.st3{fill:none;stroke:#FFFFFF;stroke-width:1.03;stroke-miterlimit:10;}
</style>
<g>
	<line class="st0" x1="7" y1="19.4" x2="57.6" y2="19.4"/>
	<circle class="st1" cx="49.9" cy="16.2" r="1.1"/>
	<circle class="st1" cx="53.9" cy="16.2" r="1.1"/>
	<circle class="st1" cx="46" cy="16.2" r="1.1"/>
</g>
<g>
	<path class="st2" d="M39.6,53.8c1.1,0,1.4-0.6,0.6-1.4l-6.8-6.8c-0.8-0.8-2-0.8-2.8,0l-6.8,6.8c-0.8,0.8-0.5,1.4,0.6,1.4
		C24.4,53.8,39.6,53.8,39.6,53.8z"/>
	<path class="st0" d="M39.6,53.8c1.1,0,1.4-0.6,0.6-1.4l-6.8-6.8c-0.8-0.8-2-0.8-2.8,0l-6.8,6.8c-0.8,0.8-0.5,1.4,0.6,1.4
		C24.4,53.8,39.6,53.8,39.6,53.8z"/>
</g>
<rect x="7" y="13" class="st3" width="51.1" height="29.7"/>
</svg>
