<?xml version="1.0" encoding="utf-8"?>
<!-- Generator: Adobe Illustrator 27.7.0, SVG Export Plug-In . SVG Version: 6.00 Build 0)  -->
<svg version="1.1" id="Layer_1" xmlns="http://www.w3.org/2000/svg" xmlns:xlink="http://www.w3.org/1999/xlink" x="0px" y="0px"
	 viewBox="0 0 64 64" style="enable-background:new 0 0 64 64;" xml:space="preserve">
<style type="text/css">
	.st0{fill:none;stroke:#FFFFFF;stroke-width:0.96;stroke-miterlimit:10;}
	.st1{fill:#FFC612;}
	.st2{fill:none;stroke:#FFFFFF;stroke-miterlimit:10;}
	.st3{fill:none;stroke:#FFFFFF;stroke-width:1.03;stroke-miterlimit:10;}
</style>
<polyline class="st0" points="9.7,35.1 18,27.6 22.3,30.8 29.4,23.3 35.4,28.5 42.6,21.4 47.8,26 55.3,18.5 "/>
<g>
	<path class="st1" d="M39.7,54c1.1,0,1.4-0.6,0.6-1.4l-6.8-6.8c-0.8-0.8-2-0.8-2.8,0l-6.8,6.8c-0.8,0.8-0.5,1.4,0.6,1.4H39.7z"/>
	<path class="st2" d="M39.7,54c1.1,0,1.4-0.6,0.6-1.4l-6.8-6.8c-0.8-0.8-2-0.8-2.8,0l-6.8,6.8c-0.8,0.8-0.5,1.4,0.6,1.4H39.7z"/>
</g>
<rect x="7" y="13" class="st3" width="51.1" height="29.7"/>
</svg>
