<?xml version="1.0" encoding="UTF-8"?>
<svg id="Layer_1" data-name="Layer 1" xmlns="http://www.w3.org/2000/svg" viewBox="0 0 64 64">
  <defs>
    <style>
      .cls-1 {
        fill: #ffc612;
      }

      .cls-2 {
        stroke-width: 1.03px;
      }

      .cls-2, .cls-3, .cls-4 {
        fill: none;
        stroke: #000;
        stroke-miterlimit: 10;
      }

      .cls-4 {
        stroke-width: .96px;
      }
    </style>
  </defs>
  <polyline class="cls-4" points="9.73 35.08 18.04 27.64 22.34 30.79 29.41 23.34 35.42 28.5 42.63 21.39 47.75 26 55.28 18.47"/>
  <g>
    <path class="cls-1" d="m39.65,53.99c1.1,0,1.36-.64.59-1.41l-6.76-6.76c-.78-.78-2.05-.78-2.83,0l-6.76,6.76c-.78.78-.51,1.41.59,1.41h15.17Z"/>
    <path class="cls-3" d="m39.65,53.99c1.1,0,1.36-.64.59-1.41l-6.76-6.76c-.78-.78-2.05-.78-2.83,0l-6.76,6.76c-.78.78-.51,1.41.59,1.41h15.17Z"/>
  </g>
  <rect class="cls-2" x="6.97" y="13.03" width="51.07" height="29.69"/>
</svg>