<?xml version="1.0" encoding="utf-8"?>
<!-- Generator: Adobe Illustrator 27.7.0, SVG Export Plug-In . SVG Version: 6.00 Build 0)  -->
<svg version="1.1" id="Layer_1" xmlns="http://www.w3.org/2000/svg" xmlns:xlink="http://www.w3.org/1999/xlink" x="0px" y="0px"
	 viewBox="0 0 64 64" style="enable-background:new 0 0 64 64;" xml:space="preserve">
<style type="text/css">
	.st0{fill:#FFC612;}
	.st1{fill:#FFFFFF;}
</style>
<path class="st0" d="M5.3,35.8c0,0-0.1,0-0.2,0v20.6c0,1.5,1.2,2.7,2.7,2.7H29C28.9,46.2,18.3,35.8,5.3,35.8z"/>
<path class="st1" d="M5.3,18.8c0,0-0.1,0-0.2,0v8.8C22.6,27.6,36.9,41.7,37,59.1h9.1C46,36.9,27.7,18.8,5.3,18.8z"/>
<path class="st1" d="M59,56.4V37.8c-6.2-15.1-18.6-27-34-32.6H7.8c-1.5,0-2.7,1.2-2.7,2.7v2.6C32,10.6,54,32.4,54.1,59.1h2.2
	C57.8,59.1,59,57.9,59,56.4z"/>
<path class="st1" d="M51.9,12.8c2.5,2.5,5,5.7,7.1,8.5V7.9c0-1.5-1.2-2.7-2.7-2.7H42.6C45.8,7.5,49.1,10,51.9,12.8z"/>
</svg>
