<?xml version="1.0" encoding="UTF-8"?>
<svg id="Layer_1" data-name="Layer 1" xmlns="http://www.w3.org/2000/svg" viewBox="0 0 64 64">
  <defs>
    <style>
      .cls-1 {
        fill: #ffc612;
      }

      .cls-1, .cls-2 {
        stroke: #000;
        stroke-miterlimit: 10;
      }

      .cls-2 {
        fill: none;
      }
    </style>
  </defs>
  <path class="cls-1" d="m5.27,35.8s-.1,0-.15,0v20.61c0,1.49,1.21,2.7,2.7,2.7h21.22c-.18-12.89-10.77-23.31-23.77-23.31Z"/>
  <path class="cls-2" d="m5.27,18.8s-.1,0-.15,0v8.76c17.51.07,31.74,14.16,31.92,31.55h9.1c-.18-22.26-18.44-40.31-40.87-40.31Z"/>
  <path class="cls-2" d="m59,56.42v-18.61c-6.16-15.08-18.57-27-34.01-32.58H7.82c-1.49,0-2.7,1.21-2.7,2.7v2.63c26.93.07,48.84,21.79,49.02,48.55h2.17c1.49,0,2.69-1.21,2.69-2.69Z"/>
  <path class="cls-2" d="m51.92,12.76c2.5,2.49,5.04,5.67,7.08,8.46V7.93c0-1.49-1.21-2.69-2.69-2.69h-13.68c3.19,2.22,6.48,4.73,9.29,7.52Z"/>
</svg>