<svg width="64" height="64" viewBox="0 0 64 64" fill="none" xmlns="http://www.w3.org/2000/svg">
<path d="M21.3577 11.0952L44.103 11.191L54.7537 31.2888L42.6423 51.3185L19.897 51.2228L9.24631 31.1249L21.3577 11.0952Z" stroke="black"/>
<path d="M32.114 42.7862C38.2521 42.7862 43.2281 37.6853 43.2281 31.3931C43.2281 25.1009 38.2521 20 32.114 20C25.9759 20 21 25.1009 21 31.3931C21 37.6853 25.9759 42.7862 32.114 42.7862Z" fill="#FFBC00" stroke="black" stroke-miterlimit="10"/>
<path d="M22 47.8984L26.9239 41" stroke="black" stroke-miterlimit="10"/>
<path d="M41.9239 48.8984L37 42" stroke="black" stroke-miterlimit="10"/>
<path d="M26.3605 21.5323L22.1166 13.9609" stroke="black" stroke-miterlimit="10"/>
<path d="M37 21.5714L41.244 14" stroke="black" stroke-miterlimit="10"/>
<path d="M45.8376 11.0621C45.8376 13.0412 44.2758 14.6242 42.375 14.6242C40.4743 14.6242 38.9124 13.0412 38.9124 11.0621C38.9124 9.08304 40.4743 7.5 42.375 7.5C44.2758 7.5 45.8376 9.08304 45.8376 11.0621Z" fill="white" stroke="black"/>
<path d="M12.4252 31.0621C12.4252 33.0412 10.8633 34.6242 8.9626 34.6242C7.06187 34.6242 5.5 33.0412 5.5 31.0621C5.5 29.083 7.06188 27.5 8.9626 27.5C10.8633 27.5 12.4252 29.083 12.4252 31.0621Z" fill="white" stroke="black"/>
<path d="M24.8992 11.0621C24.8992 13.0412 23.3373 14.6242 21.4366 14.6242C19.5359 14.6242 17.974 13.0412 17.974 11.0621C17.974 9.08304 19.5359 7.5 21.4366 7.5C23.3373 7.5 24.8992 9.08304 24.8992 11.0621Z" fill="white" stroke="black"/>
<path d="M58.3116 31.0621C58.3116 33.0412 56.7498 34.6242 54.849 34.6242C52.9483 34.6242 51.3864 33.0412 51.3864 31.0621C51.3864 29.083 52.9483 27.5 54.849 27.5C56.7497 27.5 58.3116 29.083 58.3116 31.0621Z" fill="white" stroke="black"/>
<path d="M46.119 51.0621C46.119 53.0412 44.5571 54.6242 42.6564 54.6242C40.7557 54.6242 39.1938 53.0412 39.1938 51.0621C39.1938 49.083 40.7557 47.5 42.6564 47.5C44.5571 47.5 46.119 49.083 46.119 51.0621Z" fill="white" stroke="black"/>
<path d="M23.9144 51.0621C23.9144 53.0412 22.3525 54.6242 20.4518 54.6242C18.5511 54.6242 16.9892 53.0412 16.9892 51.0621C16.9892 49.083 18.5511 47.5 20.4518 47.5C22.3525 47.5 23.9144 49.083 23.9144 51.0621Z" fill="white" stroke="black"/>
<line x1="51" y1="31.5" x2="43" y2="31.5" stroke="black"/>
<line x1="21" y1="31.5" x2="12" y2="31.5" stroke="black"/>
</svg>
