<svg width="64" height="64" viewBox="0 0 64 64" fill="none" xmlns="http://www.w3.org/2000/svg">
<circle cx="26.5" cy="26.5" r="15.5" fill="#FFC000"/>
<path d="M26.5 7.03171C31.7024 7.03171 36.5952 9.05385 40.2699 12.7267C47.8671 20.3201 47.8671 32.6593 40.2699 40.2526C36.5952 43.9255 31.7024 45.9477 26.5 45.9477C21.2976 45.9477 16.4048 43.9255 12.7301 40.2526C9.05539 36.5798 7.03223 31.6895 7.03223 26.4897C7.03223 21.2899 9.05539 16.3996 12.7301 12.7267C16.4048 9.05385 21.2976 7.03171 26.5 7.03171ZM26.5 42.6462C30.8147 42.6462 34.8817 40.9748 37.9164 37.921C44.213 31.6276 44.213 21.3724 37.9164 15.079C34.861 12.0252 30.8147 10.3538 26.5 10.3538C22.1853 10.3538 18.1183 12.0252 15.0836 15.079C8.78701 21.3724 8.78701 31.6276 15.0836 37.921C18.139 40.9748 22.1853 42.6462 26.5 42.6462ZM26.5 6C21.2563 6 16.0126 8.00151 12.0076 12.0045C3.99748 20.0106 3.99748 32.9894 12.0076 40.9955C16.0126 44.9985 21.2563 47 26.5 47C31.7437 47 36.9874 44.9985 40.9924 40.9955C49.0025 32.9894 49.0025 20.0106 40.9924 12.0045C37.0081 8.00151 31.7644 6 26.5 6ZM26.5 41.6145C22.6395 41.6145 18.7583 40.1288 15.8061 37.1782C9.90181 31.2768 9.90181 21.7026 15.8061 15.8012C18.7583 12.8505 22.6395 11.3649 26.5 11.3649C30.3605 11.3649 34.2417 12.8505 37.1939 15.8012C43.0982 21.7026 43.0982 31.2768 37.1939 37.1782C34.2417 40.1288 30.3605 41.6145 26.5 41.6145Z" fill="black"/>
<path d="M49.4139 57.643L40.4935 48.6767C39.4907 47.6688 39.4907 46.0309 40.4935 45.023L44.797 40.6973C45.7998 39.6894 47.4292 39.6894 48.432 40.6973L57.624 49.9366" stroke="black" stroke-miterlimit="10"/>
<path d="M41.2038 44.624L39.1565 42.5662" stroke="black" stroke-miterlimit="10"/>
<path d="M44.421 41.3902L42.3737 39.3324" stroke="black" stroke-miterlimit="10"/>
<path d="M10.7868 28.9172H18.015L21.6918 20.7698L25.8281 33.8098L26.8727 24.7595L28.335 27.2793H42.2065" stroke="black" stroke-miterlimit="10"/>
</svg>
