<svg width="64" height="64" viewBox="0 0 64 64" fill="none" xmlns="http://www.w3.org/2000/svg">
<circle cx="26.5" cy="26.5" r="15.5" fill="#FFC000"/>
<path d="M11 29.1224H18.1316L21.7593 21L25.8404 34L26.871 24.9775L28.3138 27.4895H42" stroke="black" stroke-miterlimit="10"/>
<path d="M37.5629 37.5673L37.5618 37.5685C34.6221 40.5267 30.6834 42.1462 26.5 42.1462C22.3176 42.1462 18.3985 40.5273 15.437 37.5673C9.33585 31.4692 9.33585 21.5308 15.4371 15.4327L15.4382 15.4315C18.3779 12.4733 22.3166 10.8538 26.5 10.8538C30.6824 10.8538 34.6015 12.4727 37.5629 15.4327C43.6641 21.5308 43.6641 31.4692 37.5629 37.5673ZM40.6381 12.3573L40.639 12.3582C48.4537 20.1689 48.4537 32.8311 40.639 40.6418C36.7314 44.5475 31.6164 46.5 26.5 46.5C21.3836 46.5 16.2686 44.5475 12.361 40.6418C4.54633 32.8311 4.54633 20.1689 12.361 12.3582C16.2686 8.45251 21.3836 6.5 26.5 6.5C31.6375 6.5 36.7518 8.45281 40.6381 12.3573ZM40.6234 12.3731C36.8546 8.60625 31.8346 6.53171 26.5 6.53171C21.1654 6.53171 16.1454 8.60625 12.3766 12.3731C8.60791 16.1399 6.53223 21.1575 6.53223 26.4897C6.53223 31.8219 8.60791 36.8394 12.3766 40.6063C16.1454 44.3731 21.1654 46.4477 26.5 46.4477C31.8346 46.4477 36.8546 44.3731 40.6234 40.6063C48.4159 32.8176 48.4159 20.1617 40.6234 12.3731ZM15.4527 37.5318C18.502 40.5796 22.5117 42.1145 26.5 42.1145C30.4883 42.1145 34.498 40.5796 37.5473 37.5318C43.647 31.4352 43.647 21.5442 37.5473 15.4476C34.498 12.3998 30.4883 10.8649 26.5 10.8649C22.5117 10.8649 18.502 12.3998 15.4527 15.4476C9.35297 21.5442 9.35297 31.4352 15.4527 37.5318Z" fill="black" stroke="white"/>
<path d="M49.4139 57.643L40.4935 48.6767C39.4907 47.6688 39.4907 46.0309 40.4935 45.023L44.797 40.6973C45.7998 39.6894 47.4292 39.6894 48.432 40.6973L57.624 49.9366" stroke="white" stroke-miterlimit="10"/>
<path d="M41.2038 44.624L39.1565 42.5662" stroke="white" stroke-miterlimit="10"/>
<path d="M44.421 41.3902L42.3737 39.3324" stroke="white" stroke-miterlimit="10"/>
</svg>
