<svg width="64" height="64" viewBox="0 0 64 64" fill="none" xmlns="http://www.w3.org/2000/svg">
<path d="M32.2025 24.9272C35.7386 24.9272 38.613 27.8015 38.613 31.3377V31.7328C38.613 35.2689 35.7386 38.1432 32.2025 38.1432H31.8074C28.2713 38.1432 25.3969 35.2689 25.3969 31.7328V31.3377C25.3969 27.8015 28.2713 24.9272 31.8074 24.9272H32.2025ZM32.2025 23.9395H31.8074C27.7379 23.9395 24.4092 27.2682 24.4092 31.3377V31.7328C24.4092 35.8023 27.7379 39.131 31.8074 39.131H32.2025C36.272 39.131 39.6007 35.8023 39.6007 31.7328V31.3377C39.6007 27.2682 36.272 23.9395 32.2025 23.9395Z" fill="black"/>
<path fill-rule="evenodd" clip-rule="evenodd" d="M7.02856 35.4169C7.02856 30.8522 10.5343 27.094 14.907 27.094H18.1529V35.2058H14.907C14.8768 35.2058 14.8364 35.2191 14.7979 35.2599C14.7593 35.3009 14.7353 35.3574 14.7353 35.4169V53.6865H7.02856V35.4169ZM14.907 28.094C11.1407 28.094 8.02856 31.3487 8.02856 35.4169V52.6865H13.7353V35.4169C13.7353 34.7837 14.2381 34.2058 14.907 34.2058H17.1529V28.094H14.907Z" fill="black"/>
<path fill-rule="evenodd" clip-rule="evenodd" d="M21.3706 27.094H25.4622V35.2058H21.3706V27.094ZM22.3706 28.094V34.2058H24.4622V28.094H22.3706Z" fill="black"/>
<path fill-rule="evenodd" clip-rule="evenodd" d="M45.847 27.094H49.093C53.4657 27.094 56.9714 30.8522 56.9714 35.4169V53.6865H49.2646V35.4169C49.2646 35.3574 49.2407 35.3009 49.202 35.2599C49.1636 35.2191 49.1231 35.2058 49.093 35.2058H45.847V27.094ZM46.847 28.094V34.2058H49.093C49.7619 34.2058 50.2646 34.7837 50.2646 35.4169V52.6865H55.9714V35.4169C55.9714 31.3488 52.8592 28.094 49.093 28.094H46.847Z" fill="black"/>
<path fill-rule="evenodd" clip-rule="evenodd" d="M38.5278 27.094H42.6195V35.2058H38.5278V27.094ZM39.5278 28.094V34.2058H41.6195V28.094H39.5278Z" fill="black"/>
<path fill-rule="evenodd" clip-rule="evenodd" d="M28.2652 20.6244H35.7349V25.0025H28.2652V20.6244ZM29.2652 21.6244V24.0025H34.7349V21.6244H29.2652Z" fill="black"/>
<path d="M34.1089 15.2177H29.8912V21.1935H34.1089V15.2177Z" fill="#FFC000"/>
<path fill-rule="evenodd" clip-rule="evenodd" d="M29.3912 14.7177H34.6089V21.6935H29.3912V14.7177ZM30.3912 15.7177V20.6935H33.6089V15.7177H30.3912Z" fill="black"/>
<path d="M39.3735 11H24.6364C23.5017 11 22.5819 11.9198 22.5819 13.0545V13.1632C22.5819 14.2978 23.5017 15.2177 24.6364 15.2177H39.3735C40.5082 15.2177 41.428 14.2978 41.428 13.1632V13.0545C41.428 11.9198 40.5082 11 39.3735 11Z" fill="#FFC000"/>
<path fill-rule="evenodd" clip-rule="evenodd" d="M24.6364 11.5C23.7778 11.5 23.0819 12.196 23.0819 13.0545V13.1632C23.0819 14.0217 23.7778 14.7177 24.6364 14.7177H39.3735C40.2321 14.7177 40.928 14.0217 40.928 13.1632V13.0545C40.928 12.196 40.2321 11.5 39.3735 11.5H24.6364ZM22.0819 13.0545C22.0819 11.6437 23.2256 10.5 24.6364 10.5H39.3735C40.7843 10.5 41.928 11.6437 41.928 13.0545V13.1632C41.928 14.574 40.7843 15.7177 39.3735 15.7177H24.6364C23.2256 15.7177 22.0819 14.574 22.0819 13.1632V13.0545Z" fill="black"/>
<path fill-rule="evenodd" clip-rule="evenodd" d="M4.5 53.1866C4.5 52.9104 4.72386 52.6866 5 52.6866H17.09C17.3661 52.6866 17.59 52.9104 17.59 53.1866C17.59 53.4627 17.3661 53.6866 17.09 53.6866H5C4.72386 53.6866 4.5 53.4627 4.5 53.1866Z" fill="black"/>
<path fill-rule="evenodd" clip-rule="evenodd" d="M46.41 53.1866C46.41 52.9104 46.6339 52.6866 46.91 52.6866H59C59.2761 52.6866 59.5 52.9104 59.5 53.1866C59.5 53.4627 59.2761 53.6866 59 53.6866H46.91C46.6339 53.6866 46.41 53.4627 46.41 53.1866Z" fill="black"/>
<path fill-rule="evenodd" clip-rule="evenodd" d="M18.1628 35.3776C18.1628 36.2361 18.8588 36.9321 19.7174 36.9321H19.826C20.6845 36.9321 21.3805 36.2361 21.3805 35.3776V27.1102C21.3805 26.2517 20.6845 25.5557 19.826 25.5557H19.7174C18.8588 25.5557 18.1628 26.2517 18.1628 27.1102V35.3776ZM19.7174 37.9321C18.3065 37.9321 17.1628 36.7884 17.1628 35.3776V27.1102C17.1628 25.6994 18.3065 24.5557 19.7174 24.5557H19.826C21.2368 24.5557 22.3805 25.6994 22.3805 27.1102V35.3776C22.3805 36.7884 21.2368 37.9321 19.826 37.9321H19.7174Z" fill="black"/>
<path fill-rule="evenodd" clip-rule="evenodd" d="M42.6293 35.3776C42.6293 36.2361 43.3253 36.9321 44.1838 36.9321H44.2924C45.151 36.9321 45.847 36.2361 45.847 35.3776V27.1102C45.847 26.2516 45.151 25.5557 44.2924 25.5557H44.1838C43.3253 25.5557 42.6293 26.2516 42.6293 27.1102V35.3776ZM44.1838 37.9321C42.773 37.9321 41.6293 36.7884 41.6293 35.3776V27.1102C41.6293 25.6994 42.773 24.5557 44.1838 24.5557H44.2924C45.7033 24.5557 46.847 25.6994 46.847 27.1102V35.3776C46.847 36.7884 45.7033 37.9321 44.2924 37.9321H44.1838Z" fill="black"/>
</svg>
