<svg width="64" height="64" viewBox="0 0 64 64" fill="none" xmlns="http://www.w3.org/2000/svg">
<path d="M8.56641 58.4747L11.9847 20.0474H20.5358L24.8061 58.4747" fill="#FFC000"/>
<path fill-rule="evenodd" clip-rule="evenodd" d="M59 58.9746H6V57.9746H59V58.9746Z" fill="black"/>
<path d="M18.8214 5.01489C15.7171 5.01489 13.1886 7.52835 13.1886 10.6427H14.1886C14.1886 8.08287 16.2671 6.01489 18.8214 6.01489C20.2914 6.01489 21.6017 6.70618 22.448 7.7701C22.5334 7.8775 22.6592 7.94507 22.7959 7.95697C22.9327 7.96886 23.0683 7.92404 23.1709 7.833C23.8334 7.24571 24.7062 6.87654 25.6581 6.87654C27.1154 6.87654 28.4437 7.72065 29.0661 9.0384C29.1308 9.1755 29.2543 9.27581 29.4017 9.31112C29.5492 9.34644 29.7047 9.31294 29.8245 9.22006C30.3496 8.81302 30.9893 8.58932 31.6428 8.58932C33.2498 8.58932 34.5611 9.90007 34.5611 11.5044C34.5611 13.1097 33.2593 14.4194 31.6428 14.4194H19.3214V13.2172H18.3214V16.6322H19.3214V15.4194H31.6428C33.8127 15.4194 35.5611 13.6609 35.5611 11.5044C35.5611 9.34688 33.8012 7.58932 31.6428 7.58932C30.9556 7.58932 30.2856 7.77241 29.6945 8.10799C28.8296 6.73281 27.3102 5.87654 25.6581 5.87654C24.6266 5.87654 23.6745 6.21644 22.9019 6.77002C21.8801 5.69574 20.4307 5.01489 18.8214 5.01489Z" fill="black"/>
<path d="M11.4867 20.003C11.5096 19.745 11.7258 19.5473 11.9847 19.5473H20.5358C20.7906 19.5473 21.0046 19.7389 21.0328 19.9921L25.3031 58.4194L24.3092 58.5298L20.0883 20.5473H12.4422L9.06443 58.5189L8.06836 58.4303L11.4867 20.003Z" fill="black"/>
<path fill-rule="evenodd" clip-rule="evenodd" d="M55.9336 36.7715H25.6686V35.7715H28.5764V31.1436C28.5764 30.8675 28.8003 30.6436 29.0764 30.6436H37.6275C37.9037 30.6436 38.1275 30.8675 38.1275 31.1436V35.7715H41.3978V31.1436C41.3978 30.8675 41.6217 30.6436 41.8978 30.6436H50.4489C50.7251 30.6436 50.9489 30.8675 50.9489 31.1436V35.7715H56.4336C56.7098 35.7715 56.9336 35.9953 56.9336 36.2715V58.4746H55.9336V36.7715ZM49.9489 35.7715H42.3978V31.6436H49.9489V35.7715ZM37.1275 35.7715V31.6436H29.5764V35.7715H37.1275Z" fill="black"/>
<path fill-rule="evenodd" clip-rule="evenodd" d="M27.383 40.0377C27.1069 40.0377 26.883 40.2615 26.883 40.5377V44.8039C26.883 45.08 27.1069 45.3039 27.383 45.3039H52.1633C52.4395 45.3039 52.6633 45.08 52.6633 44.8039V40.5377C52.6633 40.2615 52.4395 40.0377 52.1633 40.0377H27.383ZM27.883 44.3039V41.0377H51.6633V44.3039H27.883Z" fill="black"/>
<path fill-rule="evenodd" clip-rule="evenodd" d="M26.883 49.0806C26.883 48.8044 27.1069 48.5806 27.383 48.5806H52.1633C52.4395 48.5806 52.6633 48.8044 52.6633 49.0806V53.3468C52.6633 53.6229 52.4395 53.8468 52.1633 53.8468H27.383C27.1069 53.8468 26.883 53.6229 26.883 53.3468V49.0806ZM27.883 49.5806V52.8468H51.6633V49.5806H27.883Z" fill="black"/>
<path d="M14.1886 10.6532V16.6322H13.1886V10.6532H14.1886Z" fill="black"/>
<path d="M18.8319 9.44046C18.161 9.44046 17.6175 9.98413 17.6175 10.6532H16.6175C16.6175 9.43094 17.6096 8.44046 18.8319 8.44046V9.44046Z" fill="black"/>
<path d="M24.4542 11.5044C24.4542 10.8353 24.9977 10.2916 25.6686 10.2916V9.2916C24.4463 9.2916 23.4542 10.2821 23.4542 11.5044H24.4542Z" fill="black"/>
</svg>
