<svg width="64" height="64" viewBox="0 0 64 64" fill="none" xmlns="http://www.w3.org/2000/svg">
<path fill-rule="evenodd" clip-rule="evenodd" d="M27.7258 5C27.7258 4.72386 27.9497 4.5 28.2258 4.5H36.7742C37.0503 4.5 37.2742 4.72386 37.2742 5V9.28577C39.9633 9.86631 42.5235 10.9283 44.8299 12.4192L47.8584 9.3908C48.0536 9.19554 48.3702 9.19554 48.5655 9.3908L54.6092 15.4345C54.8045 15.6298 54.8045 15.9464 54.6092 16.1416L51.5722 19.1786C53.0627 21.4844 54.1244 24.0438 54.698 26.7258H59C59.2761 26.7258 59.5 26.9497 59.5 27.2258V35.7742C59.5 36.0503 59.2761 36.2742 59 36.2742H54.7142C54.1337 38.9633 53.0717 41.5235 51.5808 43.8299L54.6092 46.8584C54.8045 47.0536 54.8045 47.3702 54.6092 47.5655L48.5655 53.6092C48.3702 53.8045 48.0536 53.8045 47.8584 53.6092L44.8214 50.5722C42.5156 52.0627 39.9562 53.1244 37.2742 53.698V58C37.2742 58.2761 37.0503 58.5 36.7742 58.5H28.2258C27.9497 58.5 27.7258 58.2761 27.7258 58V53.7142C25.0367 53.1337 22.4765 52.0717 20.1701 50.5808L17.1416 53.6092C17.0478 53.703 16.9207 53.7556 16.7881 53.7556C16.6555 53.7556 16.5283 53.703 16.4345 53.6092L10.3908 47.5655C10.1955 47.3702 10.1955 47.0536 10.3908 46.8584L13.4278 43.8214C11.9373 41.5156 10.8756 38.9562 10.302 36.2742H6C5.72386 36.2742 5.5 36.0503 5.5 35.7742V27.2258C5.5 26.9497 5.72386 26.7258 6 26.7258H10.2858C10.8663 24.0367 11.9283 21.4765 13.4192 19.1701L10.3908 16.1416C10.1955 15.9464 10.1955 15.6298 10.3908 15.4345L16.4345 9.3908C16.6298 9.19554 16.9464 9.19554 17.1416 9.3908L20.1786 12.4278C22.4844 10.9373 25.0438 9.8756 27.7258 9.30199V5ZM28.7258 5.5V9.71016C28.7258 9.94946 28.5562 10.1552 28.3214 10.2009C25.4895 10.7523 22.7907 11.8718 20.3924 13.4846C20.194 13.618 19.9289 13.5923 19.7598 13.4232L16.7881 10.4515L11.4515 15.7881L14.4147 18.7513C14.5837 18.9204 14.6095 19.1854 14.476 19.3839C12.8633 21.782 11.7435 24.4812 11.1836 27.3225C11.1374 27.5568 10.9319 27.7258 10.6931 27.7258H6.5V35.2742H10.7102C10.9495 35.2742 11.1552 35.4438 11.2009 35.6786C11.7523 38.5105 12.8718 41.2093 14.4846 43.6076C14.618 43.806 14.5923 44.0711 14.4232 44.2402L11.4515 47.2119L16.7881 52.5485L19.7513 49.5853C19.9204 49.4163 20.1854 49.3905 20.3839 49.524C22.782 51.1367 25.4812 52.2565 28.3225 52.8164C28.5568 52.8626 28.7258 53.0681 28.7258 53.3069V57.5H36.2742V53.2898C36.2742 53.0505 36.4438 52.8448 36.6786 52.7991C39.5105 52.2477 42.2093 51.1282 44.6076 49.5154C44.806 49.382 45.0711 49.4077 45.2402 49.5768L48.2119 52.5485L53.5485 47.2119L50.5853 44.2487C50.4163 44.0797 50.3905 43.8146 50.524 43.6161C52.1367 41.218 53.2565 38.5188 53.8164 35.6775C53.8626 35.4432 54.0681 35.2742 54.3069 35.2742H58.5V27.7258H54.2898C54.0505 27.7258 53.8448 27.5562 53.7991 27.3214C53.2477 24.4895 52.1282 21.7907 50.5154 19.3924C50.382 19.194 50.4077 18.9289 50.5768 18.7598L53.5485 15.7881L48.2119 10.4515L45.2487 13.4147C45.0797 13.5837 44.8146 13.6095 44.6161 13.476C42.218 11.8633 39.5188 10.7435 36.6775 10.1836C36.4432 10.1374 36.2742 9.93194 36.2742 9.69306V5.5H28.7258Z" fill="black"/>
<path fill-rule="evenodd" clip-rule="evenodd" d="M27.825 16.826C27.9174 17.0862 27.7815 17.3721 27.5212 17.4645C21.7474 19.516 17.6129 25.025 17.6129 31.5C17.6129 39.721 24.279 46.3871 32.5 46.3871C36.4859 46.3871 40.1163 44.808 42.7885 42.2516C45.6253 39.5472 47.3871 35.7265 47.3871 31.5C47.3871 25.0327 43.2688 19.5241 37.5041 17.473C37.244 17.3804 37.1081 17.0945 37.2007 16.8343C37.2932 16.5742 37.5792 16.4383 37.8394 16.5309C43.9911 18.7197 48.3871 24.5976 48.3871 31.5C48.3871 36.0099 46.5066 40.0886 43.4792 42.9748C40.6292 45.7009 36.7544 47.3871 32.5 47.3871C23.7267 47.3871 16.6129 40.2732 16.6129 31.5C16.6129 24.5882 21.0268 18.7108 27.1864 16.5223C27.4467 16.4298 27.7325 16.5658 27.825 16.826Z" fill="black"/>
<path d="M42.4759 32.5515C42.5443 38.1079 38.0136 42.6129 32.4999 42.6129C26.9862 42.6129 22.5154 38.1079 22.524 32.5515C22.5411 26.106 31.3203 18.9424 32.4999 11.8387C33.6711 18.9424 42.399 26.1915 42.4759 32.5515Z" fill="#FFC000"/>
<path fill-rule="evenodd" clip-rule="evenodd" d="M32.5002 11.3387C32.7449 11.3389 32.9535 11.516 32.9933 11.7574C33.2728 13.4528 34.008 15.1805 34.9794 16.9354C35.8771 18.5573 36.9607 20.1753 38.0459 21.7958C38.1353 21.9292 38.2246 22.0626 38.3138 22.196C39.4808 23.9406 40.6328 25.6896 41.4961 27.4063C42.3588 29.1217 42.9553 30.8464 42.9759 32.5454C42.9759 32.5454 42.9759 32.5454 42.9759 32.5454C43.0477 38.3842 38.2883 43.1129 32.4999 43.1129C26.7066 43.1129 22.015 38.3804 22.024 32.5507C22.0285 30.8295 22.6168 29.0925 23.4768 27.3714C24.3371 25.6495 25.4907 23.9025 26.6611 22.1628C26.7673 22.005 26.8737 21.8472 26.9799 21.6895C28.052 20.0988 29.1208 18.5128 30.0094 16.9218C30.9857 15.1735 31.7252 13.4516 32.0067 11.7568C32.0468 11.5155 32.2556 11.3386 32.5002 11.3387ZM24.3713 27.8183C23.5435 29.4751 23.028 31.0511 23.024 32.5525C23.016 37.8356 27.2659 42.1129 32.4999 42.1129C37.739 42.1129 42.0409 37.8317 41.9759 32.5576C41.958 31.0766 41.4347 29.5101 40.6027 27.8556C39.7713 26.2023 38.6536 24.5026 37.4827 22.752C37.3923 22.6168 37.3016 22.4814 37.2107 22.3457C36.1306 20.733 35.0238 19.0805 34.1045 17.4197C33.458 16.2518 32.8964 15.0665 32.4981 13.8712C32.0971 15.0644 31.5322 16.246 30.8825 17.4094C29.9722 19.0392 28.8796 20.6602 27.8119 22.2444C27.7046 22.4036 27.5975 22.5625 27.4908 22.721C26.3169 24.4659 25.1987 26.1623 24.3713 27.8183Z" fill="black"/>
</svg>
