<svg width="64" height="64" viewBox="0 0 64 64" fill="none" xmlns="http://www.w3.org/2000/svg">
<path fill-rule="evenodd" clip-rule="evenodd" d="M6.1993 45.7995L6.20688 45.8028L6.23793 45.8159C6.26552 45.8276 6.30666 45.8448 6.35996 45.8669C6.46658 45.911 6.6218 45.9743 6.81466 46.0506C7.20069 46.2032 7.73595 46.4068 8.33323 46.6112C9.54943 47.0275 10.9486 47.4203 11.8793 47.4357C12.9185 47.4545 13.9289 47.077 15.046 46.6461C15.0708 46.6365 15.0957 46.6269 15.1206 46.6173C16.182 46.2076 17.3466 45.7582 18.5808 45.7582C19.8264 45.7582 21.0006 46.2056 22.0736 46.6144L22.1136 46.6296C23.2314 47.0555 24.2451 47.4356 25.2904 47.4356C26.3357 47.4356 27.3494 47.0555 28.4673 46.6296L28.5073 46.6144C29.5803 46.2056 30.7545 45.7582 32.0001 45.7582C33.2458 45.7582 34.42 46.2056 35.4929 46.6144L35.5329 46.6296C36.6508 47.0555 37.6645 47.4356 38.7098 47.4356C39.7551 47.4356 40.7688 47.0555 41.8866 46.6296L41.9267 46.6144C42.9996 46.2056 44.1738 45.7582 45.4195 45.7582C46.6536 45.7582 47.8182 46.2076 48.8796 46.6173L48.9542 46.6461C50.0713 47.077 51.0808 47.4546 52.12 47.4357C53.0508 47.4203 54.4508 47.0275 55.667 46.6112C56.2643 46.4068 56.7995 46.2032 57.1856 46.0506C57.3784 45.9743 57.5336 45.911 57.6403 45.8669C57.6936 45.8448 57.7347 45.8276 57.7623 45.8159L57.7933 45.8028L57.8009 45.7995L57.8027 45.7988L58.2625 45.6016L58.6567 46.5206L58.1972 46.7177L58.0466 46.3666C58.1972 46.7177 58.1972 46.7177 58.1972 46.7177L58.1848 46.723L58.1508 46.7373C58.1213 46.7498 58.0781 46.7679 58.0226 46.7909C57.9117 46.8368 57.7515 46.9021 57.5532 46.9805C57.1569 47.1372 56.6065 47.3466 55.9908 47.5574C54.7812 47.9713 53.2451 48.4172 52.1379 48.4355C50.874 48.4584 49.6849 47.9997 48.6027 47.5823L48.5944 47.5791C47.4741 47.147 46.4627 46.7582 45.4195 46.7582C44.3742 46.7582 43.3605 47.1383 42.2426 47.5641L42.2026 47.5794C41.1296 47.9882 39.9554 48.4356 38.7098 48.4356C37.4641 48.4356 36.2899 47.9882 35.217 47.5794L35.1769 47.5641C34.0591 47.1383 33.0454 46.7582 32.0001 46.7582C30.9548 46.7582 29.9411 47.1383 28.8233 47.5641L28.7832 47.5794C27.7103 47.9882 26.5361 48.4356 25.2904 48.4356C24.0448 48.4356 22.8706 47.9882 21.7976 47.5794L21.7576 47.5641C20.6397 47.1383 19.626 46.7582 18.5808 46.7582C17.5375 46.7582 16.5261 47.147 15.4059 47.5791L15.3975 47.5823C14.3154 47.9997 13.1262 48.4584 11.8623 48.4355C10.7551 48.4172 9.21898 47.9713 8.00941 47.5574C7.3937 47.3466 6.84336 47.1372 6.44703 46.9805C6.24871 46.9021 6.08856 46.8368 5.97761 46.7909C5.92212 46.7679 5.87892 46.7498 5.84937 46.7373L5.81545 46.723L5.80649 46.7192L5.80406 46.7181C5.80399 46.7181 5.80303 46.7177 6.00011 46.2582L5.80303 46.7177L5.34351 46.5206L5.73767 45.6016L6.1993 45.7995Z" fill="black"/>
<path fill-rule="evenodd" clip-rule="evenodd" d="M19.5 39.5V44.5H18.5V39.5H19.5Z" fill="black"/>
<path fill-rule="evenodd" clip-rule="evenodd" d="M24.5 39.5V45.5H23.5V39.5H24.5Z" fill="black"/>
<path fill-rule="evenodd" clip-rule="evenodd" d="M46.5 39.5V44.5H45.5V39.5H46.5Z" fill="black"/>
<path fill-rule="evenodd" clip-rule="evenodd" d="M52.5 39.5V45.5H51.5V39.5H52.5Z" fill="black"/>
<path d="M47.0969 35.3547V26.1289H56.3227V35.3547" fill="#FFC000"/>
<path fill-rule="evenodd" clip-rule="evenodd" d="M46.5969 26.1289C46.5969 25.8528 46.8208 25.6289 47.0969 25.6289H56.3227C56.5989 25.6289 56.8227 25.8528 56.8227 26.1289V35.3547C56.8227 35.6309 56.5989 35.8547 56.3227 35.8547C56.0466 35.8547 55.8227 35.6309 55.8227 35.3547V26.6289H47.5969V35.3547C47.5969 35.6309 47.3731 35.8547 47.0969 35.8547C46.8208 35.8547 46.5969 35.6309 46.5969 35.3547V26.1289Z" fill="black"/>
<path d="M34 31L32.25 6H28.75L27 31" fill="#FFC000"/>
<path fill-rule="evenodd" clip-rule="evenodd" d="M28.2512 5.96509C28.2696 5.70313 28.4874 5.5 28.75 5.5H32.25C32.5126 5.5 32.7305 5.70313 32.7488 5.96509L34.4988 30.9651C34.5181 31.2406 34.3104 31.4795 34.0349 31.4988C33.7595 31.5181 33.5205 31.3104 33.5012 31.0349L31.7838 6.5H29.2162L27.4988 31.0349C27.4795 31.3104 27.2406 31.5181 26.9651 31.4988C26.6896 31.4795 26.482 31.2406 26.5012 30.9651L28.2512 5.96509Z" fill="black"/>
<path fill-rule="evenodd" clip-rule="evenodd" d="M8.16258 17.3884C8.32829 17.2227 8.58686 17.1943 8.78457 17.3201L27.2362 29.0621C27.4692 29.2103 27.5378 29.5194 27.3896 29.7523C27.2413 29.9853 26.9323 30.054 26.6993 29.9057L8.58607 18.3791L6.71679 20.2484L22.2794 34.9919C22.4798 35.1818 22.4884 35.4983 22.2985 35.6987C22.1085 35.8992 21.7921 35.9077 21.5916 35.7178L5.65613 20.6211C5.55816 20.5282 5.50187 20.3998 5.50005 20.2648C5.49822 20.1299 5.55102 20 5.64645 19.9045L8.16258 17.3884Z" fill="black"/>
<path fill-rule="evenodd" clip-rule="evenodd" d="M8.17749 21.4355V43.4033H7.17749V21.4355H8.17749Z" fill="black"/>
<path d="M44 31L42.25 14H38.75L37 31" fill="#FFC000"/>
<path fill-rule="evenodd" clip-rule="evenodd" d="M38.2527 13.9488C38.2789 13.6938 38.4937 13.5 38.75 13.5H42.25C42.5064 13.5 42.7212 13.6938 42.7474 13.9488L44.4974 30.9488C44.5257 31.2235 44.3259 31.4691 44.0512 31.4974C43.7765 31.5257 43.5309 31.3259 43.5027 31.0512L41.7989 14.5H39.2012L37.4974 31.0512C37.4691 31.3259 37.2235 31.5257 36.9488 31.4974C36.6741 31.4691 36.4744 31.2235 36.5027 30.9488L38.2527 13.9488Z" fill="black"/>
<path fill-rule="evenodd" clip-rule="evenodd" d="M23.9517 31.1614C23.9517 30.8852 24.1755 30.6614 24.4517 30.6614H47.0968C47.373 30.6614 47.5968 30.8852 47.5968 31.1614C47.5968 31.4375 47.373 31.6614 47.0968 31.6614H24.9517V35.3549C24.9517 35.6311 24.7278 35.8549 24.4517 35.8549C24.1755 35.8549 23.9517 35.6311 23.9517 35.3549V31.1614Z" fill="black"/>
<path fill-rule="evenodd" clip-rule="evenodd" d="M15.3975 52.6144C14.3153 53.0319 13.126 53.4906 11.862 53.4676L11.3621 53.4585L11.3802 52.4587L11.8802 52.4678C12.9194 52.4867 13.9289 52.1091 15.046 51.6782C15.0708 51.6686 15.0956 51.6591 15.1206 51.6494C16.182 51.2398 17.3466 50.7903 18.5807 50.7903C19.8264 50.7903 21.0006 51.2377 22.0736 51.6465L22.1136 51.6617C23.2314 52.0876 24.2451 52.4677 25.2904 52.4677C26.3357 52.4677 27.3494 52.0876 28.4673 51.6617L28.5073 51.6465C29.5802 51.2377 30.7544 50.7903 32.0001 50.7903C33.2457 50.7903 34.4199 51.2377 35.4929 51.6465L35.5329 51.6617C36.6508 52.0876 37.6645 52.4677 38.7098 52.4677C39.7551 52.4677 40.7688 52.0876 41.8866 51.6617L41.9266 51.6465C42.9996 51.2377 44.1738 50.7903 45.4195 50.7903C46.6536 50.7903 47.8182 51.2398 48.8796 51.6494L48.9542 51.6782C50.0713 52.1091 51.0808 52.4867 52.12 52.4678L52.62 52.4587L52.6381 53.4585L52.1382 53.4676C50.8742 53.4906 49.685 53.0319 48.6027 52.6144L48.5944 52.6112C47.4741 52.1791 46.4627 51.7903 45.4195 51.7903C44.3742 51.7903 43.3605 52.1704 42.2426 52.5962L42.2026 52.6115C41.1296 53.0203 39.9554 53.4677 38.7098 53.4677C37.4641 53.4677 36.2899 53.0203 35.217 52.6115L35.1769 52.5962C34.0591 52.1704 33.0454 51.7903 32.0001 51.7903C30.9548 51.7903 29.9411 52.1704 28.8233 52.5962L28.7832 52.6115C27.7103 53.0203 26.5361 53.4677 25.2904 53.4677C24.0448 53.4677 22.8706 53.0203 21.7976 52.6115L21.7576 52.5962C20.6397 52.1704 19.626 51.7903 18.5807 51.7903C17.5375 51.7903 16.5261 52.1791 15.4058 52.6112L15.3975 52.6144Z" fill="black"/>
<path fill-rule="evenodd" clip-rule="evenodd" d="M18.0808 55.8225H18.5808C19.8265 55.8225 21.0007 56.2699 22.0736 56.6787C22.087 56.6838 22.1003 56.6889 22.1136 56.694C23.2315 57.1198 24.2452 57.4999 25.2905 57.4999C26.3358 57.4999 27.3495 57.1198 28.4673 56.694L28.5074 56.6787C29.5803 56.2699 30.7545 55.8225 32.0002 55.8225C33.2458 55.8225 34.42 56.2699 35.493 56.6787L35.533 56.694C36.6509 57.1198 37.6645 57.4999 38.7098 57.4999C39.7551 57.4999 40.7688 57.1198 41.8867 56.694L41.9267 56.6787C42.9997 56.2699 44.1739 55.8225 45.4195 55.8225H45.9195V56.8225H45.4195C44.3742 56.8225 43.3605 57.2026 42.2427 57.6285L42.2027 57.6437C41.1297 58.0525 39.9555 58.4999 38.7098 58.4999C37.4642 58.4999 36.29 58.0525 35.217 57.6437L35.177 57.6285C34.0592 57.2026 33.0455 56.8225 32.0002 56.8225C30.9549 56.8225 29.9412 57.2026 28.8233 57.6285L28.7833 57.6437C27.7103 58.0525 26.5361 58.4999 25.2905 58.4999C24.0448 58.4999 22.8706 58.0525 21.7977 57.6437C21.7843 57.6386 21.771 57.6335 21.7577 57.6285C20.6398 57.2026 19.6261 56.8225 18.5808 56.8225H18.0808V55.8225Z" fill="black"/>
<path fill-rule="evenodd" clip-rule="evenodd" d="M12.2097 35.3547C12.2097 35.0786 12.4336 34.8547 12.7097 34.8547H58C58.2762 34.8547 58.5 35.0786 58.5 35.3547V39.5483C58.5 39.8244 58.2762 40.0483 58 40.0483H12.7097C12.4336 40.0483 12.2097 39.8244 12.2097 39.5483V35.3547ZM13.2097 35.8547V39.0483H57.5V35.8547H13.2097Z" fill="black"/>
</svg>
