<svg width="64" height="64" viewBox="0 0 64 64" fill="none" xmlns="http://www.w3.org/2000/svg">
<path fill-rule="evenodd" clip-rule="evenodd" d="M27.3139 31.9989C27.585 32.0514 27.7623 32.3137 27.7099 32.5848L22.5847 59.0848C22.5323 59.3559 22.27 59.5332 21.9989 59.4807C21.7278 59.4283 21.5505 59.166 21.6029 58.8949L26.7281 32.3949C26.7805 32.1238 27.0428 31.9465 27.3139 31.9989Z" fill="black"/>
<path fill-rule="evenodd" clip-rule="evenodd" d="M35.6759 31.9989C35.947 31.9465 36.2093 32.1238 36.2617 32.3949L41.3869 58.8949C41.4393 59.166 41.2621 59.4283 40.9909 59.4807C40.7198 59.5332 40.4575 59.3559 40.4051 59.0848L35.2799 32.5848C35.2275 32.3137 35.4048 32.0514 35.6759 31.9989Z" fill="black"/>
<path fill-rule="evenodd" clip-rule="evenodd" d="M17.7516 17.3065C17.8897 17.0673 18.1955 16.9854 18.4347 17.1235L30.0617 23.8364C30.3009 23.9745 30.3828 24.2803 30.2447 24.5194C30.1066 24.7586 29.8009 24.8405 29.5617 24.7024L17.9347 17.9895C17.6955 17.8514 17.6136 17.5456 17.7516 17.3065ZM14.3348 23.2357C14.4728 22.9965 14.7785 22.9145 15.0177 23.0525L26.3936 29.6147C26.6328 29.7526 26.7148 30.0584 26.5768 30.2976C26.4388 30.5368 26.1331 30.6188 25.8939 30.4809L14.5181 23.9187C14.2789 23.7807 14.1968 23.4749 14.3348 23.2357ZM36.2625 27.9887C36.4007 27.7496 36.7065 27.6678 36.9456 27.806L53.2255 37.2121C53.3747 37.2983 53.469 37.4553 53.475 37.6276L53.7564 45.6871C53.7628 45.8688 53.67 46.0395 53.5143 46.1331C53.3585 46.2267 53.1642 46.2285 53.0068 46.1376L36.4857 36.6008C36.2465 36.4628 36.1646 36.157 36.3026 35.9178C36.4407 35.6787 36.7465 35.5967 36.9856 35.7347L52.7256 44.8206L52.4853 37.9394L36.4453 28.6718C36.2062 28.5337 36.1244 28.2278 36.2625 27.9887Z" fill="black"/>
<path d="M10.0647 31.6257L19.8929 14.6022L16.9585 6" fill="#FFC000"/>
<path fill-rule="evenodd" clip-rule="evenodd" d="M16.7972 5.52667C17.0585 5.43751 17.3427 5.57711 17.4318 5.83846L20.3662 14.4407C20.4128 14.5772 20.3981 14.7272 20.326 14.8521L10.4978 31.8756C10.3597 32.1147 10.0539 32.1967 9.81479 32.0586C9.57564 31.9205 9.4937 31.6148 9.63176 31.3756L19.3465 14.5487L16.4854 6.16132C16.3962 5.89996 16.5358 5.61582 16.7972 5.52667Z" fill="black"/>
<path d="M10.0649 31.6257C7.62287 23.2446 10.3764 13.5169 16.9687 6Z" fill="#FFC000"/>
<path fill-rule="evenodd" clip-rule="evenodd" d="M17.2983 5.62409C17.5059 5.80617 17.5266 6.12207 17.3445 6.32969C10.8395 13.747 8.16043 23.3025 10.5448 31.4858C10.622 31.751 10.4697 32.0285 10.2046 32.1058C9.93948 32.183 9.66194 32.0307 9.58469 31.7656C7.08508 23.1867 9.91304 13.2867 16.5927 5.67033C16.7748 5.46272 17.0907 5.44202 17.2983 5.62409Z" fill="black"/>
<path fill-rule="evenodd" clip-rule="evenodd" d="M31.4999 24.5586C28.9428 24.5586 26.8748 26.6354 26.8748 29.1837C26.8748 31.7314 28.9522 33.8089 31.4999 33.8089C34.0482 33.8089 36.125 31.7409 36.125 29.1837C36.125 26.6354 34.057 24.5586 31.4999 24.5586ZM25.8748 29.1837C25.8748 26.0844 28.3892 23.5586 31.4999 23.5586C34.6106 23.5586 37.125 26.0844 37.125 29.1837C37.125 32.2944 34.5992 34.8089 31.4999 34.8089C28.3999 34.8089 25.8748 32.2837 25.8748 29.1837Z" fill="black"/>
<path fill-rule="evenodd" clip-rule="evenodd" d="M31.4999 27.8647C30.8314 27.8647 30.2915 28.4046 30.2915 29.0731C30.2915 29.7416 30.8314 30.2815 31.4999 30.2815C32.1684 30.2815 32.7083 29.7416 32.7083 29.0731C32.7083 28.4046 32.1684 27.8647 31.4999 27.8647ZM29.2915 29.0731C29.2915 27.8523 30.2791 26.8647 31.4999 26.8647C32.7207 26.8647 33.7083 27.8523 33.7083 29.0731C33.7083 30.2939 32.7207 31.2815 31.4999 31.2815C30.2791 31.2815 29.2915 30.2939 29.2915 29.0731Z" fill="black"/>
<path fill-rule="evenodd" clip-rule="evenodd" d="M10.125 31.1357C10.4011 31.1357 10.625 31.3596 10.625 31.6357V58.9899C10.625 59.2661 10.4011 59.4899 10.125 59.4899C9.84886 59.4899 9.625 59.2661 9.625 58.9899V31.6357C9.625 31.3596 9.84886 31.1357 10.125 31.1357Z" fill="black"/>
<path fill-rule="evenodd" clip-rule="evenodd" d="M48.5938 38.8335C48.8699 38.8335 49.0938 39.0574 49.0938 39.3335V50.448C49.0938 50.7242 48.8699 50.948 48.5938 50.948C48.3176 50.948 48.0938 50.7242 48.0938 50.448V39.3335C48.0938 39.0574 48.3176 38.8335 48.5938 38.8335Z" fill="black"/>
<path d="M44.3228 58.9899V52.1564C44.3228 51.2117 45.0865 50.448 46.0311 50.448H51.1563C52.1009 50.448 52.8647 51.2117 52.8647 52.1564V58.9899" fill="#FFC000"/>
<path fill-rule="evenodd" clip-rule="evenodd" d="M46.0311 50.948C45.3626 50.948 44.8228 51.4879 44.8228 52.1564V59.4899H43.8228V52.1564C43.8228 50.9356 44.8104 49.948 46.0311 49.948H51.1563C52.3771 49.948 53.3647 50.9356 53.3647 52.1564V59.4899H52.3647V52.1564C52.3647 51.4879 51.8248 50.948 51.1563 50.948H46.0311Z" fill="black"/>
<path fill-rule="evenodd" clip-rule="evenodd" d="M27.1188 52.0666C27.1621 51.8289 27.3691 51.6562 27.6107 51.6562H35.3788C35.6203 51.6562 35.8274 51.8289 35.8707 52.0666L37.1168 58.9001C37.1663 59.1717 36.9863 59.4321 36.7146 59.4817C36.4429 59.5312 36.1826 59.3511 36.133 59.0795L34.9617 52.6562H28.0278L26.8565 59.0795C26.8069 59.3511 26.5466 59.5312 26.2749 59.4817C26.0032 59.4321 25.8232 59.1717 25.8727 58.9001L27.1188 52.0666Z" fill="black"/>
<path fill-rule="evenodd" clip-rule="evenodd" d="M29.2996 40.0979C29.3429 39.8602 29.55 39.6875 29.7915 39.6875H33.2083C33.4499 39.6875 33.6569 39.8602 33.7002 40.0979L35.2578 48.6499C35.2844 48.7957 35.2449 48.9459 35.1499 49.0598C35.0549 49.1736 34.9142 49.2395 34.7659 49.2395H28.2339C28.0856 49.2395 27.945 49.1736 27.85 49.0598C27.755 48.9459 27.7154 48.7957 27.742 48.6499L29.2996 40.0979ZM30.2087 40.6875L28.8332 48.2395H34.1666L32.7911 40.6875H30.2087Z" fill="black"/>
<path d="M5 58.99H58" stroke="black" stroke-linecap="round" stroke-linejoin="round"/>
</svg>
