<svg width="64" height="64" viewBox="0 0 64 64" fill="none" xmlns="http://www.w3.org/2000/svg">
<path fill-rule="evenodd" clip-rule="evenodd" d="M49.1672 41.1981C47.5822 41.1981 46.2862 42.4941 46.2862 44.0791C46.2862 45.664 47.5822 46.9601 49.1672 46.9601C50.7531 46.9601 52.0482 45.6734 52.0482 44.0791C52.0482 42.4941 50.7521 41.1981 49.1672 41.1981ZM45.2862 44.0791C45.2862 41.9418 47.0299 40.1981 49.1672 40.1981C51.3044 40.1981 53.0482 41.9418 53.0482 44.0791C53.0482 46.2277 51.3034 47.9601 49.1672 47.9601C47.0299 47.9601 45.2862 46.2163 45.2862 44.0791Z" fill="black"/>
<path fill-rule="evenodd" clip-rule="evenodd" d="M42.7427 26.3159C42.7427 26.0398 42.9665 25.8159 43.2427 25.8159H51.7003C51.8602 25.8159 52.0105 25.8924 52.1046 26.0217L58.8769 35.3272C58.9391 35.4127 58.9727 35.5157 58.9727 35.6214V44.0791C58.9727 44.3552 58.7488 44.5791 58.4727 44.5791H52.0482V43.5791H57.9727V35.7841L51.4458 26.8159H43.7427V40.3606H42.7427V26.3159Z" fill="black"/>
<path fill-rule="evenodd" clip-rule="evenodd" d="M47.1237 29.1969V35.9692H54.7439V36.9692H46.6237C46.3475 36.9692 46.1237 36.7454 46.1237 36.4692V29.1969H47.1237Z" fill="black"/>
<path fill-rule="evenodd" clip-rule="evenodd" d="M5.5 37.3068C5.5 37.0306 5.72386 36.8068 6 36.8068H43.2323C43.5085 36.8068 43.7323 37.0306 43.7323 37.3068C43.7323 37.5829 43.5085 37.8068 43.2323 37.8068H6.5V43.5791H10.2288C10.505 43.5791 10.7288 43.8029 10.7288 44.0791C10.7288 44.3552 10.505 44.5791 10.2288 44.5791H6C5.72386 44.5791 5.5 44.3552 5.5 44.0791V37.3068Z" fill="black"/>
<path fill-rule="evenodd" clip-rule="evenodd" d="M13.6202 41.1981C12.0352 41.1981 10.7392 42.4941 10.7392 44.0791C10.7392 45.664 12.0352 46.9601 13.6202 46.9601C15.2061 46.9601 16.5012 45.6734 16.5012 44.0791C16.5012 42.4941 15.2051 41.1981 13.6202 41.1981ZM9.73918 44.0791C9.73918 41.9418 11.4829 40.1981 13.6202 40.1981C15.7574 40.1981 17.5012 41.9418 17.5012 44.0791C17.5012 46.2277 15.7564 47.9601 13.6202 47.9601C11.4829 47.9601 9.73918 46.2163 9.73918 44.0791Z" fill="black"/>
<path fill-rule="evenodd" clip-rule="evenodd" d="M23.7735 41.1981C22.1886 41.1981 20.8925 42.4941 20.8925 44.0791C20.8925 45.664 22.1886 46.9601 23.7735 46.9601C25.3595 46.9601 26.6545 45.6734 26.6545 44.0791C26.6545 42.4941 25.3585 41.1981 23.7735 41.1981ZM19.8925 44.0791C19.8925 41.9418 21.6363 40.1981 23.7735 40.1981C25.9108 40.1981 27.6545 41.9418 27.6545 44.0791C27.6545 46.2277 25.9098 47.9601 23.7735 47.9601C21.6363 47.9601 19.8925 46.2163 19.8925 44.0791Z" fill="black"/>
<path fill-rule="evenodd" clip-rule="evenodd" d="M16.5012 44.0791C16.5012 43.8029 16.725 43.5791 17.0012 43.5791H20.3822C20.6583 43.5791 20.8822 43.8029 20.8822 44.0791C20.8822 44.3552 20.6583 44.5791 20.3822 44.5791H17.0012C16.725 44.5791 16.5012 44.3552 16.5012 44.0791Z" fill="black"/>
<path fill-rule="evenodd" clip-rule="evenodd" d="M26.6545 44.0791C26.6545 43.8029 26.8783 43.5791 27.1545 43.5791H45.7758C46.052 43.5791 46.2758 43.8029 46.2758 44.0791C46.2758 44.3552 46.052 44.5791 45.7758 44.5791H27.1545C26.8783 44.5791 26.6545 44.3552 26.6545 44.0791Z" fill="black"/>
<path d="M12.7723 20.3811H33.079C36.8322 20.3811 39.8513 23.4002 39.8513 27.1534C39.8513 30.9067 36.8322 33.9258 33.079 33.9258H12.7723C9.01912 33.9258 6 30.9067 6 27.1534C6 23.4002 9.01912 20.3811 12.7723 20.3811Z" fill="#FFC000"/>
<path fill-rule="evenodd" clip-rule="evenodd" d="M12.7723 20.8811C9.29526 20.8811 6.5 23.6764 6.5 27.1534C6.5 30.6305 9.29526 33.4258 12.7723 33.4258H33.079C36.5561 33.4258 39.3513 30.6305 39.3513 27.1534C39.3513 23.6764 36.5561 20.8811 33.079 20.8811H12.7723ZM5.5 27.1534C5.5 23.1241 8.74298 19.8811 12.7723 19.8811H33.079C37.1084 19.8811 40.3513 23.1241 40.3513 27.1534C40.3513 31.1828 37.1084 34.4258 33.079 34.4258H12.7723C8.74297 34.4258 5.5 31.1828 5.5 27.1534Z" fill="black"/>
<path fill-rule="evenodd" clip-rule="evenodd" d="M14.9578 19.0332V31.0344H13.9578V19.0332H14.9578Z" fill="black"/>
<path fill-rule="evenodd" clip-rule="evenodd" d="M20.0447 19.0332V31.0344H19.0447V19.0332H20.0447Z" fill="black"/>
<path fill-rule="evenodd" clip-rule="evenodd" d="M11.4246 16.5H11.9246C13.6069 16.5 14.9681 17.8612 14.9681 19.5435V20.0435H13.9681V19.5435C13.9681 18.4135 13.0546 17.5 11.9246 17.5H11.4246V16.5Z" fill="black"/>
<path fill-rule="evenodd" clip-rule="evenodd" d="M16.5012 16.5H17.0012C18.6835 16.5 20.0447 17.8612 20.0447 19.5435V20.0435H19.0447V19.5435C19.0447 18.4135 18.1312 17.5 17.0012 17.5H16.5012V16.5Z" fill="black"/>
<path fill-rule="evenodd" clip-rule="evenodd" d="M13.9578 24.6201C13.9578 24.344 14.1816 24.1201 14.4578 24.1201H19.5344C19.8106 24.1201 20.0344 24.344 20.0344 24.6201C20.0344 24.8963 19.8106 25.1201 19.5344 25.1201H14.4578C14.1816 25.1201 13.9578 24.8963 13.9578 24.6201Z" fill="black"/>
<path fill-rule="evenodd" clip-rule="evenodd" d="M13.9578 28.8489C13.9578 28.5727 14.1816 28.3489 14.4578 28.3489H19.5344C19.8106 28.3489 20.0344 28.5727 20.0344 28.8489C20.0344 29.125 19.8106 29.3489 19.5344 29.3489H14.4578C14.1816 29.3489 13.9578 29.125 13.9578 28.8489Z" fill="black"/>
<path fill-rule="evenodd" clip-rule="evenodd" d="M24.9587 17C24.9587 16.7239 25.1826 16.5 25.4587 16.5H30.5354C30.8115 16.5 31.0354 16.7239 31.0354 17V20.381C31.0354 20.6571 30.8115 20.881 30.5354 20.881C30.2593 20.881 30.0354 20.6571 30.0354 20.381V17.5H25.9587V20.381C25.9587 20.6571 25.7349 20.881 25.4587 20.881C25.1826 20.881 24.9587 20.6571 24.9587 20.381V17Z" fill="black"/>
</svg>
