<?xml version="1.0" encoding="utf-8"?>
<!-- Generator: Adobe Illustrator 27.7.0, SVG Export Plug-In . SVG Version: 6.00 Build 0)  -->
<svg version="1.1" id="Layer_1" xmlns="http://www.w3.org/2000/svg" xmlns:xlink="http://www.w3.org/1999/xlink" x="0px" y="0px"
	 viewBox="0 0 64 64" style="enable-background:new 0 0 64 64;" xml:space="preserve">
<style type="text/css">
	.st0{fill:none;stroke:#FFFFFF;stroke-miterlimit:10;}
	.st1{fill:#FFC612;}
	.st2{fill:#FFFFFF;}
</style>
<g>
	<path class="st0" d="M33.5,26.3c0,0.2,0,0.3,0,0.4c0,2.5,0,5.1,0,7.6c0,0.8,0.2,1.6,0.8,2.2c2.5,3.2,5,6.4,7.5,9.5
		c0.1,0.1,0.2,0.3,0.2,0.4c0.5,3,1,6.1,1.5,9.2c0.1,0.5,0.3,1,0.6,1.4c0.8,1,2.3,1.3,3.7,0.7c1.3-0.6,1.9-1.8,1.7-3.2
		c-0.5-3.1-1-6.3-1.5-9.4c-0.2-1-0.5-1.8-1.1-2.5c-1.8-2.2-3.5-4.5-5.3-6.8c-0.1-0.1-0.2-0.3-0.2-0.5c0-2.4,0-4.7,0-7.1
		c0-0.1,0-0.1,0-0.3c0.4,0.5,0.7,1,1,1.4c1.6,2.2,0.9,1.6,3.1,3c1.4,0.9,2.8,1.8,4.3,2.6c0.9,0.5,1.8,0.5,2.6-0.1
		c0.9-0.6,1.3-1.5,1.2-2.5c-0.1-0.9-0.6-1.5-1.3-1.9c-1.6-1-3.2-1.9-4.7-2.9c-0.2-0.1-0.3-0.3-0.5-0.4c-1.8-2.5-3.5-5-5.2-7.5
		c-0.5-0.7-1.2-1.2-2-1.2c-1.2,0-2.5,0-3.7,0c-0.5,0-1,0.2-1.5,0.5c-2.2,1.6-4.4,3.3-6.7,5c-0.5,0.4-0.9,0.9-1,1.5
		c-0.6,2.7-1.3,5.3-1.9,8c-0.2,1-0.2,1.9,0.5,2.7c-0.9,1.3-1.8,2.6-2.7,4c-1.3-0.9-2.6-1.8-3.9-2.7c-1.6-1.1-3.6-0.7-4.7,0.9
		c-2.3,3.3-4.5,6.7-6.8,10c-0.3,0.5-0.5,1-0.6,1.6c-0.1,1.8,0.9,2.8,2.3,3.6c0.7-1.7,2-2.8,3.9-2.9c2.2-0.1,3.6,1,4.4,3.1
		c0-0.1,0.1-0.1,0.1-0.2c3.9-5.8,7.8-11.6,11.7-17.4c0.3-0.5,0.5-1,0.7-1.5c0.6-2.3,1.1-4.5,1.7-6.8c0-0.1,0.1-0.2,0.2-0.3
		C32.4,27.2,32.9,26.8,33.5,26.3L33.5,26.3z M44.1,9.3c0-3.3-2.7-5.9-5.9-5.9c-3.3,0-5.9,2.6-6,5.9c0,3.3,2.7,6,5.9,6
		C41.4,15.2,44.1,12.5,44.1,9.3L44.1,9.3z M33.9,38.9c-0.4,1.5-0.8,3-1.2,4.5c-0.1,0.2-0.2,0.4-0.3,0.6c-2.1,3.1-4.2,6.3-6.3,9.4
		c-1,1.5-0.6,3.2,0.8,4.2s3.2,0.7,4.2-0.8c0.5-0.8,1.1-1.6,1.6-2.4c1.8-2.6,3.6-5.3,5.3-7.9c0.2-0.3,0.3-0.7,0.5-1.1
		c0.1-0.3,0-0.5-0.2-0.7c-1-1.3-2-2.5-3-3.8C34.9,40.2,34.4,39.6,33.9,38.9L33.9,38.9z"/>
	<path class="st0" d="M33.9,38.9c0.5,0.7,1,1.2,1.4,1.8c1,1.3,2,2.5,3,3.8c0.2,0.2,0.3,0.5,0.2,0.7c-0.1,0.4-0.3,0.8-0.5,1.1
		c-1.8,2.6-3.5,5.3-5.3,7.9c-0.5,0.8-1.1,1.6-1.6,2.4c-1,1.5-2.7,1.8-4.2,0.8c-1.5-1-1.8-2.7-0.8-4.2c2.1-3.1,4.2-6.3,6.3-9.4
		c0.1-0.2,0.2-0.4,0.3-0.6C33.1,41.9,33.5,40.5,33.9,38.9L33.9,38.9z"/>
</g>
<g>
	<path class="st1" d="M13.2,57.3c-1.3,0-2.4-1.1-2.3-2.4s1.1-2.3,2.4-2.3c0.7,0,1.3,0.3,1.7,0.7c0.4,0.5,0.7,1,0.7,1.7
		C15.6,56.3,14.5,57.3,13.2,57.3L13.2,57.3L13.2,57.3z"/>
	<path class="st2" d="M13.2,52.1l0,1c0.5,0,1,0.2,1.3,0.6c0.3,0.3,0.5,0.8,0.5,1.3c0,1-0.8,1.8-1.9,1.8l0,0c-1,0-1.9-0.9-1.9-1.9
		c0-1,0.8-1.8,1.9-1.8L13.2,52.1 M13.2,52.1c-1.6,0-2.9,1.3-2.9,2.8c0,1.6,1.3,2.9,2.8,2.9c0,0,0,0,0,0c1.6,0,2.8-1.3,2.8-2.8
		C16.1,53.4,14.9,52.1,13.2,52.1C13.3,52.1,13.2,52.1,13.2,52.1L13.2,52.1L13.2,52.1z"/>
</g>
</svg>
