<?xml version="1.0" encoding="UTF-8"?>
<svg id="Layer_1" data-name="Layer 1" xmlns="http://www.w3.org/2000/svg" viewBox="0 0 64 64">
  <defs>
    <style>
      .cls-1 {
        fill: #ffc612;
      }

      .cls-2 {
        fill: none;
        stroke: #000;
        stroke-miterlimit: 10;
      }
    </style>
  </defs>
  <g>
    <path class="cls-2" d="m33.5,26.27c0,.18,0,.29,0,.4,0,2.54,0,5.09,0,7.63,0,.84.25,1.56.76,2.21,2.5,3.17,4.98,6.36,7.47,9.54.1.12.17.28.19.44.51,3.05,1,6.1,1.5,9.16.09.52.28,1,.62,1.42.83,1.03,2.34,1.33,3.67.74,1.28-.57,1.89-1.77,1.65-3.23-.51-3.14-1.05-6.28-1.53-9.43-.15-.96-.51-1.78-1.12-2.54-1.79-2.23-3.54-4.49-5.3-6.75-.1-.13-.17-.31-.17-.47,0-2.37,0-4.74.02-7.11,0-.07.01-.15.03-.29.36.52.68.98,1.01,1.44,1.56,2.21.91,1.59,3.14,2.97,1.42.88,2.84,1.76,4.28,2.6.87.51,1.77.52,2.61-.07.87-.61,1.3-1.46,1.19-2.54-.08-.87-.6-1.46-1.32-1.89-1.57-.96-3.15-1.92-4.72-2.89-.18-.11-.34-.26-.46-.43-1.75-2.49-3.49-4.99-5.23-7.48-.5-.72-1.17-1.16-2.05-1.18-1.24-.03-2.48-.02-3.72,0-.54,0-1.02.21-1.45.54-2.22,1.65-4.44,3.3-6.66,4.95-.53.39-.89.9-1.04,1.55-.64,2.66-1.27,5.32-1.93,7.97-.25.98-.18,1.87.54,2.66-.9,1.33-1.79,2.64-2.68,3.97-1.33-.9-2.63-1.78-3.93-2.65-1.63-1.08-3.56-.71-4.66.91-2.26,3.32-4.5,6.66-6.75,9.98-.32.47-.54.99-.58,1.57-.13,1.81.86,2.83,2.31,3.6.72-1.72,1.98-2.78,3.87-2.86,2.18-.09,3.6,1.05,4.38,3.06.05-.07.09-.11.12-.16,3.91-5.79,7.83-11.58,11.73-17.38.31-.46.53-1,.67-1.53.6-2.27,1.15-4.55,1.72-6.82.03-.11.07-.25.16-.32.53-.41,1.08-.81,1.69-1.26Zm10.57-16.99c0-3.27-2.65-5.93-5.92-5.94-3.28,0-5.94,2.63-5.95,5.9,0,3.3,2.65,5.97,5.92,5.96,3.27,0,5.94-2.67,5.94-5.92Zm-10.16,29.66c-.41,1.53-.8,2.99-1.2,4.45-.06.21-.15.43-.27.61-2.11,3.14-4.23,6.27-6.34,9.4-.98,1.45-.64,3.17.83,4.16,1.47.99,3.2.67,4.17-.78.54-.81,1.09-1.61,1.63-2.42,1.78-2.63,3.56-5.26,5.32-7.9.22-.33.35-.74.48-1.12.09-.26.02-.5-.17-.73-1.01-1.26-2-2.54-3-3.82-.47-.6-.93-1.19-1.44-1.84Z"/>
    <path class="cls-2" d="m33.91,38.94c.51.65.98,1.25,1.44,1.84,1,1.27,1.99,2.55,3,3.82.19.24.26.48.17.73-.13.38-.26.79-.48,1.12-1.76,2.64-3.54,5.27-5.32,7.9-.54.81-1.09,1.61-1.63,2.42-.98,1.45-2.7,1.78-4.17.78-1.47-.99-1.81-2.71-.83-4.16,2.12-3.13,4.23-6.26,6.34-9.4.12-.18.21-.4.27-.61.4-1.46.79-2.92,1.2-4.45Z"/>
  </g>
  <g>
    <path class="cls-1" d="m13.23,57.34c-1.3-.02-2.35-1.09-2.34-2.38s1.07-2.35,2.36-2.35c.67,0,1.27.26,1.71.71.44.45.67,1.05.66,1.69-.02,1.28-1.07,2.33-2.34,2.33h-.04Z"/>
    <path d="m13.24,52.12l.03,1c.51,0,.98.21,1.32.56.34.35.53.82.52,1.33-.02,1.01-.84,1.84-1.87,1.84h0c-1.03-.02-1.86-.86-1.85-1.88,0-1.02.84-1.85,1.86-1.85v-1m0,0c-1.57,0-2.85,1.27-2.86,2.84-.01,1.56,1.27,2.86,2.84,2.88.01,0,.03,0,.04,0,1.55,0,2.82-1.26,2.84-2.82.02-1.6-1.22-2.88-2.83-2.9-.01,0-.03,0-.04,0h0Z"/>
  </g>
</svg>