<?xml version="1.0" encoding="utf-8"?>
<!-- Generator: Adobe Illustrator 27.7.0, SVG Export Plug-In . SVG Version: 6.00 Build 0)  -->
<svg version="1.1" id="Layer_1" xmlns="http://www.w3.org/2000/svg" xmlns:xlink="http://www.w3.org/1999/xlink" x="0px" y="0px"
	 viewBox="0 0 64 64" style="enable-background:new 0 0 64 64;" xml:space="preserve">
<style type="text/css">
	.st0{fill:#FFC716;}
	.st1{fill:none;stroke:#FFFFFF;stroke-miterlimit:10;}
</style>
<polygon class="st0" points="37.1,32.9 32.3,35.3 27.4,32.4 32.3,29.9 "/>
<g>
	<path class="st1" d="M58.6,32.6L33.2,17.8c-0.5-0.2-1.3-0.2-1.8,0L5.9,32.6c-0.5,0.2-0.5,0.7,0,1.1l25.6,14.8
		c0.5,0.2,1.3,0.2,1.8,0l25.4-14.8C59.1,33.4,59.1,32.9,58.6,32.6"/>
	<path class="st1" d="M58.6,45L33.2,30.3c-0.5-0.2-1.3-0.2-1.8,0L5.9,45c-0.5,0.2-0.5,0.7,0,1.1l25.6,14.8c0.5,0.2,1.3,0.2,1.8,0
		l25.4-14.8C59.1,45.9,59.1,45.4,58.6,45"/>
	<path class="st1" d="M47,6.3c-0.2-0.1-0.5-0.2-0.8-0.2H19.2c-0.6,0-1.1,0.2-1.2,0.5L8.2,22.3c-0.1,0.2,0,0.6,0.2,0.7h0.1l22.7,11.8
		c0.5,0.2,1.1,0.2,1.4,0l24-10.7c0.5-0.2,0.7-0.5,0.5-0.8L47.3,6.6C47.3,6.5,47.2,6.5,47,6.3"/>
</g>
</svg>
