<?xml version="1.0" encoding="UTF-8"?>
<svg id="Layer_1" data-name="Layer 1" xmlns="http://www.w3.org/2000/svg" viewBox="0 0 64 64">
  <defs>
    <style>
      .cls-1 {
        fill: #ffc716;
      }

      .cls-2 {
        fill: none;
        stroke: #000;
        stroke-miterlimit: 10;
      }
    </style>
  </defs>
  <polygon class="cls-1" points="37.11 32.94 32.28 35.28 27.42 32.39 32.28 29.89 37.11 32.94"/>
  <g>
    <path class="cls-2" d="m58.64,32.55l-25.47-14.76c-.48-.24-1.31-.24-1.79,0l-25.47,14.76c-.48.24-.48.71,0,1.07l25.59,14.76c.48.24,1.31.24,1.79,0l25.35-14.76c.48-.24.48-.71,0-1.07"/>
    <path class="cls-2" d="m58.64,45.03l-25.47-14.76c-.48-.24-1.31-.24-1.79,0l-25.47,14.76c-.48.24-.48.71,0,1.07l25.59,14.76c.48.24,1.31.24,1.79,0l25.35-14.76c.48-.24.48-.71,0-1.07"/>
    <path class="cls-2" d="m46.98,6.33c-.24-.12-.48-.24-.83-.24h-26.9c-.6,0-1.07.24-1.19.48l-9.88,15.71c-.12.24,0,.6.24.71h.12l22.73,11.82c.48.24,1.07.24,1.43,0l24.04-10.75c.48-.24.71-.48.48-.83l-9.88-16.66c0-.12-.12-.12-.36-.24"/>
  </g>
</svg>