<svg width="64" height="64" viewBox="0 0 64 64" fill="none" xmlns="http://www.w3.org/2000/svg">
<path d="M40.6275 56.4791C42.0597 56.4791 43.2207 55.2526 43.2207 53.7396C43.2207 52.2265 42.0597 51 40.6275 51C39.1952 51 38.0342 52.2265 38.0342 53.7396C38.0342 55.2526 39.1952 56.4791 40.6275 56.4791Z" fill="#FFC000"/>
<path fill-rule="evenodd" clip-rule="evenodd" d="M40.6275 51.5C39.4969 51.5 38.5342 52.4765 38.5342 53.7396C38.5342 55.0027 39.4969 55.9791 40.6275 55.9791C41.7581 55.9791 42.7207 55.0027 42.7207 53.7396C42.7207 52.4765 41.7581 51.5 40.6275 51.5ZM37.5342 53.7396C37.5342 51.9766 38.8936 50.5 40.6275 50.5C42.3613 50.5 43.7207 51.9766 43.7207 53.7396C43.7207 55.5025 42.3613 56.9791 40.6275 56.9791C38.8936 56.9791 37.5342 55.5025 37.5342 53.7396Z" fill="black"/>
<path d="M49.5933 56.4791C51.0255 56.4791 52.1866 55.2526 52.1866 53.7396C52.1866 52.2265 51.0255 51 49.5933 51C48.1611 51 47 52.2265 47 53.7396C47 55.2526 48.1611 56.4791 49.5933 56.4791Z" fill="#FFC000"/>
<path fill-rule="evenodd" clip-rule="evenodd" d="M49.5933 51.5C48.4627 51.5 47.5 52.4765 47.5 53.7396C47.5 55.0027 48.4627 55.9791 49.5933 55.9791C50.7239 55.9791 51.6866 55.0027 51.6866 53.7396C51.6866 52.4765 50.7239 51.5 49.5933 51.5ZM46.5 53.7396C46.5 51.9766 47.8594 50.5 49.5933 50.5C51.3272 50.5 52.6866 51.9766 52.6866 53.7396C52.6866 55.5025 51.3272 56.9791 49.5933 56.9791C47.8594 56.9791 46.5 55.5025 46.5 53.7396Z" fill="black"/>
<path d="M31.7993 56.4791C33.2316 56.4791 34.3926 55.2526 34.3926 53.7396C34.3926 52.2265 33.2316 51 31.7993 51C30.3671 51 29.2061 52.2265 29.2061 53.7396C29.2061 55.2526 30.3671 56.4791 31.7993 56.4791Z" fill="#FFC000"/>
<path fill-rule="evenodd" clip-rule="evenodd" d="M31.7993 51.5C30.6687 51.5 29.7061 52.4765 29.7061 53.7396C29.7061 55.0027 30.6687 55.9791 31.7993 55.9791C32.9299 55.9791 33.8926 55.0027 33.8926 53.7396C33.8926 52.4765 32.9299 51.5 31.7993 51.5ZM28.7061 53.7396C28.7061 51.9766 30.0655 50.5 31.7993 50.5C33.5332 50.5 34.8926 51.9766 34.8926 53.7396C34.8926 55.5025 33.5332 56.9791 31.7993 56.9791C30.0655 56.9791 28.7061 55.5025 28.7061 53.7396Z" fill="black"/>
<path d="M22.9783 56.4791C24.4105 56.4791 25.5716 55.2526 25.5716 53.7396C25.5716 52.2265 24.4105 51 22.9783 51C21.5461 51 20.385 52.2265 20.385 53.7396C20.385 55.2526 21.5461 56.4791 22.9783 56.4791Z" fill="#FFC000"/>
<path fill-rule="evenodd" clip-rule="evenodd" d="M22.9783 51.5C21.8477 51.5 20.885 52.4765 20.885 53.7396C20.885 55.0027 21.8477 55.9791 22.9783 55.9791C24.1089 55.9791 25.0716 55.0027 25.0716 53.7396C25.0716 52.4765 24.1089 51.5 22.9783 51.5ZM19.885 53.7396C19.885 51.9766 21.2444 50.5 22.9783 50.5C24.7122 50.5 26.0716 51.9766 26.0716 53.7396C26.0716 55.5025 24.7122 56.9791 22.9783 56.9791C21.2444 56.9791 19.885 55.5025 19.885 53.7396Z" fill="black"/>
<path d="M14.1504 56.4791C15.5826 56.4791 16.7437 55.2526 16.7437 53.7396C16.7437 52.2265 15.5826 51 14.1504 51C12.7182 51 11.5571 52.2265 11.5571 53.7396C11.5571 55.2526 12.7182 56.4791 14.1504 56.4791Z" fill="#FFC000"/>
<path fill-rule="evenodd" clip-rule="evenodd" d="M14.1504 51.5C13.0198 51.5 12.0571 52.4765 12.0571 53.7396C12.0571 55.0027 13.0198 55.9791 14.1504 55.9791C15.281 55.9791 16.2437 55.0027 16.2437 53.7396C16.2437 52.4765 15.281 51.5 14.1504 51.5ZM11.0571 53.7396C11.0571 51.9766 12.4165 50.5 14.1504 50.5C15.8843 50.5 17.2437 51.9766 17.2437 53.7396C17.2437 55.5025 15.8843 56.9791 14.1504 56.9791C12.4165 56.9791 11.0571 55.5025 11.0571 53.7396Z" fill="black"/>
<path fill-rule="evenodd" clip-rule="evenodd" d="M4.5 8.5H59.5V46.5H4.5V8.5ZM5.5 9.5V45.5H58.5V9.5H5.5Z" fill="black"/>
<path fill-rule="evenodd" clip-rule="evenodd" d="M7.5 45.5H56.5V59.5H7.5V45.5ZM8.5 46.5V58.5H55.5V46.5H8.5Z" fill="black"/>
<path fill-rule="evenodd" clip-rule="evenodd" d="M40.1274 51.1314V46H41.1274V51.1314H40.1274Z" fill="black"/>
<path fill-rule="evenodd" clip-rule="evenodd" d="M31.2993 51.1314V46H32.2993V51.1314H31.2993Z" fill="black"/>
<path fill-rule="evenodd" clip-rule="evenodd" d="M22.4784 51.1314V46H23.4784V51.1314H22.4784Z" fill="black"/>
<path fill-rule="evenodd" clip-rule="evenodd" d="M13.6504 51.1314V46H14.6504V51.1314H13.6504Z" fill="black"/>
<path fill-rule="evenodd" clip-rule="evenodd" d="M49 51V46H50V51H49Z" fill="black"/>
<path fill-rule="evenodd" clip-rule="evenodd" d="M32 16H10V29H32V16ZM9 15V30H33V15H9Z" fill="black"/>
<path fill-rule="evenodd" clip-rule="evenodd" d="M46 30C49.866 30 53 26.866 53 23C53 19.134 49.866 16 46 16C42.134 16 39 19.134 39 23C39 26.866 42.134 30 46 30ZM46 31C50.4183 31 54 27.4183 54 23C54 18.5817 50.4183 15 46 15C41.5817 15 38 18.5817 38 23C38 27.4183 41.5817 31 46 31Z" fill="black"/>
<path fill-rule="evenodd" clip-rule="evenodd" d="M17 38H10V40H17V38ZM9 37V41H18V37H9Z" fill="black"/>
<path fill-rule="evenodd" clip-rule="evenodd" d="M29 38H22V40H29V38ZM21 37V41H30V37H21Z" fill="black"/>
</svg>
