<?xml version="1.0" encoding="utf-8"?>
<!-- Generator: Adobe Illustrator 27.7.0, SVG Export Plug-In . SVG Version: 6.00 Build 0)  -->
<svg version="1.1" id="Layer_1" xmlns="http://www.w3.org/2000/svg" xmlns:xlink="http://www.w3.org/1999/xlink" x="0px" y="0px"
	 viewBox="0 0 64 64" style="enable-background:new 0 0 64 64;" xml:space="preserve">
<style type="text/css">
	.st0{fill:none;stroke:#FFFFFF;stroke-miterlimit:10;}
	.st1{fill:#FFC612;stroke:#FFFFFF;stroke-miterlimit:10;}
</style>
<polygon class="st0" points="31.7,3 7,17.6 7.7,46.7 32.4,60.9 57.5,46 57.5,18 "/>
<polyline class="st0" points="7,17.6 26.5,28.6 32.1,25.3 37.6,28.6 56.8,17.6 "/>
<polyline class="st0" points="32.5,61 31.9,38.3 26.4,35 26.5,28.6 "/>
<polyline class="st0" points="37.6,28.6 37.6,34.7 31.9,38.3 "/>
<polyline class="st0" points="26.5,35.1 32.1,31.8 37.6,34.5 "/>
<line class="st0" x1="32.1" y1="25.5" x2="32.1" y2="31.8"/>
<polygon class="st1" points="31.6,8.5 26.7,11.3 26.7,17 31.7,19.9 36.6,16.8 36.6,11.3 "/>
</svg>
