<?xml version="1.0" encoding="utf-8"?>
<!-- Generator: Adobe Illustrator 27.7.0, SVG Export Plug-In . SVG Version: 6.00 Build 0)  -->
<svg version="1.1" id="Layer_1" xmlns="http://www.w3.org/2000/svg" xmlns:xlink="http://www.w3.org/1999/xlink" x="0px" y="0px"
	 viewBox="0 0 64 64" style="enable-background:new 0 0 64 64;" xml:space="preserve">
<style type="text/css">
	.st0{fill:#FFC612;stroke:#FFFFFF;stroke-miterlimit:10;}
	.st1{fill:none;stroke:#FFFFFF;stroke-miterlimit:10;}
</style>
<path class="st0" d="M20,44v1.3c0,7.8,6.3,14,14,14s14-6.3,14-14v-4.7l0,0c0-3.6,2.9-6.5,6.5-6.5h3.7v-7.5h-3.7c-7.8,0-14,6.3-14,14
	v4.7c0,3.6-2.9,6.5-6.5,6.5s-6.5-2.9-6.5-6.5V44"/>
<path class="st1" d="M28.1,44c9.4-1.9,13.1-10.7,13.1-17.4v-8.4h-7.5V8.4c0-1.3-1-2.3-2.3-2.3s-2.3,1-2.3,2.3v9.8h-9.4V8.4
	c0-1.3-1-2.3-2.3-2.3S15,7.1,15,8.4v9.8H7.5v8.4c0,6.7,3.7,15.5,13.1,17.4C24.1,44.8,28.1,44,28.1,44L28.1,44z"/>
</svg>
