<?xml version="1.0" encoding="UTF-8"?>
<svg id="Layer_1" data-name="Layer 1" xmlns="http://www.w3.org/2000/svg" viewBox="0 0 64 64">
  <defs>
    <style>
      .cls-1 {
        fill: #ffc612;
      }

      .cls-1, .cls-2 {
        stroke: #000;
        stroke-miterlimit: 10;
      }

      .cls-2 {
        fill: none;
      }
    </style>
  </defs>
  <path class="cls-1" d="m20.65,43.94v1.31c0,7.75,6.28,14.03,14.03,14.03s14.03-6.28,14.03-14.03v-4.67h0c0-3.62,2.94-6.55,6.55-6.55h3.74v-7.48h-3.74c-7.75,0-14.03,6.28-14.03,14.03v4.67c0,3.62-2.93,6.55-6.55,6.55s-6.55-2.93-6.55-6.55v-1.31"/>
  <path class="cls-2" d="m28.13,44.04c9.38-1.88,13.1-10.74,13.1-17.39v-8.42h-7.48v-9.82c0-1.29-1.04-2.34-2.34-2.34s-2.34,1.04-2.34,2.34v9.82h-9.36v-9.82c0-1.29-1.05-2.34-2.34-2.34s-2.34,1.04-2.34,2.34v9.82h-7.48v8.42c0,6.66,3.72,15.51,13.09,17.39,3.51.8,7.48,0,7.48,0Z"/>
</svg>