<svg width="64" height="64" viewBox="0 0 64 64" fill="none" xmlns="http://www.w3.org/2000/svg">
<path d="M50.1809 14.0173L35.934 11.4084L10.8982 35.9548L28.2499 53.2543L53.348 28.2317L50.1809 14.0173ZM43.2236 21.0365C42.2579 20.0737 42.2579 18.5104 43.2236 17.5476C44.1893 16.5848 45.7573 16.5848 46.723 17.5476C47.6888 18.5104 47.6888 20.0737 46.723 21.0365C45.7573 21.9993 44.1893 21.9993 43.2236 21.0365Z" fill="#FFC000"/>
<path fill-rule="evenodd" clip-rule="evenodd" d="M44.4667 16.3685C44.3615 16.0364 44.2261 15.5867 44.0848 15.0583C43.9484 14.5484 43.8056 13.962 43.6791 13.335L36.0989 11.9469L11.6093 35.9578L28.2498 52.5482L52.8001 28.0718L49.7649 14.4494L44.7418 13.5296C44.841 13.9841 44.9473 14.413 45.0508 14.7999C45.1995 15.3559 45.3413 15.8214 45.4457 16.1473C45.4734 16.2336 45.4984 16.31 45.5202 16.3757C46.0902 16.4815 46.6352 16.754 47.076 17.1935C48.2377 18.3517 48.2377 20.2324 47.076 21.3905C45.9151 22.5479 44.0314 22.5479 42.8705 21.3905C41.7089 20.2324 41.7089 18.3517 42.8705 17.1935C43.3217 16.7437 43.882 16.4687 44.4667 16.3685ZM44.5356 12.4752L50.5968 13.5851L53.8958 28.3914L28.2498 53.9603L10.187 35.9518L35.769 10.8699L43.4912 12.284C43.4194 11.8199 43.3617 11.3454 43.326 10.8728C43.2998 10.5269 43.2849 10.1771 43.2857 9.82943L35.4302 7.88183L6.44864 36.248L27.8241 57.5692L56.8619 28.6188L52.5346 12.1225L44.288 10.0779C44.2927 10.313 44.3046 10.5533 44.3231 10.7974C44.3655 11.3583 44.4412 11.9255 44.5356 12.4752ZM44.3188 9.0553L51.3541 10.7995C51.5738 9.83368 51.5132 9.08941 51.3147 8.51481C51.0747 7.81999 50.6137 7.31731 50.0822 6.95003C49.547 6.58019 48.9528 6.35706 48.483 6.22674C48.2499 6.1621 48.0522 6.12159 47.9144 6.09744C47.8456 6.08539 47.7921 6.07747 47.7569 6.07269C47.7394 6.0703 47.7265 6.0687 47.7186 6.06776L47.7105 6.06683L47.7094 6.06671L47.7018 6.06593L47.6933 6.06477C46.8828 5.95344 46.2828 6.03878 45.8376 6.23432C45.3977 6.42753 45.071 6.74484 44.8302 7.16862C44.5439 7.67249 44.383 8.3206 44.3188 9.0553ZM43.3376 8.81204C43.4205 8.02928 43.6104 7.29116 43.9608 6.67455C44.2938 6.08845 44.7739 5.60933 45.4354 5.31875C46.0901 5.03118 46.8838 4.94511 47.8227 5.07315L47.8365 5.07474C47.8498 5.07632 47.8684 5.07864 47.8918 5.08182C47.9386 5.08819 48.0047 5.09804 48.087 5.11245C48.2512 5.14124 48.4811 5.18848 48.7502 5.26312C49.2847 5.41136 49.993 5.67287 50.6507 6.12736C51.3121 6.58442 51.9343 7.24578 52.2599 8.18831C52.5313 8.97414 52.5832 9.91666 52.3248 11.0402L53.3513 11.2947L57.9751 28.9211L27.824 58.9815L5.02588 36.2413L35.1294 6.77698L43.3376 8.81204ZM46.3699 17.9017C45.5994 17.1334 44.3471 17.1334 43.5766 17.9017C42.8068 18.6691 42.8068 19.9149 43.5766 20.6824C44.3471 21.4506 45.5994 21.4506 46.3699 20.6824C47.1397 19.9149 47.1397 18.6691 46.3699 17.9017Z" fill="black"/>
</svg>
