<?xml version="1.0" encoding="UTF-8"?>
<svg id="Layer_1" data-name="Layer 1" xmlns="http://www.w3.org/2000/svg" viewBox="0 0 64 64">
  <defs>
    <style>
      .cls-1 {
        stroke-linecap: round;
        stroke-linejoin: bevel;
      }

      .cls-1, .cls-2 {
        fill: none;
        stroke: #000;
      }

      .cls-2 {
        stroke-linejoin: round;
      }

      .cls-3 {
        fill: #ffc612;
      }
    </style>
  </defs>
  <path class="cls-1" d="m14.71,28.15c-2.93-3.25-4.71-7.54-4.71-12.26s1.73-8.9,4.59-12.13"/>
  <path class="cls-1" d="m19,24.36c-2.02-2.24-3.24-5.2-3.24-8.45s1.2-6.13,3.16-8.36"/>
  <path class="cls-1" d="m23.34,20.78c-1.16-1.28-1.86-2.98-1.86-4.85s.69-3.52,1.82-4.8"/>
  <path class="cls-1" d="m49.73,3.76c2.93,3.25,4.71,7.54,4.71,12.26s-1.73,8.9-4.59,12.13"/>
  <path class="cls-1" d="m45.44,7.55c2.02,2.24,3.24,5.2,3.24,8.45s-1.2,6.13-3.16,8.36"/>
  <path class="cls-1" d="m41.1,11.13c1.16,1.28,1.86,2.98,1.86,4.85s-.69,3.52-1.82,4.8"/>
  <g>
    <path class="cls-2" d="m40.69,44.06l-22.47,16.25s10.48-32.27,12.96-39.65"/>
    <path class="cls-2" d="m33.27,20.71c2.52,7.48,12.95,39.6,12.95,39.6l-22.47-16.25"/>
    <line class="cls-2" x1="25.82" y1="36.8" x2="38.61" y2="36.8"/>
  </g>
  <g>
    <path class="cls-3" d="m32.22,20.75c-2.49,0-4.51-2.02-4.51-4.51s2.02-4.51,4.51-4.51,4.51,2.02,4.51,4.51-2.02,4.51-4.51,4.51Z"/>
    <path d="m32.22,12.23c2.21,0,4.01,1.8,4.01,4.01s-1.8,4.01-4.01,4.01-4.01-1.8-4.01-4.01,1.8-4.01,4.01-4.01m0-1c-2.77,0-5.01,2.24-5.01,5.01s2.24,5.01,5.01,5.01,5.01-2.24,5.01-5.01-2.24-5.01-5.01-5.01h0Z"/>
  </g>
</svg>