<?xml version="1.0" encoding="utf-8"?>
<!-- Generator: Adobe Illustrator 27.7.0, SVG Export Plug-In . SVG Version: 6.00 Build 0)  -->
<svg version="1.1" id="Layer_1" xmlns="http://www.w3.org/2000/svg" xmlns:xlink="http://www.w3.org/1999/xlink" x="0px" y="0px"
	 viewBox="0 0 64 64" style="enable-background:new 0 0 64 64;" xml:space="preserve">
<style type="text/css">
	.st0{fill:none;stroke:#FFFFFF;stroke-linecap:round;stroke-linejoin:bevel;}
	.st1{fill:none;stroke:#FFFFFF;stroke-linejoin:round;}
	.st2{fill:#FFC612;}
	.st3{fill:#FFFFFF;}
</style>
<path class="st0" d="M14.7,28.2c-2.9-3.2-4.7-7.5-4.7-12.3S11.7,7,14.6,3.8"/>
<path class="st0" d="M19,24.4c-2-2.2-3.2-5.2-3.2-8.4s1.2-6.1,3.2-8.4"/>
<path class="st0" d="M23.3,20.8c-1.2-1.3-1.9-3-1.9-4.9s0.7-3.5,1.8-4.8"/>
<path class="st0" d="M49.7,3.8c2.9,3.2,4.7,7.5,4.7,12.3s-1.7,8.9-4.6,12.1"/>
<path class="st0" d="M45.4,7.6c2,2.2,3.2,5.2,3.2,8.5s-1.2,6.1-3.2,8.4"/>
<path class="st0" d="M41.1,11.1c1.2,1.3,1.9,3,1.9,4.8s-0.7,3.5-1.8,4.8"/>
<g>
	<path class="st1" d="M40.7,44.1L18.2,60.3c0,0,10.5-32.3,13-39.7"/>
	<path class="st1" d="M33.3,20.7c2.5,7.5,13,39.6,13,39.6L23.8,44.1"/>
	<line class="st1" x1="25.8" y1="36.8" x2="38.6" y2="36.8"/>
</g>
<g>
	<path class="st2" d="M32.2,20.8c-2.5,0-4.5-2-4.5-4.5s2-4.5,4.5-4.5s4.5,2,4.5,4.5S34.7,20.8,32.2,20.8z"/>
	<path class="st3" d="M32.2,12.2c2.2,0,4,1.8,4,4s-1.8,4-4,4s-4-1.8-4-4S30,12.2,32.2,12.2 M32.2,11.2c-2.8,0-5,2.2-5,5s2.2,5,5,5
		s5-2.2,5-5S35,11.2,32.2,11.2L32.2,11.2z"/>
</g>
</svg>
