<svg width="64" height="64" viewBox="0 0 64 64" fill="none" xmlns="http://www.w3.org/2000/svg">
<path d="M27.127 5.53176C28.944 5.55253 30.761 6.64275 32.2147 8.79205C32.7961 9.65384 32.3808 9.04124 39.5451 21.4075L35.6515 23.6502L48.6199 28.2084L51.1534 14.7L47.2597 16.9428L42.9715 9.51886C41.3933 6.78811 39.3063 5.45908 37.2297 5.52138" fill="#FFC000"/>
<path d="M11.272 50.6877C10.3791 49.0991 10.4206 46.9913 11.5524 44.6447C12.0092 43.7103 11.6873 44.3748 18.8205 31.9878L22.7142 34.2305L20.1807 20.7222L7.22263 25.2803L11.1163 27.5231L6.82807 34.947C5.24984 37.6777 5.14601 40.1489 6.23624 41.914" fill="#FFC000"/>
<path d="M58.2866 41.862C57.3625 43.4298 55.5143 44.4474 52.9186 44.6343C51.8803 44.7069 52.6175 44.655 38.32 44.6758V40.1799L27.885 49.1301L38.3096 58.0803V53.5845H46.886C50.0425 53.5845 52.2333 52.4423 53.2197 50.6149" fill="#FFC000"/>
<path fill-rule="evenodd" clip-rule="evenodd" d="M37.2218 5.00212C39.5528 4.93563 41.7875 6.43271 43.421 9.25897L47.4499 16.234L51.8715 13.6871L49.0186 28.8987L34.4122 23.7648L38.835 21.2173C35.9307 16.2031 34.3214 13.4072 33.3899 11.7888L33.3897 11.7885L33.3895 11.7882L33.3894 11.788L33.3893 11.7879C32.3448 9.97308 32.1527 9.63942 31.942 9.31804C31.8945 9.24572 31.8462 9.17403 31.7869 9.08622L31.7867 9.08588L31.7843 9.0823C30.453 7.11388 28.8593 6.15209 27.3242 6.05815V6.06119H27.3238H27.3235H27.3231H27.3227H27.3224H27.322H27.3216H27.3213H27.3209H27.3205H27.3202H27.3198H27.3194H27.3191H27.3187H27.3183H27.318H27.3176H27.3172H27.3169H27.3165H27.3161H27.3158H27.3154H27.315H27.3146H27.3143H27.3139H27.3135H27.3132H27.3128H27.3124H27.312H27.3117H27.3113H27.3109H27.3105H27.3102H27.3098H27.3094H27.3091H27.3087H27.3083H27.3079H27.3076H27.3072H27.3068H27.3064H27.3061H27.3057H27.3053H27.3049H27.3045H27.3042H27.3038H27.3034H27.303H27.3027H27.3023H27.3019H27.3015H27.3012H27.3008H27.3004H27.3H27.2996H27.2993H27.2989H27.2985H27.2981H27.2977H27.2974H27.297H27.2966H27.2962H27.2958H27.2955H27.2951H27.2947H27.2943H27.2939H27.2936H27.2932H27.2928H27.2924H27.292H27.2917H27.2913H27.2909H27.2905H27.2901H27.2897H27.2894H27.289H27.2886H27.2882H27.2878H27.2874H27.2871H27.2867H27.2863H27.2859H27.2855H27.2851H27.2848H27.2844H27.284H27.2836H27.2832H27.2828H27.2824H27.282H27.2817H27.2813H27.2809H27.2805H27.2801H27.2797H27.2793H27.279H27.2786H27.2782H27.2778H27.2774H27.277H27.2766H27.2762H27.2759H27.2755H27.2751H27.2747H27.2743H27.2739H27.2735H27.2731H27.2728H27.2724H27.272H27.2716H27.2712H27.2708H27.2704H27.27H27.2696H27.2693H27.2689H27.2685H27.2681H27.2677H27.2673H27.2669H27.2665H27.2661H27.2657H27.2653H27.265H27.2646H27.2642H27.2638H27.2634H27.263H27.2626H27.2622H27.2618H27.2614H27.261H27.2607H27.2603H27.2599H27.2595H27.2591H27.2587H27.2583H27.2579H27.2575H27.2571H27.2567H27.2563H27.2559H27.2556H27.2552H27.2548H27.2544H27.254H27.2536H27.2532H27.2528H27.2524H27.252H27.2516H27.2512H27.2508H27.2504H27.25H27.2497H27.2493H27.2489H27.2485H27.2481H27.2477H27.2473H27.2469H27.2465H27.2461H27.2457H27.2453H27.2449H27.2445H27.2441H27.2437H27.2433H27.243H27.2426H27.2422H27.2418H27.2414H27.241H27.2406H27.2402H27.2398H27.2394H27.239H27.2386H27.2382H27.2378H27.2374H27.237H27.2366H27.2362H27.2358H27.2355H27.2351H27.2347H27.2343H27.2339H27.2335H27.2331H27.2327H27.2323H27.2319H27.2315H27.2311H27.2307H27.2303H27.2299H27.2295H27.2291H27.2287H27.2283H27.2279H27.2275H27.2271H27.2268H27.2264H27.226H27.2256H27.2252H27.2248H27.2244H27.224H27.2236H27.2232H27.2228H27.2224H27.222H27.2216H27.2212H27.2208H27.2204H27.22H27.2196H27.2192H27.2188H27.2185H27.2181H27.2177H27.2173H27.2169H27.2165H27.2161H27.2157H27.2153H27.2149H27.2145H27.2141H27.2137H27.2133H27.2129H27.2125H27.2121H27.2117H27.2113H27.2109H27.2105H27.2102H27.2098H27.2094H27.209H27.2086H27.2082H27.2078H27.2074H27.207H27.2066H27.2062H27.2058H27.2054H27.205H27.2046H27.2042H27.2038H27.2034H27.2031H27.2027H27.2023H27.2019H27.2015H27.2011H27.2007H27.2003H27.1999H27.1995H27.1991H27.1987H27.1983H27.1979H27.1975H27.1972H27.1968H27.1964H27.196H27.1956H27.1952H27.1948H27.1944H27.194H27.1936H27.1932H27.1928H27.1924H27.192H27.1917H27.1913H27.1909H27.1905H27.1901H27.1897H27.1893H27.1889H27.1885H27.1881H27.1877H27.1874H27.187H27.1866H27.1862H27.1858H27.1854H27.185H27.1846H27.1842H27.1838H27.1834H27.1831H27.1827H27.1823H27.1819H27.1815H27.1811H27.1807H27.1803H27.1799H27.1795H27.1792H27.1788H27.1784H27.178H27.1776H27.1772H27.1768H27.1764H27.1761H27.1757H27.1753H27.1749H27.1745H27.1741H27.1737H27.1733H27.173H27.1726H27.1722H27.1718H27.1714H27.171H27.1706H27.1702H27.1699H27.1695H27.1691H27.1687H27.1683H27.1679H27.1675H27.1672H27.1668H27.1664H27.166H27.1656H27.1652H27.1648H27.1645H27.1641H27.1637H27.1633H27.1629H27.1625H27.1622H27.1618H27.1614H27.161H27.1606H27.1602H27.1599H27.1595H27.1591H27.1587H27.1583H27.158H27.1576H27.1572H27.1568H27.1564H27.156H27.1557H27.1553H27.1549H27.1545H27.1541H27.1538H27.1534H27.153H27.1526H27.1523H27.1519H27.1515H27.1511H27.1507H27.1504H27.15H27.1496H27.1492H27.1488H27.1485H27.1481H27.1477H27.1473H27.147H27.1466H27.1462H27.1458H27.1455H27.1451H27.1447H27.1443H27.144H27.1436H27.1432H27.1428H27.1425H27.1421H27.1417H27.1413H27.141H27.1406H27.1402H27.1398H27.1395H27.1391H27.1387H27.1384H27.138H27.1376H27.1372H27.1369H27.1365H27.1361H27.1358H27.1354H27.135H27.1346H27.1343H27.1339H27.1335H27.1332H27.1328H27.1324H27.1321H27.1317H27.1313H27.131H27.1306H27.1302H27.1299H27.1295H27.1291H27.1288H27.1284H27.128H27.1277H27.1273H27.1269H27.0351L27.0335 6.06133L27.0035 6.06404L27.0017 6.06421C26.9767 6.0666 26.933 6.07076 26.8821 6.07147C25.1564 6.15777 23.3448 7.32461 21.9184 9.80844L21.9176 9.80969L16.6846 18.8637L15.7856 18.3441L21.018 9.29135L21.0183 9.29071C22.5587 6.60895 24.6468 5.13842 26.8427 5.03385L26.855 5.03326H26.8674C26.8706 5.03326 26.8758 5.03309 26.894 5.03144C26.9384 5.0191 26.9852 5.0125 27.0335 5.0125H27.1269L27.1277 5.0125L37.2218 5.00212ZM42.5219 9.77842C41.0007 7.14637 39.0646 5.98561 37.2452 6.04019L37.2377 6.04041L30.2723 6.04757C31.1344 6.63149 31.9374 7.45533 32.6447 8.50109C32.99 9.01298 33.0015 9.03289 34.351 11.3772C35.3251 13.0693 36.9966 15.9728 39.9943 21.1471L40.2552 21.5975L36.8907 23.5354L48.2212 27.5178L50.4352 15.7127L47.0695 17.6513L42.5219 9.77842ZM52.9944 25.8411L58.1026 34.6974C59.6531 37.3784 59.8834 39.9194 58.8721 41.8723L58.8523 41.9106L58.8408 41.9259L58.835 41.9381L58.8285 41.9528L58.8237 41.9639L58.8207 41.9712L58.8202 41.9724L58.8032 42.0148L58.7311 42.1302L53.6727 50.8685C52.5626 52.9175 50.1529 54.1036 46.8859 54.1036H38.8286V59.2103L27.0877 49.1299L38.839 39.0507V44.1559C44.5418 44.1481 47.7581 44.152 49.64 44.1543C51.8176 44.1569 52.2089 44.1574 52.5989 44.1351C52.6842 44.1302 52.7694 44.1243 52.8733 44.117L52.8817 44.1164C55.3665 43.9374 57.0282 42.9744 57.8393 41.5984L58.2288 41.8259L57.8463 41.5869L57.8762 41.5389L57.8826 41.5245L57.8912 41.5055C57.9012 41.4837 57.9268 41.4276 57.9623 41.3711C58.7444 39.8368 58.6362 37.694 57.2037 35.2172L52.095 26.3599L52.9944 25.8411ZM44.3078 30.7106L50.8076 41.9659L51.7067 41.4466L45.2069 30.1914L44.3078 30.7106ZM30.9717 11.9382C31.1152 11.6899 31.0302 11.3724 30.7819 11.2289C30.5337 11.0855 30.2161 11.1704 30.0727 11.4187L23.4794 22.8297C23.336 23.0779 23.421 23.3955 23.6692 23.5389C23.9175 23.6824 24.235 23.5974 24.3785 23.3491L30.9717 11.9382ZM10.8217 50.946L11.0873 50.7952L10.8268 50.9547L11.1885 50.7377L10.8268 50.9547L10.8269 50.9548L10.8269 50.9549L10.827 50.9551L10.8274 50.9557L10.8275 50.9559L10.8287 50.9579L10.8332 50.9653L10.848 50.9896C10.8578 51.0055 10.8727 51.0295 10.8872 51.0515L10.8877 51.0523L10.8917 51.0582L10.8919 51.0586L10.8925 51.0583L10.8919 51.0587L10.892 51.0587L10.892 51.0588L10.8922 51.0591L10.8929 51.0601L10.8952 51.0635L10.9033 51.0756L10.93 51.115C10.9458 51.1381 10.9688 51.1716 10.9896 51.2003C12.1781 53.0399 14.4926 54.1036 17.5745 54.1036H27.8849C28.1716 54.1036 28.404 53.8712 28.404 53.5845C28.404 53.2978 28.1716 53.0653 27.8849 53.0653H17.5745C14.7046 53.0653 12.7867 52.0788 11.8543 50.6253L11.8441 50.6094L11.8327 50.5942C11.8251 50.584 11.8079 50.5594 11.7879 50.5301L11.7649 50.4962L11.7598 50.4886L11.7188 50.423C10.9401 49.0283 10.9389 47.1123 12.0194 44.8714C12.0666 44.7748 12.105 44.6963 12.1444 44.6183C12.3165 44.2777 12.5081 43.9471 13.5352 42.1755L13.5353 42.1753L13.5356 42.1748C14.4684 40.5657 16.09 37.7685 19.0112 32.6967L23.4323 35.2432L20.5793 20.0315L5.98364 25.1657L10.4067 27.7134L6.37849 34.6872C4.74488 37.5138 4.56975 40.1965 5.79001 42.1794L10.8194 50.942L10.8217 50.946ZM14.2727 44.6758C14.2727 44.3891 14.5051 44.1567 14.7918 44.1567H27.8018C28.0886 44.1567 28.321 44.3891 28.321 44.6758C28.321 44.9625 28.0886 45.195 27.8018 45.195H14.7918C14.5051 45.195 14.2727 44.9625 14.2727 44.6758ZM10.1482 47.6867C10.2259 46.654 10.5379 45.5528 11.0847 44.4191L11.0859 44.4166C11.3553 43.8656 11.3689 43.8422 12.6979 41.5494L12.698 41.5492L12.6981 41.549L12.6986 41.5481C13.6741 39.8652 15.3578 36.9604 18.3706 31.7286L18.6297 31.2787L21.996 33.2177L19.782 21.4127L8.46154 25.3948L11.8258 27.3326L7.27758 35.2065C5.7568 37.8379 5.72265 40.0945 6.6779 41.6411L6.68229 41.6482L10.1482 47.6867ZM52.9558 45.1521C54.2112 45.0617 55.3221 44.7825 56.2559 44.3335L52.7664 50.3615L52.7627 50.3683C51.8983 51.9698 49.9281 53.0653 46.8859 53.0653H37.7903V56.9504L28.6821 49.1303L37.8007 41.3092V45.1957L38.3206 45.195C44.2082 45.1864 47.5479 45.1903 49.5145 45.1926C52.3146 45.1958 52.332 45.1958 52.9558 45.1521Z" fill="black"/>
</svg>
