<svg width="64" height="64" viewBox="0 0 64 64" fill="none" xmlns="http://www.w3.org/2000/svg">
<path fill-rule="evenodd" clip-rule="evenodd" d="M12.6668 4.99756H46.8793V59.0023H4.98926V12.4008L12.6668 4.99756ZM13.0704 5.99756L5.98926 12.8258V58.0023H45.8793V5.99756H13.0704Z" fill="black"/>
<path fill-rule="evenodd" clip-rule="evenodd" d="M12.3686 12.1133V5.49756H13.3686V13.1133H5.48926V12.1133H12.3686Z" fill="black"/>
<path d="M44.4999 42.5C41.5931 41.3555 40.8888 40.2702 39.6556 38.7675C38.1386 36.9064 37.3752 34.5279 37.3752 32.1095V23.3617C42.6406 24.4862 46.438 20.7642 46.438 20.7642C47.2503 21.5006 49.9319 23.4512 55.5007 23.3617V32.1095C55.5007 34.5279 54.7471 36.9064 53.2204 38.7675C51.9872 40.2702 51.4164 41.3555 48.4999 42.5C48.265 42.5896 46.6925 43.1663 46.438 43.2459L45.6746 42.9673L44.4999 42.5Z" fill="#FFC000"/>
<path fill-rule="evenodd" clip-rule="evenodd" d="M46.4246 20.0771L46.7738 20.3937C47.4971 21.0495 50.0574 22.9492 55.4927 22.8617L56.0007 22.8536V32.1095C56.0007 34.6293 55.2156 37.1237 53.6069 39.0846C53.464 39.2588 53.3265 39.4323 53.1903 39.6042C52.7669 40.1384 52.3555 40.6575 51.828 41.1378C51.1115 41.7902 50.1833 42.3765 48.6825 42.9655L48.678 42.9672C48.4455 43.0559 46.8588 43.6382 46.5873 43.7231L46.4257 43.7737L45.4965 43.4345L44.3167 42.9652C44.3164 42.9651 44.3161 42.965 44.3157 42.9649C42.8234 42.3772 41.8683 41.7933 41.1223 41.1456C40.5055 40.6101 40.0404 40.0356 39.5522 39.4327C39.4591 39.3177 39.3651 39.2017 39.2691 39.0847L39.2681 39.0834C37.6709 37.124 36.8752 34.6306 36.8752 32.1095V22.7436L37.4797 22.8727C39.9711 23.4048 42.1205 22.7927 43.6606 22.0359C44.4303 21.6577 45.0425 21.2457 45.4608 20.9293C45.6698 20.7714 45.8296 20.6378 45.9358 20.5452C45.9889 20.4989 46.0285 20.4628 46.0541 20.4391C46.0668 20.4272 46.0761 20.4185 46.0818 20.413L46.0876 20.4075L46.0884 20.4067L46.4246 20.0771ZM46.446 21.4241C46.3414 21.5113 46.2136 21.6139 46.0639 21.727C45.6058 22.0734 44.9395 22.5217 44.1017 22.9334C42.5497 23.696 40.3907 24.3416 37.8752 23.9609V32.1095C37.8752 34.4249 38.6062 36.6883 40.0426 38.4509C40.1469 38.578 40.2462 38.7004 40.3422 38.8188C40.8296 39.4199 41.2328 39.9172 41.778 40.3906C42.419 40.9472 43.2692 41.4781 44.6831 42.0348L44.6847 42.0354L45.8528 42.5L46.4445 42.716C46.9107 42.5534 48.1069 42.1146 48.3195 42.0337C49.7338 41.4784 50.5488 40.9501 51.1548 40.3984C51.6171 39.9774 51.9604 39.5446 52.3688 39.0296C52.513 38.8478 52.6653 38.6557 52.8338 38.4504M46.446 21.4241C47.5781 22.3143 50.2138 23.8369 55.0007 23.8643V32.1095C55.0007 34.4265 54.2786 36.6892 52.8338 38.4504" fill="black"/>
<path fill-rule="evenodd" clip-rule="evenodd" d="M45.3295 34.9987L50.024 27.9121L50.8577 28.4644L45.4521 36.6243L42.0742 32.8928L42.8156 32.2217L45.3295 34.9987Z" fill="black"/>
<path fill-rule="evenodd" clip-rule="evenodd" d="M10.5874 18.9802H16.3439V24.8169H10.5874V18.9802ZM11.5874 19.9802V23.8169H15.3439V19.9802H11.5874Z" fill="black"/>
<path fill-rule="evenodd" clip-rule="evenodd" d="M10.5874 31.908H16.3439V37.7447H10.5874V31.908ZM11.5874 32.908V36.7447H15.3439V32.908H11.5874Z" fill="black"/>
<path fill-rule="evenodd" clip-rule="evenodd" d="M10.5874 44.8357H16.3439V50.6724H10.5874V44.8357ZM11.5874 45.8357V49.6724H15.3439V45.8357H11.5874Z" fill="black"/>
<path fill-rule="evenodd" clip-rule="evenodd" d="M32.7266 21.2441H17.9287V20.2441H32.7266V21.2441Z" fill="black"/>
<path fill-rule="evenodd" clip-rule="evenodd" d="M23.4192 25.0259H17.9287V24.0259H23.4192V25.0259Z" fill="black"/>
<path fill-rule="evenodd" clip-rule="evenodd" d="M30.7399 46.0647H17.9287V45.0647H30.7399V46.0647Z" fill="black"/>
<path fill-rule="evenodd" clip-rule="evenodd" d="M27.1383 49.8464H17.9287V48.8464H27.1383V49.8464Z" fill="black"/>
<path fill-rule="evenodd" clip-rule="evenodd" d="M30.1918 33.7241H17.9287V32.7241H30.1918V33.7241Z" fill="black"/>
</svg>
