<?xml version="1.0" encoding="utf-8"?>
<!-- Generator: Adobe Illustrator 27.7.0, SVG Export Plug-In . SVG Version: 6.00 Build 0)  -->
<svg version="1.1" id="Layer_1" xmlns="http://www.w3.org/2000/svg" xmlns:xlink="http://www.w3.org/1999/xlink" x="0px" y="0px"
	 viewBox="0 0 64 64" style="enable-background:new 0 0 64 64;" xml:space="preserve">
<style type="text/css">
	.st0{fill:#FFC612;stroke:#FFFFFF;stroke-miterlimit:10;}
	.st1{fill:#FFFFFF;stroke:#FFFFFF;stroke-miterlimit:10;}
</style>
<path class="st0" d="M9,55.8c3.5,3.5,9.3,3.5,12.8,0l8.7-8.7c2.6-2.6,3.3-6.4,2-9.7L27,43c-0.1,0.1-0.1,0.2-0.2,0.3L18.1,52
	c-1.5,1.5-3.8,1.5-5.3,0l-0.4-0.4c-1.5-1.5-1.5-3.8,0-5.3l8.7-8.7c0.2-0.2,0.4-0.4,0.6-0.5l5.3-5.3c-3.2-1.3-7.1-0.6-9.7,2l-8.7,8.7
	c-3.5,3.5-3.5,9.3,0,12.8L9,55.8L9,55.8z"/>
<path class="st0" d="M47.1,30.6l8.7-8.7c3.5-3.5,3.5-9.3,0-12.8l-0.4-0.4c-3.5-3.5-9.3-3.5-12.8,0l-8.7,8.7c-2.6,2.6-3.3,6.4-2,9.7
	l5.6-5.6c0.1-0.1,0.2-0.2,0.2-0.3l8.7-8.7c1.5-1.5,3.8-1.5,5.3,0l0.4,0.4c1.5,1.5,1.5,3.8,0,5.3l-8.7,8.7c-0.1,0.1-0.2,0.2-0.4,0.3
	l-5.5,5.5C40.7,33.8,44.5,33.2,47.1,30.6L47.1,30.6z"/>
<path class="st1" d="M21.3,37.6c-1.3,1.3-1.3,3.5,0,4.8l0.8,0.8c1.3,1.3,3.5,1.3,4.8,0L27,43l0,0l5.6-5.6l0,0l10.5-10.5
	c1.3-1.3,1.3-3.5,0-4.8l-0.8-0.8c-1.3-1.3-3.5-1.3-4.8,0L27.1,31.8l-5.3,5.3L21.3,37.6L21.3,37.6z"/>
</svg>
