<svg width="64" height="64" viewBox="0 0 64 64" fill="none" xmlns="http://www.w3.org/2000/svg">
<path d="M44.5 58.5C52.232 58.5 58.5 52.232 58.5 44.5C58.5 36.768 52.232 30.5 44.5 30.5C36.768 30.5 30.5 36.768 30.5 44.5C30.5 52.232 36.768 58.5 44.5 58.5Z" fill="#FFCC00" stroke="white" stroke-linecap="round" stroke-linejoin="round"/>
<path d="M36.5156 45.56L42.1156 51.16L53.5156 40" stroke="black" stroke-linecap="square"/>
<path d="M29.5 48.44L28 49.1738L24.2826 50.9925L23.4398 51.3939L22.7174 51.0327L15.2525 47.3404C9.23244 44.3705 5.5 38.3905 5.5 31.6882V13.5477L6.90468 13.2668L6.94482 13.2267C14.3294 11.822 19.1856 9.65476 22.2759 6.48419L23.5201 5.32031L24.7642 6.48419C27.8545 9.65476 32.7107 11.822 40.0953 13.2267L41.5 13.5076V29" stroke="white" stroke-miterlimit="10"/>
<path d="M23.4375 50.8125L23.5625 5.8125" stroke="white" stroke-miterlimit="10"/>
</svg>
