<?xml version="1.0" encoding="UTF-8"?>
<svg id="Layer_1" data-name="Layer 1" xmlns="http://www.w3.org/2000/svg" viewBox="0 0 64 64">
  <defs>
    <style>
      .cls-1 {
        fill: #ffc612;
      }

      .cls-1, .cls-2 {
        stroke: #000;
        stroke-miterlimit: 10;
      }

      .cls-2 {
        fill: none;
      }
    </style>
  </defs>
  <path class="cls-1" d="m9.03,55.78c3.54,3.54,9.3,3.54,12.84,0l8.68-8.68c2.61-2.61,3.29-6.42,2.05-9.66l-5.59,5.59c-.08.1-.15.2-.24.3l-8.68,8.68c-1.46,1.46-3.83,1.46-5.29,0l-.38-.38c-1.46-1.46-1.46-3.83,0-5.29l8.68-8.68c.2-.2.41-.36.64-.51l5.3-5.3c-3.25-1.26-7.09-.59-9.72,2.03l-8.68,8.68c-3.54,3.54-3.54,9.3,0,12.84l.38.38Z"/>
  <path class="cls-1" d="m47.1,30.55l8.68-8.68c3.54-3.54,3.54-9.3,0-12.84l-.38-.38c-3.54-3.54-9.3-3.54-12.84,0l-8.68,8.68c-2.61,2.61-3.29,6.42-2.05,9.66l5.59-5.59c.08-.1.15-.2.24-.3l8.68-8.68c1.46-1.46,3.83-1.46,5.29,0l.38.38c1.46,1.46,1.46,3.83,0,5.29l-8.68,8.68c-.12.12-.24.22-.37.31l-5.51,5.51c3.24,1.23,7.05.56,9.66-2.05Z"/>
  <path class="cls-2" d="m21.26,37.64c-1.32,1.32-1.32,3.49,0,4.81l.76.76c1.32,1.32,3.49,1.32,4.81,0l.19-.19s0,0,0,0l5.59-5.59h0s10.49-10.49,10.49-10.49c1.32-1.32,1.32-3.49,0-4.81l-.76-.76c-1.32-1.32-3.49-1.32-4.81,0l-10.47,10.47-5.3,5.3-.49.49Z"/>
</svg>