<svg width="64" height="64" viewBox="0 0 64 64" fill="none" xmlns="http://www.w3.org/2000/svg">
<path d="M30.876 34.7388L25.9945 50.7244C25.8384 51.2337 26.5045 51.5767 26.8272 51.1506L43.5846 29.2717H33.1138L37.9953 13.2861C38.1514 12.7768 37.4853 12.4338 37.1626 12.8599L20.4052 34.7388H30.876Z" fill="#FFC000"/>
<path fill-rule="evenodd" clip-rule="evenodd" d="M38.4733 13.4326V13.4326L33.7893 28.7717H43.5846C43.7749 28.7717 43.9487 28.8797 44.0329 29.0504C44.1171 29.221 44.0972 29.4246 43.9815 29.5757L27.2258 51.4524L27.2249 51.4536C26.5614 52.3275 25.1986 51.6164 25.5163 50.5784M25.5163 50.5784L30.2005 35.2388H20.4052C20.2149 35.2388 20.0411 35.1308 19.9569 34.9602C19.8726 34.7895 19.8926 34.5859 20.0083 34.4348L36.764 12.5581L36.7651 12.5567C37.4286 11.6831 38.791 12.3947 38.4733 13.4326M37.5619 13.1593C37.5672 13.156 37.5664 13.155 37.5612 13.1618L37.5596 13.164L37.4768 13.2721L37.5171 13.1401C37.5183 13.1361 37.5187 13.1335 37.5187 13.1335C37.5187 13.1335 37.5185 13.135 37.5187 13.1381L37.5189 13.14V13.14C37.5196 13.1454 37.5213 13.1518 37.5237 13.157C37.5264 13.1628 37.5303 13.167 37.5303 13.167C37.5303 13.167 37.5364 13.1678 37.5432 13.1665C37.548 13.1656 37.5528 13.164 37.557 13.162L37.5597 13.1606L37.5619 13.1593ZM21.418 34.2388L37.4768 13.2721L32.6356 29.1257C32.5893 29.2772 32.6176 29.4418 32.7119 29.5692C32.8062 29.6966 32.9553 29.7717 33.1138 29.7717H42.5718L26.513 50.7384L31.3542 34.8848C31.4005 34.7333 31.3722 34.5687 31.2779 34.4413C31.1836 34.314 31.0345 34.2388 30.876 34.2388H21.418Z" fill="black"/>
<path fill-rule="evenodd" clip-rule="evenodd" d="M43.1529 42.7892C43.3251 42.7429 43.509 42.7919 43.6354 42.9177L47.0291 46.295L46.3237 47.0038L43.5417 44.2352L40.4098 55.8905L52.0889 52.7726L49.3098 49.9974L50.0164 49.2898L53.4094 52.678C53.5359 52.8044 53.5854 52.9886 53.5391 53.1613C53.4928 53.334 53.3578 53.4688 53.1851 53.5149L39.8312 57.08C39.6587 57.126 39.4746 57.0766 39.3484 56.9502C39.2222 56.8238 39.173 56.6396 39.2194 56.4671L42.7998 43.1423C42.8461 42.9701 42.9807 42.8356 43.1529 42.7892Z" fill="black"/>
<path fill-rule="evenodd" clip-rule="evenodd" d="M49.6636 14.3155C44.6846 9.34345 38.114 6.91775 31.5707 7.01968L31.0708 7.02747L31.0552 6.02759L31.5552 6.0198C38.3554 5.91387 45.1907 8.43559 50.3702 13.6079C60.5161 23.7395 60.5163 40.2189 50.37 50.3405L50.016 50.6936L49.3098 49.9856L49.6638 49.6325C59.4182 39.9019 59.4185 24.0567 49.6636 14.3155Z" fill="black"/>
<path fill-rule="evenodd" clip-rule="evenodd" d="M24.6516 7.04978C24.7779 7.17616 24.8272 7.36032 24.7808 7.53287L21.2004 20.8681C21.1541 21.0405 21.0194 21.1751 20.8469 21.2214C20.6745 21.2676 20.4905 21.2184 20.3642 21.0922L16.9711 17.7039L17.6777 16.9963L20.4588 19.7735L23.5904 8.11027L11.9124 11.237L14.6904 14.0015L13.985 14.7104L10.5913 11.3331C10.4646 11.2069 10.4148 11.0226 10.4609 10.8498C10.507 10.677 10.6419 10.5419 10.8147 10.4957L24.1686 6.92023C24.3412 6.87402 24.5253 6.92341 24.6516 7.04978Z" fill="black"/>
<path fill-rule="evenodd" clip-rule="evenodd" d="M14.6904 14.0145L14.3364 14.3676C4.58198 24.0982 4.58171 39.9434 14.3366 49.6846C19.3156 54.6567 25.8862 57.0824 32.4295 56.9804L32.9294 56.9726L32.945 57.9725L32.445 57.9803C25.6448 58.0862 18.8095 55.5645 13.63 50.3922C3.48412 40.2606 3.48386 23.7812 13.6302 13.6597L13.9841 13.3065L14.6904 14.0145Z" fill="black"/>
</svg>
