<svg width="64" height="64" viewBox="0 0 64 64" fill="none" xmlns="http://www.w3.org/2000/svg">
<path fill-rule="evenodd" clip-rule="evenodd" d="M25.0838 51.0097L28.1641 37.9674L13.3887 23.1919C11.5371 21.3404 11.5371 18.3277 13.3887 16.4795C14.1063 15.7619 15.0169 15.3083 16.0391 15.1594L28.875 2.31676C29.7246 1.46713 30.8552 1 32.0603 1C33.2653 1 34.3925 1.46713 35.2455 2.31676C36.1629 3.23409 36.6266 4.47976 36.542 5.77621L43.1664 11.4934H51.9673L54.611 23.1716L53.4533 23.6828L48.5248 16.5675H44.5982C44.4324 17.0787 44.148 17.5356 43.7689 17.9181C43.3221 18.365 42.7602 18.673 42.1475 18.8219V22.823L49.2627 27.7549L48.755 28.9126L37.0091 26.2554L38.0111 17.9825L32.4157 11.5205L23.7806 20.1556L35.7871 32.1621H38.8539L43.3052 51.0131H25.0872L25.0838 51.0097Z" stroke="black" stroke-linecap="round" stroke-linejoin="round"/>
<path d="M41.2879 13.5314L41.2885 13.5316C41.4306 13.5589 41.5702 13.6153 41.7255 13.6977C41.7424 13.7073 41.7575 13.7154 41.7685 13.7214L41.7699 13.7221C41.7784 13.7267 41.7846 13.73 41.79 13.733C41.908 13.8093 42.019 13.9046 42.1221 14.016L42.148 14.0469L42.1742 14.078C42.2649 14.194 42.3398 14.3194 42.3913 14.4468C42.3948 14.4581 42.3992 14.4734 42.4057 14.4963L42.4091 14.5081L42.4131 14.5198C42.4689 14.6843 42.5 14.84 42.5 15C42.5 15.821 41.8387 16.489 41.0223 16.4999L41.0154 16.4987L40.9841 16.4935L40.9524 16.4923C40.7967 16.4863 40.649 16.4567 40.5081 16.4083C40.4914 16.4021 40.4769 16.3975 40.4664 16.3943C40.4568 16.3914 40.4476 16.3888 40.4417 16.3872C40.3169 16.3366 40.195 16.2622 40.0761 16.1688C40.0675 16.1618 40.0598 16.1556 40.0542 16.1511L40.0378 16.1381C40.0364 16.137 40.0353 16.1361 40.0345 16.1354L40.0283 16.1291L40.0173 16.1194C39.9049 16.0194 39.8101 15.9088 39.7307 15.7836C39.7306 15.7835 39.7305 15.7833 39.7304 15.7831L39.7305 15.7831L39.7301 15.7824C39.73 15.7822 39.7298 15.7819 39.7297 15.7817L39.725 15.7726L39.7182 15.7594C39.713 15.7495 39.706 15.7364 39.6977 15.7217L39.2635 15.9696L39.6983 15.7228C39.6201 15.5851 39.5634 15.4436 39.5305 15.2976C39.511 15.1914 39.5 15.0922 39.5 15C39.5 14.1722 40.1723 13.5 40.998 13.5C41.0905 13.5 41.1829 13.5111 41.2879 13.5314Z" stroke="black"/>
<path d="M31.5 4.5C32.6057 4.5 33.5 5.39434 33.5 6.5C33.5 7.60566 32.6057 8.5 31.5 8.5C30.3943 8.5 29.5 7.60566 29.5 6.5C29.5 5.39434 30.3943 4.5 31.5 4.5Z" stroke="black"/>
<path d="M17.111 21.8558C16.0058 21.8558 15.111 20.9611 15.111 19.8575C15.111 18.7529 16.0067 17.8558 17.111 17.8558C18.2154 17.8558 19.111 18.7529 19.111 19.8575C19.111 20.9611 18.2162 21.8558 17.111 21.8558Z" stroke="black"/>
<path d="M33.5 39.5C32.3949 39.5 31.5 38.602 31.5 37.5C31.5 36.398 32.3949 35.5 33.5 35.5C34.6057 35.5 35.5 36.3943 35.5 37.5C35.5 38.6057 34.6057 39.5 33.5 39.5Z" stroke="black"/>
<path fill-rule="evenodd" clip-rule="evenodd" d="M46.8899 62.3558H20.3289C19.3839 62.3558 18.611 61.4558 18.611 60.3554L19.5398 55.3562C19.5398 54.2558 20.3127 53.3558 21.2577 53.3558H45.9643C46.9094 53.3558 47.6823 54.2558 47.6823 55.3562L48.611 60.3554C48.611 61.4558 47.8381 62.3558 46.8931 62.3558H46.8899Z" fill="#FFC000" stroke="black" stroke-miterlimit="10"/>
</svg>
