<svg width="64" height="64" viewBox="0 0 64 64" fill="none" xmlns="http://www.w3.org/2000/svg">
<path d="M50.9023 5C46.5432 5 40.9567 5.78883 36.1315 8.96392C23.9629 16.9794 16 39.9204 16 39.9204L19.5892 43.4263L19.6587 43.4941L23.2479 47C23.2479 47 46.7342 39.222 54.9402 27.3359C61.0158 18.5344 58.5584 7.12333 58.2487 5.81427L58.1676 5.73511C57.5453 5.59374 54.6884 5 50.9052 5H50.9023Z" stroke="white"/>
<path d="M26 19.2214L11.9491 19L5 33.6358L18.194 34" stroke="white" stroke-miterlimit="10"/>
<path d="M44.7638 37L45 51.0509L29.3854 58L29 44.806" stroke="white" stroke-miterlimit="10"/>
<path d="M48.7563 15.2429C47.7547 14.2411 46.4172 13.6869 45 13.6869C43.5828 13.6869 42.2453 14.2411 41.2437 15.2429C39.1736 17.3136 39.1736 20.6864 41.2437 22.7571C42.2453 23.7589 43.5828 24.3131 45 24.3131C46.4172 24.3131 47.7547 23.7589 48.7563 22.7571C50.8264 20.6864 50.8264 17.3136 48.7563 15.2429Z" fill="#FFC000" stroke="white"/>
<path d="M13.2679 45.1679C14.5392 45.1679 15.6994 45.6251 16.5353 46.4581C18.47 48.3861 18.2099 51.7849 15.9508 54.0362C14.2089 55.772 9.54746 56.8379 6.9727 56.8379C6.60738 56.8379 6.35896 56.8146 6.19822 56.7913C6.12223 56.1331 6.16607 54.543 6.60738 52.4606C7.13636 49.9559 7.9839 47.9813 8.9308 47.0377C10.1261 45.8465 11.7072 45.165 13.2679 45.165" fill="#FFC000"/>
<path d="M13.2679 45.1679C14.5392 45.1679 15.6994 45.6251 16.5353 46.4581C18.47 48.3861 18.2099 51.7849 15.9508 54.0362C14.2089 55.772 9.54746 56.8379 6.9727 56.8379C6.60738 56.8379 6.35896 56.8146 6.19822 56.7913C6.12223 56.1331 6.16607 54.543 6.60738 52.4606C7.13636 49.9559 7.9839 47.9813 8.9308 47.0377C10.1261 45.8465 11.7072 45.165 13.2679 45.165" stroke="white"/>
</svg>
