<?xml version="1.0" encoding="utf-8"?>
<!-- Generator: Adobe Illustrator 27.7.0, SVG Export Plug-In . SVG Version: 6.00 Build 0)  -->
<svg version="1.1" id="Layer_1" xmlns="http://www.w3.org/2000/svg" xmlns:xlink="http://www.w3.org/1999/xlink" x="0px" y="0px"
	 viewBox="0 0 64 64" style="enable-background:new 0 0 64 64;" xml:space="preserve">
<style type="text/css">
	.st0{fill:#FFC612;stroke:#FFFFFF;stroke-miterlimit:10;}
	.st1{fill:none;stroke:#FFFFFF;stroke-miterlimit:10;}
</style>
<path class="st0" d="M10,35.1h15.5c1.9,0,3.5,1.6,3.5,3.5v15.5c0,1.9-1.6,3.5-3.5,3.5H10c-1.9,0-3.5-1.6-3.5-3.5V38.7
	C6.4,36.7,8,35.1,10,35.1z"/>
<path class="st1" d="M6.4,49.7V14.2c0-4.4,3.6-8,8-8H50c4.4,0,8,3.6,8,8v35.5c0,4.4-3.6,8-8,8H14.5"/>
<path class="st1" d="M6.4,25.6c0-3.3,2.7-5.9,5.9-5.9h26.2c3.3,0,5.9,2.7,5.9,5.9v26.2c0,3.3-2.7,5.9-5.9,5.9"/>
</svg>
