<svg width="64" height="64" viewBox="0 0 64 64" fill="none" xmlns="http://www.w3.org/2000/svg">
<path d="M14.7257 30.9477C13.6369 27.664 15.3108 24.0805 18.4679 22.9469C21.6218 21.8132 25.0635 23.556 26.1524 26.843L28.6899 25.9309L31.8626 24.7907L30.8019 21.5917L29.9258 18.9497C33.0797 17.816 34.7568 14.2326 33.6679 10.9489C32.5791 7.66517 29.1373 5.91907 25.9834 7.05273L23.9778 1L4.17203 8.11473C2.49496 8.7174 1.59697 10.6362 2.17581 12.3823L9.0124 33L14.7257 30.9477Z" fill="#FFC000" stroke="black" stroke-miterlimit="10" stroke-linejoin="round"/>
<path d="M36 17.1974C39.4522 17.1974 42.2508 19.9736 42.2508 23.3981C42.2508 26.8225 39.4522 29.5987 36 29.5987V35.7994H42.1408C42.1408 39.2238 44.9394 42 48.3916 42C51.8438 42 54.6424 39.2238 54.6424 35.7994H61V14.3057C61 12.486 59.4988 11 57.6675 11H36.0032V17.2006L36 17.1974Z" stroke="black" stroke-miterlimit="10" stroke-linejoin="round"/>
<path d="M36.2013 36V42.1408C32.7765 42.1408 30 44.9394 30 48.3916C30 51.8438 32.7765 54.6424 36.2013 54.6424V61H57.6939C59.5139 61 61 59.4988 61 57.6675V36.0032" stroke="black" stroke-miterlimit="10" stroke-linejoin="round"/>
<path d="M36.2013 36V42.1408C32.7765 42.1408 30 44.9394 30 48.3916C30 51.8438 32.7765 54.6424 36.2013 54.6424V61H57.6939C59.5139 61 61 59.4988 61 57.6675V36.0032" stroke="black" stroke-miterlimit="10" stroke-linejoin="round"/>
<path d="M36 54.8051C32.6859 54.8051 29.9992 52.0287 29.9992 48.6039C29.9992 45.179 32.6859 42.4026 36 42.4026V35.8125H29.9992C29.9992 32.3877 27.4181 30 24.1041 30C20.79 30 18 32.0752 18 35.5H12V57.6939C12 59.5139 13.4412 61 15.1992 61H35.9969V54.7987L36 54.8051Z" stroke="black" stroke-miterlimit="10" stroke-linejoin="round"/>
</svg>
