<?xml version="1.0" encoding="utf-8"?>
<!-- Generator: Adobe Illustrator 27.7.0, SVG Export Plug-In . SVG Version: 6.00 Build 0)  -->
<svg version="1.1" id="Layer_1" xmlns="http://www.w3.org/2000/svg" xmlns:xlink="http://www.w3.org/1999/xlink" x="0px" y="0px"
	 viewBox="0 0 64 64" style="enable-background:new 0 0 64 64;" xml:space="preserve">
<style type="text/css">
	.st0{fill:#FFC612;}
	.st1{fill:#FFFFFF;}
	.st2{fill:none;stroke:#FFFFFF;stroke-miterlimit:10;}
</style>
<g>
	<path class="st0" d="M26.9,47.7c-5.5,0-10.8-2.2-14.7-6.1c-8.1-8.1-8.1-21.2,0-29.3c3.9-3.9,9.1-6.1,14.7-6.1s10.8,2.2,14.7,6.1
		c8.1,8.1,8.1,21.2,0,29.3C37.7,45.6,32.4,47.7,26.9,47.7L26.9,47.7L26.9,47.7z M26.9,10.8c-4.3,0-8.4,1.7-11.4,4.7
		c-6.3,6.3-6.3,16.6,0,22.9c3,3,7.1,4.7,11.4,4.7s8.4-1.7,11.4-4.7c6.3-6.3,6.3-16.6,0-22.9C35.3,12.5,31.2,10.8,26.9,10.8z"/>
	<path class="st1" d="M26.9,6.7c5.4,0,10.5,2.1,14.3,5.9c7.9,7.9,7.9,20.7,0,28.6c-3.8,3.8-8.9,5.9-14.3,5.9s-10.5-2.1-14.3-5.9
		S6.7,32.4,6.7,27c0-5.4,2.1-10.5,5.9-14.3S21.5,6.7,26.9,6.7 M26.9,43.6c4.5,0,8.6-1.7,11.8-4.9c3.2-3.2,4.9-7.3,4.9-11.8
		s-1.7-8.6-4.9-11.8c-3.2-3.2-7.3-4.9-11.8-4.9s-8.6,1.7-11.8,4.9c-3.2,3.2-4.9,7.3-4.9,11.8s1.7,8.6,4.9,11.8
		C18.3,41.9,22.4,43.6,26.9,43.6 M26.9,5.7c-5.4,0-10.9,2.1-15,6.2c-8.3,8.3-8.3,21.7,0,30c4.1,4.2,9.6,6.2,15,6.2s10.9-2.1,15-6.2
		c8.3-8.3,8.3-21.7,0-30C37.8,7.8,32.3,5.7,26.9,5.7C26.9,5.7,26.9,5.7,26.9,5.7z M26.9,42.6c-4,0-8-1.5-11.1-4.6
		c-6.1-6.1-6.1-16,0-22.1c3.1-3.1,7.1-4.6,11.1-4.6s8,1.5,11.1,4.6c6.1,6.1,6.1,16,0,22.1C34.9,41.1,30.9,42.6,26.9,42.6
		C26.9,42.6,26.9,42.6,26.9,42.6z"/>
</g>
<path class="st2" d="M59,50.9l-9.4-9.4c-1-1-2.7-1-3.7,0l-4.4,4.4c-1,1-1,2.7,0,3.7l9.5,9.5C51,59.2,59,50.9,59,50.9z"/>
<g>
	<line class="st2" x1="42.2" y1="45.6" x2="40.1" y2="43.5"/>
	<line class="st2" x1="45.5" y1="42.3" x2="43.4" y2="40.2"/>
</g>
</svg>
