<?xml version="1.0" encoding="UTF-8"?>
<svg id="Layer_1" data-name="Layer 1" xmlns="http://www.w3.org/2000/svg" viewBox="0 0 64 64">
  <defs>
    <style>
      .cls-1 {
        fill: #ffc612;
      }

      .cls-2 {
        fill: none;
        stroke: #000;
        stroke-miterlimit: 10;
      }
    </style>
  </defs>
  <g>
    <path class="cls-1" d="m26.9,47.71c-5.54,0-10.75-2.16-14.67-6.07-8.09-8.09-8.09-21.25,0-29.33,3.92-3.92,9.13-6.08,14.67-6.08s10.75,2.16,14.67,6.08c8.09,8.09,8.09,21.24,0,29.33-3.92,3.92-9.13,6.08-14.67,6.08h0Zm0-36.9c-4.32,0-8.38,1.68-11.43,4.73-6.3,6.3-6.3,16.56,0,22.86,3.05,3.05,7.11,4.73,11.43,4.73s8.38-1.68,11.43-4.73c6.3-6.3,6.3-16.56,0-22.86-3.05-3.05-7.11-4.73-11.43-4.73Z"/>
    <path d="m26.9,6.73c5.41,0,10.49,2.11,14.31,5.93,7.89,7.89,7.89,20.73,0,28.62-3.82,3.82-8.91,5.93-14.31,5.93s-10.49-2.11-14.31-5.93c-3.82-3.82-5.93-8.91-5.93-14.31,0-5.41,2.11-10.49,5.93-14.31,3.82-3.82,8.91-5.93,14.31-5.93m0,36.9c4.45,0,8.64-1.73,11.78-4.88,3.15-3.15,4.88-7.33,4.88-11.78,0-4.45-1.73-8.64-4.88-11.78-3.15-3.15-7.33-4.88-11.78-4.88s-8.64,1.73-11.78,4.88c-3.15,3.15-4.88,7.33-4.88,11.78,0,4.45,1.73,8.64,4.88,11.78,3.15,3.15,7.33,4.88,11.78,4.88m0-37.9c-5.44,0-10.87,2.07-15.02,6.22-8.3,8.3-8.3,21.74,0,30.04,4.15,4.15,9.58,6.22,15.02,6.22s10.87-2.07,15.02-6.22c8.3-8.3,8.3-21.74,0-30.04-4.15-4.15-9.58-6.22-15.02-6.22h0Zm0,36.9c-4.01,0-8.02-1.53-11.08-4.59-6.12-6.12-6.12-16.03,0-22.15,3.06-3.06,7.07-4.59,11.08-4.59s8.02,1.53,11.08,4.59c6.12,6.12,6.12,16.03,0,22.15-3.06,3.06-7.07,4.59-11.08,4.59h0Z"/>
  </g>
  <path class="cls-2" d="m59,50.93l-9.4-9.4c-1.03-1.03-2.7-1.03-3.73,0l-4.41,4.41c-1.03,1.03-1.03,2.7,0,3.73l9.55,9.55,7.99-8.29Z"/>
  <g>
    <line class="cls-2" x1="42.18" y1="45.55" x2="40.08" y2="43.45"/>
    <line class="cls-2" x1="45.47" y1="42.25" x2="43.37" y2="40.15"/>
  </g>
</svg>