<svg width="64" height="64" viewBox="0 0 64 64" fill="none" xmlns="http://www.w3.org/2000/svg">
<g clip-path="url(#clip0_7075_8817)">
<path fill-rule="evenodd" clip-rule="evenodd" d="M16.1707 31.7195C16.1707 30.532 17.3151 29.7258 18.495 29.7258H33.8233C35.0151 29.7258 36.1476 30.5336 36.1476 31.7195V39.9247H35.1458V31.7195C35.1458 31.2624 34.6553 30.7277 33.8233 30.7277H18.495C17.6711 30.7277 17.1725 31.264 17.1725 31.7195V43.331C17.1725 43.7882 17.663 44.3229 18.495 44.3229H34.4645V45.3247H18.495C17.3032 45.3247 16.1707 44.5169 16.1707 43.331V31.7195Z" fill="black"/>
<path fill-rule="evenodd" clip-rule="evenodd" d="M26.0189 4.99512L27.7822 6.64587L27.7902 6.65405C31.2018 10.1531 36.6129 12.5907 44.9777 14.1859L44.9821 14.1867L46.9878 14.5879V32.6312H45.9859V15.4092L44.79 15.17L44.7878 15.1696C36.349 13.56 30.7023 11.0711 27.0809 7.36169L26.0189 6.36748L24.9569 7.36167C21.3569 11.0491 15.7556 13.5306 7.39941 15.141L7.35086 15.1895L6.00186 15.4593V35.6969C6.00186 43.1392 10.1404 49.7683 16.8332 53.0707L25.3291 57.2686L25.3313 57.2696L25.9334 57.5707L26.6699 57.2178L26.6741 57.2158L30.8978 55.144L32.6017 54.312L33.0413 55.2123L31.339 56.0435L27.1111 58.1173L27.107 58.1193L25.9241 58.6861L24.8853 58.1668L24.8832 58.1657L16.3898 53.9691C9.35715 50.499 5 43.5228 5 35.6969V14.638L6.85693 14.2666L6.90876 14.2148L7.06015 14.1859C15.425 12.5907 20.836 10.1531 24.2476 6.65405L24.2556 6.64587L26.0189 4.99512Z" fill="black"/>
<path d="M58.4991 39.8846V46.0961H40.2353V50.8449L32.5611 43.1707L40.2353 35.4965V39.8846H58.4991Z" fill="#FFBF00"/>
<path fill-rule="evenodd" clip-rule="evenodd" d="M40.7362 34.2872V39.3837H59.0001V46.5971H40.7362V52.0543L31.8527 43.1707L40.7362 34.2872ZM33.2695 43.1707L39.7344 49.6356V45.5952H57.9982V40.3856H39.7344V36.7059L33.2695 43.1707Z" fill="black"/>
<path fill-rule="evenodd" clip-rule="evenodd" d="M25.488 18.5251C21.9015 18.5251 19.1062 21.4424 19.1062 25.0572V29.5154H20.1481V25.0572C20.1481 22.045 22.4471 19.567 25.488 19.567H26.9106C29.9522 19.567 32.2505 22.0557 32.2505 25.0572V29.4954H33.2924V25.0572C33.2924 21.4424 30.4971 18.5251 26.9106 18.5251H25.488ZM18.1043 25.0572C18.1043 20.9176 21.3201 17.5232 25.488 17.5232H26.9106C31.0785 17.5232 34.2943 20.9176 34.2943 25.0572V29.9963C34.2943 30.273 34.07 30.4973 33.7934 30.4973H31.7496C31.4729 30.4973 31.2487 30.273 31.2487 29.9963V25.0572C31.2487 22.5685 29.3592 20.5689 26.9106 20.5689H25.488C23.0387 20.5689 21.15 22.5592 21.15 25.0572V30.0164C21.15 30.293 20.9257 30.5173 20.649 30.5173H18.6052C18.3286 30.5173 18.1043 30.293 18.1043 30.0164V25.0572Z" fill="black"/>
</g>
<defs>
<clipPath id="clip0_7075_8817">
<rect width="54" height="53.6894" fill="white" transform="translate(5 5)"/>
</clipPath>
</defs>
</svg>
