<?xml version="1.0" encoding="utf-8"?>
<!-- Generator: Adobe Illustrator 27.7.0, SVG Export Plug-In . SVG Version: 6.00 Build 0)  -->
<svg version="1.1" id="Layer_1" xmlns="http://www.w3.org/2000/svg" xmlns:xlink="http://www.w3.org/1999/xlink" x="0px" y="0px"
	 viewBox="0 0 64 64" style="enable-background:new 0 0 64 64;" xml:space="preserve">
<style type="text/css">
	.st0{fill:#FFC612;stroke:#FFFFFF;stroke-miterlimit:10;}
	.st1{fill:none;stroke:#FFFFFF;stroke-miterlimit:10;}
</style>
<path class="st0" d="M9.9,32.7c0,7.7,3.6,14.7,10.4,20.2c5,4,9.9,5.8,10.1,5.9l0.5,0.2h2.7l0.5-0.2c0.2-0.1,5.2-1.9,10.1-5.9
	c6.8-5.5,10.3-12.4,10.4-20.2c0-9.5,1.2-12.5,1.6-13.1l2.3-1.9l-2.5-2.2c-0.4-0.4-10.3-9-22.9-9h-1.7c-12.5,0-22.5,8.7-22.9,9
	L6,17.7l2.3,1.9C8.7,20.2,9.9,23.2,9.9,32.7L9.9,32.7z M31.4,10.1H33c11.2,0,20.2,8,20.2,8S51,19.9,51,32.7c0,16.2-18,22.6-18,22.6
	h-1.6c0,0-18-6.4-18-22.6c0-12.8-2.3-14.6-2.3-14.6S20.2,10.1,31.4,10.1L31.4,10.1z"/>
<line class="st1" x1="32.2" y1="55.3" x2="32.2" y2="10.2"/>
</svg>
