<svg width="64" height="64" viewBox="0 0 64 64" fill="none" xmlns="http://www.w3.org/2000/svg">
<path d="M42.1722 19.8303V27.743H45.7576V19.103C45.7576 12.3467 40.4832 6.84848 33.6857 6.84848H31.1962C24.3988 6.84848 19.1244 12.3467 19.1244 19.103V27.7164H22.7098V19.103C22.7098 14.3103 26.3758 10.4097 31.1962 10.4097H33.6857C38.5062 10.4097 42.1722 14.3103 42.1722 19.103V19.8303Z" stroke="white" stroke-linecap="round" stroke-linejoin="round"/>
<path fill-rule="evenodd" clip-rule="evenodd" d="M45.742 26.8696H18.8453C17.0782 26.8696 15.6479 28.0308 15.6479 29.4659V49.7059C15.6479 51.1411 17.0782 52.3047 18.8453 52.3047H45.742C47.5091 52.3047 48.9394 51.1411 48.9394 49.7059V29.4659C48.9394 28.0332 47.5091 26.8696 45.742 26.8696ZM32.2937 32.409C30.2459 32.409 28.5837 34.0599 28.5837 36.0938H28.5813C28.5813 37.4465 29.3184 38.6271 30.4143 39.2671L29.2281 48.1083H35.3568L34.1706 39.2671C35.2665 38.6271 36.0036 37.4465 36.0036 36.0938C36.0036 34.0599 34.3414 32.409 32.2937 32.409Z" fill="#FFC000"/>
<path d="M28.5837 36.0938H29.0837C29.0837 36.3699 28.8599 36.5938 28.5837 36.5938V36.0938ZM28.5813 36.0938H28.0813C28.0813 35.8177 28.3052 35.5938 28.5813 35.5938V36.0938ZM30.4143 39.2671L30.6664 38.8354C30.8407 38.9371 30.9367 39.1336 30.9099 39.3336L30.4143 39.2671ZM29.2281 48.1083V48.6083C29.0839 48.6083 28.9467 48.5461 28.8518 48.4376C28.7568 48.329 28.7134 48.1848 28.7325 48.0419L29.2281 48.1083ZM35.3568 48.1083L35.8523 48.0419C35.8715 48.1848 35.828 48.329 35.7331 48.4376C35.6381 48.5461 35.501 48.6083 35.3568 48.6083V48.1083ZM34.1706 39.2671L33.675 39.3336C33.6482 39.1336 33.7442 38.9371 33.9184 38.8354L34.1706 39.2671ZM18.8453 26.3696H45.742V27.3696H18.8453V26.3696ZM15.1479 29.4659C15.1479 27.6624 16.9044 26.3696 18.8453 26.3696V27.3696C17.252 27.3696 16.1479 28.3992 16.1479 29.4659H15.1479ZM15.1479 49.7059V29.4659H16.1479V49.7059H15.1479ZM18.8453 52.8047C16.9037 52.8047 15.1479 51.509 15.1479 49.7059H16.1479C16.1479 50.7732 17.2526 51.8047 18.8453 51.8047V52.8047ZM45.742 52.8047H18.8453V51.8047H45.742V52.8047ZM49.4394 49.7059C49.4394 51.509 47.6836 52.8047 45.742 52.8047V51.8047C47.3347 51.8047 48.4394 50.7732 48.4394 49.7059H49.4394ZM49.4394 29.4659V49.7059H48.4394V29.4659H49.4394ZM45.742 26.3696C47.6833 26.3696 49.4394 27.6651 49.4394 29.4659H48.4394C48.4394 28.4013 47.335 27.3696 45.742 27.3696V26.3696ZM28.0837 36.0938C28.0837 33.7805 29.9729 31.909 32.2937 31.909V32.909C30.5188 32.909 29.0837 34.3392 29.0837 36.0938H28.0837ZM28.5813 35.5938H28.5837V36.5938H28.5813V35.5938ZM30.1621 39.6989C28.9209 38.974 28.0813 37.6335 28.0813 36.0938H29.0813C29.0813 37.2596 29.7159 38.2803 30.6664 38.8354L30.1621 39.6989ZM28.7325 48.0419L29.9187 39.2006L30.9099 39.3336L29.7237 48.1748L28.7325 48.0419ZM35.3568 48.6083H29.2281V47.6083H35.3568V48.6083ZM34.6661 39.2006L35.8523 48.0419L34.8612 48.1748L33.675 39.3336L34.6661 39.2006ZM36.5036 36.0938C36.5036 37.6335 35.664 38.974 34.4227 39.6989L33.9184 38.8354C34.869 38.2803 35.5036 37.2596 35.5036 36.0938H36.5036ZM32.2937 31.909C34.6144 31.909 36.5036 33.7805 36.5036 36.0938H35.5036C35.5036 34.3392 34.0685 32.909 32.2937 32.909V31.909Z" fill="white"/>
</svg>
