<svg width="64" height="64" viewBox="0 0 64 64" fill="none" xmlns="http://www.w3.org/2000/svg">
<path d="M16.4448 17.9064C23.8294 16.5017 28.6856 14.3344 31.7759 11.1639L33.0201 10L34.2642 11.1639C37.3545 14.3344 42.2107 16.5017 49.5953 17.9064L51 18.1873V36.3679C51 43.0702 47.2676 49.0502 41.2475 52.0201L33.7826 55.6722L32.9398 56.0736L32.2174 55.7124L24.7525 52.0201C18.7324 49.0502 15 43.0702 15 36.3679V18.2274L16.4047 17.9465L16.4448 17.9064Z" stroke="black" stroke-miterlimit="10"/>
<path d="M31.7759 11.1639C28.6856 14.3344 23.8294 16.5017 16.4448 17.9064L16.4047 17.9465L15 18.2274V36.3679C15 43.0702 18.7324 49.0502 24.7525 52.0201L32.2174 55.7124L32.9398 56.0736L33.0201 10L31.7759 11.1639Z" fill="#FFC000" stroke="black" stroke-miterlimit="10" stroke-linejoin="bevel"/>
<path d="M32.9375 55.4922L33.0625 10.4922" stroke="black" stroke-miterlimit="10"/>
</svg>
