<?xml version="1.0" encoding="UTF-8"?>
<svg id="Layer_1" data-name="Layer 1" xmlns="http://www.w3.org/2000/svg" viewBox="0 0 64 64">
  <defs>
    <style>
      .cls-1 {
        fill: #fff;
      }

      .cls-1, .cls-2 {
        stroke: #000;
        stroke-miterlimit: 10;
      }

      .cls-2 {
        fill: #ffc612;
      }
    </style>
  </defs>
  <path class="cls-2" d="m9.89,32.67c.01,7.74,3.59,14.72,10.36,20.18,4.98,4.02,9.94,5.81,10.15,5.88l.48.17h2.69l.48-.17c.21-.07,5.17-1.86,10.15-5.88,6.77-5.46,10.35-12.44,10.36-20.18.01-9.52,1.24-12.49,1.56-13.1l2.32-1.86-2.49-2.21c-.42-.37-10.35-9.04-22.89-9.04h-1.66c-12.54,0-22.48,8.67-22.89,9.04l-2.49,2.21,2.32,1.86c.32.61,1.55,3.59,1.56,13.1ZM31.42,10.07h1.61c11.19,0,20.25,8.03,20.25,8.03,0,0-2.25,1.8-2.27,14.57-.02,16.24-17.99,22.63-17.99,22.63h-1.61s-17.96-6.38-17.99-22.63c-.02-12.77-2.27-14.57-2.27-14.57,0,0,9.07-8.03,20.25-8.03Z"/>
  <line class="cls-1" x1="32.22" y1="55.3" x2="32.19" y2="10.15"/>
</svg>