<svg width="64" height="64" viewBox="0 0 64 64" fill="none" xmlns="http://www.w3.org/2000/svg">
<path d="M16.4448 18.9064C23.8294 17.5017 28.6856 15.3344 31.7759 12.1639L33.0201 11L34.2642 12.1639C37.3545 15.3344 42.2107 17.5017 49.5953 18.9064L51 19.1873V37.3679C51 44.0702 47.2676 50.0502 41.2475 53.0201L33.7826 56.6722L32.9398 57.0736L32.2174 56.7124L24.7525 53.0201C18.7324 50.0502 15 44.0702 15 37.3679V19.2274L16.4047 18.9465L16.4448 18.9064Z" stroke="white" stroke-miterlimit="10"/>
<path d="M31.7759 12.1639C28.6856 15.3344 23.8294 17.5017 16.4448 18.9064L16.4047 18.9465L15 19.2274V37.3679C15 44.0702 18.7324 50.0502 24.7525 53.0201L32.2174 56.7124L32.9398 57.0736L33.0201 11L31.7759 12.1639Z" fill="#FFC000" stroke="white" stroke-miterlimit="10" stroke-linejoin="bevel"/>
<path d="M32.9375 56.4922L33.0625 11.4922" stroke="black" stroke-miterlimit="10"/>
</svg>
