<svg width="64" height="64" viewBox="0 0 64 64" fill="none" xmlns="http://www.w3.org/2000/svg">
<path d="M35.3532 13.7437L39.4826 8C40.9444 8.45226 42.3611 9.05528 43.6873 9.74874L42.5419 16.7136C44.3956 17.995 46.0082 19.608 47.2892 21.4623L54.2518 20.3166C54.9601 21.6583 55.5479 23.0603 56 24.5226L50.2581 28.6533C50.454 29.7387 50.5595 30.8543 50.5595 32C50.5595 33.1457 50.454 34.2613 50.2581 35.3467L56 39.4774C55.5479 40.9397 54.9451 42.3568 54.2518 43.6834L47.2892 42.5377C46.0082 44.392 44.3956 46.005 42.5419 47.2864L43.6873 54.2513C42.346 54.9598 40.9444 55.5477 39.4826 56L35.3532 50.2563C34.2681 50.4523 33.1529 50.5578 32.0075 50.5578C30.8622 50.5578 29.7469 50.4523 28.6619 50.2563L24.5325 56C23.0706 55.5477 21.654 54.9447 20.3278 54.2513L21.4732 47.2864C19.6195 46.005 18.0069 44.392 16.7259 42.5377L9.76327 43.6834C9.05495 42.3417 8.46719 40.9397 8.01507 39.4774L13.757 35.3467C13.5611 34.2613 13.4556 33.1457 13.4556 32C13.4556 30.8543 13.5611 29.7387 13.757 28.6533L8 24.5377C8.45212 23.0754 9.05495 21.6583 9.74819 20.3317L16.7108 21.4774C17.9918 19.6231 19.6044 18.0101 21.4581 16.7286L20.3127 9.76382C21.654 9.05528 23.0556 8.46734 24.5174 8.01508L28.6468 13.7588C29.7319 13.5628 30.8471 13.4573 31.9925 13.4573C33.1378 13.4573 34.2531 13.5628 35.3381 13.7588L35.3532 13.7437Z" stroke="black" stroke-miterlimit="10"/>
<path d="M32 40C36.9706 40 41 35.9706 41 31C41 26.0294 36.9706 22 32 22C27.0294 22 23 26.0294 23 31C23 35.9706 27.0294 40 32 40Z" stroke="black" stroke-miterlimit="10"/>
<path d="M32.1194 26.1478C34.4308 26.2372 35.8027 28.5188 34.8334 30.6811C34.5054 31.4117 34.0282 32.0082 33.3124 32.3959C32.5072 32.8433 31.687 32.8582 30.8668 32.4258C29.4203 31.6653 28.6449 29.7267 29.1668 28.2206C29.5993 26.9828 30.8519 26.103 32.1194 26.1627V26.1478Z" fill="#FFC000" stroke="black" stroke-miterlimit="10"/>
<path d="M34.3818 34.2513C34.2625 34.2215 34.1879 34.2513 34.0835 34.311C32.8011 35.1759 31.0116 35.1759 29.7292 34.311C29.6248 34.2364 29.5353 34.2215 29.416 34.2513C27.716 34.6092 26.4336 35.9961 26.195 37.711C27.5669 39.3364 29.6248 40.3653 31.9063 40.3653C34.1879 40.3653 36.2458 39.3364 37.6177 37.711C37.3194 35.9066 36.1375 34.5943 34.4375 34.2513H34.3818Z" fill="#FFC000" stroke="black" stroke-miterlimit="10"/>
</svg>
