<?xml version="1.0" encoding="utf-8"?>
<!-- Generator: Adobe Illustrator 27.7.0, SVG Export Plug-In . SVG Version: 6.00 Build 0)  -->
<svg version="1.1" id="Layer_1" xmlns="http://www.w3.org/2000/svg" xmlns:xlink="http://www.w3.org/1999/xlink" x="0px" y="0px"
	 viewBox="0 0 64 64" style="enable-background:new 0 0 64 64;" xml:space="preserve">
<style type="text/css">
	.st0{fill:#FFC612;stroke:#FFFFFF;stroke-miterlimit:10;}
	.st1{fill:none;stroke:#FFFFFF;stroke-miterlimit:10;}
</style>
<path class="st0" d="M39.6,35.4v-22c0-3.3-2.7-5.9-6.1-5.9h-2.6c-3.4,0-6.1,2.7-6.1,5.9v22c-3,2.2-4.9,5.7-4.9,9.5
	c0,6.6,5.5,11.9,12.2,11.9s12.2-5.3,12.2-11.9C44.4,41.1,42.6,37.6,39.6,35.4L39.6,35.4z M32.2,54.6c-5.5,0-10-4.3-10-9.7
	c0-3,1.5-5.9,4-7.7l0.9-0.7V24.3h10.4v12.2l0.9,0.7c2.5,1.8,4,4.7,4,7.7C42.2,50.2,37.7,54.6,32.2,54.6L32.2,54.6z"/>
<line class="st1" x1="31.1" y1="33.8" x2="39.7" y2="33.8"/>
<line class="st1" x1="31.1" y1="27.5" x2="39.7" y2="27.5"/>
<line class="st1" x1="31.1" y1="21.3" x2="39.7" y2="21.3"/>
<line class="st1" x1="31.1" y1="15" x2="39.7" y2="15"/>
</svg>
