<?xml version="1.0" encoding="UTF-8"?>
<svg id="Layer_1" data-name="Layer 1" xmlns="http://www.w3.org/2000/svg" viewBox="0 0 64 64">
  <defs>
    <style>
      .cls-1 {
        fill: #fff;
      }

      .cls-1, .cls-2 {
        stroke: #000;
        stroke-miterlimit: 10;
      }

      .cls-2 {
        fill: #ffc612;
      }
    </style>
  </defs>
  <path class="cls-2" d="m39.58,35.39V13.35c0-3.26-2.73-5.92-6.08-5.92h-2.57c-3.35,0-6.08,2.65-6.08,5.92v22.04c-3.03,2.23-4.85,5.74-4.85,9.48,0,6.56,5.48,11.89,12.22,11.89s12.22-5.33,12.22-11.89c0-3.74-1.83-7.25-4.85-9.48Zm-7.37,19.18c-5.53,0-10.03-4.35-10.03-9.7,0-3.01,1.48-5.89,3.96-7.72l.89-.66v-12.19h10.35v12.19l.89.66c2.48,1.83,3.96,4.71,3.96,7.72,0,5.35-4.5,9.7-10.03,9.7Z"/>
  <line class="cls-1" x1="31.15" y1="33.77" x2="39.65" y2="33.77"/>
  <line class="cls-1" x1="31.15" y1="27.51" x2="39.65" y2="27.51"/>
  <line class="cls-1" x1="31.15" y1="21.25" x2="39.65" y2="21.25"/>
  <line class="cls-1" x1="31.15" y1="14.98" x2="39.65" y2="14.98"/>
</svg>