<?xml version="1.0" encoding="UTF-8"?>
<svg id="Layer_1" data-name="Layer 1" xmlns="http://www.w3.org/2000/svg" viewBox="0 0 64 64">
  <defs>
    <style>
      .cls-1 {
        fill: #ffc716;
      }

      .cls-2 {
        fill: none;
        stroke: #000;
        stroke-miterlimit: 10;
      }
    </style>
  </defs>
  <path class="cls-1" d="m36.67,39.84s7.83-8.6,8.27-9,2.98-2.34,3.73-2.34,5.26,1.02,6.94,1.68c1.68.66,2.39,3.22,2.39,3.22,0,0,1.17,6.07-2.97,9.07s-7.37,2.49-7.37,2.49c0,0,2.67.12-2.44-.72s-8.54-4.41-8.54-4.41Z"/>
  <path class="cls-2" d="m30.93,31.82c5.55,10.53,13.62,12.89,17.8,12.89,5.56,0,9.27-4.04,9.27-8.94,0-4.31-2.81-7.42-8-7.19-4.33.19-7.17,4.52-9.22,6.86-2.86,3.26-6.57,5.43-11.23,7.57-4.65,2.15-13.62,1.58-13.62,1.58-6.01,0-9.5-3.6-9.5-8.14,0-3.77,2.74-7.56,6.45-8.18.97-.16,1.69-1.01,1.7-1.99,0-3.45,1.46-5.57,3.41-6.74,1.95-1.17,4.45-1.31,6.53-.28,1,.51,2.23.11,2.74-.89,1.72-3.43,5.38-6.34,10.39-6.34,7.25,0,12.24,6.55,11.6,12.87"/>
  <polygon points="29.34 32.81 28.67 27.81 32.66 31.03 29.34 32.81"/>
</svg>