<?xml version="1.0" encoding="utf-8"?>
<!-- Generator: Adobe Illustrator 27.7.0, SVG Export Plug-In . SVG Version: 6.00 Build 0)  -->
<svg version="1.1" id="Layer_1" xmlns="http://www.w3.org/2000/svg" xmlns:xlink="http://www.w3.org/1999/xlink" x="0px" y="0px"
	 viewBox="0 0 64 64" style="enable-background:new 0 0 64 64;" xml:space="preserve">
<style type="text/css">
	.st0{fill:#FFC716;}
	.st1{fill:none;stroke:#FFFFFF;stroke-miterlimit:10;}
	.st2{fill:#FFFFFF;}
</style>
<path class="st0" d="M36.7,39.8c0,0,7.8-8.6,8.3-9s3-2.3,3.7-2.3s5.3,1,6.9,1.7c1.7,0.7,2.4,3.2,2.4,3.2s1.2,6.1-3,9.1
	S47.7,45,47.7,45s2.7,0.1-2.4-0.7S36.7,39.8,36.7,39.8L36.7,39.8z"/>
<path class="st1" d="M30.9,31.8c5.5,10.5,13.6,12.9,17.8,12.9c5.6,0,9.3-4,9.3-8.9c0-4.3-2.8-7.4-8-7.2c-4.3,0.2-7.2,4.5-9.2,6.9
	c-2.9,3.3-6.6,5.4-11.2,7.6c-4.6,2.2-13.6,1.6-13.6,1.6c-6,0-9.5-3.6-9.5-8.1c0-3.8,2.7-7.6,6.4-8.2c1-0.2,1.7-1,1.7-2
	c0-3.5,1.5-5.6,3.4-6.7s4.4-1.3,6.5-0.3c1,0.5,2.2,0.1,2.7-0.9C29,14.9,32.6,12,37.7,12c7.2,0,12.2,6.6,11.6,12.9"/>
<polygon class="st2" points="29.3,32.8 28.7,27.8 32.7,31 "/>
</svg>
