<?xml version="1.0" encoding="utf-8"?>
<!-- Generator: Adobe Illustrator 27.7.0, SVG Export Plug-In . SVG Version: 6.00 Build 0)  -->
<svg version="1.1" id="Layer_1" xmlns="http://www.w3.org/2000/svg" xmlns:xlink="http://www.w3.org/1999/xlink" x="0px" y="0px"
	 viewBox="0 0 64 64" style="enable-background:new 0 0 64 64;" xml:space="preserve">
<style type="text/css">
	.st0{fill:#FFC612;}
	.st1{fill:#FFC612;stroke:#FFFFFF;stroke-width:0.99;stroke-miterlimit:10;}
	.st2{fill-rule:evenodd;clip-rule:evenodd;fill:#FFC612;stroke:#FFFFFF;stroke-miterlimit:10;}
	.st3{fill:none;stroke:#FFFFFF;stroke-linecap:round;stroke-miterlimit:10;}
</style>
<g>
	<path class="st0" d="M45.2,15.6c0.8,0,1.5-0.7,1.5-1.5s-0.7-1.6-1.5-1.6s-1.5,0.7-1.5,1.6S44.3,15.6,45.2,15.6z"/>
	<path class="st0" d="M45.2,29.2c0.8,0,1.5-0.7,1.5-1.5s-0.7-1.5-1.5-1.5s-1.5,0.7-1.5,1.5S44.3,29.2,45.2,29.2z"/>
	<path class="st0" d="M45.2,42.8c0.8,0,1.5-0.7,1.5-1.5s-0.7-1.5-1.5-1.5s-1.5,0.7-1.5,1.5S44.3,42.8,45.2,42.8z"/>
	<path class="st1" d="M8.8,6.1v43.4h44.8V6.1H8.8z M50.6,46.2H11.9V35.9h38.7L50.6,46.2L50.6,46.2z M50.6,32.8H11.9V22.5h38.7
		L50.6,32.8L50.6,32.8z M50.6,19.5H11.9V9.1h38.7L50.6,19.5L50.6,19.5z"/>
</g>
<path class="st2" d="M31.2,54.2c1.4,0,2.6,1.2,2.6,2.6s-1.2,2.6-2.6,2.6s-2.6-1.2-2.6-2.6S29.8,54.2,31.2,54.2
	C31.2,54.2,31.2,54.2,31.2,54.2z"/>
<line class="st3" x1="21.4" y1="56.7" x2="28.5" y2="56.7"/>
<line class="st3" x1="34.3" y1="56.7" x2="41.3" y2="56.7"/>
<line class="st3" x1="31.2" y1="50" x2="31.2" y2="54.1"/>
</svg>
