<?xml version="1.0" encoding="UTF-8"?>
<svg id="Layer_1" data-name="Layer 1" xmlns="http://www.w3.org/2000/svg" viewBox="0 0 64 64">
  <defs>
    <style>
      .cls-1, .cls-2, .cls-3 {
        fill: #ffc612;
      }

      .cls-2 {
        fill-rule: evenodd;
      }

      .cls-2, .cls-3, .cls-4 {
        stroke: #000;
        stroke-miterlimit: 10;
      }

      .cls-3 {
        stroke-width: .99px;
      }

      .cls-4 {
        fill: #fff;
        stroke-linecap: round;
      }
    </style>
  </defs>
  <g>
    <path class="cls-1" d="m45.16,15.63c.85,0,1.54-.69,1.54-1.54s-.69-1.55-1.54-1.55-1.54.69-1.54,1.55.69,1.54,1.54,1.54Z"/>
    <path class="cls-1" d="m45.16,29.2c.85,0,1.54-.69,1.54-1.54s-.69-1.55-1.54-1.55-1.54.69-1.54,1.55.69,1.54,1.54,1.54Z"/>
    <path class="cls-1" d="m45.16,42.77c.85,0,1.54-.69,1.54-1.54s-.69-1.55-1.54-1.55-1.54.69-1.54,1.55.69,1.54,1.54,1.54Z"/>
    <path class="cls-3" d="m8.83,6.1v43.39h44.77V6.1H8.83Zm41.74,40.09H11.87v-10.32h38.71v10.32Zm0-13.37H11.87v-10.32h38.71v10.32Zm0-13.37H11.87v-10.32h38.71v10.32Z"/>
  </g>
  <path class="cls-2" d="m31.22,54.15c1.43,0,2.59,1.16,2.59,2.59s-1.16,2.59-2.59,2.59-2.59-1.16-2.59-2.59,1.16-2.59,2.59-2.59h0Z"/>
  <line class="cls-4" x1="21.44" y1="56.7" x2="28.45" y2="56.7"/>
  <line class="cls-4" x1="34.28" y1="56.7" x2="41.29" y2="56.7"/>
  <line class="cls-4" x1="31.22" y1="49.99" x2="31.22" y2="54.07"/>
</svg>