<svg width="64" height="64" viewBox="0 0 64 64" fill="none" xmlns="http://www.w3.org/2000/svg">
<path d="M30.5433 21.6298C30.5033 20.8398 30.3633 20.0698 30.1233 19.3398C28.9833 15.8498 25.7033 13.3398 21.8333 13.3398C17.0133 13.3398 13.1133 17.2498 13.1133 22.0598C13.1133 26.2098 16.0133 29.6798 19.8933 30.5698L22.1533 21.8198L30.5533 21.6298H30.5433Z" fill="#FFC000"/>
<path fill-rule="evenodd" clip-rule="evenodd" d="M22.5178 5.21464L22.3735 10.1646L21.3426 10.1346L21.487 5.18457L22.5178 5.21464ZM30.1524 13.8042L33.7514 10.4114L33.0441 9.66098L29.445 13.0538L30.1524 13.8042ZM12.4324 21.9884C12.4324 16.7437 16.6847 12.4802 21.9405 12.4802C26.1599 12.4802 29.7362 15.2172 30.9795 19.0226C31.212 19.7297 31.358 20.4691 31.4185 21.2253H45.9074L45.9203 21.1701L46.1569 21.2253H59.4233L56.5997 33.6098L56.5945 34.0334L56.5034 34.0322L53.3409 47.9037H40.8743V57.9687H51.8468V59H21.7549V57.9687H32.6862V47.9037H15.0691L19.3356 31.1409C15.3536 30.0011 12.4324 26.3383 12.4324 21.9884ZM22.6699 22.2565L22.0619 24.6106L20.0421 32.5463L31.0996 32.6841L33.534 22.2565H22.6699ZM30.3653 21.042L22.2647 21.2253H21.8594L21.0629 24.3546L19.5699 30.1352C16.0431 29.1024 13.4636 25.8467 13.4636 21.9884C13.4636 17.3124 17.2551 13.5115 21.9405 13.5115C25.7028 13.5115 28.8917 15.952 29.9998 19.3444C30.1787 19.8886 30.3008 20.4574 30.3653 21.042ZM40.9891 46.8725H52.5183L55.4487 34.0191L44.0178 33.8765L40.9891 46.8725ZM44.2575 32.8482L55.6832 32.9907L58.1304 22.2565H46.726L44.2575 32.8482ZM45.6671 22.2565L43.2017 32.835L32.1555 32.6973L34.593 22.2565H45.6671ZM42.962 33.8634L39.9302 46.8725H28.8463L31.9155 33.7256L42.962 33.8634ZM19.7804 33.5743L30.8596 33.7125L27.7873 46.8725H16.3957L19.7804 33.5743ZM33.7174 47.9037H39.843V57.9687H33.7174V47.9037ZM13.9208 13.281L10.5177 9.68191L9.76835 10.3904L13.1715 13.9895L13.9208 13.281ZM5.20804 21.1533L10.1581 21.2977L10.128 22.3285L5.17798 22.1841L5.20804 21.1533ZM13.3878 29.379L9.78874 32.7822L10.4973 33.5315L14.0963 30.1284L13.3878 29.379Z" fill="black"/>
</svg>
