<svg width="64" height="64" viewBox="0 0 64 64" fill="none" xmlns="http://www.w3.org/2000/svg">
<g clip-path="url(#clip0_7075_8270)">
<circle cx="31.7197" cy="32.7197" r="12.0293" fill="#FFC000"/>
<path d="M25.1089 18.4518C25.4227 18.3053 25.747 18.1798 26.0712 18.0543L23.7177 12.3639C23.6026 12.1024 23.2993 11.9664 23.0377 12.0815C22.7762 12.1966 22.6403 12.4999 22.7553 12.7614L25.1089 18.4518Z" fill="black"/>
<path d="M37.8808 46.5481C37.567 46.6945 37.2427 46.8201 36.9185 46.9456L39.272 52.636C39.3557 52.8347 39.5544 52.9602 39.7532 52.9602C39.8159 52.9602 39.8892 52.9498 39.9519 52.9184C40.2134 52.8033 40.3494 52.5 40.2344 52.2385L37.8808 46.5481Z" fill="black"/>
<path d="M11.3639 24.7177L17.0543 27.0712C17.1798 26.747 17.3053 26.4227 17.4518 26.1089L11.7614 23.7553C11.4999 23.6403 11.1861 23.7762 11.0815 24.0377C10.9664 24.2993 11.1024 24.6131 11.3639 24.7177Z" fill="black"/>
<path d="M51.636 40.272L45.9456 37.9185C45.8201 38.2427 45.6945 38.567 45.5481 38.8808L51.2385 41.2344C51.3012 41.2657 51.3745 41.2762 51.4372 41.2762C51.6464 41.2762 51.8347 41.1507 51.9184 40.9519C52.0335 40.6904 51.8975 40.3766 51.636 40.272Z" fill="black"/>
<path d="M45.9456 27.0815L51.636 24.7279C51.8975 24.6129 52.0335 24.3095 51.9184 24.048C51.8033 23.7865 51.5104 23.6505 51.2385 23.7656L45.5481 26.1191C45.6945 26.4329 45.8201 26.7572 45.9456 27.0815Z" fill="black"/>
<path d="M17.0543 37.9185L11.3639 40.272C11.1024 40.3871 10.9664 40.6904 11.0815 40.9519C11.1652 41.1507 11.3639 41.2762 11.5627 41.2762C11.6254 41.2762 11.6986 41.2657 11.7614 41.2344L17.4518 38.8808C17.3053 38.567 17.1798 38.2427 17.0543 37.9185Z" fill="black"/>
<path d="M40.2449 12.7614C40.3599 12.4999 40.2239 12.1861 39.9624 12.0815C39.7009 11.9664 39.3871 12.0919 39.2825 12.3639L36.929 18.0543C37.2532 18.1798 37.5775 18.3053 37.8913 18.4518L40.2449 12.7614Z" fill="black"/>
<path d="M22.7553 52.2385C22.6403 52.5 22.7762 52.8138 23.0377 52.9184C23.1005 52.9498 23.1737 52.9602 23.2365 52.9602C23.4457 52.9602 23.634 52.8347 23.7177 52.636L26.0712 46.9456C25.747 46.8201 25.4227 46.6945 25.1089 46.5481L22.7553 52.2385Z" fill="black"/>
<path d="M32.0231 17.0816V5.52301C32.0231 5.23013 31.793 5 31.5001 5C31.2072 5 30.9771 5.23013 30.9771 5.52301V17.0816C31.1549 17.0816 31.3222 17.0502 31.5001 17.0502C31.6779 17.0502 31.8453 17.0711 32.0231 17.0816Z" fill="black"/>
<path d="M30.9771 47.9185V59.477C30.9771 59.7699 31.2072 60 31.5001 60C31.793 60 32.0231 59.7699 32.0231 59.477V47.9185C31.8453 47.9185 31.6779 47.9498 31.5001 47.9498C31.3222 47.9498 31.1549 47.9289 30.9771 47.9185Z" fill="black"/>
<path d="M20.2343 21.9665C20.4749 21.7154 20.7155 21.4644 20.977 21.2238L12.797 13.0439C12.5878 12.8347 12.2636 12.8347 12.0544 13.0439C11.8452 13.2531 11.8452 13.5773 12.0544 13.7865L20.2343 21.9665Z" fill="black"/>
<path d="M42.7656 43.0229C42.525 43.274 42.2845 43.525 42.0229 43.7656L50.2029 51.9455C50.3075 52.0501 50.4435 52.1024 50.569 52.1024C50.6945 52.1024 50.8409 52.0501 50.9351 51.9455C51.1443 51.7363 51.1443 51.4121 50.9351 51.2029L42.7552 43.0229H42.7656Z" fill="black"/>
<path d="M58.477 31.9771H46.9185C46.9185 32.1549 46.9498 32.3222 46.9498 32.5001C46.9498 32.6779 46.9289 32.8453 46.9185 33.0231H58.477C58.7699 33.0231 59 32.793 59 32.5001C59 32.2072 58.7699 31.9771 58.477 31.9771Z" fill="black"/>
<path d="M16.0502 32.5001C16.0502 32.3222 16.0711 32.1549 16.0816 31.9771H4.52301C4.23013 31.9771 4 32.2072 4 32.5001C4 32.793 4.23013 33.0231 4.52301 33.0231H16.0816C16.0816 32.8453 16.0502 32.6779 16.0502 32.5001Z" fill="black"/>
<path d="M50.9455 13.797C51.1548 13.5878 51.1548 13.2636 50.9455 13.0544C50.7363 12.8452 50.4121 12.8452 50.2029 13.0544L42.0229 21.2343C42.274 21.4749 42.525 21.7155 42.7656 21.977L50.9455 13.797Z" fill="black"/>
<path d="M12.0544 51.2029C11.8452 51.4121 11.8452 51.7363 12.0544 51.9455C12.159 52.0501 12.295 52.1024 12.4205 52.1024C12.546 52.1024 12.6924 52.0501 12.7866 51.9455L20.9665 43.7656C20.7155 43.525 20.4644 43.2845 20.2238 43.0229L12.0439 51.2029H12.0544Z" fill="black"/>
<path d="M43.3934 36.862C43.8327 35.659 44.1047 34.362 44.157 33.0231C44.157 32.8452 44.1883 32.6779 44.1883 32.5001C44.1883 32.3222 44.1674 32.1549 44.157 31.977C44.1047 30.6277 43.8431 29.3411 43.3934 28.1381C43.2678 27.8139 43.1423 27.4896 42.9959 27.1758C42.4415 25.9833 41.6988 24.885 40.8201 23.9226C40.5795 23.6611 40.339 23.4206 40.0775 23.18C39.1151 22.2908 38.0272 21.5586 36.8243 21.0042C36.5105 20.8578 36.1862 20.7218 35.862 20.6067C34.659 20.1674 33.3724 19.8954 32.0231 19.8431C31.8452 19.8431 31.6779 19.8118 31.5001 19.8118C31.3222 19.8118 31.1549 19.8327 30.977 19.8431C29.6277 19.8954 28.3411 20.157 27.1381 20.6067C26.8139 20.7323 26.4896 20.8578 26.1758 21.0042C24.9833 21.5586 23.885 22.3013 22.9226 23.18C22.6611 23.4206 22.4206 23.6611 22.18 23.9226C21.2908 24.885 20.5586 25.9729 20.0042 27.1758C19.8578 27.4896 19.7218 27.8139 19.6067 28.1381C19.1674 29.3411 18.8954 30.6277 18.8431 31.977C18.8431 32.1549 18.8118 32.3222 18.8118 32.5001C18.8118 32.6779 18.8327 32.8452 18.8431 33.0231C18.8954 34.3724 19.1674 35.659 19.6067 36.862C19.7323 37.1862 19.8578 37.5105 20.0042 37.8243C20.5586 39.0168 21.3013 40.1151 22.18 41.0775C22.4206 41.339 22.6611 41.5795 22.9226 41.8201C23.885 42.7093 24.9729 43.4415 26.1758 43.9959C26.4896 44.1423 26.8139 44.2783 27.1381 44.3934C28.3411 44.8327 29.6277 45.1047 30.977 45.157C31.1549 45.157 31.3222 45.1883 31.5001 45.1883C31.6779 45.1883 31.8452 45.1674 32.0231 45.157C33.362 45.1047 34.659 44.8431 35.862 44.3934C36.1862 44.2678 36.5105 44.1423 36.8243 43.9959C38.0168 43.4415 39.1151 42.6988 40.0775 41.8201C40.339 41.5795 40.5795 41.339 40.8201 41.0775C41.7093 40.1151 42.4415 39.0272 42.9959 37.8243C43.1423 37.5105 43.2783 37.1862 43.3934 36.862ZM42.0335 37.4268C41.5314 38.4938 40.8724 39.477 40.0775 40.3348C39.8369 40.5963 39.5963 40.8369 39.3348 41.0775C38.4666 41.862 37.4938 42.521 36.4268 43.0335C36.113 43.18 35.7888 43.316 35.4645 43.431C34.3871 43.8285 33.226 44.0586 32.0231 44.1109C31.8452 44.1109 31.6779 44.1423 31.5001 44.1423C31.3222 44.1423 31.1549 44.1214 30.977 44.1109C29.7741 44.0586 28.6235 43.818 27.5356 43.431C27.2113 43.316 26.8871 43.18 26.5733 43.0335C25.5063 42.5314 24.5231 41.8724 23.6653 41.0879C23.4038 40.8473 23.1632 40.6067 22.9226 40.3452C22.1381 39.4875 21.4791 38.5042 20.9666 37.4373C20.8201 37.1235 20.6842 36.7992 20.5691 36.4749C20.1716 35.3975 19.9415 34.2365 19.8892 33.0335C19.8892 32.8557 19.8578 32.6883 19.8578 32.5105C19.8578 32.3327 19.8787 32.1653 19.8892 31.9875C19.9415 30.7846 20.1821 29.6339 20.5691 28.5461C20.6842 28.2218 20.8201 27.8975 20.9666 27.5837C21.4687 26.5168 22.1277 25.5335 22.9226 24.6758C23.1632 24.4143 23.4038 24.1737 23.6653 23.9331C24.5231 23.1486 25.5063 22.4896 26.5733 21.977C26.8871 21.8306 27.2113 21.6946 27.5356 21.5796C28.613 21.1821 29.7741 20.9519 30.977 20.8996C31.1549 20.8996 31.3222 20.8683 31.5001 20.8683C31.6779 20.8683 31.8452 20.8892 32.0231 20.8996C33.226 20.9519 34.3766 21.1925 35.4645 21.5796C35.7888 21.6946 36.113 21.8306 36.4268 21.977C37.4938 22.4791 38.477 23.1381 39.3348 23.9331C39.5963 24.1737 39.8369 24.4143 40.0775 24.6758C40.862 25.5335 41.521 26.5168 42.0231 27.5837C42.1695 27.8975 42.3055 28.2218 42.4206 28.5461C42.818 29.6235 43.0482 30.7846 43.1005 31.9875C43.1005 32.1653 43.1318 32.3327 43.1318 32.5105C43.1318 32.6883 43.1109 32.8557 43.1005 33.0335C43.0482 34.2365 42.8076 35.3871 42.4206 36.4749C42.3055 36.7992 42.1695 37.1235 42.0231 37.4373L42.0335 37.4268Z" fill="black"/>
</g>
<defs>
<clipPath id="clip0_7075_8270">
<rect width="55" height="55" fill="white" transform="translate(4 5)"/>
</clipPath>
</defs>
</svg>
