<?xml version="1.0" encoding="utf-8"?>
<!-- Generator: Adobe Illustrator 27.7.0, SVG Export Plug-In . SVG Version: 6.00 Build 0)  -->
<svg version="1.1" id="Layer_1" xmlns="http://www.w3.org/2000/svg" xmlns:xlink="http://www.w3.org/1999/xlink" x="0px" y="0px"
	 viewBox="0 0 64 64" style="enable-background:new 0 0 64 64;" xml:space="preserve">
<style type="text/css">
	.st0{fill:none;stroke:#FFFFFF;stroke-miterlimit:10;}
	.st1{fill:#FFC612;stroke:#FFFFFF;stroke-miterlimit:10;}
	.st2{fill:#FFFFFF;}
</style>
<path class="st0" d="M45.8,17.5l3.1-3.5c0.7-0.7,1.8-0.7,2.5,0l1.3,1.4c0.7,0.7,0.7,1.8,0,2.5L50,20.9"/>
<line class="st0" x1="34" y1="8.7" x2="34" y2="12.8"/>
<line class="st0" x1="30.3" y1="12.8" x2="30.3" y2="8.7"/>
<path class="st1" d="M32.2,12.8c-13.1,0-23.8,10.6-23.8,23.8s10.6,23.8,23.8,23.8S56,49.7,56,36.6S45.3,12.8,32.2,12.8z M32.2,56.3
	c-10.9,0-19.7-8.8-19.7-19.7s8.8-19.7,19.7-19.7s19.7,8.8,19.7,19.7S43.1,56.3,32.2,56.3z"/>
<path class="st2" d="M36.3,4.8c0.4,0,0.7,0.3,0.7,0.7v1.9c0,0.4-0.3,0.7-0.7,0.7h-8.3c-0.4,0-0.7-0.3-0.7-0.7V5.6
	c0-0.4,0.3-0.7,0.7-0.7L36.3,4.8 M36.3,3.8h-8.3c-1,0-1.7,0.8-1.7,1.7v1.9c0,1,0.8,1.7,1.7,1.7h8.3c1,0,1.7-0.8,1.7-1.7V5.6
	C38.1,4.6,37.3,3.8,36.3,3.8C36.3,3.8,36.3,3.8,36.3,3.8z"/>
<line class="st0" x1="32.4" y1="20.9" x2="32.4" y2="35.5"/>
</svg>
