<?xml version="1.0" encoding="UTF-8"?>
<svg id="Layer_1" data-name="Layer 1" xmlns="http://www.w3.org/2000/svg" viewBox="0 0 64 64">
  <defs>
    <style>
      .cls-1 {
        fill: #ffc612;
      }

      .cls-1, .cls-2 {
        stroke: #000;
        stroke-miterlimit: 10;
      }

      .cls-2 {
        fill: none;
      }
    </style>
  </defs>
  <path class="cls-2" d="m45.82,17.45l3.1-3.47c.68-.68,1.79-.68,2.47,0l1.35,1.35c.68.68.68,1.79,0,2.47l-2.73,3.06"/>
  <line class="cls-2" x1="33.95" y1="8.65" x2="33.95" y2="12.75"/>
  <line class="cls-2" x1="30.27" y1="12.75" x2="30.27" y2="8.65"/>
  <path class="cls-1" d="m32.22,12.81c-13.13,0-23.78,10.65-23.78,23.78s10.65,23.78,23.78,23.78,23.78-10.65,23.78-23.78-10.65-23.78-23.78-23.78Zm0,43.46c-10.87,0-19.67-8.81-19.67-19.67s8.81-19.67,19.67-19.67,19.67,8.81,19.67,19.67-8.81,19.67-19.67,19.67Z"/>
  <path d="m36.35,4.82c.41,0,.74.33.74.74v1.91c0,.41-.33.74-.74.74h-8.27c-.41,0-.74-.33-.74-.74v-1.91c0-.41.33-.74.74-.74h8.27m0-1h-8.27c-.96,0-1.74.79-1.74,1.74v1.91c0,.96.79,1.74,1.74,1.74h8.27c.96,0,1.74-.79,1.74-1.74v-1.91c0-.96-.79-1.74-1.74-1.74h0Z"/>
  <line class="cls-2" x1="32.36" y1="20.85" x2="32.36" y2="35.5"/>
</svg>