<svg width="64" height="64" viewBox="0 0 64 64" fill="none" xmlns="http://www.w3.org/2000/svg">
<circle cx="32" cy="23" r="14" fill="#FFC000"/>
<path fill-rule="evenodd" clip-rule="evenodd" d="M31.94 10C24.6466 10 18.74 15.9157 18.74 23.21C18.74 30.5039 24.6561 36.42 31.95 36.42C39.0764 36.42 44.8877 30.7723 45.1507 23.71L45.15 23.21C45.15 15.9161 39.2338 10 31.94 10ZM46.1414 22.71C45.8778 15.0953 39.6188 9 31.94 9C24.0934 9 17.74 15.3643 17.74 23.21C17.74 31.0561 24.1038 37.42 31.95 37.42C39.7961 37.42 46.16 31.0561 46.16 23.21V22.71H46.1414Z" fill="black"/>
<path fill-rule="evenodd" clip-rule="evenodd" d="M44.83 28.28H19.06V27.28H44.83V28.28Z" fill="black"/>
<path fill-rule="evenodd" clip-rule="evenodd" d="M44.83 19.14H19.06V18.14H44.83V19.14Z" fill="black"/>
<path fill-rule="evenodd" clip-rule="evenodd" d="M28.796 13.6909C27.8967 16.1032 27.33 19.4689 27.33 23.21C27.33 26.9511 27.8967 30.3168 28.796 32.7291C29.2463 33.9371 29.7705 34.88 30.3271 35.5118C30.8844 36.1445 31.4307 36.42 31.94 36.42C32.4493 36.42 32.9956 36.1445 33.5529 35.5118C34.1095 34.88 34.6336 33.9371 35.084 32.7291C35.9833 30.3168 36.55 26.9511 36.55 23.21C36.55 19.4689 35.9833 16.1032 35.084 13.6909C34.6336 12.4829 34.1095 11.54 33.5529 10.9082C32.9956 10.2755 32.4493 10 31.94 10C31.4307 10 30.8844 10.2755 30.3271 10.9082C29.7705 11.54 29.2463 12.4829 28.796 13.6909ZM29.5767 10.2472C30.2419 9.492 31.0393 9 31.94 9C32.8407 9 33.6381 9.492 34.3033 10.2472C34.9692 11.0031 35.5463 12.0684 36.021 13.3416C36.9717 15.8918 37.55 19.3811 37.55 23.21C37.55 27.0389 36.9717 30.5282 36.021 33.0784C35.5463 34.3516 34.9692 35.4169 34.3033 36.1728C33.6381 36.928 32.8407 37.42 31.94 37.42C31.0393 37.42 30.2419 36.928 29.5767 36.1728C28.9107 35.4169 28.3336 34.3516 27.859 33.0784C26.9083 30.5282 26.33 27.0389 26.33 23.21C26.33 19.3811 26.9083 15.8918 27.859 13.3416C28.3336 12.0684 28.9107 11.0031 29.5767 10.2472Z" fill="black"/>
<path fill-rule="evenodd" clip-rule="evenodd" d="M54.6362 23.718C53.933 24.2253 53.3758 25.0906 53.1651 26.5801C52.9501 28.0894 52.6877 29.9594 52.4789 31.4518C52.3746 32.1979 52.2836 32.8497 52.2188 33.3149L52.1153 34.058L51.1248 33.9211L51.2284 33.1769C51.2932 32.7115 51.3842 32.0596 51.4886 31.3132C51.6973 29.8206 51.9599 27.9501 52.175 26.4395C52.175 26.4394 52.175 26.4397 52.175 26.4395C52.4143 24.7492 53.0771 23.6097 54.0512 22.907C55.0103 22.2152 56.1988 22 57.39 22C57.5252 22 57.6547 22.0548 57.7489 22.1518C57.843 22.2489 57.8939 22.38 57.8898 22.5152L57.3798 39.3252C57.3759 39.4525 57.3236 39.5735 57.2335 39.6636L46.4335 50.4636L45.7264 49.7564L56.3862 39.0966L56.8741 23.0161C56.0015 23.0728 55.2387 23.2835 54.6362 23.718Z" fill="black"/>
<path fill-rule="evenodd" clip-rule="evenodd" d="M50.4132 34.8191C49.7015 34.9171 49.1839 35.3333 48.9636 35.5536L45.7436 38.7736C45.6732 38.8439 45.5835 38.8917 45.4858 38.9107C44.2636 39.1493 43.4071 39.4401 42.6502 39.8688C41.8897 40.2996 41.2021 40.885 40.3336 41.7536C38.39 43.6971 37.7143 46.2097 38.2469 50.9441L37.2531 51.0559C36.7058 46.1903 37.37 43.3029 39.6265 41.0465C40.5179 40.155 41.2803 39.4954 42.1573 38.9987C43.0033 38.5195 43.9303 38.2061 45.1436 37.9593L48.2565 34.8465C48.5561 34.5468 49.2635 33.9679 50.2768 33.8284C51.3227 33.6844 52.5846 34.0228 53.9329 35.3658C54.0269 35.4595 54.0799 35.5867 54.08 35.7195C54.0801 35.8523 54.0275 35.9797 53.9336 36.0736L47.1636 42.8436L46.4565 42.1365L52.8594 35.7335C51.8532 34.8716 51.0198 34.7356 50.4132 34.8191Z" fill="black"/>
<path fill-rule="evenodd" clip-rule="evenodd" d="M34.71 51.31C34.71 51.0339 34.9338 50.81 35.21 50.81H49.62C49.8961 50.81 50.12 51.0339 50.12 51.31V56.39H49.12V51.81H35.71V56.39H34.71V51.31Z" fill="black"/>
<path fill-rule="evenodd" clip-rule="evenodd" d="M10.2537 23.718C10.957 24.2253 11.5142 25.0906 11.7249 26.5801C11.9398 28.0894 12.2023 29.9594 12.4111 31.4518C12.5154 32.1979 12.6064 32.8497 12.6712 33.3149L12.7747 34.058L13.7652 33.9211L13.6616 33.1769C13.5968 32.7115 13.5058 32.0596 13.4014 31.3132C13.1927 29.8206 12.9301 27.9501 12.715 26.4395C12.715 26.4394 12.715 26.4397 12.715 26.4395C12.4757 24.7492 11.8129 23.6097 10.8388 22.907C9.87968 22.2152 8.6912 22 7.5 22C7.36476 22 7.23529 22.0548 7.14113 22.1518C7.04696 22.2489 6.99613 22.38 7.00023 22.5152L7.51023 39.3252C7.51409 39.4525 7.56639 39.5735 7.65644 39.6636L18.4564 50.4636L19.1636 49.7564L8.50376 39.0966L8.01589 23.0161C8.88849 23.0728 9.65132 23.2835 10.2537 23.718Z" fill="black"/>
<path fill-rule="evenodd" clip-rule="evenodd" d="M14.4768 34.8191C15.1885 34.9171 15.7061 35.3333 15.9264 35.5536L19.1464 38.7736C19.2168 38.8439 19.3065 38.8917 19.4042 38.9107C20.6264 39.1493 21.4829 39.4401 22.2398 39.8688C23.0003 40.2996 23.6879 40.885 24.5564 41.7536C26.5 43.6971 27.1757 46.2097 26.6431 50.9441L27.6369 51.0559C28.1842 46.1903 27.52 43.3029 25.2635 41.0465C24.3721 40.155 23.6096 39.4954 22.7327 38.9987C21.8867 38.5195 20.9597 38.2061 19.7464 37.9593L16.6335 34.8465C16.3338 34.5468 15.6265 33.9679 14.6132 33.8284C13.5672 33.6844 12.3054 34.0228 10.9571 35.3658C10.8631 35.4595 10.8101 35.5867 10.81 35.7195C10.8099 35.8523 10.8625 35.9797 10.9564 36.0736L17.7264 42.8436L18.4335 42.1365L12.0306 35.7335C13.0368 34.8716 13.8702 34.7356 14.4768 34.8191Z" fill="black"/>
<path fill-rule="evenodd" clip-rule="evenodd" d="M30.18 51.31C30.18 51.0339 29.9561 50.81 29.68 50.81H15.27C14.9939 50.81 14.77 51.0339 14.77 51.31V56.39H15.77V51.81H29.18V56.39H30.18V51.31Z" fill="black"/>
</svg>
