<?xml version="1.0" encoding="UTF-8"?>
<svg id="Layer_1" data-name="Layer 1" xmlns="http://www.w3.org/2000/svg" viewBox="0 0 64 64">
  <defs>
    <style>
      .cls-1 {
        fill: #ffc612;
      }

      .cls-1, .cls-2 {
        stroke: #000;
        stroke-linecap: round;
        stroke-linejoin: round;
      }

      .cls-2 {
        fill: none;
      }
    </style>
  </defs>
  <polygon class="cls-1" points="31.98 40.77 38.05 43.05 40.79 26.57 31.98 40.77"/>
  <path class="cls-2" d="m31.41,44.22c2.63,0,5.01,1.1,6.69,2.86.61.63,1.59.7,2.28.16l17.96-14.1c.76-.6.87-1.71.25-2.46-6.51-7.75-16.27-12.67-27.18-12.67s-20.35,4.76-26.86,12.29c-.63.73-.51,1.84.24,2.44l17.85,14.29c.67.54,1.63.48,2.24-.12,1.68-1.66,3.98-2.69,6.53-2.69Z"/>
  <line class="cls-2" x1="31.57" y1="21.29" x2="31.57" y2="25.9"/>
  <line class="cls-2" x1="10.73" y1="28.66" x2="13.82" y2="32.08"/>
  <line class="cls-2" x1="52.2" y1="28.45" x2="48.94" y2="31.71"/>
</svg>