<?xml version="1.0" encoding="utf-8"?>
<!-- Generator: Adobe Illustrator 27.7.0, SVG Export Plug-In . SVG Version: 6.00 Build 0)  -->
<svg version="1.1" id="Layer_1" xmlns="http://www.w3.org/2000/svg" xmlns:xlink="http://www.w3.org/1999/xlink" x="0px" y="0px"
	 viewBox="0 0 64 64" style="enable-background:new 0 0 64 64;" xml:space="preserve">
<style type="text/css">
	.st0{fill:#FFC612;stroke:#FFFFFF;stroke-linecap:round;stroke-linejoin:round;}
	.st1{fill:none;stroke:#FFFFFF;stroke-linecap:round;stroke-linejoin:round;}
</style>
<polygon class="st0" points="32,40.8 38,43.1 40.8,26.6 "/>
<path class="st1" d="M31.4,44.2c2.6,0,5,1.1,6.7,2.9c0.6,0.6,1.6,0.7,2.3,0.2l18-14.1c0.8-0.6,0.9-1.7,0.2-2.5
	C52.1,22.9,42.3,18,31.4,18S11.1,22.8,4.5,30.3C3.9,31,4,32.1,4.8,32.7L22.6,47c0.7,0.5,1.6,0.5,2.2-0.1
	C26.6,45.3,28.9,44.2,31.4,44.2z"/>
<line class="st1" x1="31.6" y1="21.3" x2="31.6" y2="25.9"/>
<line class="st1" x1="10.7" y1="28.7" x2="13.8" y2="32.1"/>
<line class="st1" x1="52.2" y1="28.5" x2="48.9" y2="31.7"/>
</svg>
