<svg width="64" height="64" viewBox="0 0 64 64" fill="none" xmlns="http://www.w3.org/2000/svg">
<path d="M41.28 56.8799L39.61 26.6799L34.09 26.8499L32.46 56.9699L41.28 56.8799Z" fill="#FFC000"/>
<path d="M19.7301 56.9201L17.6101 18.8301L10.6501 19.0401L8.6001 57.0301L19.7301 56.9201Z" fill="#FFC000"/>
<path fill-rule="evenodd" clip-rule="evenodd" d="M28.46 6C24.2038 6 20.4809 8.30001 19.7085 11.5323C19.043 11.3605 18.3383 11.27 17.61 11.27C14.2826 11.27 11.3946 13.2011 10.715 15.9083L11.6849 16.1517C12.2254 13.9989 14.6174 12.27 17.61 12.27C18.437 12.27 19.2229 12.4016 19.94 12.6437C20.0822 12.6917 20.2384 12.6733 20.3656 12.5936C20.4927 12.5139 20.5774 12.3813 20.5961 12.2324C20.9519 9.40364 24.2246 7 28.46 7C30.6835 7 32.6764 7.66915 34.1017 8.72876C35.5268 9.7882 36.36 11.2141 36.36 12.75C36.36 14.2861 35.5266 15.7146 34.1013 16.7766C32.6758 17.8386 30.6831 18.51 28.46 18.51V19.51C30.8769 19.51 33.0841 18.7814 34.6987 17.5784C36.3134 16.3754 37.36 14.6739 37.36 12.75C37.36 10.8259 36.3132 9.1268 34.6983 7.92624C33.0836 6.72585 30.8764 6 28.46 6ZM41.0535 20.9194C41.7253 18.3682 44.678 16.59 48.01 16.59C49.927 16.59 51.6842 17.1686 52.9737 18.129C54.2632 19.0894 55.11 20.4558 55.11 22.01C55.11 23.5636 54.2663 24.9301 52.9776 25.8909C51.6891 26.8515 49.9318 27.43 48.01 27.43V26.43C49.7382 26.43 51.2809 25.9085 52.3799 25.0891C53.4787 24.2699 54.11 23.1764 54.11 22.01C54.11 20.8442 53.4768 19.7506 52.3763 18.931C51.2758 18.1113 49.733 17.59 48.01 17.59C44.7046 17.59 42.2026 19.4635 41.9362 21.6115C41.9178 21.7603 41.8336 21.8929 41.7068 21.9729C41.58 22.0528 41.4241 22.0717 41.2819 22.0243C40.7297 21.8403 40.113 21.73 39.48 21.73C37.2736 21.73 35.5003 22.9476 34.9838 24.4797L34.0362 24.1603C34.7197 22.1324 36.9464 20.73 39.48 20.73C40.0237 20.73 40.5549 20.7987 41.0535 20.9194ZM40.1366 27.18H40.54V26.18H33.21V27.18H33.8197L33.7407 28.6329L33.3156 36.78H19.0565L18.2393 21.0041L18.1321 19.19H18.96V18.19H9.64V19.19H10.4682L10.3409 21.2999L8.6606 53.6841L8.56245 56.45H7V57.45H56.65V56.45H41.6775L41.5492 54.4213L40.8304 40.56H54.11V56.15H55.11V40.06C55.11 39.7839 54.8861 39.56 54.61 39.56H40.7786L40.1366 27.18ZM39.1353 27.18H34.8212L34.7393 28.6861L34.7393 28.6871L33.3995 54.3622L33.3228 56.45H40.6755L40.5506 54.4759L39.1353 27.18ZM11.3391 21.3601L11.47 19.19H17.1304L17.2409 21.0595L18.9406 53.8759L19.102 56.45H9.56308L9.65953 53.7318L11.3391 21.3601ZM19.1083 37.78L19.939 53.8187L19.9393 53.8241L20.104 56.45H32.3221L32.4006 54.3139L33.2634 37.78H19.1083ZM45.67 44.71C45.67 44.4339 45.8939 44.21 46.17 44.21H49.75V45.21H46.67V48.12H45.67V44.71ZM24.39 41.47C24.1139 41.47 23.89 41.6939 23.89 41.97V45.95H24.89V42.47H28.57V41.47H24.39Z" fill="black"/>
</svg>
