<svg width="64" height="64" viewBox="0 0 64 64" fill="none" xmlns="http://www.w3.org/2000/svg">
<g clip-path="url(#clip0_7075_8772)">
<path fill-rule="evenodd" clip-rule="evenodd" d="M41.0539 12.5205C37.2452 8.71178 32.1776 6.61375 26.7873 6.61375C21.397 6.61375 16.3295 8.71178 12.5207 12.5205C4.65583 20.3854 4.65583 33.178 12.5207 41.0537C16.3295 44.8624 21.397 46.9604 26.7873 46.9604C32.1776 46.9604 37.2452 44.8624 41.0539 41.0537C44.8626 37.245 46.9607 32.1774 46.9607 26.7871C46.9607 21.3968 44.8626 16.3292 41.0539 12.5205ZM38.6224 38.6221C35.4592 41.7853 31.2631 43.5283 26.7873 43.5283C22.3223 43.5283 18.1155 41.7853 14.9523 38.6221C11.7891 35.4589 10.0461 31.2521 10.0461 26.7871C10.0461 22.3221 11.7891 18.1152 14.9523 14.9521C18.1155 11.7889 22.3223 10.0459 26.7873 10.0459C31.2524 10.0459 35.4592 11.7889 38.6224 14.9521C41.7855 18.1152 43.5285 22.3221 43.5285 26.7871C43.5285 31.2521 41.7855 35.4589 38.6224 38.6221ZM11.7676 11.7566C15.9099 7.61435 21.354 5.53784 26.7873 5.53784C32.2207 5.53784 37.654 7.61435 41.8071 11.7566C50.1023 20.0626 50.1023 33.5115 41.8071 41.8068C37.6648 45.9491 32.2207 48.0256 26.7873 48.0256C21.354 48.0256 15.9206 45.9598 11.7676 41.8068C3.47232 33.5008 3.47232 20.0519 11.7676 11.7566ZM15.7054 37.8582C18.7718 40.9246 22.7742 42.4524 26.7873 42.4524C30.8005 42.4524 34.8136 40.9138 37.8692 37.8582C43.9912 31.747 43.9912 21.8271 37.8692 15.7052C34.8029 12.6389 30.8005 11.1111 26.7873 11.1111C22.7742 11.1111 18.761 12.6496 15.7054 15.7052C9.5835 21.8164 9.5835 31.7363 15.7054 37.8582ZM46.1092 41.687C46.9348 40.8614 48.2973 40.8585 49.1365 41.688L49.1374 41.6888L58.539 51.0904L59.2461 50.3833L49.8426 40.9799L49.8408 40.978C48.6141 39.7641 46.6205 39.7615 45.4021 40.9799L40.9909 45.3911L40.989 45.393C39.7751 46.6196 39.7725 48.6132 40.9909 49.8316L50.1254 58.9661L50.8325 58.259L41.698 49.1245C40.8724 48.299 40.8695 46.9364 41.6989 46.0973L41.6998 46.0964L46.1092 41.687Z" fill="black"/>
<path fill-rule="evenodd" clip-rule="evenodd" d="M45.7112 41.7116L43.6132 39.6135L42.9061 40.3206L45.0041 42.4187L45.7112 41.7116ZM42.4189 45.0038L40.3209 42.9058L39.6138 43.6129L41.7118 45.711L42.4189 45.0038Z" fill="black"/>
<path d="M24.9797 17.2116L16.8781 30.8434C16.3832 31.6718 16.9857 32.7262 17.954 32.7262H34.523C35.5021 32.7262 36.1046 31.6503 35.5882 30.8219L27.1208 17.1901C26.6258 16.3939 25.4639 16.4047 24.9905 17.2116H24.9797Z" fill="#FFC000"/>
<path fill-rule="evenodd" clip-rule="evenodd" d="M27.5453 16.9261C26.9082 15.9013 25.4753 15.8292 24.7332 16.7116H24.6951L16.4483 30.5876C15.7529 31.7527 16.6016 33.2262 17.9539 33.2262H34.5229C35.8896 33.2262 36.7387 31.7229 36.0124 30.5574L27.5453 16.9261ZM25.4216 17.4646C25.7027 16.9854 26.3976 16.974 26.696 17.454L35.1637 31.0864C35.47 31.5777 35.1143 32.2262 34.5229 32.2262H17.9539C17.3697 32.2262 17.0134 31.5915 17.3072 31.0998L17.3078 31.0988L25.264 17.7116H25.2767L25.4216 17.4646ZM26.7979 28.1751C26.658 28.0353 26.4643 27.96 26.2276 27.96C25.9909 27.96 25.7973 28.0353 25.6574 28.1751C25.5175 28.315 25.4422 28.4979 25.4422 28.7131C25.4422 28.9283 25.5175 29.1004 25.6574 29.2403C25.808 29.3909 25.9909 29.4555 26.2276 29.4555C26.4643 29.4555 26.658 29.3802 26.7979 29.2403C26.9377 29.1004 27.0131 28.9283 27.0131 28.7131C27.0131 28.4979 26.9377 28.315 26.7979 28.1751ZM25.6359 27.1853H26.8086H26.8194L26.9808 22.2576H25.4745L25.6359 27.1853Z" fill="black"/>
</g>
<defs>
<clipPath id="clip0_7075_8772">
<rect width="54.269" height="54" fill="white" transform="translate(5 5)"/>
</clipPath>
</defs>
</svg>
