<svg width="64" height="64" viewBox="0 0 64 64" fill="none" xmlns="http://www.w3.org/2000/svg">
<path fill-rule="evenodd" clip-rule="evenodd" d="M15.5979 51.8215C15.8252 51.1537 16.4515 50.6965 17.1657 50.6965H23.1253C23.8395 50.6965 24.4658 51.1537 24.6931 51.8215L24.6947 51.8263L25.7394 55.0004L24.7895 55.313L23.7457 52.1416C23.654 51.8752 23.4054 51.6965 23.1253 51.6965H17.1657C16.8855 51.6965 16.6367 51.8754 16.5452 52.142L15.6007 54.9954L14.6514 54.6812L15.5979 51.8215Z" fill="black"/>
<path fill-rule="evenodd" clip-rule="evenodd" d="M42.4214 51.6719C42.6385 51.035 43.2342 50.5969 43.9194 50.5969H49.501C50.1862 50.5969 50.7819 51.035 50.999 51.6719L51.0004 51.6761L51.9854 54.6512L51.0361 54.9655L50.0519 51.9928C49.97 51.7551 49.7504 51.5969 49.501 51.5969H43.9194C43.67 51.5969 43.4504 51.7551 43.3685 51.9927L42.4838 54.6669L41.5344 54.3528L42.4214 51.6719Z" fill="black"/>
<path fill-rule="evenodd" clip-rule="evenodd" d="M21.4313 7.06768C21.199 7.13208 20.9828 7.24073 20.7902 7.38638L20.7839 7.39111C20.4674 7.62273 20.223 7.9661 20.1037 8.3789C20.1036 8.37922 20.1035 8.37954 20.1034 8.37986L17.5377 17.4203C17.5376 17.4207 17.5375 17.421 17.5374 17.4214C17.4073 17.8896 17.4842 18.3863 17.7519 18.7917L18.2895 19.6081L17.4543 20.1581L16.9174 19.3427C16.4891 18.6937 16.3668 17.8971 16.5744 17.1519L16.5751 17.1496L19.1426 8.10272C19.3215 7.48244 19.6927 6.95154 20.1902 6.58639C20.6802 6.21682 21.2815 6 21.9313 6C22.2074 6 22.4313 6.22386 22.4313 6.5V19.107H21.4313V7.06768Z" fill="black"/>
<path fill-rule="evenodd" clip-rule="evenodd" d="M4.24988 30.1268L15.6518 23.5397L16.1521 24.4056L5.24128 30.7089C5.59532 31.0589 6.07325 31.2537 6.56947 31.2537C6.71585 31.2537 6.86361 31.2324 7.04644 31.1962L16.1453 28.9014C16.618 28.7767 17.0145 28.46 17.2257 28.0376L17.5142 27.4605L18.4087 27.9077L18.1202 28.4848C17.7745 29.1762 17.1371 29.675 16.3969 29.8692L16.3924 29.8704L7.27875 32.1689C7.27073 32.1709 7.26266 32.1727 7.25454 32.1744C7.04495 32.2163 6.81788 32.2537 6.56947 32.2537C5.55942 32.2537 4.59649 31.7244 4.06728 30.8102C4.0008 30.6954 3.9827 30.5588 4.01695 30.4306C4.0512 30.3024 4.13499 30.1931 4.24988 30.1268Z" fill="black"/>
<path fill-rule="evenodd" clip-rule="evenodd" d="M25.4418 22.8766C26.2168 22.8275 26.9648 23.1232 27.5022 23.6728L27.5035 23.6742L34.0488 30.419C34.0491 30.4193 34.0493 30.4195 34.0495 30.4198C34.5926 30.9754 34.8679 31.7095 34.8679 32.4403C34.8679 32.9312 34.7477 33.4263 34.4823 33.8848C34.3441 34.1236 34.0385 34.2053 33.7996 34.0674L22.527 27.5599L23.0269 26.6938L33.8082 32.9177C33.8486 32.7611 33.8679 32.6012 33.8679 32.4403C33.8679 31.9575 33.6858 31.478 33.334 31.1183L33.3326 31.1169L26.7872 24.3719C26.787 24.3717 26.7874 24.3721 26.7872 24.3719C26.4492 24.0266 25.9831 23.8443 25.5049 23.8746L25.0269 23.9045L24.9645 22.9064L25.4418 22.8766C25.4419 22.8766 25.4417 22.8766 25.4418 22.8766Z" fill="black"/>
<path d="M20.1603 25.8532C21.4241 25.8532 22.4486 24.8286 22.4486 23.5647C22.4486 22.3007 21.4241 21.2761 20.1603 21.2761C18.8965 21.2761 17.8719 22.3007 17.8719 23.5647C17.8719 24.8286 18.8965 25.8532 20.1603 25.8532Z" fill="#FFC000"/>
<path fill-rule="evenodd" clip-rule="evenodd" d="M20.1603 21.7761C19.1726 21.7761 18.3719 22.5768 18.3719 23.5647C18.3719 24.5525 19.1726 25.3532 20.1603 25.3532C21.1479 25.3532 21.9486 24.5525 21.9486 23.5647C21.9486 22.5768 21.1479 21.7761 20.1603 21.7761ZM17.3719 23.5647C17.3719 22.0246 18.6203 20.7761 20.1603 20.7761C21.7003 20.7761 22.9486 22.0246 22.9486 23.5647C22.9486 25.1047 21.7003 26.3532 20.1603 26.3532C18.6203 26.3532 17.3719 25.1047 17.3719 23.5647Z" fill="black"/>
<path fill-rule="evenodd" clip-rule="evenodd" d="M22.3076 51.2155L21.0142 28.8772L22.0126 28.8194L23.306 51.1577L22.3076 51.2155Z" fill="black"/>
<path fill-rule="evenodd" clip-rule="evenodd" d="M18.9682 31.7796L17.9633 51.2124L16.9647 51.1607L17.9696 31.7279L18.9682 31.7796Z" fill="black"/>
<path fill-rule="evenodd" clip-rule="evenodd" d="M30.7205 20.9966C30.7649 20.7249 31.0205 20.5401 31.2924 20.5833L42.953 22.434L42.7963 23.4217L31.7013 21.6607C31.7293 21.8652 31.7941 22.0623 31.8913 22.24L31.8981 22.2523C32.0658 22.5801 32.3403 22.8483 32.6952 23.0103L32.6977 23.0115L40.6849 26.712C41.0784 26.8896 41.5439 26.8914 41.9516 26.7114L42.6539 26.3849L43.0755 27.2917L42.3614 27.6236C41.6961 27.9194 40.9302 27.9209 40.2706 27.6221L40.2667 27.6204L32.2799 23.92C32.2794 23.9198 32.279 23.9196 32.2785 23.9194C31.7209 23.6645 31.281 23.2387 31.0109 22.7141C30.7315 22.2006 30.6232 21.5928 30.7205 20.9966Z" fill="black"/>
<path fill-rule="evenodd" clip-rule="evenodd" d="M51.005 27.7844C51.6017 28.2077 51.9861 28.8778 52.0486 29.6108C52.0486 29.6112 52.0487 29.6116 52.0487 29.612L52.8345 38.3857C52.835 38.3918 52.8355 38.398 52.8358 38.4041C52.8464 38.606 52.8484 38.8358 52.8103 39.0666C52.6632 40.0158 52.0179 40.8435 51.08 41.1968C50.8227 41.2937 50.5354 41.1647 50.4369 40.908L46.0393 29.4453L46.973 29.0871L51.1664 40.0176C51.5191 39.7478 51.7549 39.3503 51.8224 38.9115L51.8233 38.9054C51.844 38.7812 51.8463 38.6369 51.8376 38.4656L51.0523 29.6964C51.015 29.2563 50.7832 28.8528 50.4257 28.5995L50.4234 28.5979L49.896 28.2198L50.4788 27.4071L51.005 27.7844Z" fill="black"/>
<path fill-rule="evenodd" clip-rule="evenodd" d="M55.0959 13.333C55.6899 12.9208 56.4071 12.7623 57.1006 12.8718C57.5603 12.9444 58.0017 13.1277 58.3926 13.4453C58.6066 13.6192 58.6394 13.9336 58.4659 14.1479L51.0238 23.3419L50.2465 22.7128L57.3278 13.9645C57.2048 13.9149 57.0768 13.8804 56.9446 13.8596C56.5044 13.79 56.0482 13.8899 55.6674 14.1536C55.6669 14.1539 55.6665 14.1542 55.666 14.1546L48.4667 19.2264C48.4665 19.2265 48.4669 19.2263 48.4667 19.2264C48.1073 19.4812 47.8745 19.8784 47.8294 20.3217L46.8345 20.2206C46.9088 19.49 47.2931 18.8323 47.8886 18.4104L47.8897 18.4097L55.0959 13.333Z" fill="black"/>
<path d="M47.0633 23.097C48.2274 23.2861 49.0233 24.3806 48.8442 25.5448C48.6552 26.709 47.5608 27.505 46.3967 27.3259C45.2326 27.1368 44.4367 26.0423 44.6158 24.8781C44.8048 23.7139 45.8992 22.9179 47.0633 23.097Z" fill="#FFC000"/>
<path fill-rule="evenodd" clip-rule="evenodd" d="M45.1096 24.9562C44.9737 25.8473 45.5832 26.6861 46.4748 26.832C47.3657 26.9679 48.2044 26.3585 48.3504 25.4667C48.4863 24.5756 47.8768 23.7368 46.9852 23.5909C46.0943 23.4549 45.2556 24.0644 45.1096 24.9562ZM44.1222 24.798C44.3552 23.3632 45.7035 22.3819 47.1393 22.6028L47.1435 22.6035C48.5782 22.8365 49.5593 24.185 49.3384 25.6208L49.3378 25.6249C49.1048 27.0597 47.7565 28.041 46.3207 27.8201L46.3166 27.8194C44.8818 27.5864 43.9007 26.2379 44.1216 24.8021L44.1222 24.798Z" fill="black"/>
<path fill-rule="evenodd" clip-rule="evenodd" d="M48.7137 51.1233L48.0471 41.9492L49.0445 41.8767L49.7111 51.0508L48.7137 51.1233Z" fill="black"/>
<path fill-rule="evenodd" clip-rule="evenodd" d="M45.6624 31.7784L44.7072 51.1117L43.7085 51.0624L44.6636 31.7291L45.6624 31.7784Z" fill="black"/>
<path fill-rule="evenodd" clip-rule="evenodd" d="M59.0026 58.0149H8.13159V57.0149H59.0026V58.0149Z" fill="black"/>
</svg>
