<svg width="64" height="64" viewBox="0 0 64 64" fill="none" xmlns="http://www.w3.org/2000/svg">
<path fill-rule="evenodd" clip-rule="evenodd" d="M41.272 33.9842C42.4819 33.9146 43.6665 34.3787 44.5164 35.2576L55.7005 46.8553C56.5507 47.7456 56.9935 48.9 56.9935 50.0765C56.9935 50.8769 56.7888 51.6656 56.3815 52.3834C56.3156 52.4995 56.206 52.5844 56.0771 52.6193C55.9482 52.6541 55.8107 52.636 55.6953 52.5689L36.4511 41.3813L36.9536 40.5168L55.7318 51.4334C55.9066 50.9973 55.9935 50.5393 55.9935 50.0765C55.9935 49.1526 55.6466 48.2473 54.9781 47.5467L54.9773 47.5459L43.7975 35.9527C43.1487 35.2819 42.2471 34.93 41.3305 34.9825L41.3294 34.9825L40.5113 35.0334L40.4493 34.0353L41.272 33.9842Z" fill="black"/>
<path d="M32.2458 39.7763C34.9588 39.7763 37.1581 37.5618 37.1581 34.8301C37.1581 32.0984 34.9588 29.8839 32.2458 29.8839C29.5328 29.8839 27.3334 32.0984 27.3334 34.8301C27.3334 37.5618 29.5328 39.7763 32.2458 39.7763Z" fill="#FFC000"/>
<path fill-rule="evenodd" clip-rule="evenodd" d="M32.2458 30.3839C29.8121 30.3839 27.8334 32.3713 27.8334 34.8301C27.8334 37.2889 29.8121 39.2763 32.2458 39.2763C34.6794 39.2763 36.6581 37.2889 36.6581 34.8301C36.6581 32.3713 34.6794 30.3839 32.2458 30.3839ZM26.8334 34.8301C26.8334 31.8255 29.2534 29.3839 32.2458 29.3839C35.2382 29.3839 37.6581 31.8255 37.6581 34.8301C37.6581 37.8347 35.2382 40.2763 32.2458 40.2763C29.2534 40.2763 26.8334 37.8347 26.8334 34.8301Z" fill="black"/>
<path fill-rule="evenodd" clip-rule="evenodd" d="M16.5646 51.7721C20.668 55.6243 26.3301 57.9901 32.2458 57.9901C38.1628 57.9901 43.5544 55.7353 47.6295 52.0415L48.3011 52.7824C44.0505 56.6353 38.4223 58.9901 32.2458 58.9901C26.068 58.9901 20.1632 56.522 15.8802 52.5011L16.5646 51.7721Z" fill="black"/>
<path fill-rule="evenodd" clip-rule="evenodd" d="M55.2339 34.8301C55.2339 24.8859 49.0071 16.4009 40.2645 13.1272L40.6151 12.1907C49.7393 15.6072 56.2339 24.4593 56.2339 34.8301C56.2339 37.1719 55.9031 39.4419 55.2824 41.5877L54.3218 41.3098C54.9165 39.254 55.2339 37.0775 55.2339 34.8301Z" fill="black"/>
<path fill-rule="evenodd" clip-rule="evenodd" d="M25.4062 12.7181C16.0496 15.6422 9.24754 24.4365 9.24754 34.8301C9.24754 36.4997 9.41635 38.1369 9.75291 39.7017L8.77527 39.912C8.42309 38.2746 8.24754 36.5667 8.24754 34.8301C8.24754 23.9908 15.3418 14.8157 25.1079 11.7636L25.4062 12.7181Z" fill="black"/>
<path fill-rule="evenodd" clip-rule="evenodd" d="M21.6279 49.1671C24.5932 51.399 28.2664 52.7176 32.2458 52.7176C36.2252 52.7176 39.8984 51.399 42.8637 49.1671L43.465 49.9661C40.333 52.3235 36.4502 53.7176 32.2458 53.7176C28.0413 53.7176 24.1586 52.3235 21.0265 49.9661L21.6279 49.1671Z" fill="black"/>
<path fill-rule="evenodd" clip-rule="evenodd" d="M49.9974 34.8301C49.9974 27.3782 45.4645 20.9794 39.0223 18.3014L39.4062 17.378C46.2121 20.2072 50.9974 26.9641 50.9974 34.8301C50.9974 35.4483 50.9662 36.0647 50.9145 36.6582L49.9183 36.5714C49.9679 36.0023 49.9974 35.4152 49.9974 34.8301Z" fill="black"/>
<path fill-rule="evenodd" clip-rule="evenodd" d="M24.6323 18.6885C18.6424 21.5552 14.4941 27.7061 14.4941 34.8403C14.4941 35.4311 14.514 36.0046 14.5725 36.5739L13.5778 36.6761C13.5147 36.0624 13.4941 35.4528 13.4941 34.8403C13.4941 27.3093 17.8741 20.8143 24.2006 17.7864L24.6323 18.6885Z" fill="black"/>
<path fill-rule="evenodd" clip-rule="evenodd" d="M26.8667 26.9415C26.2014 25.9286 26.0111 24.6706 26.3473 23.4951L30.7991 8.01052C31.1451 6.82909 31.9234 5.86835 32.9423 5.28009C33.6354 4.87993 34.4208 4.66286 35.2461 4.65675C35.3796 4.65576 35.508 4.70821 35.6026 4.80241C35.6972 4.8966 35.7502 5.02473 35.7498 5.15823L35.6833 27.418L34.6833 27.415L34.7482 5.69442C34.2832 5.76107 33.8431 5.91473 33.4423 6.14611C32.6421 6.60809 32.0316 7.36117 31.7592 8.29045L31.7589 8.29152L27.3087 23.7701C27.0522 24.6674 27.1982 25.6241 27.7019 26.3917L27.7025 26.3926L28.1556 27.0757L27.3223 27.6285L26.8667 26.9415Z" fill="black"/>
<path fill-rule="evenodd" clip-rule="evenodd" d="M27.0859 41.4843C26.84 42.671 26.0851 43.6951 25.0161 44.2886L10.9189 52.0899C9.83894 52.6807 8.60924 52.8097 7.4728 52.5052C6.69975 52.298 5.99089 51.8962 5.40298 51.3169C5.30788 51.2232 5.2542 51.0953 5.25391 50.9618C5.25361 50.8283 5.30672 50.7002 5.40141 50.6061L21.1885 34.9131L21.8935 35.6224L6.48879 50.9352C6.86477 51.2169 7.28462 51.4195 7.73162 51.5392C8.6241 51.7784 9.58834 51.6776 10.438 51.2131L10.439 51.2126L24.5307 43.4143C25.3466 42.9612 25.9198 42.1815 26.1065 41.2825L26.1067 41.2814L26.2693 40.478L27.2494 40.6764L27.0859 41.4843Z" fill="black"/>
</svg>
