<?xml version="1.0" encoding="utf-8"?>
<!-- Generator: Adobe Illustrator 27.7.0, SVG Export Plug-In . SVG Version: 6.00 Build 0)  -->
<svg version="1.1" id="Layer_1" xmlns="http://www.w3.org/2000/svg" xmlns:xlink="http://www.w3.org/1999/xlink" x="0px" y="0px"
	 viewBox="0 0 64 64" style="enable-background:new 0 0 64 64;" xml:space="preserve">
<style type="text/css">
	.st0{fill:none;stroke:#FFFFFF;stroke-miterlimit:10;}
	.st1{fill:none;}
	.st2{fill-rule:evenodd;clip-rule:evenodd;fill:#FFC612;stroke:#FFFFFF;stroke-width:0.8;stroke-linejoin:round;}
</style>
<circle class="st0" cx="9.5" cy="19.2" r="3.5"/>
<circle class="st0" cx="9.5" cy="44.8" r="3.5"/>
<circle class="st0" cx="31.9" cy="9.2" r="3.5"/>
<circle class="st0" cx="31.9" cy="54.8" r="3.5"/>
<line class="st0" x1="22" y1="26" x2="13" y2="20.7"/>
<line class="st0" x1="28.3" y1="9.8" x2="13" y2="17.2"/>
<line class="st0" x1="22" y1="37.7" x2="12.7" y2="42.7"/>
<line class="st0" x1="9.8" y1="22.5" x2="9.8" y2="41.6"/>
<line class="st0" x1="31.9" y1="12.8" x2="31.9" y2="20.4"/>
<line class="st0" x1="31.9" y1="43.3" x2="31.9" y2="51"/>
<line class="st0" x1="28.3" y1="53.9" x2="13" y2="46.6"/>
<circle class="st0" cx="54.5" cy="19.2" r="3.5"/>
<circle class="st0" cx="54.5" cy="44.8" r="3.5"/>
<line class="st0" x1="41.5" y1="26.3" x2="51" y2="20.7"/>
<line class="st0" x1="35.7" y1="9.8" x2="51" y2="17.2"/>
<line class="st0" x1="41.5" y1="37.4" x2="51.3" y2="42.7"/>
<line class="st0" x1="54.2" y1="22.5" x2="54.2" y2="41.6"/>
<line class="st0" x1="35.7" y1="53.9" x2="51" y2="46.6"/>
<circle class="st1" cx="31.9" cy="31.9" r="11.5"/>
<path class="st2" d="M27.9,40.2l2.9-6.9c0.1-0.2,0-0.3-0.2-0.3h-3.1l4.2-8.5h4.2l-3.6,5.6c-0.1,0.2,0,0.4,0.2,0.4h3.6L27.9,40.2
	L27.9,40.2z"/>
</svg>
