<?xml version="1.0" encoding="UTF-8"?>
<svg id="Layer_1" data-name="Layer 1" xmlns="http://www.w3.org/2000/svg" viewBox="0 0 64 64">
  <defs>
    <style>
      .cls-1 {
        stroke-miterlimit: 10;
      }

      .cls-1, .cls-2 {
        fill: none;
        stroke: #000;
        stroke-width: 1.08px;
      }

      .cls-3 {
        fill: #ffc612;
      }

      .cls-2 {
        stroke-linejoin: round;
      }
    </style>
  </defs>
  <path class="cls-3" d="m44.49,13.4c.23.53-4.21,3.83-9.61,2.52-4.31-1.05-6.59-3.31-7.55-4-.17.52-1.1,2.39-2,3.61-1.32,1.79-3.16,3.68-3.16,3.68,0,0-2.12-3.45-1.36-5.36,1.59-9.06,17.27-15.26,23.68-.45Z"/>
  <ellipse class="cls-1" cx="32.75" cy="19.36" rx="13.14" ry="14.85"/>
  <path class="cls-2" d="m34.87,39.55l3.43-4.19s3.68.5,7.58,1.21c3.91.71,7.89.63,9.93,8.32,1.52,5.71,1.14,14.09,1.14,14.09H8.19s-.38-8.38,1.14-14.09c2.05-7.68,6.02-7.61,9.93-8.32,3.9-.71,7.58-1.21,7.58-1.21l3.43,4.19,2.25,11.76,2.35-11.76Z"/>
  <path class="cls-1" d="m20.71,13.35c-.76,1.9,1.36,5.36,1.36,5.36,0,0,1.84-1.89,3.16-3.68.9-1.23,1.83-3.1,2-3.61.96.69,3.24,2.95,7.55,4,5.4,1.31,9.46-1.96,9.61-2.52"/>
</svg>