<?xml version="1.0" encoding="UTF-8"?>
<svg id="Layer_1" data-name="Layer 1" xmlns="http://www.w3.org/2000/svg" viewBox="0 0 64 64">
  <defs>
    <style>
      .cls-1 {
        fill: #ffc612;
        stroke-linecap: round;
        stroke-linejoin: round;
      }

      .cls-1, .cls-2 {
        stroke: #000;
      }

      .cls-2 {
        fill: none;
        stroke-miterlimit: 10;
      }
    </style>
  </defs>
  <path class="cls-2" d="m39.8,33.28c-2.05,1.36-4.45,2.14-7.02,2.14-2.82,0-5.43-.94-7.61-2.55"/>
  <path class="cls-1" d="m16.47,36.19s7.68-1.54,8.44-2.3,0-1.92,0-1.92c0,0-3.05-5.11-3.2-8.58-.09-2.04.36-4.62,2.18-6.63,1.54-1.7,5.62-3.59,5.62-3.59,0,0-3.49,2.56-4.02,5.23s.66,4.24.66,4.24c0,0,2.21-2.94,6.43-3.71,4.22-.77,4.61-4.61,4.61-4.61,0,0,1.81,3.09,3.84,2.69,3.84-.77,3.89,4.07,3.57,5.6-.25,1.19-.89,4.38-3.57,7.84-.53.68-2.3,3.84.77,4.61,3.07.77,6.77,1.08,6.77,1.08,0,0-3.53-4.27-2.37-7.22,3.45-8.83,2.57-18.18-5.28-22.45-2.62-1.42-11.01-2.88-16.39.57-3.75,2.41-6.77,5.76-6.77,11.9s1.66,9.49,1.39,11.9c-.38,3.45-2.69,5.37-2.69,5.37Z"/>
  <path d="m40.52,38.37c.99,0,2.63.14,4.8.79,3.05.92,6.83,2.97,8.92,10.81,1.11,4.14.75,7.92.51,9.49H10.4c-.24-1.57-.59-5.34.51-9.49,2.09-7.84,5.86-9.9,8.92-10.81,2.17-.65,3.81-.79,4.8-.79.26,0,.47,0,.62.02l6.65,6.28.69.65.69-.65,6.65-6.28c.15-.01.36-.02.62-.02m0-1c-.69,0-1.06.06-1.06.06l-6.89,6.51-6.89-6.51s-.37-.06-1.06-.06c-1.03,0-2.78.14-5.09.83-3.84,1.15-7.53,3.77-9.6,11.51-1.54,5.76-.38,10.75-.38,10.75h46.03s1.15-4.99-.38-10.75c-2.06-7.74-5.76-10.36-9.6-11.51-2.3-.69-4.05-.83-5.09-.83h0Z"/>
</svg>