<?xml version="1.0" encoding="UTF-8"?>
<svg id="Layer_1" data-name="Layer 1" xmlns="http://www.w3.org/2000/svg" viewBox="0 0 64 64">
  <defs>
    <style>
      .cls-1 {
        fill: #ffc612;
        stroke-width: .95px;
      }

      .cls-1, .cls-2 {
        stroke: #000;
        stroke-miterlimit: 10;
      }

      .cls-2 {
        fill: none;
        stroke-width: .95px;
      }
    </style>
  </defs>
  <path class="cls-1" d="m32.45,10.45c-12.12,0-21.94,9.82-21.94,21.94s9.82,21.94,21.94,21.94,21.94-9.82,21.94-21.94-9.82-21.94-21.94-21.94Zm5.01,9.59c2.07-1.96,3.51-2.06,4.26-2.13.73-.07,1.66-.03,1.99,0,2.21.27,3.77,2.29,3.5,4.49-.24,1.75-1.33,2.16-3.72,2.87s-3.63,4.39-3.63,4.39c-.03.02-.07.04-.11.05-.24.08-.49-.05-.57-.29-.55-1.65-1.85-2.94-3.5-3.49-.14-.04-.24-.15-.29-.28-.02-.05-.03-.1-.03-.15,0-.09,0-3.49,2.09-5.47Zm-19.48,1.48c.27-2.21,2.29-3.77,4.49-3.5,1.74.24,2.16,1.33,2.87,3.72.71,2.38,4.39,3.63,4.39,3.63.02.03.04.07.05.11.08.24-.05.49-.29.57-1.65.55-2.94,1.85-3.49,3.5-.04.14-.15.24-.28.29-.05.02-.1.03-.15.03-.09,0-3.49,0-5.47-2.09-1.96-2.07-2.06-3.51-2.13-4.26-.07-.73-.03-1.66,0-1.99Zm9.85,23.61c-2.07,1.96-3.51,2.06-4.26,2.13-.73.07-1.66.03-1.99,0-2.21-.27-3.77-2.29-3.5-4.49.24-1.74,1.33-2.16,3.72-2.87s3.63-4.39,3.63-4.39c.03-.02.07-.04.11-.05.24-.08.49.05.57.29.55,1.65,1.85,2.94,3.5,3.49.14.04.24.15.29.28.02.05.03.1.03.15,0,.09,0,3.49-2.09,5.47Zm-.68-12.74c0-2.93,2.37-5.3,5.3-5.3s5.3,2.37,5.3,5.3c0,2.93-2.38,5.3-5.3,5.3-2.93,0-5.3-2.37-5.3-5.3Zm20.16,11.26c-.27,2.21-2.29,3.77-4.49,3.5-1.74-.24-2.16-1.33-2.87-3.72-.71-2.38-4.39-3.63-4.39-3.63-.02-.03-.04-.07-.05-.11-.08-.24.05-.49.29-.57,1.65-.55,2.94-1.85,3.49-3.5.04-.14.15-.24.28-.29.05-.02.1-.03.15-.03.09,0,3.49,0,5.47,2.09,1.96,2.07,2.06,3.51,2.13,4.26.07.73.03,1.66,0,1.99Z"/>
  <rect class="cls-2" x="5.81" y="6.36" width="53.29" height="52.06"/>
</svg>