<?xml version="1.0" encoding="utf-8"?>
<!-- Generator: Adobe Illustrator 27.7.0, SVG Export Plug-In . SVG Version: 6.00 Build 0)  -->
<svg version="1.1" id="Layer_1" xmlns="http://www.w3.org/2000/svg" xmlns:xlink="http://www.w3.org/1999/xlink" x="0px" y="0px"
	 viewBox="0 0 64 64" style="enable-background:new 0 0 64 64;" xml:space="preserve">
<style type="text/css">
	.st0{fill:#FFC612;stroke:#FFFFFF;stroke-miterlimit:10;}
	.st1{fill:none;stroke:#FFFFFF;stroke-width:0.95;stroke-miterlimit:10;}
</style>
<path class="st0" d="M32.5,10.5c-12.1,0-21.9,9.8-21.9,21.9s9.8,21.9,21.9,21.9s21.9-9.8,21.9-21.9S44.6,10.5,32.5,10.5z M37.5,20
	c2.1-2,3.5-2.1,4.3-2.1c0.7-0.1,1.7,0,2,0c2.2,0.3,3.8,2.3,3.5,4.5c-0.2,1.8-1.3,2.2-3.7,2.9s-3.6,4.4-3.6,4.4c0,0-0.1,0-0.1,0
	c-0.2,0.1-0.5,0-0.6-0.3c-0.5-1.6-1.8-2.9-3.5-3.5c-0.1,0-0.2-0.1-0.3-0.3c0,0,0-0.1,0-0.1C35.4,25.4,35.4,22,37.5,20L37.5,20z
	 M18,21.5c0.3-2.2,2.3-3.8,4.5-3.5c1.7,0.2,2.2,1.3,2.9,3.7c0.7,2.4,4.4,3.6,4.4,3.6c0,0,0,0.1,0,0.1c0.1,0.2,0,0.5-0.3,0.6
	c-1.6,0.5-2.9,1.9-3.5,3.5c0,0.1-0.1,0.2-0.3,0.3c0,0-0.1,0-0.1,0c-0.1,0-3.5,0-5.5-2.1c-2-2.1-2.1-3.5-2.1-4.3
	C17.9,22.8,17.9,21.9,18,21.5L18,21.5z M27.8,45.1c-2.1,2-3.5,2.1-4.3,2.1c-0.7,0.1-1.7,0-2,0c-2.2-0.3-3.8-2.3-3.5-4.5
	c0.2-1.7,1.3-2.2,3.7-2.9s3.6-4.4,3.6-4.4c0,0,0.1,0,0.1,0c0.2-0.1,0.5,0,0.6,0.3c0.5,1.7,1.9,2.9,3.5,3.5c0.1,0,0.2,0.2,0.3,0.3
	c0,0,0,0.1,0,0.2C29.9,39.8,29.9,43.2,27.8,45.1L27.8,45.1z M27.1,32.4c0-2.9,2.4-5.3,5.3-5.3s5.3,2.4,5.3,5.3s-2.4,5.3-5.3,5.3
	C29.5,37.7,27.2,35.3,27.1,32.4z M47.3,43.7c-0.3,2.2-2.3,3.8-4.5,3.5c-1.7-0.2-2.2-1.3-2.9-3.7c-0.7-2.4-4.4-3.6-4.4-3.6
	c0,0,0-0.1,0-0.1c-0.1-0.2,0-0.5,0.3-0.6c1.7-0.5,2.9-1.8,3.5-3.5c0-0.1,0.2-0.2,0.3-0.3c0,0,0.1,0,0.2,0c0.1,0,3.5,0,5.5,2.1
	c2,2.1,2.1,3.5,2.1,4.3C47.4,42.4,47.4,43.3,47.3,43.7L47.3,43.7z"/>
<rect x="5.8" y="6.4" class="st1" width="53.3" height="52.1"/>
</svg>
