<?xml version="1.0" encoding="utf-8"?>
<!-- Generator: Adobe Illustrator 27.7.0, SVG Export Plug-In . SVG Version: 6.00 Build 0)  -->
<svg version="1.1" id="Layer_1" xmlns="http://www.w3.org/2000/svg" xmlns:xlink="http://www.w3.org/1999/xlink" x="0px" y="0px"
	 viewBox="0 0 64 64" style="enable-background:new 0 0 64 64;" xml:space="preserve">
<style type="text/css">
	.st0{fill:none;stroke:#FFFFFF;stroke-width:1.11;stroke-miterlimit:10;}
	.st1{fill:#FFC612;}
	.st2{fill:none;stroke:#FFFFFF;stroke-width:0.95;stroke-miterlimit:10;}
</style>
<g>
	<path class="st0" d="M25.8,42.9c0,0-10.6,3.5-12.3,4c-2.1,0.7-1.8,2.8-1.8,2.8v6.7h41.6v-6.7c0,0,0.4-2.2-1.8-2.8
		c-1.6-0.5-12.3-4-12.3-4"/>
	<path class="st0" d="M31.8,21.9H33c4.7,0,8.4,3.8,8.4,8.4v6.3c0,4.7-3.8,8.4-8.4,8.4h-1.2c-4.7,0-8.4-3.8-8.4-8.4v-6.3
		C23.4,25.6,27.2,21.9,31.8,21.9z"/>
</g>
<path class="st1" d="M6.1,8.5v7.3h53.5V8.5H6.1z M11.1,14.1c-0.7,0-1.3-0.6-1.3-1.3s0.6-1.3,1.3-1.3s1.3,0.6,1.3,1.3
	S11.8,14.1,11.1,14.1z M15.8,14.1c-0.7,0-1.3-0.6-1.3-1.3s0.6-1.3,1.3-1.3c0.7,0,1.3,0.6,1.3,1.3S16.5,14.1,15.8,14.1z M20.6,14.1
	c-0.7,0-1.3-0.6-1.3-1.3s0.6-1.3,1.3-1.3s1.3,0.6,1.3,1.3S21.3,14.1,20.6,14.1z"/>
<rect x="6.1" y="8.5" class="st2" width="53.5" height="48.2"/>
</svg>
