<svg width="64" height="64" viewBox="0 0 64 64" fill="none" xmlns="http://www.w3.org/2000/svg">
<g clip-path="url(#clip0_7075_8293)">
<path fill-rule="evenodd" clip-rule="evenodd" d="M36.2391 6.40858C36.5246 5.40505 37.5513 4.81651 38.5694 5.04062L38.5754 5.04192C39.4873 5.25363 40.0965 6.05733 40.0965 6.94183C40.0965 6.94576 40.0965 6.94991 40.0965 6.95426C40.0966 7.02688 40.0968 7.15587 40.0651 7.29395L37.388 22.4831L36.3523 22.305L39.0321 7.10067C39.0343 7.0884 39.0369 7.07621 39.0399 7.06413C39.0404 7.0621 39.0423 7.05375 39.0436 7.03348C39.045 7.01098 39.0452 6.98582 39.0452 6.94183C39.0452 6.52585 38.759 6.15278 38.3378 6.05356C37.8555 5.94897 37.3825 6.22771 37.2511 6.68975L33.1217 21.1304L32.11 20.8481L36.2391 6.40858C36.2391 6.40846 36.239 6.40869 36.2391 6.40858Z" fill="black"/>
<path fill-rule="evenodd" clip-rule="evenodd" d="M39.9587 29.9033L50.5199 40.6645C50.5202 40.6648 50.5205 40.6651 50.5208 40.6654C51.2494 41.4023 51.2598 42.5831 50.552 43.3413C49.9251 44.0178 48.9141 44.1594 48.1292 43.7081C48.0264 43.6498 47.9289 43.5803 47.8467 43.5124L35.8962 33.6062L36.572 32.8107L48.5208 42.7156C48.5209 42.7156 48.5207 42.7155 48.5208 42.7156C48.5632 42.7505 48.6112 42.784 48.6536 42.8081L48.6572 42.8101C49.0186 43.0184 49.4866 42.9534 49.7769 42.6397L49.7787 42.6378C50.1125 42.2807 50.102 41.7277 49.7683 41.3906L49.7667 41.3889L39.2038 30.6261L39.9587 29.9033Z" fill="black"/>
<path fill-rule="evenodd" clip-rule="evenodd" d="M12.2894 32.0599L26.9189 26.7611L27.2808 27.7361L12.6535 33.0341C12.5857 33.0594 12.5423 33.0788 12.504 33.1002C12.1387 33.3119 11.9616 33.7459 12.0865 34.1508C12.235 34.6241 12.7188 34.8844 13.1787 34.7625L13.1858 34.7606L27.8674 31.0835L28.1257 32.0901L13.4474 35.7664C12.4281 36.0345 11.3921 35.4484 11.0818 34.4566L11.0813 34.4551C10.8107 33.5802 11.1958 32.6519 11.9761 32.2022L11.9796 32.2002C12.0866 32.1396 12.1884 32.0974 12.2853 32.0614L12.2894 32.0599Z" fill="black"/>
<path d="M33.4604 31.6178C35.7985 31.6178 37.6939 29.7403 37.6939 27.4242C37.6939 25.1082 35.7985 23.2307 33.4604 23.2307C31.1224 23.2307 29.227 25.1082 29.227 27.4242C29.227 29.7403 31.1224 31.6178 33.4604 31.6178Z" fill="#FFC000"/>
<path fill-rule="evenodd" clip-rule="evenodd" d="M33.4604 23.7499C31.4141 23.7499 29.7526 25.3936 29.7526 27.4242C29.7526 29.4549 31.4141 31.0986 33.4604 31.0986C35.5068 31.0986 37.1683 29.4549 37.1683 27.4242C37.1683 25.3936 35.5068 23.7499 33.4604 23.7499ZM28.7013 27.4242C28.7013 24.8228 30.8307 22.7114 33.4604 22.7114C36.0902 22.7114 38.2196 24.8228 38.2196 27.4242C38.2196 30.0257 36.0902 32.137 33.4604 32.137C30.8307 32.137 28.7013 30.0257 28.7013 27.4242Z" fill="black"/>
<path fill-rule="evenodd" clip-rule="evenodd" d="M41.9065 59.0028H24.274V57.9643H41.9065V59.0028Z" fill="black"/>
<path fill-rule="evenodd" clip-rule="evenodd" d="M18.4853 36.5708C20.6116 39.9608 23.8924 42.5686 27.7697 43.8723L27.4309 44.8553C23.3209 43.4734 19.8449 40.7102 17.5917 37.1178L18.4853 36.5708Z" fill="black"/>
<path fill-rule="evenodd" clip-rule="evenodd" d="M38.7737 43.9522C40.4131 43.4309 41.9416 42.679 43.329 41.736L43.9249 42.5915C42.4553 43.5903 40.8348 44.3877 39.0958 44.9407L38.7737 43.9522Z" fill="black"/>
<path fill-rule="evenodd" clip-rule="evenodd" d="M50.9531 27.3933C50.9531 20.4029 46.7925 14.3848 40.7874 11.6163L41.2321 10.6752C47.5938 13.6083 52.0044 19.985 52.0044 27.3933C52.0044 30.7614 51.0924 33.9187 49.4934 36.6401L48.5841 36.1188C50.0924 33.5518 50.9531 30.5737 50.9531 27.3933Z" fill="black"/>
<path fill-rule="evenodd" clip-rule="evenodd" d="M33.4083 10.0123C23.7106 10.0123 15.853 17.7938 15.853 27.4036C15.853 27.6737 15.8625 27.9354 15.8726 28.2169L15.8736 28.2424L14.8229 28.2794L14.8218 28.2474C14.8118 27.9708 14.8018 27.6926 14.8018 27.4036C14.8018 17.223 23.1273 8.97388 33.4083 8.97388V10.0123Z" fill="black"/>
<path fill-rule="evenodd" clip-rule="evenodd" d="M31.2942 36.0791L29.5216 58.4518L28.4735 58.3707L30.2461 35.9981L31.2942 36.0791Z" fill="black"/>
<path fill-rule="evenodd" clip-rule="evenodd" d="M37.2845 58.4519L35.5119 36.1619L36.56 36.0806L38.3326 58.3706L37.2845 58.4519Z" fill="black"/>
</g>
<defs>
<clipPath id="clip0_7075_8293">
<rect width="41" height="54" fill="white" transform="translate(11 5)"/>
</clipPath>
</defs>
</svg>
