<svg width="64" height="64" viewBox="0 0 64 64" fill="none" xmlns="http://www.w3.org/2000/svg">
<g clip-path="url(#clip0_7075_8269)">
<path fill-rule="evenodd" clip-rule="evenodd" d="M20.7473 58.353L27.8197 30.3616L28.7892 30.6065L21.7168 58.598L20.7473 58.353Z" fill="black"/>
<path fill-rule="evenodd" clip-rule="evenodd" d="M36.2128 30.3628L43.2108 58.3542L42.2406 58.5968L35.2427 30.6053L36.2128 30.3628Z" fill="black"/>
<path fill-rule="evenodd" clip-rule="evenodd" d="M47.9369 58.9756H16.0208V57.9756H47.9369V58.9756Z" fill="black"/>
<path fill-rule="evenodd" clip-rule="evenodd" d="M21 58.1414L39.439 46L40 46.8586L21.561 59L21 58.1414Z" fill="black"/>
<path fill-rule="evenodd" clip-rule="evenodd" d="M24.561 46L43 58.1414L42.439 59L24 46.8586L24.561 46Z" fill="black"/>
<path d="M32.9519 16.6877H31.0482L29.3147 5.52466H34.6855L32.9519 16.6877Z" fill="#FFC000"/>
<path fill-rule="evenodd" clip-rule="evenodd" d="M28.935 5.19936C29.03 5.08848 29.1687 5.02466 29.3147 5.02466H34.6855C34.8315 5.02466 34.9702 5.08848 35.0652 5.19936C35.1602 5.31024 35.2019 5.45711 35.1795 5.60138L33.446 16.7644C33.4082 17.008 33.1984 17.1877 32.9519 17.1877H31.0482C30.8017 17.1877 30.592 17.008 30.5542 16.7644L28.8206 5.60138C28.7982 5.45711 28.84 5.31024 28.935 5.19936ZM29.8983 6.02466L31.4766 16.1877H32.5236L34.1018 6.02466H29.8983Z" fill="black"/>
<path fill-rule="evenodd" clip-rule="evenodd" d="M31.4949 20.9263V16.6877H32.4949V20.9263H31.4949Z" fill="black"/>
<path d="M21.6892 15.2923L17.7542 12.4386L21.5403 8.70361L24.784 13.0471" fill="#FFC000"/>
<path fill-rule="evenodd" clip-rule="evenodd" d="M21.5779 8.20503C21.722 8.21592 21.8544 8.28863 21.9409 8.40444L25.1846 12.7479L24.3834 13.3463L21.483 9.4625L18.5253 12.3802L21.9827 14.8875L21.3956 15.6971L17.4606 12.8434C17.3417 12.7571 17.2667 12.6229 17.2556 12.4764C17.2445 12.3298 17.2984 12.1859 17.403 12.0827L21.1891 8.34767C21.292 8.24616 21.4338 8.19415 21.5779 8.20503Z" fill="black"/>
<path fill-rule="evenodd" clip-rule="evenodd" d="M30.3354 21.8172L27.2937 18.8166L27.996 18.1047L31.0376 21.1053L30.3354 21.8172Z" fill="black"/>
<path d="M25.8475 21.818V23.696L14.5317 25.4061V20.1079L25.8475 21.818Z" fill="#FFC000"/>
<path fill-rule="evenodd" clip-rule="evenodd" d="M14.2057 19.7289C14.3161 19.6339 14.4624 19.5918 14.6065 19.6135L25.9223 21.3237C26.1668 21.3606 26.3475 21.5707 26.3475 21.818V23.696C26.3475 23.9433 26.1668 24.1535 25.9223 24.1904L14.6065 25.9005C14.4624 25.9223 14.3161 25.8802 14.2057 25.7852C14.0952 25.6902 14.0317 25.5518 14.0317 25.4061V20.1079C14.0317 19.9623 14.0952 19.8238 14.2057 19.7289ZM15.0317 20.6892V24.8249L25.3475 23.2659V22.2482L15.0317 20.6892Z" fill="black"/>
<path fill-rule="evenodd" clip-rule="evenodd" d="M30.1443 23.2517H25.8477V22.2517H30.1443V23.2517Z" fill="black"/>
<path d="M24.9861 32.1835L21.5403 36.8103L17.7542 33.0648L22.423 29.676" fill="#FFC000"/>
<path fill-rule="evenodd" clip-rule="evenodd" d="M18.5245 33.1236L22.7167 30.0808L22.1293 29.2715L17.4604 32.6603C17.3417 32.7465 17.2668 32.8805 17.2556 33.0269C17.2444 33.1733 17.2982 33.3171 17.4025 33.4204L21.1886 37.1658C21.2915 37.2677 21.4335 37.3199 21.5779 37.309C21.7223 37.2981 21.8548 37.2251 21.9413 37.109L25.3871 32.4823L24.5851 31.885L21.4829 36.0503L18.5245 33.1236Z" fill="black"/>
<path fill-rule="evenodd" clip-rule="evenodd" d="M31.0371 24.4092L27.9955 27.3993L27.2944 26.6861L30.3361 23.696L31.0371 24.4092Z" fill="black"/>
<path d="M31.0482 28.8262H32.9519L34.6855 39.9892H29.3147L31.0482 28.8262Z" fill="#FFC000"/>
<path fill-rule="evenodd" clip-rule="evenodd" d="M30.5542 28.7494C30.592 28.5058 30.8017 28.3262 31.0482 28.3262H32.9519C33.1984 28.3262 33.4082 28.5058 33.446 28.7494L35.1795 39.9125C35.2019 40.0567 35.1602 40.2036 35.0652 40.3145C34.9702 40.4254 34.8315 40.4892 34.6855 40.4892H29.3147C29.1687 40.4892 29.03 40.4254 28.935 40.3145C28.84 40.2036 28.7982 40.0567 28.8206 39.9125L30.5542 28.7494ZM31.4766 29.3262L29.8983 39.4892H34.1018L32.5236 29.3262H31.4766Z" fill="black"/>
<path fill-rule="evenodd" clip-rule="evenodd" d="M32.4949 24.5876V28.8262H31.4949V24.5876H32.4949Z" fill="black"/>
<path d="M41.29 29.4768L46.246 33.0649L42.4492 36.8104L38.5674 31.5961" fill="#FFC000"/>
<path fill-rule="evenodd" clip-rule="evenodd" d="M45.4744 33.1236L40.9967 29.8818L41.5831 29.0718L46.5391 32.6599C46.6582 32.7461 46.7333 32.8803 46.7445 33.0269C46.7556 33.1735 46.7017 33.3176 46.597 33.4208L42.8003 37.1663C42.6973 37.2679 42.5554 37.3199 42.4111 37.3089C42.2669 37.2979 42.1345 37.225 42.0481 37.1089L38.1663 31.8946L38.9684 31.2975L42.5071 36.0509L45.4744 33.1236Z" fill="black"/>
<path fill-rule="evenodd" clip-rule="evenodd" d="M33.6647 23.6968L36.6957 26.6869L35.9934 27.3988L32.9624 24.4087L33.6647 23.6968Z" fill="black"/>
<path d="M38.1526 23.696V21.818L49.4684 20.1079V25.4061L38.1526 23.696Z" fill="#FFC000"/>
<path fill-rule="evenodd" clip-rule="evenodd" d="M49.7945 19.7289C49.9049 19.8238 49.9684 19.9623 49.9684 20.1079V25.4061C49.9684 25.5518 49.9049 25.6902 49.7945 25.7852C49.684 25.8802 49.5377 25.9223 49.3937 25.9005L38.0779 24.1904C37.8334 24.1535 37.6526 23.9433 37.6526 23.696V21.818C37.6526 21.5707 37.8334 21.3606 38.0779 21.3237L49.3937 19.6135C49.5377 19.5918 49.684 19.6339 49.7945 19.7289ZM38.6526 22.2482V23.2659L48.9684 24.8249V20.6892L38.6526 22.2482Z" fill="black"/>
<path fill-rule="evenodd" clip-rule="evenodd" d="M33.856 22.2517H38.1526V23.2517H33.856V22.2517Z" fill="black"/>
<path d="M39.0032 13.3304L42.449 8.70361L46.2457 12.4386L41.6407 15.7854" fill="#FFC000"/>
<path fill-rule="evenodd" clip-rule="evenodd" d="M42.4108 8.20509C42.5549 8.19401 42.6967 8.24582 42.7997 8.34717L46.5965 12.0822C46.7013 12.1852 46.7554 12.3292 46.7445 12.4758C46.7335 12.6223 46.6587 12.7567 46.5398 12.8431L41.9348 16.1899L41.3469 15.3809L45.4744 12.3811L42.5074 9.46238L39.4043 13.629L38.6023 13.0317L42.0481 8.40496C42.1344 8.28905 42.2667 8.21617 42.4108 8.20509Z" fill="black"/>
<path fill-rule="evenodd" clip-rule="evenodd" d="M32.9617 21.1061L35.9927 18.1055L36.6962 18.8161L33.6652 21.8167L32.9617 21.1061Z" fill="black"/>
<path fill-rule="evenodd" clip-rule="evenodd" d="M31.9947 21.4158C31.2365 21.4158 30.6335 22.0203 30.6335 22.7518C30.6335 23.4833 31.2365 24.0878 31.9947 24.0878C32.7529 24.0878 33.3558 23.4833 33.3558 22.7518C33.3558 22.0203 32.7529 21.4158 31.9947 21.4158ZM29.6335 22.7518C29.6335 21.4553 30.6971 20.4158 31.9947 20.4158C33.2923 20.4158 34.3558 21.4553 34.3558 22.7518C34.3558 24.0483 33.2923 25.0878 31.9947 25.0878C30.6971 25.0878 29.6335 24.0483 29.6335 22.7518Z" fill="black"/>
</g>
<defs>
<clipPath id="clip0_7075_8269">
<rect width="36" height="54" fill="white" transform="translate(14 5)"/>
</clipPath>
</defs>
</svg>
