<svg width="64" height="64" viewBox="0 0 64 64" fill="none" xmlns="http://www.w3.org/2000/svg">
<path d="M33.7022 34.582C34.846 34.582 35.7731 33.6476 35.7731 32.495C35.7731 31.3424 34.846 30.408 33.7022 30.408C32.5585 30.408 31.6313 31.3424 31.6313 32.495C31.6313 33.6476 32.5585 34.582 33.7022 34.582Z" fill="#FFC000"/>
<path fill-rule="evenodd" clip-rule="evenodd" d="M28.6828 8.50809C30.2999 8.16298 31.976 7.98999 33.7022 7.98999C47.1309 7.98999 58.0139 18.9618 58.0139 32.4952C58.0139 46.0285 47.1214 57.0004 33.7022 57.0004C20.5179 57.0004 9.76377 46.4189 9.39074 33.205L13.0781 36.8766L13.7836 36.168L8.91269 31.3178L8.8856 31.345L8.85851 31.3178L3.98755 36.168L4.69314 36.8766L8.3901 33.1954C8.75854 46.96 19.9562 58.0004 33.7022 58.0004C47.6809 58.0004 59.0139 46.5734 59.0139 32.4952C59.0139 18.4171 47.6908 6.98999 33.7022 6.98999C31.9089 6.98999 30.1627 7.16973 28.4741 7.53011L28.474 7.53012C27.3038 7.77998 26.1629 8.10989 25.0515 8.51991C23.6634 9.02955 22.3442 9.64928 21.0846 10.379L21.0841 10.3792C15.7485 13.4776 11.6433 18.4744 9.66987 24.4508L10.6194 24.7643C12.5156 19.022 16.4605 14.2206 21.5862 11.244C22.7959 10.5433 24.0626 9.94819 25.3965 9.45849L25.3973 9.45822C26.4635 9.06484 27.5587 8.74811 28.6828 8.50809ZM32.1313 32.4952C32.1313 31.615 32.8383 30.9082 33.7022 30.9082C34.5661 30.9082 35.2731 31.615 35.2731 32.4952C35.2731 33.3754 34.5661 34.0822 33.7022 34.0822C32.8383 34.0822 32.1313 33.3754 32.1313 32.4952ZM34.2022 10.0865V29.957C35.385 30.1914 36.2731 31.2415 36.2731 32.4952C36.2731 33.9203 35.1257 35.0822 33.7022 35.0822C32.2787 35.0822 31.1313 33.9203 31.1313 32.4952C31.1313 32.0616 31.2375 31.6523 31.4255 31.2927L22.1762 21.9713L22.886 21.2669L32.0557 30.5082C32.3797 30.2359 32.7714 30.0424 33.2022 29.957V10.0865H34.2022Z" fill="#010100"/>
</svg>
