<?xml version="1.0" encoding="UTF-8" standalone="no"?>
<!DOCTYPE svg PUBLIC "-//W3C//DTD SVG 1.1//EN"
 "http://www.w3.org/Graphics/SVG/1.1/DTD/svg11.dtd">
<!-- Generated by graphviz version 2.43.0 (0)
 -->
<!-- Title: Multi&#45;Region Global Architecture Pages: 1 -->
<svg width="1041pt" height="369pt"
 viewBox="0.00 0.00 1041.00 369.00" xmlns="http://www.w3.org/2000/svg" xmlns:xlink="http://www.w3.org/1999/xlink">
<g id="graph0" class="graph" transform="scale(1 1) rotate(0) translate(72 297)">
<title>Multi&#45;Region Global Architecture</title>
<polygon fill="#000000" stroke="transparent" points="-72,72 -72,-297 969,-297 969,72 -72,72"/>
<text text-anchor="middle" x="448.5" y="-10.8" font-family="Arial" font-size="24.00" fill="#ffc000">Multi&#45;Region Global Architecture</text>
<g id="clust2" class="cluster">
<title>cluster_EU&#45;West (Disaster Recovery)</title>
<path fill="#181818" stroke="#aeb6be" d="M733,-42C733,-42 885,-42 885,-42 891,-42 897,-48 897,-54 897,-54 897,-205 897,-205 897,-211 891,-217 885,-217 885,-217 733,-217 733,-217 727,-217 721,-211 721,-205 721,-205 721,-54 721,-54 721,-48 727,-42 733,-42"/>
<text text-anchor="middle" x="809" y="-203.4" font-family="Sans-Serif" font-size="12.00" fill="white">EU&#45;West (Disaster Recovery)</text>
</g>
<g id="clust1" class="cluster">
<title>cluster_US&#45;East (Primary)</title>
<path fill="#181818" stroke="#aeb6be" d="M20,-42C20,-42 517,-42 517,-42 523,-42 529,-48 529,-54 529,-54 529,-205 529,-205 529,-211 523,-217 517,-217 517,-217 20,-217 20,-217 14,-217 8,-211 8,-205 8,-205 8,-54 8,-54 8,-48 14,-42 20,-42"/>
<text text-anchor="middle" x="66" y="-203.4" font-family="Sans-Serif" font-size="12.00" fill="white">US&#45;East (Primary)</text>
</g>
<!-- 94ef4c04a0064a258ccb7303dff1e944 -->
<g id="node1" class="node">
<title>94ef4c04a0064a258ccb7303dff1e944</title>
<polygon fill="#ffc000" stroke="black" stroke-width="0" points="117,-155 16,-155 16,-83 117,-83 117,-155"/>
<image xlink:href="/home/bill/src/ai/ai-dac/.venv/lib/python3.13/site-packages/resources/generic/device/tablet.png" width="72px" height="72px" preserveAspectRatio="xMinYMin meet" x="30.5" y="-155"/>
<text text-anchor="middle" x="66.5" y="-86.8" font-family="Sans-Serif" font-size="14.00" fill="#000000">Factory Assets</text>
</g>
<!-- 649f04dbc3f14d59bf0664d69c745068 -->
<g id="node2" class="node">
<title>649f04dbc3f14d59bf0664d69c745068</title>
<text text-anchor="middle" x="240.5" y="-54.1" font-family="Sans-Serif" font-size="13.00" fill="#2d3436">Baltimore Edge</text>
</g>
<!-- 94ef4c04a0064a258ccb7303dff1e944&#45;&gt;649f04dbc3f14d59bf0664d69c745068 -->
<g id="edge1" class="edge">
<title>94ef4c04a0064a258ccb7303dff1e944&#45;&gt;649f04dbc3f14d59bf0664d69c745068</title>
<path fill="none" stroke="#7b8894" d="M117.3,-119C117.3,-119 179.94,-119 179.94,-119"/>
<polygon fill="#7b8894" stroke="#7b8894" points="179.94,-122.5 189.94,-119 179.94,-115.5 179.94,-122.5"/>
</g>
<!-- dceb6a50716c4ae9ac075c472e85f7d0 -->
<g id="node3" class="node">
<title>dceb6a50716c4ae9ac075c472e85f7d0</title>
<text text-anchor="middle" x="470.5" y="-54.1" font-family="Sans-Serif" font-size="13.00" fill="#2d3436">US Broker Cluster</text>
</g>
<!-- 649f04dbc3f14d59bf0664d69c745068&#45;&gt;dceb6a50716c4ae9ac075c472e85f7d0 -->
<g id="edge2" class="edge">
<title>649f04dbc3f14d59bf0664d69c745068&#45;&gt;dceb6a50716c4ae9ac075c472e85f7d0</title>
<path fill="none" stroke="#ffc000" d="M291.26,-119C291.26,-119 409.87,-119 409.87,-119"/>
<polygon fill="#ffc000" stroke="#ffc000" points="409.87,-122.5 419.87,-119 409.87,-115.5 409.87,-122.5"/>
<text text-anchor="middle" x="355.5" y="-125.6" font-family="Sans-Serif" font-size="13.00" fill="#2d3436">spB / TLS</text>
</g>
<!-- 0bc1c2e5ee54417bbeef8f11a58ea95f -->
<g id="node4" class="node">
<title>0bc1c2e5ee54417bbeef8f11a58ea95f</title>
<text text-anchor="middle" x="808.5" y="-54.1" font-family="Sans-Serif" font-size="13.00" fill="#2d3436">EU DR Cluster</text>
</g>
<!-- dceb6a50716c4ae9ac075c472e85f7d0&#45;&gt;0bc1c2e5ee54417bbeef8f11a58ea95f -->
<g id="edge3" class="edge">
<title>dceb6a50716c4ae9ac075c472e85f7d0&#45;&gt;0bc1c2e5ee54417bbeef8f11a58ea95f</title>
<path fill="none" stroke="#ffc000" stroke-dasharray="5,2" d="M521.1,-119C521.1,-119 747.83,-119 747.83,-119"/>
<polygon fill="#ffc000" stroke="#ffc000" points="747.83,-122.5 757.83,-119 747.83,-115.5 747.83,-122.5"/>
<text text-anchor="middle" x="625" y="-122.6" font-family="Sans-Serif" font-size="13.00" fill="#ffc000">Cloud&#45;to&#45;Cloud Bridge</text>
</g>
</g>
</svg>
